<?xml version="1.0" encoding="UTF-8"?>
<svg xmlns="http://www.w3.org/2000/svg"
     xmlns:xlink="http://www.w3.org/1999/xlink"
     xmlns:gadfly="http://www.gadflyjl.org/ns"
     version="1.2"
     width="90mm" height="90mm" viewBox="0 0 90 90"
     stroke="none"
     fill="#000000"
     stroke-width="0.3"
     font-size="3.88"
>
<g stroke="#000000" stroke-opacity="0.000" fill="#FFFFFF" id="img-540d2243-1">
  <rect x="0" y="0" width="90" height="90"/>
</g>
<g class="plotroot xscalable yscalable" id="img-540d2243-2">
  <g class="guide xlabels" font-size="2.82" font-family="Gill Sans" fill="#6C606B" id="img-540d2243-3">
    <text x="19.67" y="82.03" text-anchor="middle" dy="0.6em">1</text>
    <text x="32.33" y="82.03" text-anchor="middle" dy="0.6em">2</text>
    <text x="45" y="82.03" text-anchor="middle" dy="0.6em">3</text>
    <text x="57.67" y="82.03" text-anchor="middle" dy="0.6em">4</text>
    <text x="70.33" y="82.03" text-anchor="middle" dy="0.6em">5</text>
  </g>
<g clip-path="url(#img-540d2243-4)">
  <g id="img-540d2243-5">
    <g pointer-events="visible" opacity="1" fill="#000000" fill-opacity="0.000" stroke="#000000" stroke-opacity="0.000" class="guide background" id="img-540d2243-6">
      <rect x="5" y="10.67" width="80" height="70.36"/>
    </g>
    <g class="guide xgridlines yfixed" stroke-dasharray="0.5,0.5" stroke-width="0" stroke="#D0D0E0" id="img-540d2243-7">
      <path fill="none" d="M19.67,10.67 L 19.67 81.03"/>
      <path fill="none" d="M32.33,10.67 L 32.33 81.03"/>
      <path fill="none" d="M45,10.67 L 45 81.03"/>
      <path fill="none" d="M57.67,10.67 L 57.67 81.03"/>
      <path fill="none" d="M70.33,10.67 L 70.33 81.03"/>
    </g>
    <g class="plotpanel" id="img-540d2243-8">
      <g shape-rendering="crispEdges" stroke-width="0.3" id="img-540d2243-9">
        <g stroke="#000000" stroke-opacity="0.000" fill="#D3D3D3" class="geometry" id="img-540d2243-10">
          <rect x="17.74" y="79.03" width="3.85" height="0.01"/>
          <rect x="30.41" y="72.39" width="3.85" height="6.64"/>
          <rect x="43.08" y="72.39" width="3.85" height="6.64"/>
          <rect x="55.74" y="32.57" width="3.85" height="46.45"/>
          <rect x="68.41" y="39.21" width="3.85" height="39.82"/>
        </g>
      </g>
    </g>
  </g>
</g>
  <g font-size="3.88" font-family="Gill Sans" fill="#564A55" stroke="#000000" stroke-opacity="0.000" id="img-540d2243-11">
    <text x="45" y="5" text-anchor="middle" dy="0.6em">Rate the T.A.'s overall teaching effectiveness</text>
  </g>
</g>
<defs>
  <clipPath id="img-540d2243-4">
  <path d="M5,10.67 L 85 10.67 85 81.03 5 81.03" />
</clipPath>
</defs>
</svg>
