<?xml version="1.0" encoding="UTF-8"?>
<svg xmlns="http://www.w3.org/2000/svg"
     xmlns:xlink="http://www.w3.org/1999/xlink"
     xmlns:gadfly="http://www.gadflyjl.org/ns"
     version="1.2"
     width="90mm" height="90mm" viewBox="0 0 90 90"
     stroke="none"
     fill="#000000"
     stroke-width="0.3"
     font-size="3.88"
>
<g stroke="#000000" stroke-opacity="0.000" fill="#FFFFFF" id="img-1d180baf-1">
  <rect x="0" y="0" width="90" height="90"/>
</g>
<g class="plotroot xscalable yscalable" id="img-1d180baf-2">
  <g font-size="3.88" font-family="Gill Sans" fill="#564A55" stroke="#000000" stroke-opacity="0.000" id="img-1d180baf-3">
    <text x="49.5" y="80.26" text-anchor="middle" dy="0.6em">x</text>
  </g>
  <g class="guide xlabels" font-size="2.82" font-family="Gill Sans" fill="#6C606B" id="img-1d180baf-4">
    <text x="16" y="74.28" text-anchor="middle" dy="0.6em">0</text>
    <text x="27.16" y="74.28" text-anchor="middle" dy="0.6em">1</text>
    <text x="38.33" y="74.28" text-anchor="middle" dy="0.6em">2</text>
    <text x="49.5" y="74.28" text-anchor="middle" dy="0.6em">3</text>
    <text x="60.67" y="74.28" text-anchor="middle" dy="0.6em">4</text>
    <text x="71.83" y="74.28" text-anchor="middle" dy="0.6em">5</text>
    <text x="83" y="74.28" text-anchor="middle" dy="0.6em">6</text>
  </g>
<g clip-path="url(#img-1d180baf-5)">
  <g id="img-1d180baf-6">
    <g pointer-events="visible" opacity="1" fill="#000000" fill-opacity="0.000" stroke="#000000" stroke-opacity="0.000" class="guide background" id="img-1d180baf-7">
      <rect x="14" y="10.67" width="71" height="62.62"/>
    </g>
    <g class="guide ygridlines xfixed" stroke-dasharray="0.5,0.5" stroke-width="0" stroke="#D0D0E0" id="img-1d180baf-8">
      <path fill="none" d="M14,71.28 L 85 71.28"/>
      <path fill="none" d="M14,56.63 L 85 56.63"/>
      <path fill="none" d="M14,41.97 L 85 41.97"/>
      <path fill="none" d="M14,27.32 L 85 27.32"/>
      <path fill="none" d="M14,12.67 L 85 12.67"/>
    </g>
    <g class="guide xgridlines yfixed" stroke-dasharray="0.5,0.5" stroke-width="0" stroke="#D0D0E0" id="img-1d180baf-9">
      <path fill="none" d="M16,10.67 L 16 73.28"/>
      <path fill="none" d="M27.16,10.67 L 27.16 73.28"/>
      <path fill="none" d="M38.33,10.67 L 38.33 73.28"/>
      <path fill="none" d="M49.5,10.67 L 49.5 73.28"/>
      <path fill="none" d="M60.67,10.67 L 60.67 73.28"/>
      <path fill="none" d="M71.83,10.67 L 71.83 73.28"/>
      <path fill="none" d="M83,10.67 L 83 73.28"/>
    </g>
    <g class="plotpanel" id="img-1d180baf-10">
      <g shape-rendering="crispEdges" stroke-width="0.3" id="img-1d180baf-11">
        <g stroke="#000000" stroke-opacity="0.000" fill="#D3D3D3" class="geometry" id="img-1d180baf-12">
          <rect x="25.99" y="71.28" width="2.35" height="0.01"/>
          <rect x="37.16" y="63.96" width="2.35" height="7.33"/>
          <rect x="48.33" y="63.96" width="2.35" height="7.33"/>
          <rect x="59.49" y="19.99" width="2.35" height="51.29"/>
          <rect x="70.66" y="27.32" width="2.35" height="43.96"/>
        </g>
      </g>
    </g>
  </g>
</g>
  <g class="guide ylabels" font-size="2.82" font-family="Gill Sans" fill="#6C606B" id="img-1d180baf-13">
    <text x="13" y="71.28" text-anchor="end" dy="0.35em">0</text>
    <text x="13" y="56.63" text-anchor="end" dy="0.35em">2</text>
    <text x="13" y="41.97" text-anchor="end" dy="0.35em">4</text>
    <text x="13" y="27.32" text-anchor="end" dy="0.35em">6</text>
    <text x="13" y="12.67" text-anchor="end" dy="0.35em">8</text>
  </g>
  <g font-size="3.88" font-family="Gill Sans" fill="#564A55" stroke="#000000" stroke-opacity="0.000" id="img-1d180baf-14">
    <text x="8.7" y="41.97" text-anchor="end" dy="0.35em">y</text>
  </g>
  <g font-size="3.88" font-family="Gill Sans" fill="#564A55" stroke="#000000" stroke-opacity="0.000" id="img-1d180baf-15">
    <text x="49.5" y="5" text-anchor="middle" dy="0.6em">Rate the T.A.'s overall teaching effectiveness</text>
  </g>
</g>
<defs>
  <clipPath id="img-1d180baf-5">
  <path d="M14,10.67 L 85 10.67 85 73.28 14 73.28" />
</clipPath>
</defs>
</svg>
