<?xml version="1.0" encoding="UTF-8"?>
<svg xmlns="http://www.w3.org/2000/svg"
     xmlns:xlink="http://www.w3.org/1999/xlink"
     xmlns:gadfly="http://www.gadflyjl.org/ns"
     version="1.2"
     width="152.4mm" height="101.6mm" viewBox="0 0 152.4 101.6"
     stroke="none"
     fill="#000000"
     stroke-width="0.3"
     font-size="3.88"
>
<g class="plotroot xscalable yscalable" id="img-4aeecca3-1">
  <g font-size="3.88" font-family="'PT Sans','Helvetica Neue','Helvetica',sans-serif" fill="#564A55" stroke="#000000" stroke-opacity="0.000" id="img-4aeecca3-2">
    <text x="82.4" y="89.99" text-anchor="middle" dy="0.6em">x</text>
  </g>
  <g class="guide xlabels" font-size="2.82" font-family="'PT Sans Caption','Helvetica Neue','Helvetica',sans-serif" fill="#6C606B" id="img-4aeecca3-3">
    <text x="19.4" y="83.32" text-anchor="middle" dy="0.6em">-6</text>
    <text x="40.4" y="83.32" text-anchor="middle" dy="0.6em">-4</text>
    <text x="61.4" y="83.32" text-anchor="middle" dy="0.6em">-2</text>
    <text x="82.4" y="83.32" text-anchor="middle" dy="0.6em">0</text>
    <text x="103.4" y="83.32" text-anchor="middle" dy="0.6em">2</text>
    <text x="124.4" y="83.32" text-anchor="middle" dy="0.6em">4</text>
    <text x="145.4" y="83.32" text-anchor="middle" dy="0.6em">6</text>
  </g>
<g clip-path="url(#img-4aeecca3-4)">
  <g id="img-4aeecca3-5">
    <g pointer-events="visible" opacity="1" fill="#000000" fill-opacity="0.000" stroke="#000000" stroke-opacity="0.000" class="guide background" id="img-4aeecca3-6">
      <rect x="17.4" y="5" width="130" height="77.32"/>
    </g>
    <g class="guide ygridlines xfixed" stroke-dasharray="0.5,0.5" stroke-width="0.2" stroke="#D0D0E0" id="img-4aeecca3-7">
      <path fill="none" d="M17.4,80.32 L 147.4 80.32"/>
      <path fill="none" d="M17.4,68.1 L 147.4 68.1"/>
      <path fill="none" d="M17.4,55.88 L 147.4 55.88"/>
      <path fill="none" d="M17.4,43.66 L 147.4 43.66"/>
      <path fill="none" d="M17.4,31.44 L 147.4 31.44"/>
      <path fill="none" d="M17.4,19.22 L 147.4 19.22"/>
      <path fill="none" d="M17.4,7 L 147.4 7"/>
    </g>
    <g class="guide xgridlines yfixed" stroke-dasharray="0.5,0.5" stroke-width="0.2" stroke="#D0D0E0" id="img-4aeecca3-8">
      <path fill="none" d="M19.4,5 L 19.4 82.32"/>
      <path fill="none" d="M40.4,5 L 40.4 82.32"/>
      <path fill="none" d="M61.4,5 L 61.4 82.32"/>
      <path fill="none" d="M82.4,5 L 82.4 82.32"/>
      <path fill="none" d="M103.4,5 L 103.4 82.32"/>
      <path fill="none" d="M124.4,5 L 124.4 82.32"/>
      <path fill="none" d="M145.4,5 L 145.4 82.32"/>
    </g>
    <g class="plotpanel" id="img-4aeecca3-9">
      <g stroke-width="0.3" fill="#000000" fill-opacity="0.000" class="geometry" stroke-dasharray="none" stroke="#2D637F" id="img-4aeecca3-10">
        <path fill="none" d="M24.65,44.01 L 24.86 43.99 25.07 43.97 25.28 43.95 25.49 43.93 25.7 43.91 25.91 43.89 26.12 43.88 26.33 43.86 26.54 43.84 26.75 43.83 26.96 43.81 27.17 43.8 27.38 43.78 27.59 43.77 27.8 43.76 28.01 43.74 28.22 43.73 28.43 43.72 28.64 43.71 28.85 43.7 29.06 43.69 29.27 43.68 29.48 43.67 29.69 43.67 29.9 43.66 30.11 43.65 30.32 43.64 30.53 43.64 30.74 43.63 30.95 43.63 31.16 43.62 31.37 43.62 31.58 43.61 31.79 43.61 32 43.6 32.21 43.6 32.42 43.6 32.63 43.59 32.84 43.59 33.05 43.59 33.26 43.59 33.47 43.59 33.68 43.59 33.89 43.59 34.1 43.58 34.31 43.58 34.52 43.58 34.73 43.59 34.94 43.59 35.15 43.59 35.36 43.59 35.57 43.59 35.78 43.59 35.99 43.59 36.2 43.59 36.41 43.6 36.62 43.6 36.83 43.6 37.04 43.6 37.25 43.61 37.46 43.61 37.67 43.61 37.88 43.61 38.09 43.62 38.3 43.62 38.51 43.62 38.72 43.63 38.93 43.63 39.14 43.64 39.35 43.64 39.56 43.64 39.77 43.65 39.98 43.65 40.19 43.65 40.4 43.66 40.61 43.66 40.82 43.67 41.03 43.67 41.24 43.67 41.45 43.68 41.66 43.68 41.87 43.68 42.08 43.69 42.29 43.69 42.5 43.69 42.71 43.7 42.92 43.7 43.13 43.7 43.34 43.71 43.55 43.71 43.76 43.71 43.97 43.71 44.18 43.72 44.39 43.72 44.6 43.72 44.81 43.72 45.02 43.72 45.23 43.73 45.44 43.73 45.65 43.73 45.86 43.73 46.07 43.73 46.28 43.73 46.49 43.73 46.7 43.73 46.91 43.73 47.12 43.73 47.33 43.73 47.54 43.73 47.75 43.72 47.96 43.72 48.17 43.72 48.38 43.72 48.59 43.72 48.8 43.71 49.01 43.71 49.22 43.7 49.43 43.7 49.64 43.7 49.85 43.69 50.06 43.68 50.27 43.68 50.48 43.67 50.69 43.66 50.9 43.66 51.11 43.65 51.32 43.64 51.53 43.63 51.74 43.62 51.95 43.61 52.16 43.61 52.37 43.6 52.58 43.59 52.79 43.58 53 43.57 53.21 43.56 53.42 43.55 53.63 43.54 53.84 43.53 54.05 43.52 54.26 43.51 54.47 43.5 54.68 43.49 54.89 43.48 55.1 43.48 55.31 43.47 55.52 43.46 55.73 43.46 55.94 43.45 56.15 43.44 56.36 43.44 56.57 43.44 56.78 43.43 56.99 43.43 57.2 43.43 57.41 43.43 57.62 43.43 57.83 43.43 58.04 43.44 58.25 43.44 58.46 43.44 58.67 43.45 58.88 43.46 59.09 43.47 59.3 43.48 59.51 43.49 59.72 43.5 59.93 43.51 60.14 43.53 60.35 43.55 60.56 43.57 60.77 43.59 60.98 43.61 61.19 43.63 61.4 43.66 61.61 43.68 61.82 43.71 62.03 43.74 62.24 43.78 62.45 43.81 62.66 43.84 62.87 43.88 63.08 43.91 63.29 43.95 63.5 43.98 63.71 44.02 63.92 44.06 64.13 44.09 64.34 44.13 64.55 44.16 64.76 44.2 64.97 44.23 65.18 44.26 65.39 44.29 65.6 44.32 65.81 44.35 66.02 44.37 66.23 44.4 66.44 44.42 66.65 44.44 66.86 44.45 67.07 44.47 67.28 44.48 67.49 44.49 67.7 44.49 67.91 44.49 68.12 44.49 68.33 44.49 68.54 44.48 68.75 44.46 68.96 44.45 69.17 44.42 69.38 44.4 69.59 44.37 69.8 44.33 70.01 44.29 70.22 44.24 70.43 44.19 70.64 44.13 70.85 44.07 71.06 44 71.27 43.92 71.48 43.84 71.69 43.75 71.9 43.66 72.11 43.56 72.32 43.45 72.53 43.33 72.74 43.21 72.95 43.09 73.16 42.96 73.37 42.82 73.58 42.68 73.79 42.54 74 42.39 74.21 42.24 74.42 42.09 74.63 41.93 74.84 41.78 75.05 41.62 75.26 41.45 75.47 41.29 75.68 41.13 75.89 40.96 76.1 40.8 76.31 40.64 76.52 40.47 76.73 40.31 76.94 40.15 77.15 39.99 77.36 39.83 77.57 39.68 77.78 39.52 77.99 39.37 78.2 39.23 78.41 39.08 78.62 38.95 78.83 38.81 79.04 38.68 79.25 38.56 79.46 38.44 79.67 38.33 79.88 38.22 80.09 38.12 80.3 38.03 80.51 37.94 80.72 37.86 80.93 37.79 81.14 37.73 81.35 37.67 81.56 37.63 81.77 37.59 81.98 37.57 82.19 37.55 82.4 37.55 82.61 37.55 82.82 37.57 83.03 37.59 83.24 37.63 83.45 37.67 83.66 37.73 83.87 37.79 84.08 37.86 84.29 37.94 84.5 38.03 84.71 38.12 84.92 38.22 85.13 38.33 85.34 38.44 85.55 38.56 85.76 38.68 85.97 38.81 86.18 38.95 86.39 39.08 86.6 39.23 86.81 39.37 87.02 39.52 87.23 39.68 87.44 39.83 87.65 39.99 87.86 40.15 88.07 40.31 88.28 40.47 88.49 40.64 88.7 40.8 88.91 40.96 89.12 41.13 89.33 41.29 89.54 41.45 89.75 41.62 89.96 41.78 90.17 41.93 90.38 42.09 90.59 42.24 90.8 42.39 91.01 42.54 91.22 42.68 91.43 42.82 91.64 42.96 91.85 43.09 92.06 43.21 92.27 43.33 92.48 43.45 92.69 43.56 92.9 43.66 93.11 43.75 93.32 43.84 93.53 43.92 93.74 44 93.95 44.07 94.16 44.13 94.37 44.19 94.58 44.24 94.79 44.29 95 44.33 95.21 44.37 95.42 44.4 95.63 44.42 95.84 44.45 96.05 44.46 96.26 44.48 96.47 44.49 96.68 44.49 96.89 44.49 97.1 44.49 97.31 44.49 97.52 44.48 97.73 44.47 97.94 44.45 98.15 44.44 98.36 44.42 98.57 44.4 98.78 44.37 98.99 44.35 99.2 44.32 99.41 44.29 99.62 44.26 99.83 44.23 100.04 44.2 100.25 44.16 100.46 44.13 100.67 44.09 100.88 44.06 101.09 44.02 101.3 43.98 101.51 43.95 101.72 43.91 101.93 43.88 102.14 43.84 102.35 43.81 102.56 43.78 102.77 43.74 102.98 43.71 103.19 43.68 103.4 43.66 103.61 43.63 103.82 43.61 104.03 43.59 104.24 43.57 104.45 43.55 104.66 43.53 104.87 43.51 105.08 43.5 105.29 43.49 105.5 43.48 105.71 43.47 105.92 43.46 106.13 43.45 106.34 43.44 106.55 43.44 106.76 43.44 106.97 43.43 107.18 43.43 107.39 43.43 107.6 43.43 107.81 43.43 108.02 43.43 108.23 43.44 108.44 43.44 108.65 43.44 108.86 43.45 109.07 43.46 109.28 43.46 109.49 43.47 109.7 43.48 109.91 43.48 110.12 43.49 110.33 43.5 110.54 43.51 110.75 43.52 110.96 43.53 111.17 43.54 111.38 43.55 111.59 43.56 111.8 43.57 112.01 43.58 112.22 43.59 112.43 43.6 112.64 43.61 112.85 43.61 113.06 43.62 113.27 43.63 113.48 43.64 113.69 43.65 113.9 43.66 114.11 43.66 114.32 43.67 114.53 43.68 114.74 43.68 114.95 43.69 115.16 43.7 115.37 43.7 115.58 43.7 115.79 43.71 116 43.71 116.21 43.72 116.42 43.72 116.63 43.72 116.84 43.72 117.05 43.72 117.26 43.73 117.47 43.73 117.68 43.73 117.89 43.73 118.1 43.73 118.31 43.73 118.52 43.73 118.73 43.73 118.94 43.73 119.15 43.73 119.36 43.73 119.57 43.73 119.78 43.72 119.99 43.72 120.2 43.72 120.41 43.72 120.62 43.72 120.83 43.71 121.04 43.71 121.25 43.71 121.46 43.71 121.67 43.7 121.88 43.7 122.09 43.7 122.3 43.69 122.51 43.69 122.72 43.69 122.93 43.68 123.14 43.68 123.35 43.68 123.56 43.67 123.77 43.67 123.98 43.67 124.19 43.66 124.4 43.66 124.61 43.65 124.82 43.65 125.03 43.65 125.24 43.64 125.45 43.64 125.66 43.64 125.87 43.63 126.08 43.63 126.29 43.62 126.5 43.62 126.71 43.62 126.92 43.61 127.13 43.61 127.34 43.61 127.55 43.61 127.76 43.6 127.97 43.6 128.18 43.6 128.39 43.6 128.6 43.59 128.81 43.59 129.02 43.59 129.23 43.59 129.44 43.59 129.65 43.59 129.86 43.59 130.07 43.59 130.28 43.58 130.49 43.58 130.7 43.58 130.91 43.59 131.12 43.59 131.33 43.59 131.54 43.59 131.75 43.59 131.96 43.59 132.17 43.59 132.38 43.6 132.59 43.6 132.8 43.6 133.01 43.61 133.22 43.61 133.43 43.62 133.64 43.62 133.85 43.63 134.06 43.63 134.27 43.64 134.48 43.64 134.69 43.65 134.9 43.66 135.11 43.67 135.32 43.67 135.53 43.68 135.74 43.69 135.95 43.7 136.16 43.71 136.37 43.72 136.58 43.73 136.79 43.74 137 43.76 137.21 43.77 137.42 43.78 137.63 43.8 137.84 43.81 138.05 43.83 138.26 43.84 138.47 43.86 138.68 43.88 138.89 43.89 139.1 43.91 139.31 43.93 139.52 43.95 139.73 43.97 139.94 43.99 140.15 44.01"/>
      </g>
    </g>
  </g>
</g>
  <g class="guide ylabels" font-size="2.82" font-family="'PT Sans Caption','Helvetica Neue','Helvetica',sans-serif" fill="#6C606B" id="img-4aeecca3-11">
    <text x="16.4" y="80.32" text-anchor="end" dy="0.35em">-6</text>
    <text x="16.4" y="68.1" text-anchor="end" dy="0.35em">-4</text>
    <text x="16.4" y="55.88" text-anchor="end" dy="0.35em">-2</text>
    <text x="16.4" y="43.66" text-anchor="end" dy="0.35em">0</text>
    <text x="16.4" y="31.44" text-anchor="end" dy="0.35em">2</text>
    <text x="16.4" y="19.22" text-anchor="end" dy="0.35em">4</text>
    <text x="16.4" y="7" text-anchor="end" dy="0.35em">6</text>
  </g>
  <g font-size="3.88" font-family="'PT Sans','Helvetica Neue','Helvetica',sans-serif" fill="#564A55" stroke="#000000" stroke-opacity="0.000" id="img-4aeecca3-12">
    <text x="8.81" y="41.66" text-anchor="middle" dy="0.35em" transform="rotate(-90, 8.81, 43.66)">phi(x)</text>
  </g>
</g>
<defs>
  <clipPath id="img-4aeecca3-4">
  <path d="M17.4,5 L 147.4 5 147.4 82.32 17.4 82.32" />
</clipPath>
</defs>
</svg>
