<?xml version="1.0" encoding="UTF-8"?>
<svg xmlns="http://www.w3.org/2000/svg"
     xmlns:xlink="http://www.w3.org/1999/xlink"
     xmlns:gadfly="http://www.gadflyjl.org/ns"
     version="1.2"
     width="152.4mm" height="101.6mm" viewBox="0 0 152.4 101.6"
     stroke="none"
     fill="#000000"
     stroke-width="0.3"
     font-size="3.88"
>
<g class="plotroot xscalable yscalable" id="img-6ef074f4-1">
  <g font-size="3.88" font-family="'PT Sans','Helvetica Neue','Helvetica',sans-serif" fill="#564A55" stroke="#000000" stroke-opacity="0.000" id="img-6ef074f4-2">
    <text x="75.66" y="89.99" text-anchor="middle" dy="0.6em">x</text>
  </g>
  <g class="guide xlabels" font-size="2.82" font-family="'PT Sans Caption','Helvetica Neue','Helvetica',sans-serif" fill="#6C606B" id="img-6ef074f4-3">
    <text x="19.4" y="83.32" text-anchor="middle" dy="0.6em">-6</text>
    <text x="38.15" y="83.32" text-anchor="middle" dy="0.6em">-4</text>
    <text x="56.91" y="83.32" text-anchor="middle" dy="0.6em">-2</text>
    <text x="75.66" y="83.32" text-anchor="middle" dy="0.6em">0</text>
    <text x="94.42" y="83.32" text-anchor="middle" dy="0.6em">2</text>
    <text x="113.17" y="83.32" text-anchor="middle" dy="0.6em">4</text>
    <text x="131.92" y="83.32" text-anchor="middle" dy="0.6em">6</text>
  </g>
  <g class="guide colorkey" id="img-6ef074f4-4">
    <g fill="#4C404B" font-size="2.82" font-family="'PT Sans','Helvetica Neue','Helvetica',sans-serif" id="img-6ef074f4-5">
      <text x="137.74" y="27.34" dy="0.35em" id="img-6ef074f4-6" class="color_-5.0">-5.0</text>
      <text x="137.74" y="30.96" dy="0.35em" id="img-6ef074f4-7" class="color_-4.0">-4.0</text>
      <text x="137.74" y="34.59" dy="0.35em" id="img-6ef074f4-8" class="color_-3.0">-3.0</text>
      <text x="137.74" y="38.22" dy="0.35em" id="img-6ef074f4-9" class="color_-2.0">-2.0</text>
      <text x="137.74" y="41.84" dy="0.35em" id="img-6ef074f4-10" class="color_-1.0">-1.0</text>
      <text x="137.74" y="45.47" dy="0.35em" id="img-6ef074f4-11" class="color_0.0">0.0</text>
      <text x="137.74" y="49.1" dy="0.35em" id="img-6ef074f4-12" class="color_1.0">1.0</text>
      <text x="137.74" y="52.72" dy="0.35em" id="img-6ef074f4-13" class="color_2.0">2.0</text>
      <text x="137.74" y="56.35" dy="0.35em" id="img-6ef074f4-14" class="color_3.0">3.0</text>
      <text x="137.74" y="59.98" dy="0.35em" id="img-6ef074f4-15" class="color_4.0">4.0</text>
      <text x="137.74" y="63.6" dy="0.35em" id="img-6ef074f4-16" class="color_5.0">5.0</text>
    </g>
    <g stroke="#000000" stroke-opacity="0.000" id="img-6ef074f4-17">
      <rect x="134.92" y="26.43" width="1.81" height="1.81" id="img-6ef074f4-18" class="color_-5.0" fill="#16313F"/>
      <rect x="134.92" y="30.06" width="1.81" height="1.81" id="img-6ef074f4-19" class="color_-4.0" fill="#1D4052"/>
      <rect x="134.92" y="33.68" width="1.81" height="1.81" id="img-6ef074f4-20" class="color_-3.0" fill="#244F65"/>
      <rect x="134.92" y="37.31" width="1.81" height="1.81" id="img-6ef074f4-21" class="color_-2.0" fill="#2B5E78"/>
      <rect x="134.92" y="40.94" width="1.81" height="1.81" id="img-6ef074f4-22" class="color_-1.0" fill="#316C8B"/>
      <rect x="134.92" y="44.56" width="1.81" height="1.81" id="img-6ef074f4-23" class="color_0.0" fill="#387B9E"/>
      <rect x="134.92" y="48.19" width="1.81" height="1.81" id="img-6ef074f4-24" class="color_1.0" fill="#3F8AB1"/>
      <rect x="134.92" y="51.82" width="1.81" height="1.81" id="img-6ef074f4-25" class="color_2.0" fill="#4599C4"/>
      <rect x="134.92" y="55.44" width="1.81" height="1.81" id="img-6ef074f4-26" class="color_3.0" fill="#4CA8D7"/>
      <rect x="134.92" y="59.07" width="1.81" height="1.81" id="img-6ef074f4-27" class="color_4.0" fill="#53B6EA"/>
      <rect x="134.92" y="62.7" width="1.81" height="1.81" id="img-6ef074f4-28" class="color_5.0" fill="#5AC5FD"/>
    </g>
    <g fill="#362A35" font-size="3.88" font-family="'PT Sans','Helvetica Neue','Helvetica',sans-serif" stroke="#000000" stroke-opacity="0.000" id="img-6ef074f4-29">
      <text x="134.92" y="23.52" id="img-6ef074f4-30">Position</text>
    </g>
  </g>
<g clip-path="url(#img-6ef074f4-31)">
  <g id="img-6ef074f4-32">
    <g pointer-events="visible" opacity="1" fill="#000000" fill-opacity="0.000" stroke="#000000" stroke-opacity="0.000" class="guide background" id="img-6ef074f4-33">
      <rect x="17.4" y="5" width="116.53" height="77.32" id="img-6ef074f4-34"/>
    </g>
    <g class="guide ygridlines xfixed" stroke-dasharray="0.5,0.5" stroke-width="0.2" stroke="#D0D0E0" id="img-6ef074f4-35">
      <path fill="none" d="M17.4,80.32 L 133.92 80.32" id="img-6ef074f4-36"/>
      <path fill="none" d="M17.4,68.1 L 133.92 68.1" id="img-6ef074f4-37"/>
      <path fill="none" d="M17.4,55.88 L 133.92 55.88" id="img-6ef074f4-38"/>
      <path fill="none" d="M17.4,43.66 L 133.92 43.66" id="img-6ef074f4-39"/>
      <path fill="none" d="M17.4,31.44 L 133.92 31.44" id="img-6ef074f4-40"/>
      <path fill="none" d="M17.4,19.22 L 133.92 19.22" id="img-6ef074f4-41"/>
      <path fill="none" d="M17.4,7 L 133.92 7" id="img-6ef074f4-42"/>
    </g>
    <g class="guide xgridlines yfixed" stroke-dasharray="0.5,0.5" stroke-width="0.2" stroke="#D0D0E0" id="img-6ef074f4-43">
      <path fill="none" d="M19.4,5 L 19.4 82.32" id="img-6ef074f4-44"/>
      <path fill="none" d="M38.15,5 L 38.15 82.32" id="img-6ef074f4-45"/>
      <path fill="none" d="M56.91,5 L 56.91 82.32" id="img-6ef074f4-46"/>
      <path fill="none" d="M75.66,5 L 75.66 82.32" id="img-6ef074f4-47"/>
      <path fill="none" d="M94.42,5 L 94.42 82.32" id="img-6ef074f4-48"/>
      <path fill="none" d="M113.17,5 L 113.17 82.32" id="img-6ef074f4-49"/>
      <path fill="none" d="M131.92,5 L 131.92 82.32" id="img-6ef074f4-50"/>
    </g>
    <g class="plotpanel" id="img-6ef074f4-51">
      <g stroke-width="0.3" fill="#000000" fill-opacity="0.000" stroke-dasharray="none" id="img-6ef074f4-52">
        <path fill="none" d="M24.09,29.78 L 24.27 30.17 24.46 30.55 24.65 30.93 24.84 31.3 25.02 31.66 25.21 32.01 25.4 32.36 25.59 32.7 25.77 33.04 25.96 33.37 26.15 33.69 26.34 34 26.53 34.31 26.71 34.61 26.9 34.91 27.09 35.2 27.28 35.49 27.46 35.76 27.65 36.04 27.84 36.3 28.03 36.56 28.21 36.82 28.4 37.07 28.59 37.31 28.78 37.55 28.96 37.78 29.15 38.01 29.34 38.23 29.53 38.44 29.71 38.65 29.9 38.86 30.09 39.06 30.28 39.26 30.46 39.45 30.65 39.63 30.84 39.81 31.03 39.99 31.21 40.16 31.4 40.32 31.59 40.48 31.78 40.64 31.96 40.79 32.15 40.94 32.34 41.08 32.53 41.22 32.71 41.36 32.9 41.49 33.09 41.61 33.28 41.73 33.46 41.85 33.65 41.96 33.84 42.07 34.03 42.18 34.21 42.28 34.4 42.38 34.59 42.48 34.78 42.57 34.96 42.65 35.15 42.74 35.34 42.82 35.53 42.9 35.71 42.97 35.9 43.04 36.09 43.11 36.28 43.17 36.46 43.23 36.65 43.29 36.84 43.35 37.03 43.4 37.22 43.45 37.4 43.5 37.59 43.54 37.78 43.58 37.97 43.62 38.15 43.66 38.34 43.69 38.53 43.72 38.72 43.75 38.9 43.78 39.09 43.8 39.28 43.83 39.47 43.85 39.65 43.87 39.84 43.88 40.03 43.9 40.22 43.91 40.4 43.92 40.59 43.93 40.78 43.94 40.97 43.95 41.15 43.95 41.34 43.95 41.53 43.96 41.72 43.96 41.9 43.96 42.09 43.96 42.28 43.95 42.47 43.95 42.65 43.94 42.84 43.94 43.03 43.93 43.22 43.92 43.4 43.91 43.59 43.9 43.78 43.89 43.97 43.88 44.15 43.87 44.34 43.86 44.53 43.85 44.72 43.84 44.9 43.83 45.09 43.81 45.28 43.8 45.47 43.79 45.65 43.77 45.84 43.76 46.03 43.75 46.22 43.74 46.4 43.72 46.59 43.71 46.78 43.7 46.97 43.69 47.15 43.68 47.34 43.67 47.53 43.66 47.72 43.65 47.91 43.64 48.09 43.63 48.28 43.62 48.47 43.62 48.66 43.61 48.84 43.61 49.03 43.6 49.22 43.6 49.41 43.59 49.59 43.59 49.78 43.59 49.97 43.58 50.16 43.58 50.34 43.58 50.53 43.58 50.72 43.58 50.91 43.58 51.09 43.58 51.28 43.58 51.47 43.58 51.66 43.58 51.84 43.58 52.03 43.58 52.22 43.58 52.41 43.58 52.59 43.59 52.78 43.59 52.97 43.59 53.16 43.59 53.34 43.6 53.53 43.6 53.72 43.6 53.91 43.61 54.09 43.61 54.28 43.61 54.47 43.62 54.66 43.62 54.84 43.62 55.03 43.63 55.22 43.63 55.41 43.63 55.59 43.64 55.78 43.64 55.97 43.64 56.16 43.65 56.34 43.65 56.53 43.65 56.72 43.65 56.91 43.66 57.09 43.66 57.28 43.66 57.47 43.66 57.66 43.67 57.84 43.67 58.03 43.67 58.22 43.67 58.41 43.67 58.6 43.67 58.78 43.67 58.97 43.68 59.16 43.68 59.35 43.68 59.53 43.68 59.72 43.68 59.91 43.68 60.1 43.68 60.28 43.68 60.47 43.68 60.66 43.68 60.85 43.68 61.03 43.68 61.22 43.68 61.41 43.68 61.6 43.68 61.78 43.68 61.97 43.68 62.16 43.68 62.35 43.68 62.53 43.67 62.72 43.67 62.91 43.67 63.1 43.67 63.28 43.67 63.47 43.67 63.66 43.67 63.85 43.67 64.03 43.67 64.22 43.67 64.41 43.67 64.6 43.66 64.78 43.66 64.97 43.66 65.16 43.66 65.35 43.66 65.53 43.66 65.72 43.66 65.91 43.66 66.1 43.66 66.28 43.66 66.47 43.66 66.66 43.66 66.85 43.66 67.03 43.66 67.22 43.65 67.41 43.65 67.6 43.65 67.78 43.65 67.97 43.65 68.16 43.65 68.35 43.65 68.53 43.65 68.72 43.65 68.91 43.65 69.1 43.65 69.29 43.65 69.47 43.65 69.66 43.65 69.85 43.65 70.04 43.65 70.22 43.65 70.41 43.65 70.6 43.65 70.79 43.65 70.97 43.65 71.16 43.65 71.35 43.65 71.54 43.65 71.72 43.65 71.91 43.65 72.1 43.65 72.29 43.65 72.47 43.65 72.66 43.65 72.85 43.65 73.04 43.65 73.22 43.65 73.41 43.65 73.6 43.66 73.79 43.66 73.97 43.66 74.16 43.66 74.35 43.66 74.54 43.66 74.72 43.66 74.91 43.66 75.1 43.66 75.29 43.66 75.47 43.66 75.66 43.66 75.85 43.66 76.04 43.66 76.22 43.66 76.41 43.66 76.6 43.66 76.79 43.66 76.97 43.66 77.16 43.66 77.35 43.66 77.54 43.66 77.72 43.66 77.91 43.66 78.1 43.66 78.29 43.66 78.47 43.66 78.66 43.66 78.85 43.66 79.04 43.66 79.23 43.66 79.41 43.66 79.6 43.66 79.79 43.66 79.98 43.66 80.16 43.66 80.35 43.66 80.54 43.66 80.73 43.66 80.91 43.66 81.1 43.66 81.29 43.66 81.48 43.66 81.66 43.66 81.85 43.66 82.04 43.66 82.23 43.66 82.41 43.66 82.6 43.66 82.79 43.66 82.98 43.66 83.16 43.66 83.35 43.66 83.54 43.66 83.73 43.66 83.91 43.66 84.1 43.66 84.29 43.66 84.48 43.66 84.66 43.66 84.85 43.66 85.04 43.66 85.23 43.66 85.41 43.66 85.6 43.66 85.79 43.66 85.98 43.66 86.16 43.66 86.35 43.66 86.54 43.66 86.73 43.66 86.91 43.66 87.1 43.66 87.29 43.66 87.48 43.66 87.66 43.66 87.85 43.66 88.04 43.66 88.23 43.66 88.41 43.66 88.6 43.66 88.79 43.66 88.98 43.66 89.16 43.66 89.35 43.66 89.54 43.66 89.73 43.66 89.92 43.66 90.1 43.66 90.29 43.66 90.48 43.66 90.67 43.66 90.85 43.66 91.04 43.66 91.23 43.66 91.42 43.66 91.6 43.66 91.79 43.66 91.98 43.66 92.17 43.66 92.35 43.66 92.54 43.66 92.73 43.66 92.92 43.66 93.1 43.66 93.29 43.66 93.48 43.66 93.67 43.66 93.85 43.66 94.04 43.66 94.23 43.66 94.42 43.66 94.6 43.66 94.79 43.66 94.98 43.66 95.17 43.66 95.35 43.66 95.54 43.66 95.73 43.66 95.92 43.66 96.1 43.66 96.29 43.66 96.48 43.66 96.67 43.66 96.85 43.66 97.04 43.66 97.23 43.66 97.42 43.66 97.6 43.66 97.79 43.66 97.98 43.66 98.17 43.66 98.35 43.66 98.54 43.66 98.73 43.66 98.92 43.66 99.1 43.66 99.29 43.66 99.48 43.66 99.67 43.66 99.85 43.66 100.04 43.66 100.23 43.66 100.42 43.66 100.61 43.66 100.79 43.66 100.98 43.66 101.17 43.66 101.36 43.66 101.54 43.66 101.73 43.66 101.92 43.66 102.11 43.66 102.29 43.66 102.48 43.66 102.67 43.66 102.86 43.66 103.04 43.66 103.23 43.66 103.42 43.66 103.61 43.66 103.79 43.66 103.98 43.66 104.17 43.66 104.36 43.66 104.54 43.66 104.73 43.66 104.92 43.66 105.11 43.66 105.29 43.66 105.48 43.66 105.67 43.66 105.86 43.66 106.04 43.66 106.23 43.66 106.42 43.66 106.61 43.66 106.79 43.66 106.98 43.66 107.17 43.66 107.36 43.66 107.54 43.66 107.73 43.66 107.92 43.66 108.11 43.66 108.29 43.66 108.48 43.66 108.67 43.66 108.86 43.66 109.04 43.66 109.23 43.66 109.42 43.66 109.61 43.66 109.79 43.66 109.98 43.66 110.17 43.66 110.36 43.66 110.54 43.66 110.73 43.66 110.92 43.66 111.11 43.66 111.3 43.66 111.48 43.66 111.67 43.66 111.86 43.66 112.05 43.66 112.23 43.66 112.42 43.66 112.61 43.66 112.8 43.66 112.98 43.66 113.17 43.66 113.36 43.66 113.55 43.66 113.73 43.66 113.92 43.66 114.11 43.66 114.3 43.66 114.48 43.66 114.67 43.66 114.86 43.66 115.05 43.66 115.23 43.66 115.42 43.66 115.61 43.66 115.8 43.66 115.98 43.66 116.17 43.66 116.36 43.66 116.55 43.66 116.73 43.66 116.92 43.66 117.11 43.66 117.3 43.66 117.48 43.66 117.67 43.66 117.86 43.66 118.05 43.66 118.23 43.66 118.42 43.66 118.61 43.66 118.8 43.66 118.98 43.66 119.17 43.66 119.36 43.66 119.55 43.66 119.73 43.66 119.92 43.66 120.11 43.66 120.3 43.66 120.48 43.66 120.67 43.66 120.86 43.66 121.05 43.66 121.23 43.66 121.42 43.66 121.61 43.66 121.8 43.66 121.99 43.66 122.17 43.66 122.36 43.66 122.55 43.66 122.74 43.66 122.92 43.66 123.11 43.66 123.3 43.66 123.49 43.66 123.67 43.66 123.86 43.66 124.05 43.66 124.24 43.66 124.42 43.66 124.61 43.66 124.8 43.66 124.99 43.66 125.17 43.66 125.36 43.66 125.55 43.66 125.74 43.66 125.92 43.66 126.11 43.66 126.3 43.66 126.49 43.66 126.67 43.66 126.86 43.66 127.05 43.66 127.24 43.66" id="img-6ef074f4-53" class="geometry color_-5.0" stroke="#16313F"/>
        <path fill="none" d="M24.09,59.21 L 24.27 58.36 24.46 57.54 24.65 56.74 24.84 55.96 25.02 55.19 25.21 54.45 25.4 53.72 25.59 53.02 25.77 52.33 25.96 51.66 26.15 51.01 26.34 50.37 26.53 49.75 26.71 49.16 26.9 48.57 27.09 48.01 27.28 47.46 27.46 46.93 27.65 46.41 27.84 45.92 28.03 45.43 28.21 44.97 28.4 44.51 28.59 44.08 28.78 43.66 28.96 43.25 29.15 42.86 29.34 42.48 29.53 42.12 29.71 41.78 29.9 41.44 30.09 41.12 30.28 40.82 30.46 40.52 30.65 40.24 30.84 39.98 31.03 39.72 31.21 39.48 31.4 39.25 31.59 39.04 31.78 38.83 31.96 38.64 32.15 38.46 32.34 38.29 32.53 38.13 32.71 37.98 32.9 37.84 33.09 37.72 33.28 37.6 33.46 37.49 33.65 37.4 33.84 37.31 34.03 37.23 34.21 37.17 34.4 37.11 34.59 37.06 34.78 37.02 34.96 36.99 35.15 36.96 35.34 36.95 35.53 36.94 35.71 36.94 35.9 36.95 36.09 36.96 36.28 36.98 36.46 37.01 36.65 37.05 36.84 37.09 37.03 37.14 37.22 37.19 37.4 37.25 37.59 37.32 37.78 37.39 37.97 37.47 38.15 37.55 38.34 37.63 38.53 37.73 38.72 37.82 38.9 37.92 39.09 38.03 39.28 38.13 39.47 38.25 39.65 38.36 39.84 38.48 40.03 38.6 40.22 38.73 40.4 38.85 40.59 38.98 40.78 39.12 40.97 39.25 41.15 39.39 41.34 39.52 41.53 39.66 41.72 39.8 41.9 39.94 42.09 40.09 42.28 40.23 42.47 40.37 42.65 40.51 42.84 40.66 43.03 40.8 43.22 40.94 43.4 41.09 43.59 41.23 43.78 41.37 43.97 41.51 44.15 41.64 44.34 41.78 44.53 41.92 44.72 42.05 44.9 42.18 45.09 42.31 45.28 42.43 45.47 42.55 45.65 42.67 45.84 42.79 46.03 42.9 46.22 43.01 46.4 43.12 46.59 43.22 46.78 43.32 46.97 43.41 47.15 43.5 47.34 43.58 47.53 43.66 47.72 43.73 47.91 43.8 48.09 43.86 48.28 43.92 48.47 43.97 48.66 44.02 48.84 44.07 49.03 44.11 49.22 44.14 49.41 44.17 49.59 44.2 49.78 44.23 49.97 44.25 50.16 44.26 50.34 44.28 50.53 44.29 50.72 44.29 50.91 44.3 51.09 44.3 51.28 44.3 51.47 44.3 51.66 44.29 51.84 44.28 52.03 44.27 52.22 44.26 52.41 44.24 52.59 44.23 52.78 44.21 52.97 44.19 53.16 44.17 53.34 44.14 53.53 44.12 53.72 44.1 53.91 44.07 54.09 44.04 54.28 44.02 54.47 43.99 54.66 43.96 54.84 43.94 55.03 43.91 55.22 43.88 55.41 43.85 55.59 43.83 55.78 43.8 55.97 43.77 56.16 43.75 56.34 43.72 56.53 43.7 56.72 43.68 56.91 43.66 57.09 43.64 57.28 43.62 57.47 43.6 57.66 43.59 57.84 43.57 58.03 43.56 58.22 43.55 58.41 43.54 58.6 43.53 58.78 43.52 58.97 43.51 59.16 43.51 59.35 43.5 59.53 43.5 59.72 43.49 59.91 43.49 60.1 43.49 60.28 43.49 60.47 43.49 60.66 43.49 60.85 43.49 61.03 43.49 61.22 43.49 61.41 43.49 61.6 43.5 61.78 43.5 61.97 43.51 62.16 43.51 62.35 43.52 62.53 43.52 62.72 43.53 62.91 43.53 63.1 43.54 63.28 43.55 63.47 43.55 63.66 43.56 63.85 43.57 64.03 43.58 64.22 43.58 64.41 43.59 64.6 43.6 64.78 43.61 64.97 43.61 65.16 43.62 65.35 43.63 65.53 43.63 65.72 43.64 65.91 43.65 66.1 43.65 66.28 43.66 66.47 43.66 66.66 43.67 66.85 43.67 67.03 43.68 67.22 43.68 67.41 43.68 67.6 43.69 67.78 43.69 67.97 43.69 68.16 43.69 68.35 43.7 68.53 43.7 68.72 43.7 68.91 43.7 69.1 43.7 69.29 43.7 69.47 43.7 69.66 43.7 69.85 43.7 70.04 43.7 70.22 43.7 70.41 43.7 70.6 43.7 70.79 43.7 70.97 43.7 71.16 43.7 71.35 43.7 71.54 43.7 71.72 43.7 71.91 43.69 72.1 43.69 72.29 43.69 72.47 43.69 72.66 43.69 72.85 43.69 73.04 43.68 73.22 43.68 73.41 43.68 73.6 43.68 73.79 43.68 73.97 43.67 74.16 43.67 74.35 43.67 74.54 43.67 74.72 43.67 74.91 43.66 75.1 43.66 75.29 43.66 75.47 43.66 75.66 43.66 75.85 43.66 76.04 43.65 76.22 43.65 76.41 43.65 76.6 43.65 76.79 43.65 76.97 43.65 77.16 43.65 77.35 43.65 77.54 43.65 77.72 43.65 77.91 43.65 78.1 43.65 78.29 43.65 78.47 43.65 78.66 43.65 78.85 43.65 79.04 43.65 79.23 43.65 79.41 43.65 79.6 43.65 79.79 43.65 79.98 43.65 80.16 43.65 80.35 43.65 80.54 43.65 80.73 43.65 80.91 43.65 81.1 43.65 81.29 43.65 81.48 43.65 81.66 43.65 81.85 43.65 82.04 43.65 82.23 43.65 82.41 43.65 82.6 43.65 82.79 43.65 82.98 43.65 83.16 43.65 83.35 43.65 83.54 43.65 83.73 43.65 83.91 43.65 84.1 43.66 84.29 43.66 84.48 43.66 84.66 43.66 84.85 43.66 85.04 43.66 85.23 43.66 85.41 43.66 85.6 43.66 85.79 43.66 85.98 43.66 86.16 43.66 86.35 43.66 86.54 43.66 86.73 43.66 86.91 43.66 87.1 43.66 87.29 43.66 87.48 43.66 87.66 43.66 87.85 43.66 88.04 43.66 88.23 43.66 88.41 43.66 88.6 43.66 88.79 43.66 88.98 43.66 89.16 43.66 89.35 43.66 89.54 43.66 89.73 43.66 89.92 43.66 90.1 43.66 90.29 43.66 90.48 43.66 90.67 43.66 90.85 43.66 91.04 43.66 91.23 43.66 91.42 43.66 91.6 43.66 91.79 43.66 91.98 43.66 92.17 43.66 92.35 43.66 92.54 43.66 92.73 43.66 92.92 43.66 93.1 43.66 93.29 43.66 93.48 43.66 93.67 43.66 93.85 43.66 94.04 43.66 94.23 43.66 94.42 43.66 94.6 43.66 94.79 43.66 94.98 43.66 95.17 43.66 95.35 43.66 95.54 43.66 95.73 43.66 95.92 43.66 96.1 43.66 96.29 43.66 96.48 43.66 96.67 43.66 96.85 43.66 97.04 43.66 97.23 43.66 97.42 43.66 97.6 43.66 97.79 43.66 97.98 43.66 98.17 43.66 98.35 43.66 98.54 43.66 98.73 43.66 98.92 43.66 99.1 43.66 99.29 43.66 99.48 43.66 99.67 43.66 99.85 43.66 100.04 43.66 100.23 43.66 100.42 43.66 100.61 43.66 100.79 43.66 100.98 43.66 101.17 43.66 101.36 43.66 101.54 43.66 101.73 43.66 101.92 43.66 102.11 43.66 102.29 43.66 102.48 43.66 102.67 43.66 102.86 43.66 103.04 43.66 103.23 43.66 103.42 43.66 103.61 43.66 103.79 43.66 103.98 43.66 104.17 43.66 104.36 43.66 104.54 43.66 104.73 43.66 104.92 43.66 105.11 43.66 105.29 43.66 105.48 43.66 105.67 43.66 105.86 43.66 106.04 43.66 106.23 43.66 106.42 43.66 106.61 43.66 106.79 43.66 106.98 43.66 107.17 43.66 107.36 43.66 107.54 43.66 107.73 43.66 107.92 43.66 108.11 43.66 108.29 43.66 108.48 43.66 108.67 43.66 108.86 43.66 109.04 43.66 109.23 43.66 109.42 43.66 109.61 43.66 109.79 43.66 109.98 43.66 110.17 43.66 110.36 43.66 110.54 43.66 110.73 43.66 110.92 43.66 111.11 43.66 111.3 43.66 111.48 43.66 111.67 43.66 111.86 43.66 112.05 43.66 112.23 43.66 112.42 43.66 112.61 43.66 112.8 43.66 112.98 43.66 113.17 43.66 113.36 43.66 113.55 43.66 113.73 43.66 113.92 43.66 114.11 43.66 114.3 43.66 114.48 43.66 114.67 43.66 114.86 43.66 115.05 43.66 115.23 43.66 115.42 43.66 115.61 43.66 115.8 43.66 115.98 43.66 116.17 43.66 116.36 43.66 116.55 43.66 116.73 43.66 116.92 43.66 117.11 43.66 117.3 43.66 117.48 43.66 117.67 43.66 117.86 43.66 118.05 43.66 118.23 43.66 118.42 43.66 118.61 43.66 118.8 43.66 118.98 43.66 119.17 43.66 119.36 43.66 119.55 43.66 119.73 43.66 119.92 43.66 120.11 43.66 120.3 43.66 120.48 43.66 120.67 43.66 120.86 43.66 121.05 43.66 121.23 43.66 121.42 43.66 121.61 43.66 121.8 43.66 121.99 43.66 122.17 43.66 122.36 43.66 122.55 43.66 122.74 43.66 122.92 43.66 123.11 43.66 123.3 43.66 123.49 43.66 123.67 43.66 123.86 43.66 124.05 43.66 124.24 43.66 124.42 43.66 124.61 43.66 124.8 43.66 124.99 43.66 125.17 43.66 125.36 43.66 125.55 43.66 125.74 43.66 125.92 43.66 126.11 43.66 126.3 43.66 126.49 43.66 126.67 43.66 126.86 43.66 127.05 43.66 127.24 43.66" id="img-6ef074f4-54" class="geometry color_-4.0" stroke="#1D4052"/>
        <path fill="none" d="M24.09,31.98 L 24.27 32.67 24.46 33.34 24.65 33.99 24.84 34.61 25.02 35.22 25.21 35.81 25.4 36.38 25.59 36.93 25.77 37.46 25.96 37.98 26.15 38.47 26.34 38.95 26.53 39.41 26.71 39.86 26.9 40.28 27.09 40.69 27.28 41.08 27.46 41.46 27.65 41.82 27.84 42.17 28.03 42.49 28.21 42.81 28.4 43.11 28.59 43.39 28.78 43.66 28.96 43.91 29.15 44.15 29.34 44.38 29.53 44.59 29.71 44.79 29.9 44.97 30.09 45.15 30.28 45.31 30.46 45.45 30.65 45.59 30.84 45.71 31.03 45.82 31.21 45.92 31.4 46.01 31.59 46.09 31.78 46.15 31.96 46.21 32.15 46.25 32.34 46.29 32.53 46.31 32.71 46.33 32.9 46.33 33.09 46.33 33.28 46.32 33.46 46.3 33.65 46.27 33.84 46.23 34.03 46.19 34.21 46.13 34.4 46.07 34.59 46 34.78 45.93 34.96 45.85 35.15 45.76 35.34 45.67 35.53 45.56 35.71 45.46 35.9 45.35 36.09 45.23 36.28 45.11 36.46 44.98 36.65 44.85 36.84 44.71 37.03 44.57 37.22 44.43 37.4 44.28 37.59 44.13 37.78 43.97 37.97 43.82 38.15 43.66 38.34 43.5 38.53 43.33 38.72 43.16 38.9 43 39.09 42.83 39.28 42.66 39.47 42.48 39.65 42.31 39.84 42.14 40.03 41.96 40.22 41.79 40.4 41.62 40.59 41.44 40.78 41.27 40.97 41.1 41.15 40.93 41.34 40.76 41.53 40.59 41.72 40.43 41.9 40.27 42.09 40.1 42.28 39.95 42.47 39.79 42.65 39.64 42.84 39.49 43.03 39.34 43.22 39.2 43.4 39.07 43.59 38.93 43.78 38.8 43.97 38.68 44.15 38.56 44.34 38.45 44.53 38.34 44.72 38.24 44.9 38.14 45.09 38.05 45.28 37.97 45.47 37.89 45.65 37.82 45.84 37.75 46.03 37.7 46.22 37.65 46.4 37.61 46.59 37.58 46.78 37.55 46.97 37.54 47.15 37.53 47.34 37.54 47.53 37.55 47.72 37.57 47.91 37.6 48.09 37.64 48.28 37.69 48.47 37.75 48.66 37.81 48.84 37.88 49.03 37.96 49.22 38.05 49.41 38.14 49.59 38.24 49.78 38.35 49.97 38.46 50.16 38.57 50.34 38.7 50.53 38.82 50.72 38.95 50.91 39.09 51.09 39.23 51.28 39.37 51.47 39.52 51.66 39.66 51.84 39.81 52.03 39.97 52.22 40.12 52.41 40.28 52.59 40.44 52.78 40.59 52.97 40.75 53.16 40.91 53.34 41.07 53.53 41.23 53.72 41.39 53.91 41.55 54.09 41.7 54.28 41.86 54.47 42.01 54.66 42.16 54.84 42.31 55.03 42.45 55.22 42.59 55.41 42.73 55.59 42.86 55.78 42.99 55.97 43.11 56.16 43.23 56.34 43.35 56.53 43.46 56.72 43.56 56.91 43.66 57.09 43.75 57.28 43.83 57.47 43.91 57.66 43.98 57.84 44.05 58.03 44.11 58.22 44.16 58.41 44.21 58.6 44.26 58.78 44.3 58.97 44.33 59.16 44.36 59.35 44.39 59.53 44.41 59.72 44.43 59.91 44.44 60.1 44.45 60.28 44.45 60.47 44.45 60.66 44.45 60.85 44.45 61.03 44.44 61.22 44.43 61.41 44.42 61.6 44.4 61.78 44.38 61.97 44.36 62.16 44.34 62.35 44.31 62.53 44.29 62.72 44.26 62.91 44.23 63.1 44.2 63.28 44.17 63.47 44.14 63.66 44.1 63.85 44.07 64.03 44.04 64.22 44 64.41 43.97 64.6 43.93 64.78 43.9 64.97 43.87 65.16 43.83 65.35 43.8 65.53 43.77 65.72 43.74 65.91 43.71 66.1 43.68 66.28 43.66 66.47 43.63 66.66 43.61 66.85 43.59 67.03 43.57 67.22 43.55 67.41 43.54 67.6 43.52 67.78 43.51 67.97 43.5 68.16 43.49 68.35 43.48 68.53 43.47 68.72 43.46 68.91 43.46 69.1 43.45 69.29 43.45 69.47 43.45 69.66 43.44 69.85 43.44 70.04 43.44 70.22 43.45 70.41 43.45 70.6 43.45 70.79 43.45 70.97 43.46 71.16 43.46 71.35 43.47 71.54 43.47 71.72 43.48 71.91 43.49 72.1 43.5 72.29 43.5 72.47 43.51 72.66 43.52 72.85 43.53 73.04 43.54 73.22 43.55 73.41 43.56 73.6 43.57 73.79 43.57 73.97 43.58 74.16 43.59 74.35 43.6 74.54 43.61 74.72 43.62 74.91 43.63 75.1 43.64 75.29 43.64 75.47 43.65 75.66 43.66 75.85 43.66 76.04 43.67 76.22 43.68 76.41 43.68 76.6 43.69 76.79 43.69 76.97 43.69 77.16 43.7 77.35 43.7 77.54 43.7 77.72 43.71 77.91 43.71 78.1 43.71 78.29 43.71 78.47 43.71 78.66 43.71 78.85 43.71 79.04 43.71 79.23 43.71 79.41 43.71 79.6 43.71 79.79 43.71 79.98 43.71 80.16 43.71 80.35 43.71 80.54 43.71 80.73 43.71 80.91 43.71 81.1 43.7 81.29 43.7 81.48 43.7 81.66 43.7 81.85 43.7 82.04 43.69 82.23 43.69 82.41 43.69 82.6 43.69 82.79 43.68 82.98 43.68 83.16 43.68 83.35 43.68 83.54 43.67 83.73 43.67 83.91 43.67 84.1 43.67 84.29 43.67 84.48 43.66 84.66 43.66 84.85 43.66 85.04 43.66 85.23 43.66 85.41 43.65 85.6 43.65 85.79 43.65 85.98 43.65 86.16 43.65 86.35 43.65 86.54 43.65 86.73 43.65 86.91 43.65 87.1 43.64 87.29 43.64 87.48 43.64 87.66 43.64 87.85 43.64 88.04 43.64 88.23 43.64 88.41 43.64 88.6 43.64 88.79 43.64 88.98 43.64 89.16 43.64 89.35 43.64 89.54 43.64 89.73 43.64 89.92 43.64 90.1 43.64 90.29 43.64 90.48 43.64 90.67 43.65 90.85 43.65 91.04 43.65 91.23 43.65 91.42 43.65 91.6 43.65 91.79 43.65 91.98 43.65 92.17 43.65 92.35 43.65 92.54 43.65 92.73 43.65 92.92 43.65 93.1 43.65 93.29 43.65 93.48 43.65 93.67 43.66 93.85 43.66 94.04 43.66 94.23 43.66 94.42 43.66 94.6 43.66 94.79 43.66 94.98 43.66 95.17 43.66 95.35 43.66 95.54 43.66 95.73 43.66 95.92 43.66 96.1 43.66 96.29 43.66 96.48 43.66 96.67 43.66 96.85 43.66 97.04 43.66 97.23 43.66 97.42 43.66 97.6 43.66 97.79 43.66 97.98 43.66 98.17 43.66 98.35 43.66 98.54 43.66 98.73 43.66 98.92 43.66 99.1 43.66 99.29 43.66 99.48 43.66 99.67 43.66 99.85 43.66 100.04 43.66 100.23 43.66 100.42 43.66 100.61 43.66 100.79 43.66 100.98 43.66 101.17 43.66 101.36 43.66 101.54 43.66 101.73 43.66 101.92 43.66 102.11 43.66 102.29 43.66 102.48 43.66 102.67 43.66 102.86 43.66 103.04 43.66 103.23 43.66 103.42 43.66 103.61 43.66 103.79 43.66 103.98 43.66 104.17 43.66 104.36 43.66 104.54 43.66 104.73 43.66 104.92 43.66 105.11 43.66 105.29 43.66 105.48 43.66 105.67 43.66 105.86 43.66 106.04 43.66 106.23 43.66 106.42 43.66 106.61 43.66 106.79 43.66 106.98 43.66 107.17 43.66 107.36 43.66 107.54 43.66 107.73 43.66 107.92 43.66 108.11 43.66 108.29 43.66 108.48 43.66 108.67 43.66 108.86 43.66 109.04 43.66 109.23 43.66 109.42 43.66 109.61 43.66 109.79 43.66 109.98 43.66 110.17 43.66 110.36 43.66 110.54 43.66 110.73 43.66 110.92 43.66 111.11 43.66 111.3 43.66 111.48 43.66 111.67 43.66 111.86 43.66 112.05 43.66 112.23 43.66 112.42 43.66 112.61 43.66 112.8 43.66 112.98 43.66 113.17 43.66 113.36 43.66 113.55 43.66 113.73 43.66 113.92 43.66 114.11 43.66 114.3 43.66 114.48 43.66 114.67 43.66 114.86 43.66 115.05 43.66 115.23 43.66 115.42 43.66 115.61 43.66 115.8 43.66 115.98 43.66 116.17 43.66 116.36 43.66 116.55 43.66 116.73 43.66 116.92 43.66 117.11 43.66 117.3 43.66 117.48 43.66 117.67 43.66 117.86 43.66 118.05 43.66 118.23 43.66 118.42 43.66 118.61 43.66 118.8 43.66 118.98 43.66 119.17 43.66 119.36 43.66 119.55 43.66 119.73 43.66 119.92 43.66 120.11 43.66 120.3 43.66 120.48 43.66 120.67 43.66 120.86 43.66 121.05 43.66 121.23 43.66 121.42 43.66 121.61 43.66 121.8 43.66 121.99 43.66 122.17 43.66 122.36 43.66 122.55 43.66 122.74 43.66 122.92 43.66 123.11 43.66 123.3 43.66 123.49 43.66 123.67 43.66 123.86 43.66 124.05 43.66 124.24 43.66 124.42 43.66 124.61 43.66 124.8 43.66 124.99 43.65 125.17 43.65 125.36 43.65 125.55 43.65 125.74 43.65 125.92 43.65 126.11 43.65 126.3 43.65 126.49 43.65 126.67 43.65 126.86 43.65 127.05 43.65 127.24 43.65" id="img-6ef074f4-55" class="geometry color_-3.0" stroke="#244F65"/>
        <path fill="none" d="M24.09,48.59 L 24.27 48.29 24.46 48.01 24.65 47.73 24.84 47.46 25.02 47.19 25.21 46.94 25.4 46.7 25.59 46.46 25.77 46.24 25.96 46.02 26.15 45.81 26.34 45.61 26.53 45.41 26.71 45.23 26.9 45.05 27.09 44.88 27.28 44.71 27.46 44.56 27.65 44.41 27.84 44.27 28.03 44.13 28.21 44 28.4 43.88 28.59 43.77 28.78 43.66 28.96 43.56 29.15 43.46 29.34 43.37 29.53 43.29 29.71 43.21 29.9 43.13 30.09 43.07 30.28 43.01 30.46 42.95 30.65 42.9 30.84 42.85 31.03 42.81 31.21 42.78 31.4 42.74 31.59 42.72 31.78 42.7 31.96 42.68 32.15 42.66 32.34 42.65 32.53 42.65 32.71 42.64 32.9 42.65 33.09 42.65 33.28 42.66 33.46 42.67 33.65 42.69 33.84 42.7 34.03 42.72 34.21 42.75 34.4 42.77 34.59 42.8 34.78 42.83 34.96 42.87 35.15 42.9 35.34 42.94 35.53 42.98 35.71 43.02 35.9 43.06 36.09 43.11 36.28 43.15 36.46 43.2 36.65 43.25 36.84 43.3 37.03 43.35 37.22 43.4 37.4 43.45 37.59 43.5 37.78 43.55 37.97 43.6 38.15 43.66 38.34 43.71 38.53 43.76 38.72 43.81 38.9 43.87 39.09 43.92 39.28 43.97 39.47 44.02 39.65 44.07 39.84 44.12 40.03 44.16 40.22 44.21 40.4 44.25 40.59 44.3 40.78 44.34 40.97 44.38 41.15 44.41 41.34 44.45 41.53 44.48 41.72 44.51 41.9 44.54 42.09 44.57 42.28 44.59 42.47 44.61 42.65 44.63 42.84 44.64 43.03 44.66 43.22 44.66 43.4 44.67 43.59 44.67 43.78 44.67 43.97 44.66 44.15 44.65 44.34 44.64 44.53 44.62 44.72 44.6 44.9 44.57 45.09 44.54 45.28 44.5 45.47 44.46 45.65 44.42 45.84 44.36 46.03 44.31 46.22 44.25 46.4 44.18 46.59 44.11 46.78 44.03 46.97 43.95 47.15 43.86 47.34 43.76 47.53 43.66 47.72 43.55 47.91 43.43 48.09 43.31 48.28 43.19 48.47 43.06 48.66 42.92 48.84 42.79 49.03 42.64 49.22 42.5 49.41 42.35 49.59 42.19 49.78 42.04 49.97 41.88 50.16 41.72 50.34 41.56 50.53 41.4 50.72 41.23 50.91 41.07 51.09 40.9 51.28 40.74 51.47 40.58 51.66 40.41 51.84 40.25 52.03 40.09 52.22 39.93 52.41 39.78 52.59 39.62 52.78 39.47 52.97 39.32 53.16 39.18 53.34 39.04 53.53 38.9 53.72 38.77 53.91 38.64 54.09 38.52 54.28 38.41 54.47 38.3 54.66 38.19 54.84 38.09 55.03 38 55.22 37.92 55.41 37.84 55.59 37.78 55.78 37.72 55.97 37.66 56.16 37.62 56.34 37.59 56.53 37.56 56.72 37.55 56.91 37.55 57.09 37.56 57.28 37.57 57.47 37.6 57.66 37.64 57.84 37.68 58.03 37.74 58.22 37.8 58.41 37.87 58.6 37.95 58.78 38.04 58.97 38.13 59.16 38.23 59.35 38.34 59.53 38.45 59.72 38.57 59.91 38.7 60.1 38.83 60.28 38.96 60.47 39.1 60.66 39.24 60.85 39.39 61.03 39.54 61.22 39.69 61.41 39.85 61.6 40 61.78 40.16 61.97 40.32 62.16 40.49 62.35 40.65 62.53 40.81 62.72 40.98 62.91 41.14 63.1 41.3 63.28 41.46 63.47 41.63 63.66 41.78 63.85 41.94 64.03 42.1 64.22 42.25 64.41 42.4 64.6 42.55 64.78 42.69 64.97 42.83 65.16 42.96 65.35 43.09 65.53 43.22 65.72 43.34 65.91 43.45 66.1 43.56 66.28 43.66 66.47 43.75 66.66 43.84 66.85 43.92 67.03 44 67.22 44.07 67.41 44.13 67.6 44.19 67.78 44.24 67.97 44.28 68.16 44.32 68.35 44.36 68.53 44.39 68.72 44.42 68.91 44.44 69.1 44.46 69.29 44.47 69.47 44.48 69.66 44.49 69.85 44.49 70.04 44.49 70.22 44.48 70.41 44.47 70.6 44.46 70.79 44.45 70.97 44.43 71.16 44.41 71.35 44.39 71.54 44.37 71.72 44.34 71.91 44.32 72.1 44.29 72.29 44.26 72.47 44.22 72.66 44.19 72.85 44.16 73.04 44.12 73.22 44.09 73.41 44.05 73.6 44.02 73.79 43.98 73.97 43.95 74.16 43.91 74.35 43.88 74.54 43.84 74.72 43.81 74.91 43.77 75.1 43.74 75.29 43.71 75.47 43.68 75.66 43.66 75.85 43.63 76.04 43.61 76.22 43.59 76.41 43.57 76.6 43.55 76.79 43.53 76.97 43.52 77.16 43.5 77.35 43.49 77.54 43.48 77.72 43.47 77.91 43.46 78.1 43.45 78.29 43.45 78.47 43.44 78.66 43.44 78.85 43.44 79.04 43.44 79.23 43.43 79.41 43.44 79.6 43.44 79.79 43.44 79.98 43.44 80.16 43.45 80.35 43.45 80.54 43.46 80.73 43.46 80.91 43.47 81.1 43.47 81.29 43.48 81.48 43.49 81.66 43.5 81.85 43.51 82.04 43.51 82.23 43.52 82.41 43.53 82.6 43.54 82.79 43.55 82.98 43.56 83.16 43.57 83.35 43.58 83.54 43.59 83.73 43.6 83.91 43.61 84.1 43.62 84.29 43.63 84.48 43.63 84.66 43.64 84.85 43.65 85.04 43.66 85.23 43.66 85.41 43.67 85.6 43.68 85.79 43.68 85.98 43.69 86.16 43.69 86.35 43.7 86.54 43.7 86.73 43.7 86.91 43.71 87.1 43.71 87.29 43.71 87.48 43.71 87.66 43.71 87.85 43.72 88.04 43.72 88.23 43.72 88.41 43.72 88.6 43.72 88.79 43.72 88.98 43.72 89.16 43.72 89.35 43.72 89.54 43.71 89.73 43.71 89.92 43.71 90.1 43.71 90.29 43.71 90.48 43.71 90.67 43.7 90.85 43.7 91.04 43.7 91.23 43.7 91.42 43.7 91.6 43.69 91.79 43.69 91.98 43.69 92.17 43.69 92.35 43.68 92.54 43.68 92.73 43.68 92.92 43.68 93.1 43.67 93.29 43.67 93.48 43.67 93.67 43.67 93.85 43.66 94.04 43.66 94.23 43.66 94.42 43.66 94.6 43.66 94.79 43.65 94.98 43.65 95.17 43.65 95.35 43.65 95.54 43.65 95.73 43.65 95.92 43.65 96.1 43.65 96.29 43.64 96.48 43.64 96.67 43.64 96.85 43.64 97.04 43.64 97.23 43.64 97.42 43.64 97.6 43.64 97.79 43.64 97.98 43.64 98.17 43.64 98.35 43.64 98.54 43.64 98.73 43.64 98.92 43.64 99.1 43.64 99.29 43.64 99.48 43.64 99.67 43.64 99.85 43.64 100.04 43.64 100.23 43.65 100.42 43.65 100.61 43.65 100.79 43.65 100.98 43.65 101.17 43.65 101.36 43.65 101.54 43.65 101.73 43.65 101.92 43.65 102.11 43.65 102.29 43.65 102.48 43.65 102.67 43.65 102.86 43.65 103.04 43.66 103.23 43.66 103.42 43.66 103.61 43.66 103.79 43.66 103.98 43.66 104.17 43.66 104.36 43.66 104.54 43.66 104.73 43.66 104.92 43.66 105.11 43.66 105.29 43.66 105.48 43.66 105.67 43.66 105.86 43.66 106.04 43.66 106.23 43.66 106.42 43.66 106.61 43.66 106.79 43.66 106.98 43.66 107.17 43.66 107.36 43.66 107.54 43.66 107.73 43.66 107.92 43.66 108.11 43.66 108.29 43.66 108.48 43.66 108.67 43.66 108.86 43.66 109.04 43.66 109.23 43.66 109.42 43.66 109.61 43.66 109.79 43.66 109.98 43.66 110.17 43.66 110.36 43.66 110.54 43.66 110.73 43.66 110.92 43.66 111.11 43.66 111.3 43.66 111.48 43.66 111.67 43.66 111.86 43.66 112.05 43.66 112.23 43.66 112.42 43.66 112.61 43.66 112.8 43.66 112.98 43.66 113.17 43.66 113.36 43.66 113.55 43.66 113.73 43.66 113.92 43.66 114.11 43.66 114.3 43.66 114.48 43.66 114.67 43.66 114.86 43.66 115.05 43.65 115.23 43.65 115.42 43.65 115.61 43.65 115.8 43.65 115.98 43.65 116.17 43.65 116.36 43.65 116.55 43.65 116.73 43.65 116.92 43.65 117.11 43.65 117.3 43.65 117.48 43.65 117.67 43.65 117.86 43.65 118.05 43.65 118.23 43.65 118.42 43.65 118.61 43.65 118.8 43.65 118.98 43.65 119.17 43.65 119.36 43.65 119.55 43.65 119.73 43.65 119.92 43.65 120.11 43.65 120.3 43.65 120.48 43.65 120.67 43.65 120.86 43.65 121.05 43.65 121.23 43.65 121.42 43.65 121.61 43.66 121.8 43.66 121.99 43.66 122.17 43.66 122.36 43.66 122.55 43.66 122.74 43.66 122.92 43.66 123.11 43.66 123.3 43.66 123.49 43.66 123.67 43.66 123.86 43.66 124.05 43.66 124.24 43.66 124.42 43.66 124.61 43.67 124.8 43.67 124.99 43.67 125.17 43.67 125.36 43.67 125.55 43.67 125.74 43.67 125.92 43.67 126.11 43.67 126.3 43.68 126.49 43.68 126.67 43.68 126.86 43.68 127.05 43.68 127.24 43.68" id="img-6ef074f4-56" class="geometry color_-2.0" stroke="#2B5E78"/>
        <path fill="none" d="M24.09,42.34 L 24.27 42.42 24.46 42.49 24.65 42.57 24.84 42.64 25.02 42.71 25.21 42.78 25.4 42.84 25.59 42.91 25.77 42.97 25.96 43.02 26.15 43.08 26.34 43.14 26.53 43.19 26.71 43.24 26.9 43.29 27.09 43.33 27.28 43.37 27.46 43.42 27.65 43.46 27.84 43.49 28.03 43.53 28.21 43.57 28.4 43.6 28.59 43.63 28.78 43.66 28.96 43.68 29.15 43.71 29.34 43.73 29.53 43.76 29.71 43.78 29.9 43.8 30.09 43.82 30.28 43.83 30.46 43.85 30.65 43.86 30.84 43.87 31.03 43.88 31.21 43.89 31.4 43.9 31.59 43.91 31.78 43.92 31.96 43.92 32.15 43.92 32.34 43.93 32.53 43.93 32.71 43.93 32.9 43.93 33.09 43.93 33.28 43.93 33.46 43.92 33.65 43.92 33.84 43.91 34.03 43.91 34.21 43.9 34.4 43.89 34.59 43.89 34.78 43.88 34.96 43.87 35.15 43.86 35.34 43.85 35.53 43.84 35.71 43.83 35.9 43.82 36.09 43.81 36.28 43.79 36.46 43.78 36.65 43.77 36.84 43.75 37.03 43.74 37.22 43.73 37.4 43.71 37.59 43.7 37.78 43.69 37.97 43.67 38.15 43.66 38.34 43.64 38.53 43.63 38.72 43.62 38.9 43.6 39.09 43.59 39.28 43.57 39.47 43.56 39.65 43.55 39.84 43.53 40.03 43.52 40.22 43.51 40.4 43.5 40.59 43.49 40.78 43.48 40.97 43.46 41.15 43.45 41.34 43.45 41.53 43.44 41.72 43.43 41.9 43.42 42.09 43.41 42.28 43.41 42.47 43.4 42.65 43.4 42.84 43.39 43.03 43.39 43.22 43.39 43.4 43.39 43.59 43.39 43.78 43.39 43.97 43.39 44.15 43.39 44.34 43.39 44.53 43.4 44.72 43.41 44.9 43.41 45.09 43.42 45.28 43.43 45.47 43.44 45.65 43.45 45.84 43.47 46.03 43.48 46.22 43.5 46.4 43.52 46.59 43.54 46.78 43.56 46.97 43.58 47.15 43.6 47.34 43.63 47.53 43.66 47.72 43.69 47.91 43.72 48.09 43.75 48.28 43.78 48.47 43.82 48.66 43.85 48.84 43.89 49.03 43.92 49.22 43.96 49.41 44 49.59 44.03 49.78 44.07 49.97 44.11 50.16 44.14 50.34 44.18 50.53 44.21 50.72 44.24 50.91 44.27 51.09 44.31 51.28 44.33 51.47 44.36 51.66 44.39 51.84 44.41 52.03 44.43 52.22 44.45 52.41 44.47 52.59 44.48 52.78 44.49 52.97 44.5 53.16 44.5 53.34 44.5 53.53 44.5 53.72 44.5 53.91 44.49 54.09 44.47 54.28 44.45 54.47 44.43 54.66 44.4 54.84 44.37 55.03 44.33 55.22 44.29 55.41 44.25 55.59 44.19 55.78 44.13 55.97 44.07 56.16 44 56.34 43.92 56.53 43.84 56.72 43.75 56.91 43.66 57.09 43.56 57.28 43.45 57.47 43.33 57.66 43.21 57.84 43.09 58.03 42.96 58.22 42.82 58.41 42.68 58.6 42.54 58.78 42.39 58.97 42.24 59.16 42.09 59.35 41.93 59.53 41.77 59.72 41.61 59.91 41.45 60.1 41.29 60.28 41.12 60.47 40.96 60.66 40.8 60.85 40.63 61.03 40.47 61.22 40.31 61.41 40.14 61.6 39.98 61.78 39.83 61.97 39.67 62.16 39.52 62.35 39.37 62.53 39.22 62.72 39.08 62.91 38.94 63.1 38.81 63.28 38.68 63.47 38.56 63.66 38.44 63.85 38.32 64.03 38.22 64.22 38.12 64.41 38.02 64.6 37.94 64.78 37.86 64.97 37.79 65.16 37.73 65.35 37.67 65.53 37.63 65.72 37.59 65.91 37.57 66.1 37.55 66.28 37.55 66.47 37.55 66.66 37.57 66.85 37.6 67.03 37.63 67.22 37.68 67.41 37.73 67.6 37.79 67.78 37.86 67.97 37.94 68.16 38.03 68.35 38.12 68.53 38.22 68.72 38.33 68.91 38.44 69.1 38.56 69.29 38.68 69.47 38.81 69.66 38.95 69.85 39.09 70.04 39.23 70.22 39.37 70.41 39.52 70.6 39.68 70.79 39.83 70.97 39.99 71.16 40.15 71.35 40.31 71.54 40.47 71.72 40.64 71.91 40.8 72.1 40.96 72.29 41.13 72.47 41.29 72.66 41.46 72.85 41.62 73.04 41.78 73.22 41.93 73.41 42.09 73.6 42.24 73.79 42.39 73.97 42.54 74.16 42.68 74.35 42.82 74.54 42.96 74.72 43.09 74.91 43.21 75.1 43.33 75.29 43.45 75.47 43.56 75.66 43.66 75.85 43.75 76.04 43.84 76.22 43.92 76.41 44 76.6 44.07 76.79 44.13 76.97 44.19 77.16 44.24 77.35 44.29 77.54 44.33 77.72 44.36 77.91 44.4 78.1 44.42 78.29 44.44 78.47 44.46 78.66 44.48 78.85 44.49 79.04 44.49 79.23 44.49 79.41 44.49 79.6 44.49 79.79 44.48 79.98 44.47 80.16 44.45 80.35 44.44 80.54 44.42 80.73 44.39 80.91 44.37 81.1 44.35 81.29 44.32 81.48 44.29 81.66 44.26 81.85 44.23 82.04 44.19 82.23 44.16 82.41 44.13 82.6 44.09 82.79 44.05 82.98 44.02 83.16 43.98 83.35 43.95 83.54 43.91 83.73 43.88 83.91 43.84 84.1 43.81 84.29 43.78 84.48 43.74 84.66 43.71 84.85 43.68 85.04 43.66 85.23 43.63 85.41 43.61 85.6 43.59 85.79 43.57 85.98 43.55 86.16 43.53 86.35 43.52 86.54 43.5 86.73 43.49 86.91 43.48 87.1 43.47 87.29 43.46 87.48 43.45 87.66 43.45 87.85 43.44 88.04 43.44 88.23 43.44 88.41 43.43 88.6 43.43 88.79 43.43 88.98 43.44 89.16 43.44 89.35 43.44 89.54 43.44 89.73 43.45 89.92 43.45 90.1 43.46 90.29 43.47 90.48 43.47 90.67 43.48 90.85 43.49 91.04 43.5 91.23 43.5 91.42 43.51 91.6 43.52 91.79 43.53 91.98 43.54 92.17 43.55 92.35 43.56 92.54 43.57 92.73 43.58 92.92 43.59 93.1 43.6 93.29 43.61 93.48 43.62 93.67 43.63 93.85 43.63 94.04 43.64 94.23 43.65 94.42 43.66 94.6 43.66 94.79 43.67 94.98 43.68 95.17 43.68 95.35 43.69 95.54 43.69 95.73 43.7 95.92 43.7 96.1 43.7 96.29 43.71 96.48 43.71 96.67 43.71 96.85 43.71 97.04 43.71 97.23 43.72 97.42 43.72 97.6 43.72 97.79 43.72 97.98 43.72 98.17 43.72 98.35 43.72 98.54 43.72 98.73 43.72 98.92 43.72 99.1 43.71 99.29 43.71 99.48 43.71 99.67 43.71 99.85 43.71 100.04 43.71 100.23 43.7 100.42 43.7 100.61 43.7 100.79 43.7 100.98 43.69 101.17 43.69 101.36 43.69 101.54 43.69 101.73 43.68 101.92 43.68 102.11 43.68 102.29 43.68 102.48 43.67 102.67 43.67 102.86 43.67 103.04 43.67 103.23 43.66 103.42 43.66 103.61 43.66 103.79 43.66 103.98 43.66 104.17 43.65 104.36 43.65 104.54 43.65 104.73 43.65 104.92 43.65 105.11 43.65 105.29 43.64 105.48 43.64 105.67 43.64 105.86 43.64 106.04 43.64 106.23 43.64 106.42 43.64 106.61 43.64 106.79 43.64 106.98 43.64 107.17 43.64 107.36 43.64 107.54 43.64 107.73 43.64 107.92 43.64 108.11 43.64 108.29 43.64 108.48 43.64 108.67 43.64 108.86 43.64 109.04 43.64 109.23 43.64 109.42 43.64 109.61 43.64 109.79 43.64 109.98 43.64 110.17 43.64 110.36 43.64 110.54 43.64 110.73 43.65 110.92 43.65 111.11 43.65 111.3 43.65 111.48 43.65 111.67 43.65 111.86 43.65 112.05 43.65 112.23 43.65 112.42 43.65 112.61 43.65 112.8 43.66 112.98 43.66 113.17 43.66 113.36 43.66 113.55 43.66 113.73 43.66 113.92 43.66 114.11 43.66 114.3 43.66 114.48 43.66 114.67 43.67 114.86 43.67 115.05 43.67 115.23 43.67 115.42 43.67 115.61 43.67 115.8 43.67 115.98 43.67 116.17 43.67 116.36 43.67 116.55 43.67 116.73 43.67 116.92 43.67 117.11 43.68 117.3 43.68 117.48 43.68 117.67 43.68 117.86 43.68 118.05 43.68 118.23 43.68 118.42 43.68 118.61 43.68 118.8 43.68 118.98 43.68 119.17 43.68 119.36 43.68 119.55 43.68 119.73 43.68 119.92 43.68 120.11 43.67 120.3 43.67 120.48 43.67 120.67 43.67 120.86 43.67 121.05 43.67 121.23 43.67 121.42 43.67 121.61 43.67 121.8 43.66 121.99 43.66 122.17 43.66 122.36 43.66 122.55 43.66 122.74 43.66 122.92 43.65 123.11 43.65 123.3 43.65 123.49 43.65 123.67 43.64 123.86 43.64 124.05 43.64 124.24 43.63 124.42 43.63 124.61 43.63 124.8 43.62 124.99 43.62 125.17 43.62 125.36 43.61 125.55 43.61 125.74 43.6 125.92 43.6 126.11 43.59 126.3 43.59 126.49 43.58 126.67 43.58 126.86 43.57 127.05 43.57 127.24 43.56" id="img-6ef074f4-57" class="geometry color_-1.0" stroke="#316C8B"/>
        <path fill="none" d="M24.09,44.01 L 24.27 43.99 24.46 43.97 24.65 43.95 24.84 43.93 25.02 43.91 25.21 43.89 25.4 43.88 25.59 43.86 25.77 43.84 25.96 43.83 26.15 43.81 26.34 43.8 26.53 43.78 26.71 43.77 26.9 43.76 27.09 43.74 27.28 43.73 27.46 43.72 27.65 43.71 27.84 43.7 28.03 43.69 28.21 43.68 28.4 43.67 28.59 43.67 28.78 43.66 28.96 43.65 29.15 43.64 29.34 43.64 29.53 43.63 29.71 43.63 29.9 43.62 30.09 43.62 30.28 43.61 30.46 43.61 30.65 43.6 30.84 43.6 31.03 43.6 31.21 43.59 31.4 43.59 31.59 43.59 31.78 43.59 31.96 43.59 32.15 43.59 32.34 43.59 32.53 43.58 32.71 43.58 32.9 43.58 33.09 43.59 33.28 43.59 33.46 43.59 33.65 43.59 33.84 43.59 34.03 43.59 34.21 43.59 34.4 43.59 34.59 43.6 34.78 43.6 34.96 43.6 35.15 43.6 35.34 43.61 35.53 43.61 35.71 43.61 35.9 43.61 36.09 43.62 36.28 43.62 36.46 43.62 36.65 43.63 36.84 43.63 37.03 43.64 37.22 43.64 37.4 43.64 37.59 43.65 37.78 43.65 37.97 43.65 38.15 43.66 38.34 43.66 38.53 43.67 38.72 43.67 38.9 43.67 39.09 43.68 39.28 43.68 39.47 43.68 39.65 43.69 39.84 43.69 40.03 43.69 40.22 43.7 40.4 43.7 40.59 43.7 40.78 43.71 40.97 43.71 41.15 43.71 41.34 43.71 41.53 43.72 41.72 43.72 41.9 43.72 42.09 43.72 42.28 43.72 42.47 43.73 42.65 43.73 42.84 43.73 43.03 43.73 43.22 43.73 43.4 43.73 43.59 43.73 43.78 43.73 43.97 43.73 44.15 43.73 44.34 43.73 44.53 43.73 44.72 43.72 44.9 43.72 45.09 43.72 45.28 43.72 45.47 43.72 45.65 43.71 45.84 43.71 46.03 43.7 46.22 43.7 46.4 43.7 46.59 43.69 46.78 43.68 46.97 43.68 47.15 43.67 47.34 43.66 47.53 43.66 47.72 43.65 47.91 43.64 48.09 43.63 48.28 43.62 48.47 43.61 48.66 43.61 48.84 43.6 49.03 43.59 49.22 43.58 49.41 43.57 49.59 43.56 49.78 43.55 49.97 43.54 50.16 43.53 50.34 43.52 50.53 43.51 50.72 43.5 50.91 43.49 51.09 43.48 51.28 43.48 51.47 43.47 51.66 43.46 51.84 43.46 52.03 43.45 52.22 43.44 52.41 43.44 52.59 43.44 52.78 43.43 52.97 43.43 53.16 43.43 53.34 43.43 53.53 43.43 53.72 43.43 53.91 43.44 54.09 43.44 54.28 43.44 54.47 43.45 54.66 43.46 54.84 43.47 55.03 43.48 55.22 43.49 55.41 43.5 55.59 43.51 55.78 43.53 55.97 43.55 56.16 43.57 56.34 43.59 56.53 43.61 56.72 43.63 56.91 43.66 57.09 43.68 57.28 43.71 57.47 43.74 57.66 43.78 57.84 43.81 58.03 43.84 58.22 43.88 58.41 43.91 58.6 43.95 58.78 43.98 58.97 44.02 59.16 44.06 59.35 44.09 59.53 44.13 59.72 44.16 59.91 44.2 60.1 44.23 60.28 44.26 60.47 44.29 60.66 44.32 60.85 44.35 61.03 44.37 61.22 44.4 61.41 44.42 61.6 44.44 61.78 44.45 61.97 44.47 62.16 44.48 62.35 44.49 62.53 44.49 62.72 44.49 62.91 44.49 63.1 44.49 63.28 44.48 63.47 44.46 63.66 44.45 63.85 44.42 64.03 44.4 64.22 44.37 64.41 44.33 64.6 44.29 64.78 44.24 64.97 44.19 65.16 44.13 65.35 44.07 65.53 44 65.72 43.92 65.91 43.84 66.1 43.75 66.28 43.66 66.47 43.56 66.66 43.45 66.85 43.33 67.03 43.21 67.22 43.09 67.41 42.96 67.6 42.82 67.78 42.68 67.97 42.54 68.16 42.39 68.35 42.24 68.53 42.09 68.72 41.93 68.91 41.78 69.1 41.62 69.29 41.45 69.47 41.29 69.66 41.13 69.85 40.96 70.04 40.8 70.22 40.64 70.41 40.47 70.6 40.31 70.79 40.15 70.97 39.99 71.16 39.83 71.35 39.68 71.54 39.52 71.72 39.37 71.91 39.23 72.1 39.08 72.29 38.95 72.47 38.81 72.66 38.68 72.85 38.56 73.04 38.44 73.22 38.33 73.41 38.22 73.6 38.12 73.79 38.03 73.97 37.94 74.16 37.86 74.35 37.79 74.54 37.73 74.72 37.67 74.91 37.63 75.1 37.59 75.29 37.57 75.47 37.55 75.66 37.55 75.85 37.55 76.04 37.57 76.22 37.59 76.41 37.63 76.6 37.67 76.79 37.73 76.97 37.79 77.16 37.86 77.35 37.94 77.54 38.03 77.72 38.12 77.91 38.22 78.1 38.33 78.29 38.44 78.47 38.56 78.66 38.68 78.85 38.81 79.04 38.95 79.23 39.08 79.41 39.23 79.6 39.37 79.79 39.52 79.98 39.68 80.16 39.83 80.35 39.99 80.54 40.15 80.73 40.31 80.91 40.47 81.1 40.64 81.29 40.8 81.48 40.96 81.66 41.13 81.85 41.29 82.04 41.45 82.23 41.62 82.41 41.78 82.6 41.93 82.79 42.09 82.98 42.24 83.16 42.39 83.35 42.54 83.54 42.68 83.73 42.82 83.91 42.96 84.1 43.09 84.29 43.21 84.48 43.33 84.66 43.45 84.85 43.56 85.04 43.66 85.23 43.75 85.41 43.84 85.6 43.92 85.79 44 85.98 44.07 86.16 44.13 86.35 44.19 86.54 44.24 86.73 44.29 86.91 44.33 87.1 44.37 87.29 44.4 87.48 44.42 87.66 44.45 87.85 44.46 88.04 44.48 88.23 44.49 88.41 44.49 88.6 44.49 88.79 44.49 88.98 44.49 89.16 44.48 89.35 44.47 89.54 44.45 89.73 44.44 89.92 44.42 90.1 44.4 90.29 44.37 90.48 44.35 90.67 44.32 90.85 44.29 91.04 44.26 91.23 44.23 91.42 44.2 91.6 44.16 91.79 44.13 91.98 44.09 92.17 44.06 92.35 44.02 92.54 43.98 92.73 43.95 92.92 43.91 93.1 43.88 93.29 43.84 93.48 43.81 93.67 43.78 93.85 43.74 94.04 43.71 94.23 43.68 94.42 43.66 94.6 43.63 94.79 43.61 94.98 43.59 95.17 43.57 95.35 43.55 95.54 43.53 95.73 43.51 95.92 43.5 96.1 43.49 96.29 43.48 96.48 43.47 96.67 43.46 96.85 43.45 97.04 43.44 97.23 43.44 97.42 43.44 97.6 43.43 97.79 43.43 97.98 43.43 98.17 43.43 98.35 43.43 98.54 43.43 98.73 43.44 98.92 43.44 99.1 43.44 99.29 43.45 99.48 43.46 99.67 43.46 99.85 43.47 100.04 43.48 100.23 43.48 100.42 43.49 100.61 43.5 100.79 43.51 100.98 43.52 101.17 43.53 101.36 43.54 101.54 43.55 101.73 43.56 101.92 43.57 102.11 43.58 102.29 43.59 102.48 43.6 102.67 43.61 102.86 43.61 103.04 43.62 103.23 43.63 103.42 43.64 103.61 43.65 103.79 43.66 103.98 43.66 104.17 43.67 104.36 43.68 104.54 43.68 104.73 43.69 104.92 43.7 105.11 43.7 105.29 43.7 105.48 43.71 105.67 43.71 105.86 43.72 106.04 43.72 106.23 43.72 106.42 43.72 106.61 43.72 106.79 43.73 106.98 43.73 107.17 43.73 107.36 43.73 107.54 43.73 107.73 43.73 107.92 43.73 108.11 43.73 108.29 43.73 108.48 43.73 108.67 43.73 108.86 43.73 109.04 43.72 109.23 43.72 109.42 43.72 109.61 43.72 109.79 43.72 109.98 43.71 110.17 43.71 110.36 43.71 110.54 43.71 110.73 43.7 110.92 43.7 111.11 43.7 111.3 43.69 111.48 43.69 111.67 43.69 111.86 43.68 112.05 43.68 112.23 43.68 112.42 43.67 112.61 43.67 112.8 43.67 112.98 43.66 113.17 43.66 113.36 43.65 113.55 43.65 113.73 43.65 113.92 43.64 114.11 43.64 114.3 43.64 114.48 43.63 114.67 43.63 114.86 43.62 115.05 43.62 115.23 43.62 115.42 43.61 115.61 43.61 115.8 43.61 115.98 43.61 116.17 43.6 116.36 43.6 116.55 43.6 116.73 43.6 116.92 43.59 117.11 43.59 117.3 43.59 117.48 43.59 117.67 43.59 117.86 43.59 118.05 43.59 118.23 43.59 118.42 43.58 118.61 43.58 118.8 43.58 118.98 43.59 119.17 43.59 119.36 43.59 119.55 43.59 119.73 43.59 119.92 43.59 120.11 43.59 120.3 43.6 120.48 43.6 120.67 43.6 120.86 43.61 121.05 43.61 121.23 43.62 121.42 43.62 121.61 43.63 121.8 43.63 121.99 43.64 122.17 43.64 122.36 43.65 122.55 43.66 122.74 43.67 122.92 43.67 123.11 43.68 123.3 43.69 123.49 43.7 123.67 43.71 123.86 43.72 124.05 43.73 124.24 43.74 124.42 43.76 124.61 43.77 124.8 43.78 124.99 43.8 125.17 43.81 125.36 43.83 125.55 43.84 125.74 43.86 125.92 43.88 126.11 43.89 126.3 43.91 126.49 43.93 126.67 43.95 126.86 43.97 127.05 43.99 127.24 44.01" id="img-6ef074f4-58" class="geometry color_0.0" stroke="#387B9E"/>
        <path fill="none" d="M24.09,43.56 L 24.27 43.57 24.46 43.57 24.65 43.58 24.84 43.58 25.02 43.59 25.21 43.59 25.4 43.6 25.59 43.6 25.77 43.61 25.96 43.61 26.15 43.62 26.34 43.62 26.53 43.62 26.71 43.63 26.9 43.63 27.09 43.63 27.28 43.64 27.46 43.64 27.65 43.64 27.84 43.65 28.03 43.65 28.21 43.65 28.4 43.65 28.59 43.66 28.78 43.66 28.96 43.66 29.15 43.66 29.34 43.66 29.53 43.66 29.71 43.67 29.9 43.67 30.09 43.67 30.28 43.67 30.46 43.67 30.65 43.67 30.84 43.67 31.03 43.67 31.21 43.67 31.4 43.68 31.59 43.68 31.78 43.68 31.96 43.68 32.15 43.68 32.34 43.68 32.53 43.68 32.71 43.68 32.9 43.68 33.09 43.68 33.28 43.68 33.46 43.68 33.65 43.68 33.84 43.68 34.03 43.68 34.21 43.68 34.4 43.67 34.59 43.67 34.78 43.67 34.96 43.67 35.15 43.67 35.34 43.67 35.53 43.67 35.71 43.67 35.9 43.67 36.09 43.67 36.28 43.67 36.46 43.67 36.65 43.67 36.84 43.66 37.03 43.66 37.22 43.66 37.4 43.66 37.59 43.66 37.78 43.66 37.97 43.66 38.15 43.66 38.34 43.66 38.53 43.66 38.72 43.65 38.9 43.65 39.09 43.65 39.28 43.65 39.47 43.65 39.65 43.65 39.84 43.65 40.03 43.65 40.22 43.65 40.4 43.65 40.59 43.65 40.78 43.64 40.97 43.64 41.15 43.64 41.34 43.64 41.53 43.64 41.72 43.64 41.9 43.64 42.09 43.64 42.28 43.64 42.47 43.64 42.65 43.64 42.84 43.64 43.03 43.64 43.22 43.64 43.4 43.64 43.59 43.64 43.78 43.64 43.97 43.64 44.15 43.64 44.34 43.64 44.53 43.64 44.72 43.64 44.9 43.64 45.09 43.64 45.28 43.64 45.47 43.64 45.65 43.64 45.84 43.64 46.03 43.64 46.22 43.65 46.4 43.65 46.59 43.65 46.78 43.65 46.97 43.65 47.15 43.65 47.34 43.66 47.53 43.66 47.72 43.66 47.91 43.66 48.09 43.66 48.28 43.67 48.47 43.67 48.66 43.67 48.84 43.67 49.03 43.68 49.22 43.68 49.41 43.68 49.59 43.68 49.78 43.69 49.97 43.69 50.16 43.69 50.34 43.69 50.53 43.7 50.72 43.7 50.91 43.7 51.09 43.7 51.28 43.71 51.47 43.71 51.66 43.71 51.84 43.71 52.03 43.71 52.22 43.71 52.41 43.72 52.59 43.72 52.78 43.72 52.97 43.72 53.16 43.72 53.34 43.72 53.53 43.72 53.72 43.72 53.91 43.72 54.09 43.72 54.28 43.71 54.47 43.71 54.66 43.71 54.84 43.71 55.03 43.71 55.22 43.7 55.41 43.7 55.59 43.7 55.78 43.69 55.97 43.69 56.16 43.68 56.34 43.68 56.53 43.67 56.72 43.66 56.91 43.66 57.09 43.65 57.28 43.64 57.47 43.63 57.66 43.63 57.84 43.62 58.03 43.61 58.22 43.6 58.41 43.59 58.6 43.58 58.78 43.57 58.97 43.56 59.16 43.55 59.35 43.54 59.53 43.53 59.72 43.52 59.91 43.51 60.1 43.5 60.28 43.5 60.47 43.49 60.66 43.48 60.85 43.47 61.03 43.47 61.22 43.46 61.41 43.45 61.6 43.45 61.78 43.44 61.97 43.44 62.16 43.44 62.35 43.44 62.53 43.43 62.72 43.43 62.91 43.43 63.1 43.44 63.28 43.44 63.47 43.44 63.66 43.45 63.85 43.45 64.03 43.46 64.22 43.47 64.41 43.48 64.6 43.49 64.78 43.5 64.97 43.52 65.16 43.53 65.35 43.55 65.53 43.57 65.72 43.59 65.91 43.61 66.1 43.63 66.28 43.66 66.47 43.68 66.66 43.71 66.85 43.74 67.03 43.78 67.22 43.81 67.41 43.84 67.6 43.88 67.78 43.91 67.97 43.95 68.16 43.98 68.35 44.02 68.53 44.05 68.72 44.09 68.91 44.13 69.1 44.16 69.29 44.19 69.47 44.23 69.66 44.26 69.85 44.29 70.04 44.32 70.22 44.35 70.41 44.37 70.6 44.39 70.79 44.42 70.97 44.44 71.16 44.45 71.35 44.47 71.54 44.48 71.72 44.49 71.91 44.49 72.1 44.49 72.29 44.49 72.47 44.49 72.66 44.48 72.85 44.46 73.04 44.44 73.22 44.42 73.41 44.4 73.6 44.36 73.79 44.33 73.97 44.29 74.16 44.24 74.35 44.19 74.54 44.13 74.72 44.07 74.91 44 75.1 43.92 75.29 43.84 75.47 43.75 75.66 43.66 75.85 43.56 76.04 43.45 76.22 43.33 76.41 43.21 76.6 43.09 76.79 42.96 76.97 42.82 77.16 42.68 77.35 42.54 77.54 42.39 77.72 42.24 77.91 42.09 78.1 41.93 78.29 41.78 78.47 41.62 78.66 41.46 78.85 41.29 79.04 41.13 79.23 40.96 79.41 40.8 79.6 40.64 79.79 40.47 79.98 40.31 80.16 40.15 80.35 39.99 80.54 39.83 80.73 39.68 80.91 39.52 81.1 39.37 81.29 39.23 81.48 39.09 81.66 38.95 81.85 38.81 82.04 38.68 82.23 38.56 82.41 38.44 82.6 38.33 82.79 38.22 82.98 38.12 83.16 38.03 83.35 37.94 83.54 37.86 83.73 37.79 83.91 37.73 84.1 37.68 84.29 37.63 84.48 37.6 84.66 37.57 84.85 37.55 85.04 37.55 85.23 37.55 85.41 37.57 85.6 37.59 85.79 37.63 85.98 37.67 86.16 37.73 86.35 37.79 86.54 37.86 86.73 37.94 86.91 38.02 87.1 38.12 87.29 38.22 87.48 38.32 87.66 38.44 87.85 38.56 88.04 38.68 88.23 38.81 88.41 38.94 88.6 39.08 88.79 39.22 88.98 39.37 89.16 39.52 89.35 39.67 89.54 39.83 89.73 39.98 89.92 40.14 90.1 40.31 90.29 40.47 90.48 40.63 90.67 40.8 90.85 40.96 91.04 41.12 91.23 41.29 91.42 41.45 91.6 41.61 91.79 41.77 91.98 41.93 92.17 42.09 92.35 42.24 92.54 42.39 92.73 42.54 92.92 42.68 93.1 42.82 93.29 42.96 93.48 43.09 93.67 43.21 93.85 43.33 94.04 43.45 94.23 43.56 94.42 43.66 94.6 43.75 94.79 43.84 94.98 43.92 95.17 44 95.35 44.07 95.54 44.13 95.73 44.19 95.92 44.25 96.1 44.29 96.29 44.33 96.48 44.37 96.67 44.4 96.85 44.43 97.04 44.45 97.23 44.47 97.42 44.49 97.6 44.5 97.79 44.5 97.98 44.5 98.17 44.5 98.35 44.5 98.54 44.49 98.73 44.48 98.92 44.47 99.1 44.45 99.29 44.43 99.48 44.41 99.67 44.39 99.85 44.36 100.04 44.33 100.23 44.31 100.42 44.27 100.61 44.24 100.79 44.21 100.98 44.18 101.17 44.14 101.36 44.11 101.54 44.07 101.73 44.03 101.92 44 102.11 43.96 102.29 43.92 102.48 43.89 102.67 43.85 102.86 43.82 103.04 43.78 103.23 43.75 103.42 43.72 103.61 43.69 103.79 43.66 103.98 43.63 104.17 43.6 104.36 43.58 104.54 43.56 104.73 43.54 104.92 43.52 105.11 43.5 105.29 43.48 105.48 43.47 105.67 43.45 105.86 43.44 106.04 43.43 106.23 43.42 106.42 43.41 106.61 43.41 106.79 43.4 106.98 43.39 107.17 43.39 107.36 43.39 107.54 43.39 107.73 43.39 107.92 43.39 108.11 43.39 108.29 43.39 108.48 43.39 108.67 43.4 108.86 43.4 109.04 43.41 109.23 43.41 109.42 43.42 109.61 43.43 109.79 43.44 109.98 43.45 110.17 43.45 110.36 43.46 110.54 43.48 110.73 43.49 110.92 43.5 111.11 43.51 111.3 43.52 111.48 43.53 111.67 43.55 111.86 43.56 112.05 43.57 112.23 43.59 112.42 43.6 112.61 43.62 112.8 43.63 112.98 43.64 113.17 43.66 113.36 43.67 113.55 43.69 113.73 43.7 113.92 43.71 114.11 43.73 114.3 43.74 114.48 43.75 114.67 43.77 114.86 43.78 115.05 43.79 115.23 43.81 115.42 43.82 115.61 43.83 115.8 43.84 115.98 43.85 116.17 43.86 116.36 43.87 116.55 43.88 116.73 43.89 116.92 43.89 117.11 43.9 117.3 43.91 117.48 43.91 117.67 43.92 117.86 43.92 118.05 43.93 118.23 43.93 118.42 43.93 118.61 43.93 118.8 43.93 118.98 43.93 119.17 43.92 119.36 43.92 119.55 43.92 119.73 43.91 119.92 43.9 120.11 43.89 120.3 43.88 120.48 43.87 120.67 43.86 120.86 43.85 121.05 43.83 121.23 43.82 121.42 43.8 121.61 43.78 121.8 43.76 121.99 43.73 122.17 43.71 122.36 43.68 122.55 43.66 122.74 43.63 122.92 43.6 123.11 43.57 123.3 43.53 123.49 43.49 123.67 43.46 123.86 43.42 124.05 43.37 124.24 43.33 124.42 43.29 124.61 43.24 124.8 43.19 124.99 43.14 125.17 43.08 125.36 43.02 125.55 42.97 125.74 42.91 125.92 42.84 126.11 42.78 126.3 42.71 126.49 42.64 126.67 42.57 126.86 42.49 127.05 42.42 127.24 42.34" id="img-6ef074f4-59" class="geometry color_1.0" stroke="#3F8AB1"/>
        <path fill="none" d="M24.09,43.68 L 24.27 43.68 24.46 43.68 24.65 43.68 24.84 43.68 25.02 43.68 25.21 43.67 25.4 43.67 25.59 43.67 25.77 43.67 25.96 43.67 26.15 43.67 26.34 43.67 26.53 43.67 26.71 43.67 26.9 43.66 27.09 43.66 27.28 43.66 27.46 43.66 27.65 43.66 27.84 43.66 28.03 43.66 28.21 43.66 28.4 43.66 28.59 43.66 28.78 43.66 28.96 43.66 29.15 43.66 29.34 43.66 29.53 43.66 29.71 43.66 29.9 43.65 30.09 43.65 30.28 43.65 30.46 43.65 30.65 43.65 30.84 43.65 31.03 43.65 31.21 43.65 31.4 43.65 31.59 43.65 31.78 43.65 31.96 43.65 32.15 43.65 32.34 43.65 32.53 43.65 32.71 43.65 32.9 43.65 33.09 43.65 33.28 43.65 33.46 43.65 33.65 43.65 33.84 43.65 34.03 43.65 34.21 43.65 34.4 43.65 34.59 43.65 34.78 43.65 34.96 43.65 35.15 43.65 35.34 43.65 35.53 43.65 35.71 43.65 35.9 43.65 36.09 43.65 36.28 43.65 36.46 43.66 36.65 43.66 36.84 43.66 37.03 43.66 37.22 43.66 37.4 43.66 37.59 43.66 37.78 43.66 37.97 43.66 38.15 43.66 38.34 43.66 38.53 43.66 38.72 43.66 38.9 43.66 39.09 43.66 39.28 43.66 39.47 43.66 39.65 43.66 39.84 43.66 40.03 43.66 40.22 43.66 40.4 43.66 40.59 43.66 40.78 43.66 40.97 43.66 41.15 43.66 41.34 43.66 41.53 43.66 41.72 43.66 41.9 43.66 42.09 43.66 42.28 43.66 42.47 43.66 42.65 43.66 42.84 43.66 43.03 43.66 43.22 43.66 43.4 43.66 43.59 43.66 43.78 43.66 43.97 43.66 44.15 43.66 44.34 43.66 44.53 43.66 44.72 43.66 44.9 43.66 45.09 43.66 45.28 43.66 45.47 43.66 45.65 43.66 45.84 43.66 46.03 43.66 46.22 43.66 46.4 43.66 46.59 43.66 46.78 43.66 46.97 43.66 47.15 43.66 47.34 43.66 47.53 43.66 47.72 43.66 47.91 43.66 48.09 43.66 48.28 43.66 48.47 43.65 48.66 43.65 48.84 43.65 49.03 43.65 49.22 43.65 49.41 43.65 49.59 43.65 49.78 43.65 49.97 43.65 50.16 43.65 50.34 43.65 50.53 43.65 50.72 43.65 50.91 43.65 51.09 43.65 51.28 43.64 51.47 43.64 51.66 43.64 51.84 43.64 52.03 43.64 52.22 43.64 52.41 43.64 52.59 43.64 52.78 43.64 52.97 43.64 53.16 43.64 53.34 43.64 53.53 43.64 53.72 43.64 53.91 43.64 54.09 43.64 54.28 43.64 54.47 43.64 54.66 43.64 54.84 43.64 55.03 43.64 55.22 43.65 55.41 43.65 55.59 43.65 55.78 43.65 55.97 43.65 56.16 43.65 56.34 43.65 56.53 43.65 56.72 43.66 56.91 43.66 57.09 43.66 57.28 43.66 57.47 43.66 57.66 43.67 57.84 43.67 58.03 43.67 58.22 43.67 58.41 43.68 58.6 43.68 58.78 43.68 58.97 43.68 59.16 43.69 59.35 43.69 59.53 43.69 59.72 43.69 59.91 43.7 60.1 43.7 60.28 43.7 60.47 43.7 60.66 43.7 60.85 43.71 61.03 43.71 61.22 43.71 61.41 43.71 61.6 43.71 61.78 43.71 61.97 43.72 62.16 43.72 62.35 43.72 62.53 43.72 62.72 43.72 62.91 43.72 63.1 43.72 63.28 43.72 63.47 43.72 63.66 43.71 63.85 43.71 64.03 43.71 64.22 43.71 64.41 43.71 64.6 43.7 64.78 43.7 64.97 43.7 65.16 43.69 65.35 43.69 65.53 43.68 65.72 43.68 65.91 43.67 66.1 43.66 66.28 43.66 66.47 43.65 66.66 43.64 66.85 43.63 67.03 43.63 67.22 43.62 67.41 43.61 67.6 43.6 67.78 43.59 67.97 43.58 68.16 43.57 68.35 43.56 68.53 43.55 68.72 43.54 68.91 43.53 69.1 43.52 69.29 43.51 69.47 43.51 69.66 43.5 69.85 43.49 70.04 43.48 70.22 43.47 70.41 43.47 70.6 43.46 70.79 43.46 70.97 43.45 71.16 43.45 71.35 43.44 71.54 43.44 71.72 43.44 71.91 43.44 72.1 43.43 72.29 43.44 72.47 43.44 72.66 43.44 72.85 43.44 73.04 43.45 73.22 43.45 73.41 43.46 73.6 43.47 73.79 43.48 73.97 43.49 74.16 43.5 74.35 43.52 74.54 43.53 74.72 43.55 74.91 43.57 75.1 43.59 75.29 43.61 75.47 43.63 75.66 43.66 75.85 43.68 76.04 43.71 76.22 43.74 76.41 43.77 76.6 43.81 76.79 43.84 76.97 43.88 77.16 43.91 77.35 43.95 77.54 43.98 77.72 44.02 77.91 44.05 78.1 44.09 78.29 44.12 78.47 44.16 78.66 44.19 78.85 44.22 79.04 44.26 79.23 44.29 79.41 44.32 79.6 44.34 79.79 44.37 79.98 44.39 80.16 44.41 80.35 44.43 80.54 44.45 80.73 44.46 80.91 44.47 81.1 44.48 81.29 44.49 81.48 44.49 81.66 44.49 81.85 44.48 82.04 44.47 82.23 44.46 82.41 44.44 82.6 44.42 82.79 44.39 82.98 44.36 83.16 44.32 83.35 44.28 83.54 44.24 83.73 44.19 83.91 44.13 84.1 44.07 84.29 44 84.48 43.92 84.66 43.84 84.85 43.75 85.04 43.66 85.23 43.56 85.41 43.45 85.6 43.34 85.79 43.22 85.98 43.09 86.16 42.96 86.35 42.83 86.54 42.69 86.73 42.55 86.91 42.4 87.1 42.25 87.29 42.1 87.48 41.94 87.66 41.78 87.85 41.63 88.04 41.46 88.23 41.3 88.41 41.14 88.6 40.98 88.79 40.81 88.98 40.65 89.16 40.49 89.35 40.32 89.54 40.16 89.73 40 89.92 39.85 90.1 39.69 90.29 39.54 90.48 39.39 90.67 39.24 90.85 39.1 91.04 38.96 91.23 38.83 91.42 38.7 91.6 38.57 91.79 38.45 91.98 38.34 92.17 38.23 92.35 38.13 92.54 38.04 92.73 37.95 92.92 37.87 93.1 37.8 93.29 37.74 93.48 37.68 93.67 37.64 93.85 37.6 94.04 37.57 94.23 37.56 94.42 37.55 94.6 37.55 94.79 37.56 94.98 37.59 95.17 37.62 95.35 37.66 95.54 37.72 95.73 37.78 95.92 37.84 96.1 37.92 96.29 38 96.48 38.09 96.67 38.19 96.85 38.3 97.04 38.41 97.23 38.52 97.42 38.64 97.6 38.77 97.79 38.9 97.98 39.04 98.17 39.18 98.35 39.32 98.54 39.47 98.73 39.62 98.92 39.78 99.1 39.93 99.29 40.09 99.48 40.25 99.67 40.41 99.85 40.58 100.04 40.74 100.23 40.9 100.42 41.07 100.61 41.23 100.79 41.4 100.98 41.56 101.17 41.72 101.36 41.88 101.54 42.04 101.73 42.19 101.92 42.35 102.11 42.5 102.29 42.64 102.48 42.79 102.67 42.92 102.86 43.06 103.04 43.19 103.23 43.31 103.42 43.43 103.61 43.55 103.79 43.66 103.98 43.76 104.17 43.86 104.36 43.95 104.54 44.03 104.73 44.11 104.92 44.18 105.11 44.25 105.29 44.31 105.48 44.36 105.67 44.42 105.86 44.46 106.04 44.5 106.23 44.54 106.42 44.57 106.61 44.6 106.79 44.62 106.98 44.64 107.17 44.65 107.36 44.66 107.54 44.67 107.73 44.67 107.92 44.67 108.11 44.66 108.29 44.66 108.48 44.64 108.67 44.63 108.86 44.61 109.04 44.59 109.23 44.57 109.42 44.54 109.61 44.51 109.79 44.48 109.98 44.45 110.17 44.41 110.36 44.38 110.54 44.34 110.73 44.3 110.92 44.25 111.11 44.21 111.3 44.16 111.48 44.12 111.67 44.07 111.86 44.02 112.05 43.97 112.23 43.92 112.42 43.87 112.61 43.81 112.8 43.76 112.98 43.71 113.17 43.66 113.36 43.6 113.55 43.55 113.73 43.5 113.92 43.45 114.11 43.4 114.3 43.35 114.48 43.3 114.67 43.25 114.86 43.2 115.05 43.15 115.23 43.11 115.42 43.06 115.61 43.02 115.8 42.98 115.98 42.94 116.17 42.9 116.36 42.87 116.55 42.83 116.73 42.8 116.92 42.77 117.11 42.75 117.3 42.72 117.48 42.7 117.67 42.69 117.86 42.67 118.05 42.66 118.23 42.65 118.42 42.65 118.61 42.64 118.8 42.65 118.98 42.65 119.17 42.66 119.36 42.68 119.55 42.7 119.73 42.72 119.92 42.74 120.11 42.78 120.3 42.81 120.48 42.85 120.67 42.9 120.86 42.95 121.05 43.01 121.23 43.07 121.42 43.13 121.61 43.21 121.8 43.29 121.99 43.37 122.17 43.46 122.36 43.56 122.55 43.66 122.74 43.77 122.92 43.88 123.11 44 123.3 44.13 123.49 44.27 123.67 44.41 123.86 44.56 124.05 44.71 124.24 44.88 124.42 45.05 124.61 45.23 124.8 45.41 124.99 45.61 125.17 45.81 125.36 46.02 125.55 46.24 125.74 46.46 125.92 46.7 126.11 46.94 126.3 47.19 126.49 47.46 126.67 47.73 126.86 48.01 127.05 48.29 127.24 48.59" id="img-6ef074f4-60" class="geometry color_2.0" stroke="#4599C4"/>
        <path fill="none" d="M24.09,43.65 L 24.27 43.65 24.46 43.65 24.65 43.65 24.84 43.65 25.02 43.65 25.21 43.65 25.4 43.65 25.59 43.65 25.77 43.65 25.96 43.65 26.15 43.65 26.34 43.65 26.53 43.66 26.71 43.66 26.9 43.66 27.09 43.66 27.28 43.66 27.46 43.66 27.65 43.66 27.84 43.66 28.03 43.66 28.21 43.66 28.4 43.66 28.59 43.66 28.78 43.66 28.96 43.66 29.15 43.66 29.34 43.66 29.53 43.66 29.71 43.66 29.9 43.66 30.09 43.66 30.28 43.66 30.46 43.66 30.65 43.66 30.84 43.66 31.03 43.66 31.21 43.66 31.4 43.66 31.59 43.66 31.78 43.66 31.96 43.66 32.15 43.66 32.34 43.66 32.53 43.66 32.71 43.66 32.9 43.66 33.09 43.66 33.28 43.66 33.46 43.66 33.65 43.66 33.84 43.66 34.03 43.66 34.21 43.66 34.4 43.66 34.59 43.66 34.78 43.66 34.96 43.66 35.15 43.66 35.34 43.66 35.53 43.66 35.71 43.66 35.9 43.66 36.09 43.66 36.28 43.66 36.46 43.66 36.65 43.66 36.84 43.66 37.03 43.66 37.22 43.66 37.4 43.66 37.59 43.66 37.78 43.66 37.97 43.66 38.15 43.66 38.34 43.66 38.53 43.66 38.72 43.66 38.9 43.66 39.09 43.66 39.28 43.66 39.47 43.66 39.65 43.66 39.84 43.66 40.03 43.66 40.22 43.66 40.4 43.66 40.59 43.66 40.78 43.66 40.97 43.66 41.15 43.66 41.34 43.66 41.53 43.66 41.72 43.66 41.9 43.66 42.09 43.66 42.28 43.66 42.47 43.66 42.65 43.66 42.84 43.66 43.03 43.66 43.22 43.66 43.4 43.66 43.59 43.66 43.78 43.66 43.97 43.66 44.15 43.66 44.34 43.66 44.53 43.66 44.72 43.66 44.9 43.66 45.09 43.66 45.28 43.66 45.47 43.66 45.65 43.66 45.84 43.66 46.03 43.66 46.22 43.66 46.4 43.66 46.59 43.66 46.78 43.66 46.97 43.66 47.15 43.66 47.34 43.66 47.53 43.66 47.72 43.66 47.91 43.66 48.09 43.66 48.28 43.66 48.47 43.66 48.66 43.66 48.84 43.66 49.03 43.66 49.22 43.66 49.41 43.66 49.59 43.66 49.78 43.66 49.97 43.66 50.16 43.66 50.34 43.66 50.53 43.66 50.72 43.66 50.91 43.66 51.09 43.66 51.28 43.66 51.47 43.66 51.66 43.66 51.84 43.66 52.03 43.66 52.22 43.66 52.41 43.66 52.59 43.66 52.78 43.66 52.97 43.66 53.16 43.66 53.34 43.66 53.53 43.66 53.72 43.66 53.91 43.66 54.09 43.66 54.28 43.66 54.47 43.66 54.66 43.66 54.84 43.66 55.03 43.66 55.22 43.66 55.41 43.66 55.59 43.66 55.78 43.66 55.97 43.66 56.16 43.66 56.34 43.66 56.53 43.66 56.72 43.66 56.91 43.66 57.09 43.66 57.28 43.66 57.47 43.66 57.66 43.66 57.84 43.65 58.03 43.65 58.22 43.65 58.41 43.65 58.6 43.65 58.78 43.65 58.97 43.65 59.16 43.65 59.35 43.65 59.53 43.65 59.72 43.65 59.91 43.65 60.1 43.65 60.28 43.65 60.47 43.65 60.66 43.65 60.85 43.64 61.03 43.64 61.22 43.64 61.41 43.64 61.6 43.64 61.78 43.64 61.97 43.64 62.16 43.64 62.35 43.64 62.53 43.64 62.72 43.64 62.91 43.64 63.1 43.64 63.28 43.64 63.47 43.64 63.66 43.64 63.85 43.64 64.03 43.64 64.22 43.64 64.41 43.65 64.6 43.65 64.78 43.65 64.97 43.65 65.16 43.65 65.35 43.65 65.53 43.65 65.72 43.65 65.91 43.65 66.1 43.66 66.28 43.66 66.47 43.66 66.66 43.66 66.85 43.66 67.03 43.67 67.22 43.67 67.41 43.67 67.6 43.67 67.78 43.67 67.97 43.68 68.16 43.68 68.35 43.68 68.53 43.68 68.72 43.69 68.91 43.69 69.1 43.69 69.29 43.69 69.47 43.7 69.66 43.7 69.85 43.7 70.04 43.7 70.22 43.7 70.41 43.71 70.6 43.71 70.79 43.71 70.97 43.71 71.16 43.71 71.35 43.71 71.54 43.71 71.72 43.71 71.91 43.71 72.1 43.71 72.29 43.71 72.47 43.71 72.66 43.71 72.85 43.71 73.04 43.71 73.22 43.71 73.41 43.71 73.6 43.71 73.79 43.7 73.97 43.7 74.16 43.7 74.35 43.69 74.54 43.69 74.72 43.69 74.91 43.68 75.1 43.68 75.29 43.67 75.47 43.66 75.66 43.66 75.85 43.65 76.04 43.64 76.22 43.64 76.41 43.63 76.6 43.62 76.79 43.61 76.97 43.6 77.16 43.59 77.35 43.58 77.54 43.57 77.72 43.57 77.91 43.56 78.1 43.55 78.29 43.54 78.47 43.53 78.66 43.52 78.85 43.51 79.04 43.5 79.23 43.5 79.41 43.49 79.6 43.48 79.79 43.47 79.98 43.47 80.16 43.46 80.35 43.46 80.54 43.45 80.73 43.45 80.91 43.45 81.1 43.45 81.29 43.44 81.48 43.44 81.66 43.44 81.85 43.45 82.04 43.45 82.23 43.45 82.41 43.46 82.6 43.46 82.79 43.47 82.98 43.48 83.16 43.49 83.35 43.5 83.54 43.51 83.73 43.52 83.91 43.54 84.1 43.55 84.29 43.57 84.48 43.59 84.66 43.61 84.85 43.63 85.04 43.66 85.23 43.68 85.41 43.71 85.6 43.74 85.79 43.77 85.98 43.8 86.16 43.83 86.35 43.87 86.54 43.9 86.73 43.93 86.91 43.97 87.1 44 87.29 44.04 87.48 44.07 87.66 44.1 87.85 44.14 88.04 44.17 88.23 44.2 88.41 44.23 88.6 44.26 88.79 44.29 88.98 44.31 89.16 44.34 89.35 44.36 89.54 44.38 89.73 44.4 89.92 44.42 90.1 44.43 90.29 44.44 90.48 44.45 90.67 44.45 90.85 44.45 91.04 44.45 91.23 44.45 91.42 44.44 91.6 44.43 91.79 44.41 91.98 44.39 92.17 44.36 92.35 44.33 92.54 44.3 92.73 44.26 92.92 44.21 93.1 44.16 93.29 44.11 93.48 44.05 93.67 43.98 93.85 43.91 94.04 43.83 94.23 43.75 94.42 43.66 94.6 43.56 94.79 43.46 94.98 43.35 95.17 43.23 95.35 43.11 95.54 42.99 95.73 42.86 95.92 42.73 96.1 42.59 96.29 42.45 96.48 42.31 96.67 42.16 96.85 42.01 97.04 41.86 97.23 41.7 97.42 41.55 97.6 41.39 97.79 41.23 97.98 41.07 98.17 40.91 98.35 40.75 98.54 40.59 98.73 40.44 98.92 40.28 99.1 40.12 99.29 39.97 99.48 39.81 99.67 39.66 99.85 39.52 100.04 39.37 100.23 39.23 100.42 39.09 100.61 38.95 100.79 38.82 100.98 38.7 101.17 38.57 101.36 38.46 101.54 38.35 101.73 38.24 101.92 38.14 102.11 38.05 102.29 37.96 102.48 37.88 102.67 37.81 102.86 37.75 103.04 37.69 103.23 37.64 103.42 37.6 103.61 37.57 103.79 37.55 103.98 37.54 104.17 37.53 104.36 37.54 104.54 37.55 104.73 37.58 104.92 37.61 105.11 37.65 105.29 37.7 105.48 37.75 105.67 37.82 105.86 37.89 106.04 37.97 106.23 38.05 106.42 38.14 106.61 38.24 106.79 38.34 106.98 38.45 107.17 38.56 107.36 38.68 107.54 38.8 107.73 38.93 107.92 39.07 108.11 39.2 108.29 39.34 108.48 39.49 108.67 39.64 108.86 39.79 109.04 39.95 109.23 40.1 109.42 40.27 109.61 40.43 109.79 40.59 109.98 40.76 110.17 40.93 110.36 41.1 110.54 41.27 110.73 41.44 110.92 41.62 111.11 41.79 111.3 41.96 111.48 42.14 111.67 42.31 111.86 42.48 112.05 42.66 112.23 42.83 112.42 43 112.61 43.16 112.8 43.33 112.98 43.5 113.17 43.66 113.36 43.82 113.55 43.97 113.73 44.13 113.92 44.28 114.11 44.43 114.3 44.57 114.48 44.71 114.67 44.85 114.86 44.98 115.05 45.11 115.23 45.23 115.42 45.35 115.61 45.46 115.8 45.56 115.98 45.67 116.17 45.76 116.36 45.85 116.55 45.93 116.73 46 116.92 46.07 117.11 46.13 117.3 46.19 117.48 46.23 117.67 46.27 117.86 46.3 118.05 46.32 118.23 46.33 118.42 46.33 118.61 46.33 118.8 46.31 118.98 46.29 119.17 46.25 119.36 46.21 119.55 46.15 119.73 46.09 119.92 46.01 120.11 45.92 120.3 45.82 120.48 45.71 120.67 45.59 120.86 45.45 121.05 45.31 121.23 45.15 121.42 44.97 121.61 44.79 121.8 44.59 121.99 44.38 122.17 44.15 122.36 43.91 122.55 43.66 122.74 43.39 122.92 43.11 123.11 42.81 123.3 42.49 123.49 42.17 123.67 41.82 123.86 41.46 124.05 41.08 124.24 40.69 124.42 40.28 124.61 39.86 124.8 39.41 124.99 38.95 125.17 38.47 125.36 37.98 125.55 37.46 125.74 36.93 125.92 36.38 126.11 35.81 126.3 35.22 126.49 34.61 126.67 33.99 126.86 33.34 127.05 32.67 127.24 31.98" id="img-6ef074f4-61" class="geometry color_3.0" stroke="#4CA8D7"/>
        <path fill="none" d="M24.09,43.66 L 24.27 43.66 24.46 43.66 24.65 43.66 24.84 43.66 25.02 43.66 25.21 43.66 25.4 43.66 25.59 43.66 25.77 43.66 25.96 43.66 26.15 43.66 26.34 43.66 26.53 43.66 26.71 43.66 26.9 43.66 27.09 43.66 27.28 43.66 27.46 43.66 27.65 43.66 27.84 43.66 28.03 43.66 28.21 43.66 28.4 43.66 28.59 43.66 28.78 43.66 28.96 43.66 29.15 43.66 29.34 43.66 29.53 43.66 29.71 43.66 29.9 43.66 30.09 43.66 30.28 43.66 30.46 43.66 30.65 43.66 30.84 43.66 31.03 43.66 31.21 43.66 31.4 43.66 31.59 43.66 31.78 43.66 31.96 43.66 32.15 43.66 32.34 43.66 32.53 43.66 32.71 43.66 32.9 43.66 33.09 43.66 33.28 43.66 33.46 43.66 33.65 43.66 33.84 43.66 34.03 43.66 34.21 43.66 34.4 43.66 34.59 43.66 34.78 43.66 34.96 43.66 35.15 43.66 35.34 43.66 35.53 43.66 35.71 43.66 35.9 43.66 36.09 43.66 36.28 43.66 36.46 43.66 36.65 43.66 36.84 43.66 37.03 43.66 37.22 43.66 37.4 43.66 37.59 43.66 37.78 43.66 37.97 43.66 38.15 43.66 38.34 43.66 38.53 43.66 38.72 43.66 38.9 43.66 39.09 43.66 39.28 43.66 39.47 43.66 39.65 43.66 39.84 43.66 40.03 43.66 40.22 43.66 40.4 43.66 40.59 43.66 40.78 43.66 40.97 43.66 41.15 43.66 41.34 43.66 41.53 43.66 41.72 43.66 41.9 43.66 42.09 43.66 42.28 43.66 42.47 43.66 42.65 43.66 42.84 43.66 43.03 43.66 43.22 43.66 43.4 43.66 43.59 43.66 43.78 43.66 43.97 43.66 44.15 43.66 44.34 43.66 44.53 43.66 44.72 43.66 44.9 43.66 45.09 43.66 45.28 43.66 45.47 43.66 45.65 43.66 45.84 43.66 46.03 43.66 46.22 43.66 46.4 43.66 46.59 43.66 46.78 43.66 46.97 43.66 47.15 43.66 47.34 43.66 47.53 43.66 47.72 43.66 47.91 43.66 48.09 43.66 48.28 43.66 48.47 43.66 48.66 43.66 48.84 43.66 49.03 43.66 49.22 43.66 49.41 43.66 49.59 43.66 49.78 43.66 49.97 43.66 50.16 43.66 50.34 43.66 50.53 43.66 50.72 43.66 50.91 43.66 51.09 43.66 51.28 43.66 51.47 43.66 51.66 43.66 51.84 43.66 52.03 43.66 52.22 43.66 52.41 43.66 52.59 43.66 52.78 43.66 52.97 43.66 53.16 43.66 53.34 43.66 53.53 43.66 53.72 43.66 53.91 43.66 54.09 43.66 54.28 43.66 54.47 43.66 54.66 43.66 54.84 43.66 55.03 43.66 55.22 43.66 55.41 43.66 55.59 43.66 55.78 43.66 55.97 43.66 56.16 43.66 56.34 43.66 56.53 43.66 56.72 43.66 56.91 43.66 57.09 43.66 57.28 43.66 57.47 43.66 57.66 43.66 57.84 43.66 58.03 43.66 58.22 43.66 58.41 43.66 58.6 43.66 58.78 43.66 58.97 43.66 59.16 43.66 59.35 43.66 59.53 43.66 59.72 43.66 59.91 43.66 60.1 43.66 60.28 43.66 60.47 43.66 60.66 43.66 60.85 43.66 61.03 43.66 61.22 43.66 61.41 43.66 61.6 43.66 61.78 43.66 61.97 43.66 62.16 43.66 62.35 43.66 62.53 43.66 62.72 43.66 62.91 43.66 63.1 43.66 63.28 43.66 63.47 43.66 63.66 43.66 63.85 43.66 64.03 43.66 64.22 43.66 64.41 43.66 64.6 43.66 64.78 43.66 64.97 43.66 65.16 43.66 65.35 43.66 65.53 43.66 65.72 43.66 65.91 43.66 66.1 43.66 66.28 43.66 66.47 43.66 66.66 43.66 66.85 43.66 67.03 43.66 67.22 43.66 67.41 43.65 67.6 43.65 67.78 43.65 67.97 43.65 68.16 43.65 68.35 43.65 68.53 43.65 68.72 43.65 68.91 43.65 69.1 43.65 69.29 43.65 69.47 43.65 69.66 43.65 69.85 43.65 70.04 43.65 70.22 43.65 70.41 43.65 70.6 43.65 70.79 43.65 70.97 43.65 71.16 43.65 71.35 43.65 71.54 43.65 71.72 43.65 71.91 43.65 72.1 43.65 72.29 43.65 72.47 43.65 72.66 43.65 72.85 43.65 73.04 43.65 73.22 43.65 73.41 43.65 73.6 43.65 73.79 43.65 73.97 43.65 74.16 43.65 74.35 43.65 74.54 43.65 74.72 43.65 74.91 43.65 75.1 43.65 75.29 43.65 75.47 43.66 75.66 43.66 75.85 43.66 76.04 43.66 76.22 43.66 76.41 43.66 76.6 43.67 76.79 43.67 76.97 43.67 77.16 43.67 77.35 43.67 77.54 43.68 77.72 43.68 77.91 43.68 78.1 43.68 78.29 43.68 78.47 43.69 78.66 43.69 78.85 43.69 79.04 43.69 79.23 43.69 79.41 43.69 79.6 43.7 79.79 43.7 79.98 43.7 80.16 43.7 80.35 43.7 80.54 43.7 80.73 43.7 80.91 43.7 81.1 43.7 81.29 43.7 81.48 43.7 81.66 43.7 81.85 43.7 82.04 43.7 82.23 43.7 82.41 43.7 82.6 43.7 82.79 43.7 82.98 43.7 83.16 43.69 83.35 43.69 83.54 43.69 83.73 43.69 83.91 43.68 84.1 43.68 84.29 43.68 84.48 43.67 84.66 43.67 84.85 43.66 85.04 43.66 85.23 43.65 85.41 43.65 85.6 43.64 85.79 43.63 85.98 43.63 86.16 43.62 86.35 43.61 86.54 43.61 86.73 43.6 86.91 43.59 87.1 43.58 87.29 43.58 87.48 43.57 87.66 43.56 87.85 43.55 88.04 43.55 88.23 43.54 88.41 43.53 88.6 43.53 88.79 43.52 88.98 43.52 89.16 43.51 89.35 43.51 89.54 43.5 89.73 43.5 89.92 43.49 90.1 43.49 90.29 43.49 90.48 43.49 90.67 43.49 90.85 43.49 91.04 43.49 91.23 43.49 91.42 43.49 91.6 43.49 91.79 43.5 91.98 43.5 92.17 43.51 92.35 43.51 92.54 43.52 92.73 43.53 92.92 43.54 93.1 43.55 93.29 43.56 93.48 43.57 93.67 43.59 93.85 43.6 94.04 43.62 94.23 43.64 94.42 43.66 94.6 43.68 94.79 43.7 94.98 43.72 95.17 43.75 95.35 43.77 95.54 43.8 95.73 43.83 95.92 43.85 96.1 43.88 96.29 43.91 96.48 43.94 96.67 43.96 96.85 43.99 97.04 44.02 97.23 44.04 97.42 44.07 97.6 44.1 97.79 44.12 97.98 44.14 98.17 44.17 98.35 44.19 98.54 44.21 98.73 44.23 98.92 44.24 99.1 44.26 99.29 44.27 99.48 44.28 99.67 44.29 99.85 44.3 100.04 44.3 100.23 44.3 100.42 44.3 100.61 44.29 100.79 44.29 100.98 44.28 101.17 44.26 101.36 44.25 101.54 44.23 101.73 44.2 101.92 44.17 102.11 44.14 102.29 44.11 102.48 44.07 102.67 44.02 102.86 43.97 103.04 43.92 103.23 43.86 103.42 43.8 103.61 43.73 103.79 43.66 103.98 43.58 104.17 43.5 104.36 43.41 104.54 43.32 104.73 43.22 104.92 43.12 105.11 43.01 105.29 42.9 105.48 42.79 105.67 42.67 105.86 42.55 106.04 42.43 106.23 42.31 106.42 42.18 106.61 42.05 106.79 41.92 106.98 41.78 107.17 41.64 107.36 41.51 107.54 41.37 107.73 41.23 107.92 41.09 108.11 40.94 108.29 40.8 108.48 40.66 108.67 40.51 108.86 40.37 109.04 40.23 109.23 40.09 109.42 39.94 109.61 39.8 109.79 39.66 109.98 39.52 110.17 39.39 110.36 39.25 110.54 39.12 110.73 38.98 110.92 38.85 111.11 38.73 111.3 38.6 111.48 38.48 111.67 38.36 111.86 38.25 112.05 38.13 112.23 38.03 112.42 37.92 112.61 37.82 112.8 37.73 112.98 37.63 113.17 37.55 113.36 37.47 113.55 37.39 113.73 37.32 113.92 37.25 114.11 37.19 114.3 37.14 114.48 37.09 114.67 37.05 114.86 37.01 115.05 36.98 115.23 36.96 115.42 36.95 115.61 36.94 115.8 36.94 115.98 36.95 116.17 36.96 116.36 36.99 116.55 37.02 116.73 37.06 116.92 37.11 117.11 37.17 117.3 37.23 117.48 37.31 117.67 37.4 117.86 37.49 118.05 37.6 118.23 37.72 118.42 37.84 118.61 37.98 118.8 38.13 118.98 38.29 119.17 38.46 119.36 38.64 119.55 38.83 119.73 39.04 119.92 39.25 120.11 39.48 120.3 39.72 120.48 39.98 120.67 40.24 120.86 40.52 121.05 40.82 121.23 41.12 121.42 41.44 121.61 41.78 121.8 42.12 121.99 42.48 122.17 42.86 122.36 43.25 122.55 43.66 122.74 44.08 122.92 44.51 123.11 44.97 123.3 45.43 123.49 45.92 123.67 46.41 123.86 46.93 124.05 47.46 124.24 48.01 124.42 48.57 124.61 49.16 124.8 49.75 124.99 50.37 125.17 51.01 125.36 51.66 125.55 52.33 125.74 53.02 125.92 53.72 126.11 54.45 126.3 55.19 126.49 55.96 126.67 56.74 126.86 57.54 127.05 58.36 127.24 59.21" id="img-6ef074f4-62" class="geometry color_4.0" stroke="#53B6EA"/>
        <path fill="none" d="M24.09,43.66 L 24.27 43.66 24.46 43.66 24.65 43.66 24.84 43.66 25.02 43.66 25.21 43.66 25.4 43.66 25.59 43.66 25.77 43.66 25.96 43.66 26.15 43.66 26.34 43.66 26.53 43.66 26.71 43.66 26.9 43.66 27.09 43.66 27.28 43.66 27.46 43.66 27.65 43.66 27.84 43.66 28.03 43.66 28.21 43.66 28.4 43.66 28.59 43.66 28.78 43.66 28.96 43.66 29.15 43.66 29.34 43.66 29.53 43.66 29.71 43.66 29.9 43.66 30.09 43.66 30.28 43.66 30.46 43.66 30.65 43.66 30.84 43.66 31.03 43.66 31.21 43.66 31.4 43.66 31.59 43.66 31.78 43.66 31.96 43.66 32.15 43.66 32.34 43.66 32.53 43.66 32.71 43.66 32.9 43.66 33.09 43.66 33.28 43.66 33.46 43.66 33.65 43.66 33.84 43.66 34.03 43.66 34.21 43.66 34.4 43.66 34.59 43.66 34.78 43.66 34.96 43.66 35.15 43.66 35.34 43.66 35.53 43.66 35.71 43.66 35.9 43.66 36.09 43.66 36.28 43.66 36.46 43.66 36.65 43.66 36.84 43.66 37.03 43.66 37.22 43.66 37.4 43.66 37.59 43.66 37.78 43.66 37.97 43.66 38.15 43.66 38.34 43.66 38.53 43.66 38.72 43.66 38.9 43.66 39.09 43.66 39.28 43.66 39.47 43.66 39.65 43.66 39.84 43.66 40.03 43.66 40.22 43.66 40.4 43.66 40.59 43.66 40.78 43.66 40.97 43.66 41.15 43.66 41.34 43.66 41.53 43.66 41.72 43.66 41.9 43.66 42.09 43.66 42.28 43.66 42.47 43.66 42.65 43.66 42.84 43.66 43.03 43.66 43.22 43.66 43.4 43.66 43.59 43.66 43.78 43.66 43.97 43.66 44.15 43.66 44.34 43.66 44.53 43.66 44.72 43.66 44.9 43.66 45.09 43.66 45.28 43.66 45.47 43.66 45.65 43.66 45.84 43.66 46.03 43.66 46.22 43.66 46.4 43.66 46.59 43.66 46.78 43.66 46.97 43.66 47.15 43.66 47.34 43.66 47.53 43.66 47.72 43.66 47.91 43.66 48.09 43.66 48.28 43.66 48.47 43.66 48.66 43.66 48.84 43.66 49.03 43.66 49.22 43.66 49.41 43.66 49.59 43.66 49.78 43.66 49.97 43.66 50.16 43.66 50.34 43.66 50.53 43.66 50.72 43.66 50.91 43.66 51.09 43.66 51.28 43.66 51.47 43.66 51.66 43.66 51.84 43.66 52.03 43.66 52.22 43.66 52.41 43.66 52.59 43.66 52.78 43.66 52.97 43.66 53.16 43.66 53.34 43.66 53.53 43.66 53.72 43.66 53.91 43.66 54.09 43.66 54.28 43.66 54.47 43.66 54.66 43.66 54.84 43.66 55.03 43.66 55.22 43.66 55.41 43.66 55.59 43.66 55.78 43.66 55.97 43.66 56.16 43.66 56.34 43.66 56.53 43.66 56.72 43.66 56.91 43.66 57.09 43.66 57.28 43.66 57.47 43.66 57.66 43.66 57.84 43.66 58.03 43.66 58.22 43.66 58.41 43.66 58.6 43.66 58.78 43.66 58.97 43.66 59.16 43.66 59.35 43.66 59.53 43.66 59.72 43.66 59.91 43.66 60.1 43.66 60.28 43.66 60.47 43.66 60.66 43.66 60.85 43.66 61.03 43.66 61.22 43.66 61.41 43.66 61.6 43.66 61.78 43.66 61.97 43.66 62.16 43.66 62.35 43.66 62.53 43.66 62.72 43.66 62.91 43.66 63.1 43.66 63.28 43.66 63.47 43.66 63.66 43.66 63.85 43.66 64.03 43.66 64.22 43.66 64.41 43.66 64.6 43.66 64.78 43.66 64.97 43.66 65.16 43.66 65.35 43.66 65.53 43.66 65.72 43.66 65.91 43.66 66.1 43.66 66.28 43.66 66.47 43.66 66.66 43.66 66.85 43.66 67.03 43.66 67.22 43.66 67.41 43.66 67.6 43.66 67.78 43.66 67.97 43.66 68.16 43.66 68.35 43.66 68.53 43.66 68.72 43.66 68.91 43.66 69.1 43.66 69.29 43.66 69.47 43.66 69.66 43.66 69.85 43.66 70.04 43.66 70.22 43.66 70.41 43.66 70.6 43.66 70.79 43.66 70.97 43.66 71.16 43.66 71.35 43.66 71.54 43.66 71.72 43.66 71.91 43.66 72.1 43.66 72.29 43.66 72.47 43.66 72.66 43.66 72.85 43.66 73.04 43.66 73.22 43.66 73.41 43.66 73.6 43.66 73.79 43.66 73.97 43.66 74.16 43.66 74.35 43.66 74.54 43.66 74.72 43.66 74.91 43.66 75.1 43.66 75.29 43.66 75.47 43.66 75.66 43.66 75.85 43.66 76.04 43.66 76.22 43.66 76.41 43.66 76.6 43.66 76.79 43.66 76.97 43.66 77.16 43.66 77.35 43.66 77.54 43.66 77.72 43.66 77.91 43.65 78.1 43.65 78.29 43.65 78.47 43.65 78.66 43.65 78.85 43.65 79.04 43.65 79.23 43.65 79.41 43.65 79.6 43.65 79.79 43.65 79.98 43.65 80.16 43.65 80.35 43.65 80.54 43.65 80.73 43.65 80.91 43.65 81.1 43.65 81.29 43.65 81.48 43.65 81.66 43.65 81.85 43.65 82.04 43.65 82.23 43.65 82.41 43.65 82.6 43.65 82.79 43.65 82.98 43.65 83.16 43.65 83.35 43.65 83.54 43.65 83.73 43.65 83.91 43.65 84.1 43.65 84.29 43.66 84.48 43.66 84.66 43.66 84.85 43.66 85.04 43.66 85.23 43.66 85.41 43.66 85.6 43.66 85.79 43.66 85.98 43.66 86.16 43.66 86.35 43.66 86.54 43.66 86.73 43.66 86.91 43.67 87.1 43.67 87.29 43.67 87.48 43.67 87.66 43.67 87.85 43.67 88.04 43.67 88.23 43.67 88.41 43.67 88.6 43.67 88.79 43.67 88.98 43.68 89.16 43.68 89.35 43.68 89.54 43.68 89.73 43.68 89.92 43.68 90.1 43.68 90.29 43.68 90.48 43.68 90.67 43.68 90.85 43.68 91.04 43.68 91.23 43.68 91.42 43.68 91.6 43.68 91.79 43.68 91.98 43.68 92.17 43.68 92.35 43.68 92.54 43.67 92.73 43.67 92.92 43.67 93.1 43.67 93.29 43.67 93.48 43.67 93.67 43.67 93.85 43.66 94.04 43.66 94.23 43.66 94.42 43.66 94.6 43.65 94.79 43.65 94.98 43.65 95.17 43.65 95.35 43.64 95.54 43.64 95.73 43.64 95.92 43.63 96.1 43.63 96.29 43.63 96.48 43.62 96.67 43.62 96.85 43.62 97.04 43.61 97.23 43.61 97.42 43.61 97.6 43.6 97.79 43.6 97.98 43.6 98.17 43.59 98.35 43.59 98.54 43.59 98.73 43.59 98.92 43.58 99.1 43.58 99.29 43.58 99.48 43.58 99.67 43.58 99.85 43.58 100.04 43.58 100.23 43.58 100.42 43.58 100.61 43.58 100.79 43.58 100.98 43.58 101.17 43.58 101.36 43.58 101.54 43.59 101.73 43.59 101.92 43.59 102.11 43.6 102.29 43.6 102.48 43.61 102.67 43.61 102.86 43.62 103.04 43.62 103.23 43.63 103.42 43.64 103.61 43.65 103.79 43.66 103.98 43.67 104.17 43.68 104.36 43.69 104.54 43.7 104.73 43.71 104.92 43.72 105.11 43.74 105.29 43.75 105.48 43.76 105.67 43.77 105.86 43.79 106.04 43.8 106.23 43.81 106.42 43.83 106.61 43.84 106.79 43.85 106.98 43.86 107.17 43.87 107.36 43.88 107.54 43.89 107.73 43.9 107.92 43.91 108.11 43.92 108.29 43.93 108.48 43.94 108.67 43.94 108.86 43.95 109.04 43.95 109.23 43.96 109.42 43.96 109.61 43.96 109.79 43.96 109.98 43.95 110.17 43.95 110.36 43.95 110.54 43.94 110.73 43.93 110.92 43.92 111.11 43.91 111.3 43.9 111.48 43.88 111.67 43.87 111.86 43.85 112.05 43.83 112.23 43.8 112.42 43.78 112.61 43.75 112.8 43.72 112.98 43.69 113.17 43.66 113.36 43.62 113.55 43.58 113.73 43.54 113.92 43.5 114.11 43.45 114.3 43.4 114.48 43.35 114.67 43.29 114.86 43.23 115.05 43.17 115.23 43.11 115.42 43.04 115.61 42.97 115.8 42.9 115.98 42.82 116.17 42.74 116.36 42.65 116.55 42.57 116.73 42.48 116.92 42.38 117.11 42.28 117.3 42.18 117.48 42.07 117.67 41.96 117.86 41.85 118.05 41.73 118.23 41.61 118.42 41.49 118.61 41.36 118.8 41.22 118.98 41.08 119.17 40.94 119.36 40.79 119.55 40.64 119.73 40.48 119.92 40.32 120.11 40.16 120.3 39.99 120.48 39.81 120.67 39.63 120.86 39.45 121.05 39.26 121.23 39.06 121.42 38.86 121.61 38.65 121.8 38.44 121.99 38.23 122.17 38.01 122.36 37.78 122.55 37.55 122.74 37.31 122.92 37.07 123.11 36.82 123.3 36.56 123.49 36.3 123.67 36.04 123.86 35.76 124.05 35.49 124.24 35.2 124.42 34.91 124.61 34.61 124.8 34.31 124.99 34 125.17 33.69 125.36 33.37 125.55 33.04 125.74 32.7 125.92 32.36 126.11 32.01 126.3 31.66 126.49 31.3 126.67 30.93 126.86 30.55 127.05 30.17 127.24 29.78" id="img-6ef074f4-63" class="geometry color_5.0" stroke="#5AC5FD"/>
      </g>
    </g>
  </g>
</g>
  <g class="guide ylabels" font-size="2.82" font-family="'PT Sans Caption','Helvetica Neue','Helvetica',sans-serif" fill="#6C606B" id="img-6ef074f4-64">
    <text x="16.4" y="80.32" text-anchor="end" dy="0.35em" id="img-6ef074f4-65">-6</text>
    <text x="16.4" y="68.1" text-anchor="end" dy="0.35em" id="img-6ef074f4-66">-4</text>
    <text x="16.4" y="55.88" text-anchor="end" dy="0.35em" id="img-6ef074f4-67">-2</text>
    <text x="16.4" y="43.66" text-anchor="end" dy="0.35em" id="img-6ef074f4-68">0</text>
    <text x="16.4" y="31.44" text-anchor="end" dy="0.35em" id="img-6ef074f4-69">2</text>
    <text x="16.4" y="19.22" text-anchor="end" dy="0.35em" id="img-6ef074f4-70">4</text>
    <text x="16.4" y="7" text-anchor="end" dy="0.35em" id="img-6ef074f4-71">6</text>
  </g>
  <g font-size="3.88" font-family="'PT Sans','Helvetica Neue','Helvetica',sans-serif" fill="#564A55" stroke="#000000" stroke-opacity="0.000" id="img-6ef074f4-72">
    <text x="8.81" y="41.66" text-anchor="middle" dy="0.35em" transform="rotate(-90, 8.81, 43.66)" id="img-6ef074f4-73">phi(x)</text>
  </g>
</g>
<defs>
  <clipPath id="img-6ef074f4-31">
  <path d="M17.4,5 L 133.92 5 133.92 82.32 17.4 82.32" />
</clipPath>
</defs>
</svg>
