<?xml version="1.0" encoding="UTF-8"?>
<svg xmlns="http://www.w3.org/2000/svg"
     xmlns:xlink="http://www.w3.org/1999/xlink"
     xmlns:gadfly="http://www.gadflyjl.org/ns"
     version="1.2"
     width="152.4mm" height="101.6mm" viewBox="0 0 152.4 101.6"
     stroke="none"
     fill="#000000"
     stroke-width="0.3"
     font-size="3.88"
>
<g class="plotroot xscalable yscalable" id="img-abcc03fd-1">
  <g font-size="3.88" font-family="'PT Sans','Helvetica Neue','Helvetica',sans-serif" fill="#564A55" stroke="#000000" stroke-opacity="0.000" id="img-abcc03fd-2">
    <text x="81.5" y="89.99" text-anchor="middle" dy="0.6em">x</text>
  </g>
  <g class="guide xlabels" font-size="2.82" font-family="'PT Sans Caption','Helvetica Neue','Helvetica',sans-serif" fill="#6C606B" id="img-abcc03fd-3">
    <text x="17.59" y="83.32" text-anchor="middle" dy="0.6em">-6</text>
    <text x="38.89" y="83.32" text-anchor="middle" dy="0.6em">-4</text>
    <text x="60.19" y="83.32" text-anchor="middle" dy="0.6em">-2</text>
    <text x="81.5" y="83.32" text-anchor="middle" dy="0.6em">0</text>
    <text x="102.8" y="83.32" text-anchor="middle" dy="0.6em">2</text>
    <text x="124.1" y="83.32" text-anchor="middle" dy="0.6em">4</text>
    <text x="145.4" y="83.32" text-anchor="middle" dy="0.6em">6</text>
  </g>
<g clip-path="url(#img-abcc03fd-4)">
  <g id="img-abcc03fd-5">
    <g pointer-events="visible" opacity="1" fill="#000000" fill-opacity="0.000" stroke="#000000" stroke-opacity="0.000" class="guide background" id="img-abcc03fd-6">
      <rect x="15.59" y="5" width="131.81" height="77.32"/>
    </g>
    <g class="guide ygridlines xfixed" stroke-dasharray="0.5,0.5" stroke-width="0.2" stroke="#D0D0E0" id="img-abcc03fd-7">
      <path fill="none" d="M15.59,80.32 L 147.4 80.32"/>
      <path fill="none" d="M15.59,68.1 L 147.4 68.1"/>
      <path fill="none" d="M15.59,55.88 L 147.4 55.88"/>
      <path fill="none" d="M15.59,43.66 L 147.4 43.66"/>
      <path fill="none" d="M15.59,31.44 L 147.4 31.44"/>
      <path fill="none" d="M15.59,19.22 L 147.4 19.22"/>
      <path fill="none" d="M15.59,7 L 147.4 7"/>
    </g>
    <g class="guide xgridlines yfixed" stroke-dasharray="0.5,0.5" stroke-width="0.2" stroke="#D0D0E0" id="img-abcc03fd-8">
      <path fill="none" d="M17.59,5 L 17.59 82.32"/>
      <path fill="none" d="M38.89,5 L 38.89 82.32"/>
      <path fill="none" d="M60.19,5 L 60.19 82.32"/>
      <path fill="none" d="M81.5,5 L 81.5 82.32"/>
      <path fill="none" d="M102.8,5 L 102.8 82.32"/>
      <path fill="none" d="M124.1,5 L 124.1 82.32"/>
      <path fill="none" d="M145.4,5 L 145.4 82.32"/>
    </g>
    <g class="plotpanel" id="img-abcc03fd-9">
      <g class="geometry" id="img-abcc03fd-10">
        <g class="color_RGBA{Float32}(0.875f0,0.6171875f0,0.09765625f0,1.0f0)" stroke="#FFFFFF" stroke-width="0.3" fill="#DF9D19" id="img-abcc03fd-11">
          <use xlink:href="#img-abcc03fd-12" x="28.24" y="68.1"/>
          <use xlink:href="#img-abcc03fd-12" x="38.89" y="55.88"/>
          <use xlink:href="#img-abcc03fd-12" x="49.54" y="43.66"/>
          <use xlink:href="#img-abcc03fd-12" x="60.19" y="31.44"/>
          <use xlink:href="#img-abcc03fd-12" x="70.85" y="19.22"/>
          <use xlink:href="#img-abcc03fd-12" x="81.5" y="68.1"/>
          <use xlink:href="#img-abcc03fd-12" x="92.15" y="55.88"/>
          <use xlink:href="#img-abcc03fd-12" x="102.8" y="43.66"/>
          <use xlink:href="#img-abcc03fd-12" x="113.45" y="31.44"/>
          <use xlink:href="#img-abcc03fd-12" x="124.1" y="19.22"/>
          <use xlink:href="#img-abcc03fd-12" x="134.75" y="68.1"/>
        </g>
      </g>
      <g stroke-width="0.3" fill="#000000" fill-opacity="0.000" class="geometry" stroke-dasharray="none" stroke="#2D637F" id="img-abcc03fd-13">
        <path fill="none" d="M22.92,71.41 L 23.13 71.34 23.34 71.26 23.56 71.17 23.77 71.08 23.98 70.98 24.2 70.88 24.41 70.77 24.62 70.66 24.83 70.55 25.05 70.43 25.26 70.3 25.47 70.17 25.69 70.04 25.9 69.9 26.11 69.75 26.33 69.61 26.54 69.45 26.75 69.3 26.97 69.14 27.18 68.97 27.39 68.81 27.6 68.63 27.82 68.46 28.03 68.28 28.24 68.1 28.46 67.91 28.67 67.72 28.88 67.53 29.1 67.33 29.31 67.13 29.52 66.93 29.73 66.72 29.95 66.51 30.16 66.3 30.37 66.08 30.59 65.86 30.8 65.64 31.01 65.42 31.23 65.19 31.44 64.96 31.65 64.73 31.86 64.5 32.08 64.26 32.29 64.02 32.5 63.78 32.72 63.54 32.93 63.29 33.14 63.04 33.36 62.8 33.57 62.54 33.78 62.29 33.99 62.04 34.21 61.78 34.42 61.52 34.63 61.26 34.85 61 35.06 60.74 35.27 60.48 35.49 60.21 35.7 59.95 35.91 59.68 36.12 59.41 36.34 59.15 36.55 58.88 36.76 58.61 36.98 58.34 37.19 58.06 37.4 57.79 37.62 57.52 37.83 57.25 38.04 56.97 38.25 56.7 38.47 56.42 38.68 56.15 38.89 55.88 39.11 55.6 39.32 55.33 39.53 55.05 39.75 54.78 39.96 54.51 40.17 54.23 40.38 53.96 40.6 53.69 40.81 53.42 41.02 53.15 41.24 52.88 41.45 52.61 41.66 52.34 41.88 52.07 42.09 51.8 42.3 51.54 42.51 51.27 42.73 51.01 42.94 50.75 43.15 50.49 43.37 50.23 43.58 49.97 43.79 49.72 44.01 49.46 44.22 49.21 44.43 48.96 44.65 48.71 44.86 48.46 45.07 48.22 45.28 47.97 45.5 47.73 45.71 47.49 45.92 47.26 46.14 47.02 46.35 46.79 46.56 46.56 46.78 46.34 46.99 46.11 47.2 45.89 47.41 45.67 47.63 45.46 47.84 45.24 48.05 45.03 48.27 44.83 48.48 44.62 48.69 44.42 48.91 44.23 49.12 44.03 49.33 43.84 49.54 43.66 49.76 43.47 49.97 43.29 50.18 43.12 50.4 42.94 50.61 42.77 50.82 42.6 51.04 42.43 51.25 42.26 51.46 42.1 51.67 41.93 51.89 41.76 52.1 41.59 52.31 41.43 52.53 41.26 52.74 41.09 52.95 40.91 53.17 40.74 53.38 40.56 53.59 40.38 53.8 40.2 54.02 40.01 54.23 39.82 54.44 39.63 54.66 39.43 54.87 39.22 55.08 39.01 55.3 38.8 55.51 38.58 55.72 38.35 55.93 38.11 56.15 37.87 56.36 37.62 56.57 37.36 56.79 37.1 57 36.82 57.21 36.54 57.43 36.25 57.64 35.95 57.85 35.63 58.06 35.31 58.28 34.98 58.49 34.63 58.7 34.28 58.92 33.91 59.13 33.53 59.34 33.14 59.56 32.73 59.77 32.32 59.98 31.88 60.19 31.44 60.41 30.98 60.62 30.51 60.83 30.02 61.05 29.53 61.26 29.02 61.47 28.51 61.69 28 61.9 27.47 62.11 26.95 62.33 26.42 62.54 25.89 62.75 25.37 62.96 24.84 63.18 24.32 63.39 23.8 63.6 23.29 63.82 22.79 64.03 22.29 64.24 21.81 64.46 21.33 64.67 20.87 64.88 20.43 65.09 19.99 65.31 19.58 65.52 19.19 65.73 18.81 65.95 18.45 66.16 18.12 66.37 17.81 66.59 17.53 66.8 17.27 67.01 17.04 67.22 16.84 67.44 16.67 67.65 16.54 67.86 16.43 68.08 16.36 68.29 16.33 68.5 16.33 68.72 16.37 68.93 16.45 69.14 16.58 69.35 16.74 69.57 16.95 69.78 17.21 69.99 17.51 70.21 17.86 70.42 18.26 70.63 18.72 70.85 19.22 71.06 19.78 71.27 20.38 71.48 21.04 71.7 21.75 71.91 22.5 72.12 23.29 72.34 24.12 72.55 24.99 72.76 25.9 72.98 26.84 73.19 27.82 73.4 28.82 73.61 29.86 73.83 30.91 74.04 32 74.25 33.1 74.47 34.22 74.68 35.36 74.89 36.52 75.11 37.69 75.32 38.87 75.53 40.05 75.74 41.25 75.96 42.44 76.17 43.65 76.38 44.85 76.6 46.04 76.81 47.24 77.02 48.43 77.24 49.6 77.45 50.77 77.66 51.93 77.88 53.07 78.09 54.19 78.3 55.3 78.51 56.38 78.73 57.44 78.94 58.47 79.15 59.48 79.37 60.46 79.58 61.4 79.79 62.31 80.01 63.18 80.22 64.02 80.43 64.81 80.64 65.56 80.86 66.27 81.07 66.93 81.28 67.54 81.5 68.1 81.71 68.6 81.92 69.05 82.14 69.46 82.35 69.81 82.56 70.11 82.77 70.37 82.99 70.59 83.2 70.75 83.41 70.88 83.63 70.96 83.84 71.01 84.05 71.01 84.27 70.98 84.48 70.91 84.69 70.81 84.9 70.68 85.12 70.51 85.33 70.31 85.54 70.08 85.76 69.83 85.97 69.55 86.18 69.24 86.4 68.91 86.61 68.55 86.82 68.18 87.03 67.78 87.25 67.37 87.46 66.94 87.67 66.5 87.89 66.03 88.1 65.56 88.31 65.08 88.53 64.58 88.74 64.08 88.95 63.56 89.16 63.05 89.38 62.52 89.59 61.99 89.8 61.47 90.02 60.94 90.23 60.41 90.44 59.88 90.66 59.35 90.87 58.83 91.08 58.32 91.29 57.81 91.51 57.31 91.72 56.82 91.93 56.34 92.15 55.88 92.36 55.42 92.57 54.99 92.79 54.56 93 54.15 93.21 53.75 93.42 53.36 93.64 52.99 93.85 52.62 94.06 52.27 94.28 51.93 94.49 51.6 94.7 51.28 94.92 50.97 95.13 50.67 95.34 50.38 95.56 50.1 95.77 49.82 95.98 49.56 96.19 49.3 96.41 49.06 96.62 48.81 96.83 48.58 97.05 48.35 97.26 48.13 97.47 47.92 97.69 47.71 97.9 47.51 98.11 47.31 98.32 47.12 98.54 46.93 98.75 46.75 98.96 46.57 99.18 46.39 99.39 46.22 99.6 46.05 99.82 45.88 100.03 45.72 100.24 45.56 100.45 45.4 100.67 45.24 100.88 45.08 101.09 44.92 101.31 44.77 101.52 44.61 101.73 44.45 101.95 44.3 102.16 44.14 102.37 43.98 102.58 43.82 102.8 43.66 103.01 43.49 103.22 43.33 103.44 43.16 103.65 42.99 103.86 42.81 104.08 42.64 104.29 42.46 104.5 42.28 104.71 42.1 104.93 41.91 105.14 41.72 105.35 41.53 105.57 41.34 105.78 41.14 105.99 40.94 106.21 40.73 106.42 40.53 106.63 40.32 106.84 40.1 107.06 39.88 107.27 39.66 107.48 39.44 107.7 39.21 107.91 38.98 108.12 38.75 108.34 38.51 108.55 38.26 108.76 38.02 108.97 37.77 109.19 37.51 109.4 37.25 109.61 36.99 109.83 36.72 110.04 36.45 110.25 36.17 110.47 35.89 110.68 35.61 110.89 35.31 111.1 35.02 111.32 34.72 111.53 34.41 111.74 34.1 111.96 33.79 112.17 33.47 112.38 33.14 112.6 32.81 112.81 32.48 113.02 32.14 113.24 31.79 113.45 31.44 113.66 31.08 113.87 30.72 114.09 30.35 114.3 29.98 114.51 29.61 114.73 29.23 114.94 28.85 115.15 28.47 115.37 28.09 115.58 27.71 115.79 27.33 116 26.95 116.22 26.57 116.43 26.2 116.64 25.82 116.86 25.45 117.07 25.09 117.28 24.73 117.5 24.37 117.71 24.02 117.92 23.68 118.13 23.34 118.35 23.02 118.56 22.7 118.77 22.38 118.99 22.08 119.2 21.79 119.41 21.51 119.63 21.24 119.84 20.98 120.05 20.73 120.26 20.5 120.48 20.28 120.69 20.08 120.9 19.89 121.12 19.71 121.33 19.55 121.54 19.41 121.76 19.28 121.97 19.18 122.18 19.09 122.39 19.02 122.61 18.97 122.82 18.94 123.03 18.93 123.25 18.94 123.46 18.98 123.67 19.03 123.89 19.11 124.1 19.22 124.31 19.35 124.52 19.5 124.74 19.68 124.95 19.89 125.16 20.12 125.38 20.38 125.59 20.67 125.8 20.98 126.02 21.33 126.23 21.7 126.44 22.11 126.65 22.55 126.87 23.02 127.08 23.52 127.29 24.05 127.51 24.62 127.72 25.22 127.93 25.86 128.15 26.53 128.36 27.23 128.57 27.98 128.79 28.76 129 29.58 129.21 30.43 129.42 31.33 129.64 32.26 129.85 33.24 130.06 34.25 130.28 35.31 130.49 36.41 130.7 37.55 130.92 38.73 131.13 39.96 131.34 41.23 131.55 42.55 131.77 43.91 131.98 45.32 132.19 46.78 132.41 48.28 132.62 49.83 132.83 51.43 133.05 53.08 133.26 54.77 133.47 56.52 133.68 58.32 133.9 60.17 134.11 62.07 134.32 64.03 134.54 66.03 134.75 68.1 134.96 70.21 135.18 72.38 135.39 74.61 135.6 76.89 135.81 79.23 136.03 81.63 136.24 84.09 136.45 86.6 136.67 89.18 136.88 91.81 137.09 94.5 137.31 97.26 137.52 100.07 137.73 102.95 137.94 105.9 138.16 108.9 138.37 111.97 138.58 115.1 138.8 118.3 139.01 121.57 139.22 124.9 139.44 128.3 139.65 131.77 139.86 135.3 140.07 138.9"/>
      </g>
    </g>
  </g>
</g>
  <g class="guide ylabels" font-size="2.82" font-family="'PT Sans Caption','Helvetica Neue','Helvetica',sans-serif" fill="#6C606B" id="img-abcc03fd-14">
    <text x="14.59" y="80.32" text-anchor="end" dy="0.35em">-1</text>
    <text x="14.59" y="68.1" text-anchor="end" dy="0.35em">0</text>
    <text x="14.59" y="55.88" text-anchor="end" dy="0.35em">1</text>
    <text x="14.59" y="43.66" text-anchor="end" dy="0.35em">2</text>
    <text x="14.59" y="31.44" text-anchor="end" dy="0.35em">3</text>
    <text x="14.59" y="19.22" text-anchor="end" dy="0.35em">4</text>
    <text x="14.59" y="7" text-anchor="end" dy="0.35em">5</text>
  </g>
  <g font-size="3.88" font-family="'PT Sans','Helvetica Neue','Helvetica',sans-serif" fill="#564A55" stroke="#000000" stroke-opacity="0.000" id="img-abcc03fd-15">
    <text x="8.81" y="43.66" text-anchor="end" dy="0.35em">y</text>
  </g>
</g>
<defs>
  <clipPath id="img-abcc03fd-4">
  <path d="M15.59,5 L 147.4 5 147.4 82.32 15.59 82.32" />
</clipPath>
  <g id="img-abcc03fd-12">
    <circle cx="0" cy="0" r="0.9"/>
  </g>
</defs>
</svg>
