<?xml version="1.0" encoding="UTF-8"?>
<svg xmlns="http://www.w3.org/2000/svg"
     xmlns:xlink="http://www.w3.org/1999/xlink"
     xmlns:gadfly="http://www.gadflyjl.org/ns"
     version="1.2"
     width="152.4mm" height="101.6mm" viewBox="0 0 152.4 101.6"
     stroke="none"
     fill="#000000"
     stroke-width="0.3"
     font-size="3.88"
>
<g class="plotroot xscalable yscalable" id="img-04da213e-1">
  <g font-size="3.88" font-family="'PT Sans','Helvetica Neue','Helvetica',sans-serif" fill="#564A55" stroke="#000000" stroke-opacity="0.000" id="img-04da213e-2">
    <text x="82.33" y="89.99" text-anchor="middle" dy="0.6em">x</text>
  </g>
  <g class="guide xlabels" font-size="2.82" font-family="'PT Sans Caption','Helvetica Neue','Helvetica',sans-serif" fill="#6C606B" id="img-04da213e-3">
    <text x="19.27" y="83.31" text-anchor="middle" dy="0.6em">-6</text>
    <text x="40.29" y="83.31" text-anchor="middle" dy="0.6em">-4</text>
    <text x="61.31" y="83.31" text-anchor="middle" dy="0.6em">-2</text>
    <text x="82.33" y="83.31" text-anchor="middle" dy="0.6em">0</text>
    <text x="103.36" y="83.31" text-anchor="middle" dy="0.6em">2</text>
    <text x="124.38" y="83.31" text-anchor="middle" dy="0.6em">4</text>
    <text x="145.4" y="83.31" text-anchor="middle" dy="0.6em">6</text>
  </g>
<g clip-path="url(#img-04da213e-4)">
  <g id="img-04da213e-5">
    <g pointer-events="visible" opacity="1" fill="#000000" fill-opacity="0.000" stroke="#000000" stroke-opacity="0.000" class="guide background" id="img-04da213e-6">
      <rect x="17.27" y="5" width="130.13" height="77.31"/>
    </g>
    <g class="guide ygridlines xfixed" stroke-dasharray="0.5,0.5" stroke-width="0.2" stroke="#D0D0E0" id="img-04da213e-7">
      <path fill="none" d="M17.27,80.31 L 147.4 80.31"/>
      <path fill="none" d="M17.27,43.66 L 147.4 43.66"/>
      <path fill="none" d="M17.27,7 L 147.4 7"/>
    </g>
    <g class="guide xgridlines yfixed" stroke-dasharray="0.5,0.5" stroke-width="0.2" stroke="#D0D0E0" id="img-04da213e-8">
      <path fill="none" d="M19.27,5 L 19.27 82.31"/>
      <path fill="none" d="M40.29,5 L 40.29 82.31"/>
      <path fill="none" d="M61.31,5 L 61.31 82.31"/>
      <path fill="none" d="M82.33,5 L 82.33 82.31"/>
      <path fill="none" d="M103.36,5 L 103.36 82.31"/>
      <path fill="none" d="M124.38,5 L 124.38 82.31"/>
      <path fill="none" d="M145.4,5 L 145.4 82.31"/>
    </g>
    <g class="plotpanel" id="img-04da213e-9">
      <g class="geometry" id="img-04da213e-10">
        <g class="color_RGBA{Float32}(0.875f0,0.6171875f0,0.09765625f0,1.0f0)" stroke="#FFFFFF" stroke-width="0.3" fill="#DF9D19" id="img-04da213e-11">
          <use xlink:href="#img-04da213e-12" x="29.78" y="43.66"/>
          <use xlink:href="#img-04da213e-12" x="40.29" y="17.26"/>
          <use xlink:href="#img-04da213e-12" x="50.8" y="8.47"/>
          <use xlink:href="#img-04da213e-12" x="61.31" y="12.87"/>
          <use xlink:href="#img-04da213e-12" x="71.82" y="26.06"/>
          <use xlink:href="#img-04da213e-12" x="82.33" y="43.66"/>
          <use xlink:href="#img-04da213e-12" x="92.84" y="61.25"/>
          <use xlink:href="#img-04da213e-12" x="103.36" y="74.45"/>
          <use xlink:href="#img-04da213e-12" x="113.87" y="78.85"/>
          <use xlink:href="#img-04da213e-12" x="124.38" y="70.05"/>
          <use xlink:href="#img-04da213e-12" x="134.89" y="43.66"/>
        </g>
      </g>
      <g stroke-width="0.3" fill="#000000" fill-opacity="0.000" class="geometry" stroke-dasharray="none" stroke="#2D637F" id="img-04da213e-13">
        <path fill="none" d="M24.52,51.31 L 24.73 51.15 24.94 50.98 25.15 50.79 25.36 50.59 25.57 50.38 25.78 50.16 25.99 49.93 26.2 49.68 26.41 49.42 26.62 49.15 26.83 48.87 27.04 48.57 27.25 48.27 27.46 47.95 27.67 47.61 27.89 47.27 28.1 46.91 28.31 46.55 28.52 46.17 28.73 45.78 28.94 45.37 29.15 44.96 29.36 44.54 29.57 44.1 29.78 43.66 29.99 43.2 30.2 42.74 30.41 42.27 30.62 41.78 30.83 41.29 31.04 40.79 31.25 40.28 31.46 39.77 31.67 39.25 31.88 38.72 32.09 38.18 32.3 37.64 32.51 37.09 32.72 36.54 32.93 35.98 33.14 35.42 33.35 34.86 33.56 34.29 33.77 33.72 33.98 33.15 34.19 32.57 34.4 32 34.61 31.42 34.82 30.85 35.03 30.27 35.24 29.7 35.45 29.12 35.66 28.55 35.87 27.98 36.08 27.41 36.29 26.85 36.5 26.29 36.71 25.73 36.92 25.18 37.13 24.63 37.35 24.09 37.56 23.55 37.77 23.02 37.98 22.5 38.19 21.98 38.4 21.47 38.61 20.97 38.82 20.47 39.03 19.99 39.24 19.51 39.45 19.04 39.66 18.58 39.87 18.13 40.08 17.69 40.29 17.26 40.5 16.84 40.71 16.43 40.92 16.03 41.13 15.65 41.34 15.27 41.55 14.9 41.76 14.54 41.97 14.2 42.18 13.86 42.39 13.54 42.6 13.23 42.81 12.92 43.02 12.63 43.23 12.35 43.44 12.09 43.65 11.83 43.86 11.58 44.07 11.35 44.28 11.12 44.49 10.91 44.7 10.7 44.91 10.51 45.12 10.32 45.33 10.15 45.54 9.99 45.75 9.83 45.96 9.69 46.17 9.55 46.38 9.43 46.59 9.31 46.81 9.2 47.02 9.1 47.23 9.01 47.44 8.92 47.65 8.84 47.86 8.78 48.07 8.71 48.28 8.66 48.49 8.61 48.7 8.57 48.91 8.53 49.12 8.5 49.33 8.48 49.54 8.46 49.75 8.45 49.96 8.45 50.17 8.44 50.38 8.45 50.59 8.45 50.8 8.47 51.01 8.48 51.22 8.5 51.43 8.53 51.64 8.56 51.85 8.59 52.06 8.62 52.27 8.66 52.48 8.7 52.69 8.75 52.9 8.8 53.11 8.85 53.32 8.9 53.53 8.96 53.74 9.01 53.95 9.08 54.16 9.14 54.37 9.21 54.58 9.27 54.79 9.35 55 9.42 55.21 9.49 55.42 9.57 55.63 9.65 55.84 9.74 56.05 9.82 56.27 9.91 56.48 10 56.69 10.09 56.9 10.19 57.11 10.28 57.32 10.38 57.53 10.49 57.74 10.59 57.95 10.7 58.16 10.81 58.37 10.92 58.58 11.04 58.79 11.16 59 11.28 59.21 11.41 59.42 11.54 59.63 11.67 59.84 11.81 60.05 11.95 60.26 12.09 60.47 12.24 60.68 12.39 60.89 12.54 61.1 12.7 61.31 12.87 61.52 13.03 61.73 13.2 61.94 13.38 62.15 13.55 62.36 13.74 62.57 13.92 62.78 14.12 62.99 14.31 63.2 14.51 63.41 14.71 63.62 14.92 63.83 15.14 64.04 15.35 64.25 15.57 64.46 15.8 64.67 16.03 64.88 16.26 65.09 16.5 65.3 16.75 65.52 16.99 65.73 17.25 65.94 17.5 66.15 17.76 66.36 18.03 66.57 18.29 66.78 18.57 66.99 18.84 67.2 19.12 67.41 19.4 67.62 19.69 67.83 19.98 68.04 20.28 68.25 20.57 68.46 20.87 68.67 21.18 68.88 21.49 69.09 21.8 69.3 22.11 69.51 22.43 69.72 22.75 69.93 23.07 70.14 23.39 70.35 23.72 70.56 24.05 70.77 24.38 70.98 24.71 71.19 25.05 71.4 25.38 71.61 25.72 71.82 26.06 72.03 26.4 72.24 26.75 72.45 27.09 72.66 27.44 72.87 27.79 73.08 28.13 73.29 28.48 73.5 28.83 73.71 29.19 73.92 29.54 74.13 29.89 74.34 30.24 74.55 30.6 74.76 30.95 74.98 31.3 75.19 31.66 75.4 32.01 75.61 32.37 75.82 32.72 76.03 33.08 76.24 33.44 76.45 33.79 76.66 34.15 76.87 34.5 77.08 34.86 77.29 35.21 77.5 35.57 77.71 35.92 77.92 36.27 78.13 36.63 78.34 36.98 78.55 37.33 78.76 37.69 78.97 38.04 79.18 38.39 79.39 38.75 79.6 39.1 79.81 39.45 80.02 39.8 80.23 40.15 80.44 40.5 80.65 40.85 80.86 41.21 81.07 41.56 81.28 41.91 81.49 42.26 81.7 42.61 81.91 42.96 82.12 43.31 82.33 43.66 82.54 44.01 82.75 44.36 82.96 44.71 83.17 45.06 83.38 45.41 83.59 45.76 83.8 46.11 84.01 46.46 84.22 46.81 84.44 47.16 84.65 47.51 84.86 47.87 85.07 48.22 85.28 48.57 85.49 48.92 85.7 49.27 85.91 49.63 86.12 49.98 86.33 50.33 86.54 50.69 86.75 51.04 86.96 51.4 87.17 51.75 87.38 52.1 87.59 52.46 87.8 52.81 88.01 53.17 88.22 53.52 88.43 53.88 88.64 54.23 88.85 54.59 89.06 54.95 89.27 55.3 89.48 55.66 89.69 56.01 89.9 56.36 90.11 56.72 90.32 57.07 90.53 57.43 90.74 57.78 90.95 58.13 91.16 58.48 91.37 58.83 91.58 59.18 91.79 59.53 92 59.88 92.21 60.22 92.42 60.57 92.63 60.91 92.84 61.25 93.05 61.59 93.26 61.93 93.47 62.27 93.68 62.6 93.9 62.94 94.11 63.27 94.32 63.6 94.53 63.92 94.74 64.25 94.95 64.57 95.16 64.89 95.37 65.2 95.58 65.52 95.79 65.83 96 66.14 96.21 66.44 96.42 66.74 96.63 67.04 96.84 67.33 97.05 67.62 97.26 67.91 97.47 68.19 97.68 68.47 97.89 68.75 98.1 69.02 98.31 69.29 98.52 69.55 98.73 69.81 98.94 70.07 99.15 70.32 99.36 70.57 99.57 70.81 99.78 71.05 99.99 71.28 100.2 71.52 100.41 71.74 100.62 71.96 100.83 72.18 101.04 72.39 101.25 72.6 101.46 72.8 101.67 73 101.88 73.2 102.09 73.39 102.3 73.58 102.51 73.76 102.72 73.94 102.93 74.11 103.15 74.28 103.36 74.45 103.57 74.61 103.78 74.77 103.99 74.92 104.2 75.08 104.41 75.22 104.62 75.37 104.83 75.51 105.04 75.64 105.25 75.78 105.46 75.9 105.67 76.03 105.88 76.15 106.09 76.27 106.3 76.39 106.51 76.5 106.72 76.62 106.93 76.72 107.14 76.83 107.35 76.93 107.56 77.03 107.77 77.13 107.98 77.22 108.19 77.32 108.4 77.41 108.61 77.49 108.82 77.58 109.03 77.66 109.24 77.74 109.45 77.82 109.66 77.9 109.87 77.97 110.08 78.04 110.29 78.11 110.5 78.18 110.71 78.24 110.92 78.3 111.13 78.36 111.34 78.42 111.55 78.47 111.76 78.52 111.97 78.57 112.18 78.61 112.39 78.65 112.61 78.69 112.82 78.73 113.03 78.76 113.24 78.79 113.45 78.81 113.66 78.83 113.87 78.85 114.08 78.86 114.29 78.87 114.5 78.87 114.71 78.87 114.92 78.86 115.13 78.85 115.34 78.83 115.55 78.81 115.76 78.78 115.97 78.75 116.18 78.7 116.39 78.66 116.6 78.6 116.81 78.54 117.02 78.47 117.23 78.39 117.44 78.31 117.65 78.22 117.86 78.12 118.07 78.01 118.28 77.89 118.49 77.76 118.7 77.63 118.91 77.48 119.12 77.33 119.33 77.16 119.54 76.99 119.75 76.81 119.96 76.61 120.17 76.41 120.38 76.19 120.59 75.97 120.8 75.73 121.01 75.49 121.22 75.23 121.43 74.96 121.64 74.68 121.85 74.39 122.07 74.09 122.28 73.78 122.49 73.45 122.7 73.12 122.91 72.77 123.12 72.42 123.33 72.05 123.54 71.67 123.75 71.28 123.96 70.88 124.17 70.47 124.38 70.05 124.59 69.62 124.8 69.18 125.01 68.73 125.22 68.27 125.43 67.8 125.64 67.33 125.85 66.84 126.06 66.35 126.27 65.85 126.48 65.34 126.69 64.82 126.9 64.3 127.11 63.77 127.32 63.23 127.53 62.69 127.74 62.14 127.95 61.59 128.16 61.03 128.37 60.47 128.58 59.9 128.79 59.34 129 58.77 129.21 58.19 129.42 57.62 129.63 57.04 129.84 56.47 130.05 55.89 130.26 55.32 130.47 54.74 130.68 54.17 130.89 53.59 131.1 53.02 131.32 52.46 131.53 51.89 131.74 51.33 131.95 50.77 132.16 50.22 132.37 49.68 132.58 49.13 132.79 48.6 133 48.07 133.21 47.55 133.42 47.03 133.63 46.52 133.84 46.02 134.05 45.53 134.26 45.05 134.47 44.58 134.68 44.11 134.89 43.66 135.1 43.21 135.31 42.78 135.52 42.35 135.73 41.94 135.94 41.54 136.15 41.15 136.36 40.77 136.57 40.4 136.78 40.05 136.99 39.7 137.2 39.37 137.41 39.05 137.62 38.74 137.83 38.45 138.04 38.16 138.25 37.89 138.46 37.63 138.67 37.39 138.88 37.15 139.09 36.93 139.3 36.72 139.51 36.52 139.72 36.34 139.93 36.17 140.14 36.01"/>
      </g>
    </g>
  </g>
</g>
  <g class="guide ylabels" font-size="2.82" font-family="'PT Sans Caption','Helvetica Neue','Helvetica',sans-serif" fill="#6C606B" id="img-04da213e-14">
    <text x="16.27" y="80.31" text-anchor="end" dy="0.35em">-50</text>
    <text x="16.27" y="43.66" text-anchor="end" dy="0.35em">0</text>
    <text x="16.27" y="7" text-anchor="end" dy="0.35em">50</text>
  </g>
  <g font-size="3.88" font-family="'PT Sans','Helvetica Neue','Helvetica',sans-serif" fill="#564A55" stroke="#000000" stroke-opacity="0.000" id="img-04da213e-15">
    <text x="8.81" y="43.66" text-anchor="end" dy="0.35em">y</text>
  </g>
</g>
<defs>
  <clipPath id="img-04da213e-4">
  <path d="M17.27,5 L 147.4 5 147.4 82.31 17.27 82.31" />
</clipPath>
  <g id="img-04da213e-12">
    <circle cx="0" cy="0" r="0.9"/>
  </g>
</defs>
</svg>
