<?xml version="1.0" encoding="UTF-8"?>
<svg xmlns="http://www.w3.org/2000/svg"
     xmlns:xlink="http://www.w3.org/1999/xlink"
     xmlns:gadfly="http://www.gadflyjl.org/ns"
     version="1.2"
     width="152.4mm" height="101.6mm" viewBox="0 0 152.4 101.6"
     stroke="none"
     fill="#000000"
     stroke-width="0.3"
     font-size="3.88"
>
<g class="plotroot xscalable yscalable" id="img-4fb7932c-1">
  <g font-size="3.88" font-family="'PT Sans','Helvetica Neue','Helvetica',sans-serif" fill="#564A55" stroke="#000000" stroke-opacity="0.000" id="img-4fb7932c-2">
    <text x="82.4" y="89.99" text-anchor="middle" dy="0.6em">x</text>
  </g>
  <g class="guide xlabels" font-size="2.82" font-family="'PT Sans Caption','Helvetica Neue','Helvetica',sans-serif" fill="#6C606B" id="img-4fb7932c-3">
    <text x="19.4" y="83.32" text-anchor="middle" dy="0.6em">-6</text>
    <text x="40.4" y="83.32" text-anchor="middle" dy="0.6em">-4</text>
    <text x="61.4" y="83.32" text-anchor="middle" dy="0.6em">-2</text>
    <text x="82.4" y="83.32" text-anchor="middle" dy="0.6em">0</text>
    <text x="103.4" y="83.32" text-anchor="middle" dy="0.6em">2</text>
    <text x="124.4" y="83.32" text-anchor="middle" dy="0.6em">4</text>
    <text x="145.4" y="83.32" text-anchor="middle" dy="0.6em">6</text>
  </g>
<g clip-path="url(#img-4fb7932c-4)">
  <g id="img-4fb7932c-5">
    <g pointer-events="visible" opacity="1" fill="#000000" fill-opacity="0.000" stroke="#000000" stroke-opacity="0.000" class="guide background" id="img-4fb7932c-6">
      <rect x="17.4" y="5" width="130" height="77.32"/>
    </g>
    <g class="guide ygridlines xfixed" stroke-dasharray="0.5,0.5" stroke-width="0.2" stroke="#D0D0E0" id="img-4fb7932c-7">
      <path fill="none" d="M17.4,80.32 L 147.4 80.32"/>
      <path fill="none" d="M17.4,68.1 L 147.4 68.1"/>
      <path fill="none" d="M17.4,55.88 L 147.4 55.88"/>
      <path fill="none" d="M17.4,43.66 L 147.4 43.66"/>
      <path fill="none" d="M17.4,31.44 L 147.4 31.44"/>
      <path fill="none" d="M17.4,19.22 L 147.4 19.22"/>
      <path fill="none" d="M17.4,7 L 147.4 7"/>
    </g>
    <g class="guide xgridlines yfixed" stroke-dasharray="0.5,0.5" stroke-width="0.2" stroke="#D0D0E0" id="img-4fb7932c-8">
      <path fill="none" d="M19.4,5 L 19.4 82.32"/>
      <path fill="none" d="M40.4,5 L 40.4 82.32"/>
      <path fill="none" d="M61.4,5 L 61.4 82.32"/>
      <path fill="none" d="M82.4,5 L 82.4 82.32"/>
      <path fill="none" d="M103.4,5 L 103.4 82.32"/>
      <path fill="none" d="M124.4,5 L 124.4 82.32"/>
      <path fill="none" d="M145.4,5 L 145.4 82.32"/>
    </g>
    <g class="plotpanel" id="img-4fb7932c-9">
      <g stroke-width="0.3" fill="#000000" fill-opacity="0.000" class="geometry" stroke-dasharray="none" stroke="#2D637F" id="img-4fb7932c-10">
        <path fill="none" d="M24.65,44.12 L 24.86 44.11 25.07 44.09 25.28 44.08 25.49 44.06 25.7 44.05 25.91 44.03 26.12 44.01 26.33 43.99 26.54 43.98 26.75 43.96 26.96 43.94 27.17 43.92 27.38 43.9 27.59 43.88 27.8 43.86 28.01 43.84 28.22 43.82 28.43 43.8 28.64 43.78 28.85 43.76 29.06 43.74 29.27 43.72 29.48 43.7 29.69 43.68 29.9 43.66 30.11 43.64 30.32 43.62 30.53 43.6 30.74 43.58 30.95 43.56 31.16 43.54 31.37 43.53 31.58 43.51 31.79 43.49 32 43.48 32.21 43.46 32.42 43.45 32.63 43.44 32.84 43.43 33.05 43.41 33.26 43.4 33.47 43.39 33.68 43.39 33.89 43.38 34.1 43.37 34.31 43.37 34.52 43.36 34.73 43.36 34.94 43.36 35.15 43.35 35.36 43.35 35.57 43.36 35.78 43.36 35.99 43.36 36.2 43.37 36.41 43.37 36.62 43.38 36.83 43.39 37.04 43.4 37.25 43.41 37.46 43.42 37.67 43.43 37.88 43.44 38.09 43.46 38.3 43.47 38.51 43.49 38.72 43.5 38.93 43.52 39.14 43.54 39.35 43.56 39.56 43.58 39.77 43.6 39.98 43.62 40.19 43.64 40.4 43.66 40.61 43.68 40.82 43.7 41.03 43.72 41.24 43.74 41.45 43.76 41.66 43.78 41.87 43.81 42.08 43.83 42.29 43.85 42.5 43.87 42.71 43.88 42.92 43.9 43.13 43.92 43.34 43.94 43.55 43.95 43.76 43.97 43.97 43.98 44.18 44 44.39 44.01 44.6 44.02 44.81 44.03 45.02 44.04 45.23 44.04 45.44 44.05 45.65 44.05 45.86 44.06 46.07 44.06 46.28 44.06 46.49 44.05 46.7 44.05 46.91 44.04 47.12 44.04 47.33 44.03 47.54 44.02 47.75 44 47.96 43.99 48.17 43.98 48.38 43.96 48.59 43.94 48.8 43.92 49.01 43.9 49.22 43.88 49.43 43.85 49.64 43.83 49.85 43.8 50.06 43.78 50.27 43.75 50.48 43.72 50.69 43.69 50.9 43.66 51.11 43.63 51.32 43.59 51.53 43.56 51.74 43.53 51.95 43.5 52.16 43.47 52.37 43.43 52.58 43.4 52.79 43.37 53 43.34 53.21 43.31 53.42 43.28 53.63 43.25 53.84 43.22 54.05 43.2 54.26 43.17 54.47 43.15 54.68 43.13 54.89 43.11 55.1 43.09 55.31 43.07 55.52 43.06 55.73 43.04 55.94 43.03 56.15 43.03 56.36 43.02 56.57 43.02 56.78 43.02 56.99 43.02 57.2 43.02 57.41 43.03 57.62 43.04 57.83 43.05 58.04 43.07 58.25 43.09 58.46 43.11 58.67 43.13 58.88 43.16 59.09 43.19 59.3 43.22 59.51 43.25 59.72 43.29 59.93 43.33 60.14 43.37 60.35 43.41 60.56 43.46 60.77 43.5 60.98 43.55 61.19 43.61 61.4 43.66 61.61 43.71 61.82 43.77 62.03 43.82 62.24 43.88 62.45 43.94 62.66 43.99 62.87 44.05 63.08 44.11 63.29 44.17 63.5 44.22 63.71 44.28 63.92 44.34 64.13 44.39 64.34 44.44 64.55 44.49 64.76 44.54 64.97 44.59 65.18 44.63 65.39 44.67 65.6 44.71 65.81 44.75 66.02 44.78 66.23 44.81 66.44 44.83 66.65 44.85 66.86 44.87 67.07 44.88 67.28 44.89 67.49 44.89 67.7 44.89 67.91 44.88 68.12 44.87 68.33 44.85 68.54 44.82 68.75 44.8 68.96 44.76 69.17 44.72 69.38 44.67 69.59 44.62 69.8 44.56 70.01 44.5 70.22 44.43 70.43 44.35 70.64 44.27 70.85 44.18 71.06 44.09 71.27 43.99 71.48 43.88 71.69 43.77 71.9 43.66 72.11 43.54 72.32 43.41 72.53 43.28 72.74 43.15 72.95 43.01 73.16 42.87 73.37 42.72 73.58 42.57 73.79 42.42 74 42.26 74.21 42.1 74.42 41.94 74.63 41.78 74.84 41.62 75.05 41.45 75.26 41.28 75.47 41.12 75.68 40.95 75.89 40.78 76.1 40.62 76.31 40.45 76.52 40.29 76.73 40.12 76.94 39.96 77.15 39.8 77.36 39.65 77.57 39.5 77.78 39.35 77.99 39.2 78.2 39.06 78.41 38.92 78.62 38.79 78.83 38.67 79.04 38.55 79.25 38.43 79.46 38.32 79.67 38.22 79.88 38.12 80.09 38.03 80.3 37.95 80.51 37.88 80.72 37.81 80.93 37.75 81.14 37.69 81.35 37.65 81.56 37.61 81.77 37.58 81.98 37.56 82.19 37.55 82.4 37.55 82.61 37.55 82.82 37.56 83.03 37.58 83.24 37.61 83.45 37.65 83.66 37.69 83.87 37.75 84.08 37.81 84.29 37.88 84.5 37.95 84.71 38.03 84.92 38.12 85.13 38.22 85.34 38.32 85.55 38.43 85.76 38.55 85.97 38.67 86.18 38.79 86.39 38.92 86.6 39.06 86.81 39.2 87.02 39.35 87.23 39.5 87.44 39.65 87.65 39.8 87.86 39.96 88.07 40.12 88.28 40.29 88.49 40.45 88.7 40.62 88.91 40.78 89.12 40.95 89.33 41.12 89.54 41.28 89.75 41.45 89.96 41.62 90.17 41.78 90.38 41.94 90.59 42.1 90.8 42.26 91.01 42.42 91.22 42.57 91.43 42.72 91.64 42.87 91.85 43.01 92.06 43.15 92.27 43.28 92.48 43.41 92.69 43.54 92.9 43.66 93.11 43.77 93.32 43.88 93.53 43.99 93.74 44.09 93.95 44.18 94.16 44.27 94.37 44.35 94.58 44.43 94.79 44.5 95 44.56 95.21 44.62 95.42 44.67 95.63 44.72 95.84 44.76 96.05 44.8 96.26 44.82 96.47 44.85 96.68 44.87 96.89 44.88 97.1 44.89 97.31 44.89 97.52 44.89 97.73 44.88 97.94 44.87 98.15 44.85 98.36 44.83 98.57 44.81 98.78 44.78 98.99 44.75 99.2 44.71 99.41 44.67 99.62 44.63 99.83 44.59 100.04 44.54 100.25 44.49 100.46 44.44 100.67 44.39 100.88 44.34 101.09 44.28 101.3 44.22 101.51 44.17 101.72 44.11 101.93 44.05 102.14 43.99 102.35 43.94 102.56 43.88 102.77 43.82 102.98 43.77 103.19 43.71 103.4 43.66 103.61 43.61 103.82 43.55 104.03 43.5 104.24 43.46 104.45 43.41 104.66 43.37 104.87 43.33 105.08 43.29 105.29 43.25 105.5 43.22 105.71 43.19 105.92 43.16 106.13 43.13 106.34 43.11 106.55 43.09 106.76 43.07 106.97 43.05 107.18 43.04 107.39 43.03 107.6 43.02 107.81 43.02 108.02 43.02 108.23 43.02 108.44 43.02 108.65 43.03 108.86 43.03 109.07 43.04 109.28 43.06 109.49 43.07 109.7 43.09 109.91 43.11 110.12 43.13 110.33 43.15 110.54 43.17 110.75 43.2 110.96 43.22 111.17 43.25 111.38 43.28 111.59 43.31 111.8 43.34 112.01 43.37 112.22 43.4 112.43 43.43 112.64 43.47 112.85 43.5 113.06 43.53 113.27 43.56 113.48 43.59 113.69 43.63 113.9 43.66 114.11 43.69 114.32 43.72 114.53 43.75 114.74 43.78 114.95 43.8 115.16 43.83 115.37 43.85 115.58 43.88 115.79 43.9 116 43.92 116.21 43.94 116.42 43.96 116.63 43.98 116.84 43.99 117.05 44 117.26 44.02 117.47 44.03 117.68 44.04 117.89 44.04 118.1 44.05 118.31 44.05 118.52 44.06 118.73 44.06 118.94 44.06 119.15 44.05 119.36 44.05 119.57 44.04 119.78 44.04 119.99 44.03 120.2 44.02 120.41 44.01 120.62 44 120.83 43.98 121.04 43.97 121.25 43.95 121.46 43.94 121.67 43.92 121.88 43.9 122.09 43.88 122.3 43.87 122.51 43.85 122.72 43.83 122.93 43.81 123.14 43.78 123.35 43.76 123.56 43.74 123.77 43.72 123.98 43.7 124.19 43.68 124.4 43.66 124.61 43.64 124.82 43.62 125.03 43.6 125.24 43.58 125.45 43.56 125.66 43.54 125.87 43.52 126.08 43.5 126.29 43.49 126.5 43.47 126.71 43.46 126.92 43.44 127.13 43.43 127.34 43.42 127.55 43.41 127.76 43.4 127.97 43.39 128.18 43.38 128.39 43.37 128.6 43.37 128.81 43.36 129.02 43.36 129.23 43.36 129.44 43.35 129.65 43.35 129.86 43.36 130.07 43.36 130.28 43.36 130.49 43.37 130.7 43.37 130.91 43.38 131.12 43.39 131.33 43.39 131.54 43.4 131.75 43.41 131.96 43.43 132.17 43.44 132.38 43.45 132.59 43.46 132.8 43.48 133.01 43.49 133.22 43.51 133.43 43.53 133.64 43.54 133.85 43.56 134.06 43.58 134.27 43.6 134.48 43.62 134.69 43.64 134.9 43.66 135.11 43.68 135.32 43.7 135.53 43.72 135.74 43.74 135.95 43.76 136.16 43.78 136.37 43.8 136.58 43.82 136.79 43.84 137 43.86 137.21 43.88 137.42 43.9 137.63 43.92 137.84 43.94 138.05 43.96 138.26 43.98 138.47 43.99 138.68 44.01 138.89 44.03 139.1 44.05 139.31 44.06 139.52 44.08 139.73 44.09 139.94 44.11 140.15 44.12"/>
      </g>
    </g>
  </g>
</g>
  <g class="guide ylabels" font-size="2.82" font-family="'PT Sans Caption','Helvetica Neue','Helvetica',sans-serif" fill="#6C606B" id="img-4fb7932c-11">
    <text x="16.4" y="80.32" text-anchor="end" dy="0.35em">-6</text>
    <text x="16.4" y="68.1" text-anchor="end" dy="0.35em">-4</text>
    <text x="16.4" y="55.88" text-anchor="end" dy="0.35em">-2</text>
    <text x="16.4" y="43.66" text-anchor="end" dy="0.35em">0</text>
    <text x="16.4" y="31.44" text-anchor="end" dy="0.35em">2</text>
    <text x="16.4" y="19.22" text-anchor="end" dy="0.35em">4</text>
    <text x="16.4" y="7" text-anchor="end" dy="0.35em">6</text>
  </g>
  <g font-size="3.88" font-family="'PT Sans','Helvetica Neue','Helvetica',sans-serif" fill="#564A55" stroke="#000000" stroke-opacity="0.000" id="img-4fb7932c-12">
    <text x="8.81" y="41.66" text-anchor="middle" dy="0.35em" transform="rotate(-90, 8.81, 43.66)">phi(x)</text>
  </g>
</g>
<defs>
  <clipPath id="img-4fb7932c-4">
  <path d="M17.4,5 L 147.4 5 147.4 82.32 17.4 82.32" />
</clipPath>
</defs>
</svg>
