<?xml version="1.0" encoding="UTF-8"?>
<svg xmlns="http://www.w3.org/2000/svg"
     xmlns:xlink="http://www.w3.org/1999/xlink"
     xmlns:gadfly="http://www.gadflyjl.org/ns"
     version="1.2"
     width="152.4mm" height="101.6mm" viewBox="0 0 152.4 101.6"
     stroke="none"
     fill="#000000"
     stroke-width="0.3"
     font-size="3.88"
>
<g class="plotroot xscalable yscalable" id="img-1a3a8870-1">
  <g font-size="3.88" font-family="'PT Sans','Helvetica Neue','Helvetica',sans-serif" fill="#564A55" stroke="#000000" stroke-opacity="0.000" id="img-1a3a8870-2">
    <text x="81.5" y="89.99" text-anchor="middle" dy="0.6em">x</text>
  </g>
  <g class="guide xlabels" font-size="2.82" font-family="'PT Sans Caption','Helvetica Neue','Helvetica',sans-serif" fill="#6C606B" id="img-1a3a8870-3">
    <text x="17.59" y="83.32" text-anchor="middle" dy="0.6em">-6</text>
    <text x="38.89" y="83.32" text-anchor="middle" dy="0.6em">-4</text>
    <text x="60.19" y="83.32" text-anchor="middle" dy="0.6em">-2</text>
    <text x="81.5" y="83.32" text-anchor="middle" dy="0.6em">0</text>
    <text x="102.8" y="83.32" text-anchor="middle" dy="0.6em">2</text>
    <text x="124.1" y="83.32" text-anchor="middle" dy="0.6em">4</text>
    <text x="145.4" y="83.32" text-anchor="middle" dy="0.6em">6</text>
  </g>
<g clip-path="url(#img-1a3a8870-4)">
  <g id="img-1a3a8870-5">
    <g pointer-events="visible" opacity="1" fill="#000000" fill-opacity="0.000" stroke="#000000" stroke-opacity="0.000" class="guide background" id="img-1a3a8870-6">
      <rect x="15.59" y="5" width="131.81" height="77.32"/>
    </g>
    <g class="guide ygridlines xfixed" stroke-dasharray="0.5,0.5" stroke-width="0.2" stroke="#D0D0E0" id="img-1a3a8870-7">
      <path fill="none" d="M15.59,80.32 L 147.4 80.32"/>
      <path fill="none" d="M15.59,68.1 L 147.4 68.1"/>
      <path fill="none" d="M15.59,55.88 L 147.4 55.88"/>
      <path fill="none" d="M15.59,43.66 L 147.4 43.66"/>
      <path fill="none" d="M15.59,31.44 L 147.4 31.44"/>
      <path fill="none" d="M15.59,19.22 L 147.4 19.22"/>
      <path fill="none" d="M15.59,7 L 147.4 7"/>
    </g>
    <g class="guide xgridlines yfixed" stroke-dasharray="0.5,0.5" stroke-width="0.2" stroke="#D0D0E0" id="img-1a3a8870-8">
      <path fill="none" d="M17.59,5 L 17.59 82.32"/>
      <path fill="none" d="M38.89,5 L 38.89 82.32"/>
      <path fill="none" d="M60.19,5 L 60.19 82.32"/>
      <path fill="none" d="M81.5,5 L 81.5 82.32"/>
      <path fill="none" d="M102.8,5 L 102.8 82.32"/>
      <path fill="none" d="M124.1,5 L 124.1 82.32"/>
      <path fill="none" d="M145.4,5 L 145.4 82.32"/>
    </g>
    <g class="plotpanel" id="img-1a3a8870-9">
      <g class="geometry" id="img-1a3a8870-10">
        <g class="color_RGBA{Float32}(0.875f0,0.6171875f0,0.09765625f0,1.0f0)" stroke="#FFFFFF" stroke-width="0.3" fill="#DF9D19" id="img-1a3a8870-11">
          <use xlink:href="#img-1a3a8870-12" x="28.24" y="68.1"/>
          <use xlink:href="#img-1a3a8870-12" x="38.89" y="55.88"/>
          <use xlink:href="#img-1a3a8870-12" x="49.54" y="43.66"/>
          <use xlink:href="#img-1a3a8870-12" x="60.19" y="31.44"/>
          <use xlink:href="#img-1a3a8870-12" x="70.85" y="19.22"/>
          <use xlink:href="#img-1a3a8870-12" x="81.5" y="68.1"/>
          <use xlink:href="#img-1a3a8870-12" x="92.15" y="55.88"/>
          <use xlink:href="#img-1a3a8870-12" x="102.8" y="43.66"/>
          <use xlink:href="#img-1a3a8870-12" x="113.45" y="31.44"/>
          <use xlink:href="#img-1a3a8870-12" x="124.1" y="19.22"/>
          <use xlink:href="#img-1a3a8870-12" x="134.75" y="68.1"/>
        </g>
      </g>
      <g stroke-width="0.3" fill="#000000" fill-opacity="0.000" class="geometry" stroke-dasharray="none" stroke="#2D637F" id="img-1a3a8870-13">
        <path fill="none" d="M22.92,68.17 L 23.13 68.2 23.34 68.22 23.56 68.25 23.77 68.27 23.98 68.29 24.2 68.31 24.41 68.33 24.62 68.35 24.83 68.36 25.05 68.37 25.26 68.38 25.47 68.38 25.69 68.39 25.9 68.39 26.11 68.38 26.33 68.37 26.54 68.36 26.75 68.35 26.97 68.33 27.18 68.3 27.39 68.27 27.6 68.23 27.82 68.19 28.03 68.15 28.24 68.1 28.46 68.04 28.67 67.97 28.88 67.9 29.1 67.82 29.31 67.74 29.52 67.65 29.73 67.55 29.95 67.44 30.16 67.33 30.37 67.21 30.59 67.08 30.8 66.94 31.01 66.79 31.23 66.64 31.44 66.48 31.65 66.31 31.86 66.13 32.08 65.94 32.29 65.74 32.5 65.53 32.72 65.32 32.93 65.1 33.14 64.86 33.36 64.62 33.57 64.37 33.78 64.11 33.99 63.85 34.21 63.57 34.42 63.29 34.63 63 34.85 62.7 35.06 62.39 35.27 62.07 35.49 61.75 35.7 61.42 35.91 61.09 36.12 60.75 36.34 60.4 36.55 60.04 36.76 59.68 36.98 59.32 37.19 58.95 37.4 58.58 37.62 58.2 37.83 57.82 38.04 57.43 38.25 57.05 38.47 56.66 38.68 56.27 38.89 55.88 39.11 55.48 39.32 55.09 39.53 54.7 39.75 54.31 39.96 53.92 40.17 53.53 40.38 53.15 40.6 52.76 40.81 52.38 41.02 52.01 41.24 51.64 41.45 51.27 41.66 50.91 41.88 50.56 42.09 50.21 42.3 49.87 42.51 49.53 42.73 49.21 42.94 48.89 43.15 48.58 43.37 48.27 43.58 47.98 43.79 47.7 44.01 47.42 44.22 47.16 44.43 46.9 44.65 46.66 44.86 46.42 45.07 46.2 45.28 45.98 45.5 45.78 45.71 45.59 45.92 45.4 46.14 45.23 46.35 45.07 46.56 44.92 46.78 44.77 46.99 44.64 47.2 44.52 47.41 44.4 47.63 44.3 47.84 44.2 48.05 44.11 48.27 44.03 48.48 43.95 48.69 43.88 48.91 43.82 49.12 43.76 49.33 43.71 49.54 43.66 49.76 43.61 49.97 43.57 50.18 43.53 50.4 43.49 50.61 43.45 50.82 43.41 51.04 43.37 51.25 43.32 51.46 43.28 51.67 43.23 51.89 43.17 52.1 43.12 52.31 43.05 52.53 42.98 52.74 42.9 52.95 42.81 53.17 42.72 53.38 42.61 53.59 42.5 53.8 42.37 54.02 42.23 54.23 42.07 54.44 41.91 54.66 41.73 54.87 41.53 55.08 41.32 55.3 41.1 55.51 40.86 55.72 40.6 55.93 40.33 56.15 40.04 56.36 39.73 56.57 39.41 56.79 39.07 57 38.71 57.21 38.33 57.43 37.94 57.64 37.53 57.85 37.11 58.06 36.66 58.28 36.2 58.49 35.73 58.7 35.24 58.92 34.73 59.13 34.22 59.34 33.68 59.56 33.14 59.77 32.58 59.98 32.02 60.19 31.44 60.41 30.85 60.62 30.26 60.83 29.66 61.05 29.05 61.26 28.44 61.47 27.83 61.69 27.21 61.9 26.6 62.11 25.98 62.33 25.37 62.54 24.76 62.75 24.16 62.96 23.56 63.18 22.98 63.39 22.4 63.6 21.83 63.82 21.28 64.03 20.74 64.24 20.22 64.46 19.72 64.67 19.23 64.88 18.77 65.09 18.33 65.31 17.91 65.52 17.52 65.73 17.16 65.95 16.82 66.16 16.52 66.37 16.24 66.59 16 66.8 15.79 67.01 15.62 67.22 15.48 67.44 15.37 67.65 15.31 67.86 15.28 68.08 15.3 68.29 15.35 68.5 15.44 68.72 15.57 68.93 15.75 69.14 15.97 69.35 16.23 69.57 16.53 69.78 16.87 69.99 17.26 70.21 17.69 70.42 18.16 70.63 18.67 70.85 19.22 71.06 19.81 71.27 20.44 71.48 21.12 71.7 21.83 71.91 22.57 72.12 23.36 72.34 24.18 72.55 25.03 72.76 25.92 72.98 26.84 73.19 27.78 73.4 28.76 73.61 29.76 73.83 30.79 74.04 31.84 74.25 32.92 74.47 34.01 74.68 35.12 74.89 36.25 75.11 37.39 75.32 38.55 75.53 39.71 75.74 40.88 75.96 42.06 76.17 43.24 76.38 44.43 76.6 45.61 76.81 46.79 77.02 47.96 77.24 49.13 77.45 50.29 77.66 51.44 77.88 52.57 78.09 53.69 78.3 54.8 78.51 55.88 78.73 56.94 78.94 57.98 79.15 59 79.37 59.99 79.58 60.95 79.79 61.88 80.01 62.78 80.22 63.64 80.43 64.48 80.64 65.28 80.86 66.04 81.07 66.76 81.28 67.45 81.5 68.1 81.71 68.7 81.92 69.27 82.14 69.79 82.35 70.27 82.56 70.71 82.77 71.11 82.99 71.46 83.2 71.77 83.41 72.04 83.63 72.26 83.84 72.44 84.05 72.58 84.27 72.67 84.48 72.72 84.69 72.74 84.9 72.71 85.12 72.64 85.33 72.53 85.54 72.38 85.76 72.19 85.97 71.97 86.18 71.71 86.4 71.42 86.61 71.09 86.82 70.73 87.03 70.35 87.25 69.93 87.46 69.48 87.67 69.01 87.89 68.52 88.1 68 88.31 67.46 88.53 66.9 88.74 66.32 88.95 65.72 89.16 65.11 89.38 64.49 89.59 63.85 89.8 63.2 90.02 62.55 90.23 61.89 90.44 61.22 90.66 60.55 90.87 59.87 91.08 59.2 91.29 58.53 91.51 57.86 91.72 57.19 91.93 56.53 92.15 55.88 92.36 55.23 92.57 54.59 92.79 53.97 93 53.35 93.21 52.75 93.42 52.16 93.64 51.59 93.85 51.03 94.06 50.48 94.28 49.96 94.49 49.45 94.7 48.96 94.92 48.49 95.13 48.04 95.34 47.61 95.56 47.2 95.77 46.81 95.98 46.44 96.19 46.1 96.41 45.77 96.62 45.46 96.83 45.18 97.05 44.91 97.26 44.67 97.47 44.45 97.69 44.24 97.9 44.06 98.11 43.9 98.32 43.75 98.54 43.62 98.75 43.51 98.96 43.42 99.18 43.34 99.39 43.28 99.6 43.23 99.82 43.2 100.03 43.18 100.24 43.17 100.45 43.17 100.67 43.19 100.88 43.21 101.09 43.24 101.31 43.28 101.52 43.32 101.73 43.37 101.95 43.42 102.16 43.48 102.37 43.54 102.58 43.6 102.8 43.66 103.01 43.72 103.22 43.77 103.44 43.82 103.65 43.87 103.86 43.91 104.08 43.95 104.29 43.98 104.5 44 104.71 44.01 104.93 44.02 105.14 44.01 105.35 43.99 105.57 43.96 105.78 43.91 105.99 43.85 106.21 43.78 106.42 43.69 106.63 43.59 106.84 43.47 107.06 43.33 107.27 43.18 107.48 43.01 107.7 42.82 107.91 42.61 108.12 42.39 108.34 42.15 108.55 41.89 108.76 41.61 108.97 41.31 109.19 41 109.4 40.66 109.61 40.31 109.83 39.94 110.04 39.56 110.25 39.15 110.47 38.73 110.68 38.3 110.89 37.84 111.1 37.38 111.32 36.89 111.53 36.4 111.74 35.89 111.96 35.37 112.17 34.83 112.38 34.29 112.6 33.74 112.81 33.17 113.02 32.6 113.24 32.02 113.45 31.44 113.66 30.85 113.87 30.25 114.09 29.66 114.3 29.06 114.51 28.46 114.73 27.86 114.94 27.27 115.15 26.67 115.37 26.08 115.58 25.5 115.79 24.92 116 24.35 116.22 23.79 116.43 23.24 116.64 22.7 116.86 22.18 117.07 21.67 117.28 21.17 117.5 20.69 117.71 20.23 117.92 19.79 118.13 19.37 118.35 18.97 118.56 18.59 118.77 18.23 118.99 17.9 119.2 17.6 119.41 17.32 119.63 17.06 119.84 16.84 120.05 16.65 120.26 16.48 120.48 16.35 120.69 16.24 120.9 16.17 121.12 16.13 121.33 16.13 121.54 16.16 121.76 16.22 121.97 16.32 122.18 16.45 122.39 16.61 122.61 16.81 122.82 17.05 123.03 17.32 123.25 17.63 123.46 17.98 123.67 18.36 123.89 18.77 124.1 19.22 124.31 19.7 124.52 20.22 124.74 20.77 124.95 21.36 125.16 21.98 125.38 22.63 125.59 23.32 125.8 24.03 126.02 24.78 126.23 25.55 126.44 26.36 126.65 27.19 126.87 28.05 127.08 28.94 127.29 29.85 127.51 30.78 127.72 31.74 127.93 32.72 128.15 33.72 128.36 34.74 128.57 35.78 128.79 36.84 129 37.91 129.21 39 129.42 40.1 129.64 41.21 129.85 42.33 130.06 43.47 130.28 44.61 130.49 45.76 130.7 46.91 130.92 48.07 131.13 49.23 131.34 50.39 131.55 51.55 131.77 52.71 131.98 53.86 132.19 55.02 132.41 56.16 132.62 57.3 132.83 58.44 133.05 59.56 133.26 60.68 133.47 61.78 133.68 62.87 133.9 63.95 134.11 65.01 134.32 66.05 134.54 67.08 134.75 68.1 134.96 69.09 135.18 70.06 135.39 71.02 135.6 71.95 135.81 72.86 136.03 73.75 136.24 74.62 136.45 75.46 136.67 76.28 136.88 77.07 137.09 77.84 137.31 78.58 137.52 79.29 137.73 79.98 137.94 80.65 138.16 81.28 138.37 81.89 138.58 82.47 138.8 83.02 139.01 83.55 139.22 84.05 139.44 84.52 139.65 84.96 139.86 85.38 140.07 85.77"/>
      </g>
    </g>
  </g>
</g>
  <g class="guide ylabels" font-size="2.82" font-family="'PT Sans Caption','Helvetica Neue','Helvetica',sans-serif" fill="#6C606B" id="img-1a3a8870-14">
    <text x="14.59" y="80.32" text-anchor="end" dy="0.35em">-1</text>
    <text x="14.59" y="68.1" text-anchor="end" dy="0.35em">0</text>
    <text x="14.59" y="55.88" text-anchor="end" dy="0.35em">1</text>
    <text x="14.59" y="43.66" text-anchor="end" dy="0.35em">2</text>
    <text x="14.59" y="31.44" text-anchor="end" dy="0.35em">3</text>
    <text x="14.59" y="19.22" text-anchor="end" dy="0.35em">4</text>
    <text x="14.59" y="7" text-anchor="end" dy="0.35em">5</text>
  </g>
  <g font-size="3.88" font-family="'PT Sans','Helvetica Neue','Helvetica',sans-serif" fill="#564A55" stroke="#000000" stroke-opacity="0.000" id="img-1a3a8870-15">
    <text x="8.81" y="43.66" text-anchor="end" dy="0.35em">y</text>
  </g>
</g>
<defs>
  <clipPath id="img-1a3a8870-4">
  <path d="M15.59,5 L 147.4 5 147.4 82.32 15.59 82.32" />
</clipPath>
  <g id="img-1a3a8870-12">
    <circle cx="0" cy="0" r="0.9"/>
  </g>
</defs>
</svg>
