<?xml version="1.0" encoding="UTF-8"?>
<svg xmlns="http://www.w3.org/2000/svg"
     xmlns:xlink="http://www.w3.org/1999/xlink"
     xmlns:gadfly="http://www.gadflyjl.org/ns"
     version="1.2"
     width="152.4mm" height="101.6mm" viewBox="0 0 152.4 101.6"
     stroke="none"
     fill="#000000"
     stroke-width="0.3"
     font-size="3.88"
>
<g class="plotroot xscalable yscalable" id="img-354df22c-1">
  <g font-size="3.88" font-family="'PT Sans','Helvetica Neue','Helvetica',sans-serif" fill="#564A55" stroke="#000000" stroke-opacity="0.000" id="img-354df22c-2">
    <text x="75.66" y="89.99" text-anchor="middle" dy="0.6em">x</text>
  </g>
  <g class="guide xlabels" font-size="2.82" font-family="'PT Sans Caption','Helvetica Neue','Helvetica',sans-serif" fill="#6C606B" id="img-354df22c-3">
    <text x="19.4" y="83.32" text-anchor="middle" dy="0.6em">-6</text>
    <text x="38.15" y="83.32" text-anchor="middle" dy="0.6em">-4</text>
    <text x="56.91" y="83.32" text-anchor="middle" dy="0.6em">-2</text>
    <text x="75.66" y="83.32" text-anchor="middle" dy="0.6em">0</text>
    <text x="94.42" y="83.32" text-anchor="middle" dy="0.6em">2</text>
    <text x="113.17" y="83.32" text-anchor="middle" dy="0.6em">4</text>
    <text x="131.92" y="83.32" text-anchor="middle" dy="0.6em">6</text>
  </g>
  <g class="guide colorkey" id="img-354df22c-4">
    <g fill="#4C404B" font-size="2.82" font-family="'PT Sans','Helvetica Neue','Helvetica',sans-serif" id="img-354df22c-5">
      <text x="137.74" y="27.34" dy="0.35em" id="img-354df22c-6" class="color_-5.0">-5.0</text>
      <text x="137.74" y="30.96" dy="0.35em" id="img-354df22c-7" class="color_-4.0">-4.0</text>
      <text x="137.74" y="34.59" dy="0.35em" id="img-354df22c-8" class="color_-3.0">-3.0</text>
      <text x="137.74" y="38.22" dy="0.35em" id="img-354df22c-9" class="color_-2.0">-2.0</text>
      <text x="137.74" y="41.84" dy="0.35em" id="img-354df22c-10" class="color_-1.0">-1.0</text>
      <text x="137.74" y="45.47" dy="0.35em" id="img-354df22c-11" class="color_0.0">0.0</text>
      <text x="137.74" y="49.1" dy="0.35em" id="img-354df22c-12" class="color_1.0">1.0</text>
      <text x="137.74" y="52.72" dy="0.35em" id="img-354df22c-13" class="color_2.0">2.0</text>
      <text x="137.74" y="56.35" dy="0.35em" id="img-354df22c-14" class="color_3.0">3.0</text>
      <text x="137.74" y="59.98" dy="0.35em" id="img-354df22c-15" class="color_4.0">4.0</text>
      <text x="137.74" y="63.6" dy="0.35em" id="img-354df22c-16" class="color_5.0">5.0</text>
    </g>
    <g stroke="#000000" stroke-opacity="0.000" id="img-354df22c-17">
      <rect x="134.92" y="26.43" width="1.81" height="1.81" id="img-354df22c-18" class="color_-5.0" fill="#16313F"/>
      <rect x="134.92" y="30.06" width="1.81" height="1.81" id="img-354df22c-19" class="color_-4.0" fill="#1D4052"/>
      <rect x="134.92" y="33.68" width="1.81" height="1.81" id="img-354df22c-20" class="color_-3.0" fill="#244F65"/>
      <rect x="134.92" y="37.31" width="1.81" height="1.81" id="img-354df22c-21" class="color_-2.0" fill="#2B5E78"/>
      <rect x="134.92" y="40.94" width="1.81" height="1.81" id="img-354df22c-22" class="color_-1.0" fill="#316C8B"/>
      <rect x="134.92" y="44.56" width="1.81" height="1.81" id="img-354df22c-23" class="color_0.0" fill="#387B9E"/>
      <rect x="134.92" y="48.19" width="1.81" height="1.81" id="img-354df22c-24" class="color_1.0" fill="#3F8AB1"/>
      <rect x="134.92" y="51.82" width="1.81" height="1.81" id="img-354df22c-25" class="color_2.0" fill="#4599C4"/>
      <rect x="134.92" y="55.44" width="1.81" height="1.81" id="img-354df22c-26" class="color_3.0" fill="#4CA8D7"/>
      <rect x="134.92" y="59.07" width="1.81" height="1.81" id="img-354df22c-27" class="color_4.0" fill="#53B6EA"/>
      <rect x="134.92" y="62.7" width="1.81" height="1.81" id="img-354df22c-28" class="color_5.0" fill="#5AC5FD"/>
    </g>
    <g fill="#362A35" font-size="3.88" font-family="'PT Sans','Helvetica Neue','Helvetica',sans-serif" stroke="#000000" stroke-opacity="0.000" id="img-354df22c-29">
      <text x="134.92" y="23.52" id="img-354df22c-30">Position</text>
    </g>
  </g>
<g clip-path="url(#img-354df22c-31)">
  <g id="img-354df22c-32">
    <g pointer-events="visible" opacity="1" fill="#000000" fill-opacity="0.000" stroke="#000000" stroke-opacity="0.000" class="guide background" id="img-354df22c-33">
      <rect x="17.4" y="5" width="116.53" height="77.32" id="img-354df22c-34"/>
    </g>
    <g class="guide ygridlines xfixed" stroke-dasharray="0.5,0.5" stroke-width="0.2" stroke="#D0D0E0" id="img-354df22c-35">
      <path fill="none" d="M17.4,80.32 L 133.92 80.32" id="img-354df22c-36"/>
      <path fill="none" d="M17.4,68.1 L 133.92 68.1" id="img-354df22c-37"/>
      <path fill="none" d="M17.4,55.88 L 133.92 55.88" id="img-354df22c-38"/>
      <path fill="none" d="M17.4,43.66 L 133.92 43.66" id="img-354df22c-39"/>
      <path fill="none" d="M17.4,31.44 L 133.92 31.44" id="img-354df22c-40"/>
      <path fill="none" d="M17.4,19.22 L 133.92 19.22" id="img-354df22c-41"/>
      <path fill="none" d="M17.4,7 L 133.92 7" id="img-354df22c-42"/>
    </g>
    <g class="guide xgridlines yfixed" stroke-dasharray="0.5,0.5" stroke-width="0.2" stroke="#D0D0E0" id="img-354df22c-43">
      <path fill="none" d="M19.4,5 L 19.4 82.32" id="img-354df22c-44"/>
      <path fill="none" d="M38.15,5 L 38.15 82.32" id="img-354df22c-45"/>
      <path fill="none" d="M56.91,5 L 56.91 82.32" id="img-354df22c-46"/>
      <path fill="none" d="M75.66,5 L 75.66 82.32" id="img-354df22c-47"/>
      <path fill="none" d="M94.42,5 L 94.42 82.32" id="img-354df22c-48"/>
      <path fill="none" d="M113.17,5 L 113.17 82.32" id="img-354df22c-49"/>
      <path fill="none" d="M131.92,5 L 131.92 82.32" id="img-354df22c-50"/>
    </g>
    <g class="plotpanel" id="img-354df22c-51">
      <g stroke-width="0.3" fill="#000000" fill-opacity="0.000" stroke-dasharray="none" id="img-354df22c-52">
        <path fill="none" d="M24.09,36.39 L 24.27 36.39 24.46 36.38 24.65 36.38 24.84 36.39 25.02 36.4 25.21 36.41 25.4 36.43 25.59 36.45 25.77 36.48 25.96 36.51 26.15 36.55 26.34 36.59 26.53 36.64 26.71 36.69 26.9 36.75 27.09 36.81 27.28 36.87 27.46 36.94 27.65 37.02 27.84 37.1 28.03 37.18 28.21 37.26 28.4 37.36 28.59 37.45 28.78 37.55 28.96 37.65 29.15 37.76 29.34 37.86 29.53 37.98 29.71 38.09 29.9 38.21 30.09 38.33 30.28 38.46 30.46 38.58 30.65 38.71 30.84 38.84 31.03 38.98 31.21 39.11 31.4 39.25 31.59 39.39 31.78 39.52 31.96 39.66 32.15 39.81 32.34 39.95 32.53 40.09 32.71 40.23 32.9 40.37 33.09 40.52 33.28 40.66 33.46 40.8 33.65 40.94 33.84 41.08 34.03 41.22 34.21 41.36 34.4 41.49 34.59 41.63 34.78 41.76 34.96 41.89 35.15 42.02 35.34 42.14 35.53 42.26 35.71 42.39 35.9 42.5 36.09 42.62 36.28 42.73 36.46 42.84 36.65 42.94 36.84 43.05 37.03 43.14 37.22 43.24 37.4 43.33 37.59 43.42 37.78 43.5 37.97 43.58 38.15 43.66 38.34 43.73 38.53 43.8 38.72 43.86 38.9 43.92 39.09 43.98 39.28 44.03 39.47 44.08 39.65 44.12 39.84 44.16 40.03 44.2 40.22 44.23 40.4 44.26 40.59 44.29 40.78 44.31 40.97 44.33 41.15 44.34 41.34 44.36 41.53 44.36 41.72 44.37 41.9 44.37 42.09 44.37 42.28 44.37 42.47 44.36 42.65 44.35 42.84 44.34 43.03 44.33 43.22 44.31 43.4 44.29 43.59 44.27 43.78 44.25 43.97 44.23 44.15 44.2 44.34 44.18 44.53 44.15 44.72 44.12 44.9 44.09 45.09 44.06 45.28 44.03 45.47 44 45.65 43.97 45.84 43.94 46.03 43.9 46.22 43.87 46.4 43.84 46.59 43.81 46.78 43.78 46.97 43.75 47.15 43.72 47.34 43.69 47.53 43.66 47.72 43.63 47.91 43.6 48.09 43.58 48.28 43.55 48.47 43.53 48.66 43.5 48.84 43.48 49.03 43.46 49.22 43.44 49.41 43.43 49.59 43.41 49.78 43.4 49.97 43.38 50.16 43.37 50.34 43.36 50.53 43.35 50.72 43.34 50.91 43.34 51.09 43.33 51.28 43.33 51.47 43.33 51.66 43.33 51.84 43.33 52.03 43.33 52.22 43.34 52.41 43.34 52.59 43.35 52.78 43.35 52.97 43.36 53.16 43.37 53.34 43.38 53.53 43.39 53.72 43.4 53.91 43.41 54.09 43.43 54.28 43.44 54.47 43.46 54.66 43.47 54.84 43.49 55.03 43.5 55.22 43.52 55.41 43.53 55.59 43.55 55.78 43.56 55.97 43.58 56.16 43.6 56.34 43.61 56.53 43.63 56.72 43.64 56.91 43.66 57.09 43.67 57.28 43.69 57.47 43.7 57.66 43.71 57.84 43.73 58.03 43.74 58.22 43.75 58.41 43.76 58.6 43.77 58.78 43.78 58.97 43.79 59.16 43.8 59.35 43.81 59.53 43.81 59.72 43.82 59.91 43.82 60.1 43.83 60.28 43.83 60.47 43.84 60.66 43.84 60.85 43.84 61.03 43.84 61.22 43.84 61.41 43.84 61.6 43.84 61.78 43.83 61.97 43.83 62.16 43.83 62.35 43.82 62.53 43.82 62.72 43.81 62.91 43.81 63.1 43.8 63.28 43.79 63.47 43.79 63.66 43.78 63.85 43.77 64.03 43.76 64.22 43.76 64.41 43.75 64.6 43.74 64.78 43.73 64.97 43.72 65.16 43.71 65.35 43.7 65.53 43.69 65.72 43.68 65.91 43.68 66.1 43.67 66.28 43.66 66.47 43.65 66.66 43.64 66.85 43.63 67.03 43.62 67.22 43.62 67.41 43.61 67.6 43.6 67.78 43.6 67.97 43.59 68.16 43.59 68.35 43.58 68.53 43.57 68.72 43.57 68.91 43.57 69.1 43.56 69.29 43.56 69.47 43.56 69.66 43.55 69.85 43.55 70.04 43.55 70.22 43.55 70.41 43.55 70.6 43.55 70.79 43.55 70.97 43.55 71.16 43.55 71.35 43.55 71.54 43.56 71.72 43.56 71.91 43.56 72.1 43.57 72.29 43.57 72.47 43.57 72.66 43.58 72.85 43.58 73.04 43.58 73.22 43.59 73.41 43.59 73.6 43.6 73.79 43.6 73.97 43.61 74.16 43.61 74.35 43.62 74.54 43.63 74.72 43.63 74.91 43.64 75.1 43.64 75.29 43.65 75.47 43.65 75.66 43.66 75.85 43.66 76.04 43.67 76.22 43.67 76.41 43.68 76.6 43.68 76.79 43.69 76.97 43.69 77.16 43.69 77.35 43.7 77.54 43.7 77.72 43.7 77.91 43.71 78.1 43.71 78.29 43.71 78.47 43.71 78.66 43.72 78.85 43.72 79.04 43.72 79.23 43.72 79.41 43.72 79.6 43.72 79.79 43.72 79.98 43.72 80.16 43.72 80.35 43.72 80.54 43.72 80.73 43.72 80.91 43.72 81.1 43.72 81.29 43.71 81.48 43.71 81.66 43.71 81.85 43.71 82.04 43.71 82.23 43.7 82.41 43.7 82.6 43.7 82.79 43.7 82.98 43.69 83.16 43.69 83.35 43.69 83.54 43.68 83.73 43.68 83.91 43.68 84.1 43.67 84.29 43.67 84.48 43.67 84.66 43.66 84.85 43.66 85.04 43.66 85.23 43.65 85.41 43.65 85.6 43.65 85.79 43.65 85.98 43.64 86.16 43.64 86.35 43.64 86.54 43.64 86.73 43.63 86.91 43.63 87.1 43.63 87.29 43.63 87.48 43.63 87.66 43.62 87.85 43.62 88.04 43.62 88.23 43.62 88.41 43.62 88.6 43.62 88.79 43.62 88.98 43.62 89.16 43.62 89.35 43.62 89.54 43.62 89.73 43.62 89.92 43.62 90.1 43.62 90.29 43.62 90.48 43.62 90.67 43.62 90.85 43.62 91.04 43.62 91.23 43.63 91.42 43.63 91.6 43.63 91.79 43.63 91.98 43.63 92.17 43.63 92.35 43.64 92.54 43.64 92.73 43.64 92.92 43.64 93.1 43.64 93.29 43.65 93.48 43.65 93.67 43.65 93.85 43.65 94.04 43.65 94.23 43.66 94.42 43.66 94.6 43.66 94.79 43.66 94.98 43.66 95.17 43.66 95.35 43.67 95.54 43.67 95.73 43.67 95.92 43.67 96.1 43.67 96.29 43.67 96.48 43.68 96.67 43.68 96.85 43.68 97.04 43.68 97.23 43.68 97.42 43.68 97.6 43.68 97.79 43.68 97.98 43.68 98.17 43.68 98.35 43.68 98.54 43.68 98.73 43.68 98.92 43.68 99.1 43.68 99.29 43.68 99.48 43.68 99.67 43.68 99.85 43.68 100.04 43.68 100.23 43.68 100.42 43.68 100.61 43.68 100.79 43.68 100.98 43.68 101.17 43.67 101.36 43.67 101.54 43.67 101.73 43.67 101.92 43.67 102.11 43.67 102.29 43.67 102.48 43.67 102.67 43.67 102.86 43.66 103.04 43.66 103.23 43.66 103.42 43.66 103.61 43.66 103.79 43.66 103.98 43.66 104.17 43.66 104.36 43.65 104.54 43.65 104.73 43.65 104.92 43.65 105.11 43.65 105.29 43.65 105.48 43.65 105.67 43.65 105.86 43.65 106.04 43.65 106.23 43.64 106.42 43.64 106.61 43.64 106.79 43.64 106.98 43.64 107.17 43.64 107.36 43.64 107.54 43.64 107.73 43.64 107.92 43.64 108.11 43.64 108.29 43.64 108.48 43.64 108.67 43.64 108.86 43.64 109.04 43.64 109.23 43.64 109.42 43.64 109.61 43.64 109.79 43.64 109.98 43.64 110.17 43.64 110.36 43.65 110.54 43.65 110.73 43.65 110.92 43.65 111.11 43.65 111.3 43.65 111.48 43.65 111.67 43.65 111.86 43.65 112.05 43.65 112.23 43.65 112.42 43.65 112.61 43.65 112.8 43.66 112.98 43.66 113.17 43.66 113.36 43.66 113.55 43.66 113.73 43.66 113.92 43.66 114.11 43.66 114.3 43.66 114.48 43.66 114.67 43.66 114.86 43.66 115.05 43.67 115.23 43.67 115.42 43.67 115.61 43.67 115.8 43.67 115.98 43.67 116.17 43.67 116.36 43.67 116.55 43.67 116.73 43.67 116.92 43.67 117.11 43.67 117.3 43.67 117.48 43.67 117.67 43.67 117.86 43.67 118.05 43.67 118.23 43.67 118.42 43.67 118.61 43.67 118.8 43.67 118.98 43.67 119.17 43.67 119.36 43.67 119.55 43.67 119.73 43.67 119.92 43.67 120.11 43.67 120.3 43.67 120.48 43.67 120.67 43.66 120.86 43.66 121.05 43.66 121.23 43.66 121.42 43.66 121.61 43.66 121.8 43.66 121.99 43.66 122.17 43.66 122.36 43.66 122.55 43.66 122.74 43.66 122.92 43.66 123.11 43.65 123.3 43.65 123.49 43.65 123.67 43.65 123.86 43.65 124.05 43.65 124.24 43.65 124.42 43.65 124.61 43.65 124.8 43.65 124.99 43.65 125.17 43.65 125.36 43.65 125.55 43.64 125.74 43.64 125.92 43.64 126.11 43.64 126.3 43.64 126.49 43.64 126.67 43.64 126.86 43.64 127.05 43.64 127.24 43.64" id="img-354df22c-53" class="geometry color_-5.0" stroke="#16313F"/>
        <path fill="none" d="M24.09,47.19 L 24.27 47.1 24.46 47.01 24.65 46.91 24.84 46.81 25.02 46.71 25.21 46.59 25.4 46.48 25.59 46.36 25.77 46.23 25.96 46.1 26.15 45.96 26.34 45.82 26.53 45.68 26.71 45.53 26.9 45.38 27.09 45.22 27.28 45.06 27.46 44.89 27.65 44.73 27.84 44.56 28.03 44.38 28.21 44.2 28.4 44.02 28.59 43.84 28.78 43.66 28.96 43.47 29.15 43.28 29.34 43.09 29.53 42.9 29.71 42.71 29.9 42.52 30.09 42.33 30.28 42.13 30.46 41.94 30.65 41.75 30.84 41.56 31.03 41.37 31.21 41.18 31.4 40.99 31.59 40.81 31.78 40.63 31.96 40.45 32.15 40.27 32.34 40.1 32.53 39.93 32.71 39.76 32.9 39.6 33.09 39.44 33.28 39.29 33.46 39.14 33.65 38.99 33.84 38.86 34.03 38.72 34.21 38.6 34.4 38.48 34.59 38.36 34.78 38.25 34.96 38.15 35.15 38.06 35.34 37.97 35.53 37.89 35.71 37.81 35.9 37.75 36.09 37.69 36.28 37.64 36.46 37.59 36.65 37.56 36.84 37.53 37.03 37.51 37.22 37.5 37.4 37.49 37.59 37.49 37.78 37.5 37.97 37.52 38.15 37.55 38.34 37.58 38.53 37.62 38.72 37.67 38.9 37.72 39.09 37.78 39.28 37.85 39.47 37.93 39.65 38.01 39.84 38.1 40.03 38.19 40.22 38.29 40.4 38.39 40.59 38.51 40.78 38.62 40.97 38.74 41.15 38.87 41.34 38.99 41.53 39.13 41.72 39.26 41.9 39.4 42.09 39.55 42.28 39.69 42.47 39.84 42.65 39.99 42.84 40.15 43.03 40.3 43.22 40.45 43.4 40.61 43.59 40.77 43.78 40.92 43.97 41.08 44.15 41.24 44.34 41.39 44.53 41.54 44.72 41.7 44.9 41.85 45.09 42 45.28 42.15 45.47 42.29 45.65 42.43 45.84 42.57 46.03 42.71 46.22 42.84 46.4 42.97 46.59 43.09 46.78 43.22 46.97 43.33 47.15 43.45 47.34 43.55 47.53 43.66 47.72 43.76 47.91 43.85 48.09 43.94 48.28 44.02 48.47 44.1 48.66 44.18 48.84 44.25 49.03 44.31 49.22 44.37 49.41 44.42 49.59 44.47 49.78 44.51 49.97 44.55 50.16 44.59 50.34 44.61 50.53 44.64 50.72 44.66 50.91 44.67 51.09 44.68 51.28 44.68 51.47 44.68 51.66 44.68 51.84 44.67 52.03 44.66 52.22 44.65 52.41 44.63 52.59 44.61 52.78 44.58 52.97 44.56 53.16 44.53 53.34 44.49 53.53 44.46 53.72 44.42 53.91 44.38 54.09 44.34 54.28 44.3 54.47 44.25 54.66 44.21 54.84 44.16 55.03 44.12 55.22 44.07 55.41 44.02 55.59 43.98 55.78 43.93 55.97 43.88 56.16 43.84 56.34 43.79 56.53 43.75 56.72 43.7 56.91 43.66 57.09 43.62 57.28 43.57 57.47 43.54 57.66 43.5 57.84 43.46 58.03 43.43 58.22 43.39 58.41 43.36 58.6 43.33 58.78 43.31 58.97 43.28 59.16 43.26 59.35 43.24 59.53 43.22 59.72 43.21 59.91 43.19 60.1 43.18 60.28 43.17 60.47 43.16 60.66 43.16 60.85 43.16 61.03 43.15 61.22 43.16 61.41 43.16 61.6 43.16 61.78 43.17 61.97 43.18 62.16 43.19 62.35 43.2 62.53 43.22 62.72 43.23 62.91 43.25 63.1 43.26 63.28 43.28 63.47 43.3 63.66 43.32 63.85 43.35 64.03 43.37 64.22 43.39 64.41 43.41 64.6 43.44 64.78 43.46 64.97 43.49 65.16 43.51 65.35 43.54 65.53 43.56 65.72 43.59 65.91 43.61 66.1 43.63 66.28 43.66 66.47 43.68 66.66 43.7 66.85 43.72 67.03 43.75 67.22 43.77 67.41 43.78 67.6 43.8 67.78 43.82 67.97 43.84 68.16 43.85 68.35 43.87 68.53 43.88 68.72 43.89 68.91 43.9 69.1 43.91 69.29 43.92 69.47 43.93 69.66 43.93 69.85 43.94 70.04 43.94 70.22 43.94 70.41 43.94 70.6 43.94 70.79 43.94 70.97 43.94 71.16 43.93 71.35 43.93 71.54 43.92 71.72 43.92 71.91 43.91 72.1 43.9 72.29 43.89 72.47 43.88 72.66 43.87 72.85 43.86 73.04 43.85 73.22 43.84 73.41 43.82 73.6 43.81 73.79 43.8 73.97 43.78 74.16 43.77 74.35 43.76 74.54 43.74 74.72 43.73 74.91 43.71 75.1 43.7 75.29 43.69 75.47 43.67 75.66 43.66 75.85 43.64 76.04 43.63 76.22 43.62 76.41 43.61 76.6 43.59 76.79 43.58 76.97 43.57 77.16 43.56 77.35 43.55 77.54 43.54 77.72 43.53 77.91 43.53 78.1 43.52 78.29 43.51 78.47 43.51 78.66 43.5 78.85 43.5 79.04 43.5 79.23 43.49 79.41 43.49 79.6 43.49 79.79 43.49 79.98 43.49 80.16 43.49 80.35 43.49 80.54 43.49 80.73 43.5 80.91 43.5 81.1 43.5 81.29 43.51 81.48 43.51 81.66 43.52 81.85 43.52 82.04 43.53 82.23 43.54 82.41 43.54 82.6 43.55 82.79 43.56 82.98 43.57 83.16 43.57 83.35 43.58 83.54 43.59 83.73 43.6 83.91 43.61 84.1 43.62 84.29 43.62 84.48 43.63 84.66 43.64 84.85 43.65 85.04 43.66 85.23 43.67 85.41 43.67 85.6 43.68 85.79 43.69 85.98 43.7 86.16 43.7 86.35 43.71 86.54 43.72 86.73 43.72 86.91 43.73 87.1 43.73 87.29 43.74 87.48 43.74 87.66 43.74 87.85 43.75 88.04 43.75 88.23 43.75 88.41 43.76 88.6 43.76 88.79 43.76 88.98 43.76 89.16 43.76 89.35 43.76 89.54 43.76 89.73 43.76 89.92 43.76 90.1 43.76 90.29 43.75 90.48 43.75 90.67 43.75 90.85 43.75 91.04 43.74 91.23 43.74 91.42 43.74 91.6 43.73 91.79 43.73 91.98 43.72 92.17 43.72 92.35 43.71 92.54 43.71 92.73 43.7 92.92 43.7 93.1 43.69 93.29 43.69 93.48 43.68 93.67 43.68 93.85 43.67 94.04 43.67 94.23 43.66 94.42 43.66 94.6 43.65 94.79 43.65 94.98 43.64 95.17 43.64 95.35 43.63 95.54 43.63 95.73 43.63 95.92 43.62 96.1 43.62 96.29 43.61 96.48 43.61 96.67 43.61 96.85 43.61 97.04 43.6 97.23 43.6 97.42 43.6 97.6 43.6 97.79 43.6 97.98 43.6 98.17 43.59 98.35 43.59 98.54 43.59 98.73 43.59 98.92 43.59 99.1 43.59 99.29 43.59 99.48 43.6 99.67 43.6 99.85 43.6 100.04 43.6 100.23 43.6 100.42 43.6 100.61 43.61 100.79 43.61 100.98 43.61 101.17 43.61 101.36 43.62 101.54 43.62 101.73 43.62 101.92 43.62 102.11 43.63 102.29 43.63 102.48 43.63 102.67 43.64 102.86 43.64 103.04 43.64 103.23 43.65 103.42 43.65 103.61 43.65 103.79 43.66 103.98 43.66 104.17 43.66 104.36 43.67 104.54 43.67 104.73 43.67 104.92 43.68 105.11 43.68 105.29 43.68 105.48 43.68 105.67 43.69 105.86 43.69 106.04 43.69 106.23 43.69 106.42 43.69 106.61 43.69 106.79 43.7 106.98 43.7 107.17 43.7 107.36 43.7 107.54 43.7 107.73 43.7 107.92 43.7 108.11 43.7 108.29 43.7 108.48 43.7 108.67 43.7 108.86 43.7 109.04 43.7 109.23 43.7 109.42 43.7 109.61 43.69 109.79 43.69 109.98 43.69 110.17 43.69 110.36 43.69 110.54 43.69 110.73 43.69 110.92 43.68 111.11 43.68 111.3 43.68 111.48 43.68 111.67 43.68 111.86 43.67 112.05 43.67 112.23 43.67 112.42 43.67 112.61 43.66 112.8 43.66 112.98 43.66 113.17 43.66 113.36 43.66 113.55 43.65 113.73 43.65 113.92 43.65 114.11 43.65 114.3 43.64 114.48 43.64 114.67 43.64 114.86 43.64 115.05 43.64 115.23 43.64 115.42 43.63 115.61 43.63 115.8 43.63 115.98 43.63 116.17 43.63 116.36 43.63 116.55 43.63 116.73 43.63 116.92 43.63 117.11 43.63 117.3 43.63 117.48 43.63 117.67 43.62 117.86 43.62 118.05 43.63 118.23 43.63 118.42 43.63 118.61 43.63 118.8 43.63 118.98 43.63 119.17 43.63 119.36 43.63 119.55 43.63 119.73 43.63 119.92 43.63 120.11 43.63 120.3 43.64 120.48 43.64 120.67 43.64 120.86 43.64 121.05 43.64 121.23 43.64 121.42 43.65 121.61 43.65 121.8 43.65 121.99 43.65 122.17 43.65 122.36 43.66 122.55 43.66 122.74 43.66 122.92 43.66 123.11 43.66 123.3 43.67 123.49 43.67 123.67 43.67 123.86 43.67 124.05 43.68 124.24 43.68 124.42 43.68 124.61 43.68 124.8 43.68 124.99 43.69 125.17 43.69 125.36 43.69 125.55 43.69 125.74 43.69 125.92 43.7 126.11 43.7 126.3 43.7 126.49 43.7 126.67 43.7 126.86 43.7 127.05 43.71 127.24 43.71" id="img-354df22c-54" class="geometry color_-4.0" stroke="#1D4052"/>
        <path fill="none" d="M24.09,41.56 L 24.27 41.62 24.46 41.68 24.65 41.75 24.84 41.82 25.02 41.89 25.21 41.96 25.4 42.03 25.59 42.11 25.77 42.19 25.96 42.27 26.15 42.36 26.34 42.44 26.53 42.53 26.71 42.62 26.9 42.71 27.09 42.8 27.28 42.89 27.46 42.99 27.65 43.08 27.84 43.18 28.03 43.27 28.21 43.37 28.4 43.47 28.59 43.56 28.78 43.66 28.96 43.75 29.15 43.85 29.34 43.94 29.53 44.03 29.71 44.12 29.9 44.21 30.09 44.3 30.28 44.38 30.46 44.46 30.65 44.54 30.84 44.62 31.03 44.69 31.21 44.76 31.4 44.83 31.59 44.89 31.78 44.95 31.96 45 32.15 45.05 32.34 45.1 32.53 45.14 32.71 45.17 32.9 45.2 33.09 45.23 33.28 45.25 33.46 45.26 33.65 45.27 33.84 45.28 34.03 45.27 34.21 45.26 34.4 45.25 34.59 45.23 34.78 45.2 34.96 45.17 35.15 45.13 35.34 45.08 35.53 45.03 35.71 44.97 35.9 44.9 36.09 44.83 36.28 44.75 36.46 44.67 36.65 44.58 36.84 44.48 37.03 44.38 37.22 44.27 37.4 44.16 37.59 44.04 37.78 43.92 37.97 43.79 38.15 43.66 38.34 43.52 38.53 43.38 38.72 43.23 38.9 43.08 39.09 42.93 39.28 42.77 39.47 42.61 39.65 42.45 39.84 42.28 40.03 42.12 40.22 41.95 40.4 41.78 40.59 41.61 40.78 41.43 40.97 41.26 41.15 41.09 41.34 40.92 41.53 40.75 41.72 40.58 41.9 40.41 42.09 40.24 42.28 40.07 42.47 39.91 42.65 39.75 42.84 39.6 43.03 39.44 43.22 39.29 43.4 39.15 43.59 39.01 43.78 38.87 43.97 38.74 44.15 38.62 44.34 38.5 44.53 38.39 44.72 38.28 44.9 38.18 45.09 38.09 45.28 38 45.47 37.92 45.65 37.85 45.84 37.78 46.03 37.72 46.22 37.67 46.4 37.63 46.59 37.6 46.78 37.57 46.97 37.55 47.15 37.54 47.34 37.54 47.53 37.55 47.72 37.56 47.91 37.58 48.09 37.61 48.28 37.65 48.47 37.7 48.66 37.75 48.84 37.81 49.03 37.88 49.22 37.95 49.41 38.03 49.59 38.12 49.78 38.22 49.97 38.32 50.16 38.43 50.34 38.54 50.53 38.66 50.72 38.78 50.91 38.91 51.09 39.05 51.28 39.19 51.47 39.33 51.66 39.47 51.84 39.62 52.03 39.77 52.22 39.93 52.41 40.09 52.59 40.24 52.78 40.41 52.97 40.57 53.16 40.73 53.34 40.89 53.53 41.06 53.72 41.22 53.91 41.38 54.09 41.54 54.28 41.7 54.47 41.86 54.66 42.02 54.84 42.17 55.03 42.33 55.22 42.48 55.41 42.62 55.59 42.77 55.78 42.91 55.97 43.04 56.16 43.17 56.34 43.3 56.53 43.42 56.72 43.54 56.91 43.66 57.09 43.77 57.28 43.87 57.47 43.97 57.66 44.06 57.84 44.15 58.03 44.23 58.22 44.31 58.41 44.38 58.6 44.45 58.78 44.51 58.97 44.56 59.16 44.61 59.35 44.65 59.53 44.69 59.72 44.72 59.91 44.75 60.1 44.77 60.28 44.79 60.47 44.8 60.66 44.81 60.85 44.81 61.03 44.8 61.22 44.8 61.41 44.78 61.6 44.77 61.78 44.75 61.97 44.73 62.16 44.7 62.35 44.67 62.53 44.63 62.72 44.6 62.91 44.56 63.1 44.52 63.28 44.47 63.47 44.43 63.66 44.38 63.85 44.33 64.03 44.28 64.22 44.23 64.41 44.18 64.6 44.13 64.78 44.07 64.97 44.02 65.16 43.97 65.35 43.91 65.53 43.86 65.72 43.81 65.91 43.76 66.1 43.71 66.28 43.66 66.47 43.61 66.66 43.56 66.85 43.52 67.03 43.48 67.22 43.43 67.41 43.39 67.6 43.36 67.78 43.32 67.97 43.29 68.16 43.26 68.35 43.23 68.53 43.2 68.72 43.18 68.91 43.16 69.1 43.14 69.29 43.13 69.47 43.11 69.66 43.1 69.85 43.09 70.04 43.09 70.22 43.08 70.41 43.08 70.6 43.08 70.79 43.09 70.97 43.09 71.16 43.1 71.35 43.11 71.54 43.12 71.72 43.14 71.91 43.15 72.1 43.17 72.29 43.19 72.47 43.21 72.66 43.23 72.85 43.25 73.04 43.27 73.22 43.3 73.41 43.32 73.6 43.35 73.79 43.38 73.97 43.41 74.16 43.43 74.35 43.46 74.54 43.49 74.72 43.52 74.91 43.55 75.1 43.58 75.29 43.6 75.47 43.63 75.66 43.66 75.85 43.68 76.04 43.71 76.22 43.73 76.41 43.76 76.6 43.78 76.79 43.8 76.97 43.82 77.16 43.84 77.35 43.86 77.54 43.88 77.72 43.9 77.91 43.91 78.1 43.93 78.29 43.94 78.47 43.95 78.66 43.96 78.85 43.97 79.04 43.97 79.23 43.98 79.41 43.98 79.6 43.99 79.79 43.99 79.98 43.99 80.16 43.98 80.35 43.98 80.54 43.98 80.73 43.97 80.91 43.97 81.1 43.96 81.29 43.95 81.48 43.94 81.66 43.93 81.85 43.92 82.04 43.91 82.23 43.89 82.41 43.88 82.6 43.87 82.79 43.85 82.98 43.84 83.16 43.82 83.35 43.8 83.54 43.79 83.73 43.77 83.91 43.76 84.1 43.74 84.29 43.72 84.48 43.71 84.66 43.69 84.85 43.67 85.04 43.66 85.23 43.64 85.41 43.63 85.6 43.61 85.79 43.6 85.98 43.58 86.16 43.57 86.35 43.56 86.54 43.55 86.73 43.54 86.91 43.52 87.1 43.51 87.29 43.51 87.48 43.5 87.66 43.49 87.85 43.48 88.04 43.48 88.23 43.47 88.41 43.47 88.6 43.47 88.79 43.46 88.98 43.46 89.16 43.46 89.35 43.46 89.54 43.46 89.73 43.46 89.92 43.46 90.1 43.47 90.29 43.47 90.48 43.48 90.67 43.48 90.85 43.49 91.04 43.49 91.23 43.5 91.42 43.51 91.6 43.51 91.79 43.52 91.98 43.53 92.17 43.54 92.35 43.55 92.54 43.56 92.73 43.57 92.92 43.58 93.1 43.59 93.29 43.6 93.48 43.61 93.67 43.62 93.85 43.63 94.04 43.64 94.23 43.65 94.42 43.66 94.6 43.67 94.79 43.68 94.98 43.69 95.17 43.69 95.35 43.7 95.54 43.71 95.73 43.72 95.92 43.73 96.1 43.73 96.29 43.74 96.48 43.75 96.67 43.75 96.85 43.76 97.04 43.76 97.23 43.76 97.42 43.77 97.6 43.77 97.79 43.77 97.98 43.78 98.17 43.78 98.35 43.78 98.54 43.78 98.73 43.78 98.92 43.78 99.1 43.78 99.29 43.78 99.48 43.78 99.67 43.77 99.85 43.77 100.04 43.77 100.23 43.76 100.42 43.76 100.61 43.76 100.79 43.75 100.98 43.75 101.17 43.74 101.36 43.74 101.54 43.73 101.73 43.73 101.92 43.72 102.11 43.71 102.29 43.71 102.48 43.7 102.67 43.7 102.86 43.69 103.04 43.68 103.23 43.68 103.42 43.67 103.61 43.66 103.79 43.66 103.98 43.65 104.17 43.65 104.36 43.64 104.54 43.63 104.73 43.63 104.92 43.62 105.11 43.62 105.29 43.61 105.48 43.61 105.67 43.6 105.86 43.6 106.04 43.6 106.23 43.59 106.42 43.59 106.61 43.59 106.79 43.59 106.98 43.58 107.17 43.58 107.36 43.58 107.54 43.58 107.73 43.58 107.92 43.58 108.11 43.58 108.29 43.58 108.48 43.58 108.67 43.58 108.86 43.58 109.04 43.58 109.23 43.58 109.42 43.58 109.61 43.59 109.79 43.59 109.98 43.59 110.17 43.59 110.36 43.6 110.54 43.6 110.73 43.6 110.92 43.61 111.11 43.61 111.3 43.62 111.48 43.62 111.67 43.62 111.86 43.63 112.05 43.63 112.23 43.64 112.42 43.64 112.61 43.64 112.8 43.65 112.98 43.65 113.17 43.66 113.36 43.66 113.55 43.67 113.73 43.67 113.92 43.67 114.11 43.68 114.3 43.68 114.48 43.69 114.67 43.69 114.86 43.69 115.05 43.7 115.23 43.7 115.42 43.7 115.61 43.7 115.8 43.71 115.98 43.71 116.17 43.71 116.36 43.71 116.55 43.71 116.73 43.72 116.92 43.72 117.11 43.72 117.3 43.72 117.48 43.72 117.67 43.72 117.86 43.72 118.05 43.72 118.23 43.72 118.42 43.72 118.61 43.72 118.8 43.72 118.98 43.71 119.17 43.71 119.36 43.71 119.55 43.71 119.73 43.71 119.92 43.71 120.11 43.7 120.3 43.7 120.48 43.7 120.67 43.69 120.86 43.69 121.05 43.69 121.23 43.68 121.42 43.68 121.61 43.68 121.8 43.67 121.99 43.67 122.17 43.67 122.36 43.66 122.55 43.66 122.74 43.65 122.92 43.65 123.11 43.65 123.3 43.64 123.49 43.64 123.67 43.63 123.86 43.63 124.05 43.62 124.24 43.62 124.42 43.62 124.61 43.61 124.8 43.61 124.99 43.6 125.17 43.6 125.36 43.6 125.55 43.59 125.74 43.59 125.92 43.58 126.11 43.58 126.3 43.58 126.49 43.57 126.67 43.57 126.86 43.57 127.05 43.56 127.24 43.56" id="img-354df22c-55" class="geometry color_-3.0" stroke="#244F65"/>
        <path fill="none" d="M24.09,44.92 L 24.27 44.89 24.46 44.85 24.65 44.81 24.84 44.76 25.02 44.72 25.21 44.68 25.4 44.63 25.59 44.58 25.77 44.53 25.96 44.48 26.15 44.43 26.34 44.38 26.53 44.33 26.71 44.27 26.9 44.22 27.09 44.16 27.28 44.11 27.46 44.05 27.65 43.99 27.84 43.94 28.03 43.88 28.21 43.83 28.4 43.77 28.59 43.71 28.78 43.66 28.96 43.6 29.15 43.55 29.34 43.5 29.53 43.44 29.71 43.39 29.9 43.34 30.09 43.29 30.28 43.25 30.46 43.2 30.65 43.16 30.84 43.12 31.03 43.08 31.21 43.04 31.4 43 31.59 42.97 31.78 42.94 31.96 42.91 32.15 42.89 32.34 42.86 32.53 42.84 32.71 42.83 32.9 42.81 33.09 42.8 33.28 42.79 33.46 42.79 33.65 42.79 33.84 42.79 34.03 42.8 34.21 42.8 34.4 42.82 34.59 42.83 34.78 42.85 34.96 42.87 35.15 42.9 35.34 42.92 35.53 42.96 35.71 42.99 35.9 43.03 36.09 43.07 36.28 43.11 36.46 43.15 36.65 43.2 36.84 43.25 37.03 43.3 37.22 43.36 37.4 43.42 37.59 43.47 37.78 43.53 37.97 43.59 38.15 43.66 38.34 43.72 38.53 43.79 38.72 43.85 38.9 43.92 39.09 43.98 39.28 44.05 39.47 44.11 39.65 44.18 39.84 44.24 40.03 44.31 40.22 44.37 40.4 44.43 40.59 44.49 40.78 44.54 40.97 44.6 41.15 44.65 41.34 44.7 41.53 44.75 41.72 44.79 41.9 44.83 42.09 44.87 42.28 44.9 42.47 44.93 42.65 44.95 42.84 44.97 43.03 44.98 43.22 44.99 43.4 45 43.59 45 43.78 44.99 43.97 44.98 44.15 44.97 44.34 44.94 44.53 44.91 44.72 44.88 44.9 44.84 45.09 44.79 45.28 44.74 45.47 44.68 45.65 44.62 45.84 44.55 46.03 44.47 46.22 44.39 46.4 44.3 46.59 44.21 46.78 44.11 46.97 44 47.15 43.89 47.34 43.78 47.53 43.66 47.72 43.53 47.91 43.4 48.09 43.27 48.28 43.13 48.47 42.98 48.66 42.84 48.84 42.69 49.03 42.53 49.22 42.37 49.41 42.22 49.59 42.05 49.78 41.89 49.97 41.72 50.16 41.56 50.34 41.39 50.53 41.22 50.72 41.05 50.91 40.88 51.09 40.71 51.28 40.55 51.47 40.38 51.66 40.22 51.84 40.05 52.03 39.89 52.22 39.73 52.41 39.58 52.59 39.43 52.78 39.28 52.97 39.14 53.16 39 53.34 38.86 53.53 38.73 53.72 38.61 53.91 38.49 54.09 38.38 54.28 38.27 54.47 38.17 54.66 38.08 54.84 37.99 55.03 37.91 55.22 37.84 55.41 37.78 55.59 37.72 55.78 37.67 55.97 37.63 56.16 37.6 56.34 37.57 56.53 37.56 56.72 37.55 56.91 37.55 57.09 37.56 57.28 37.57 57.47 37.6 57.66 37.63 57.84 37.67 58.03 37.71 58.22 37.77 58.41 37.83 58.6 37.9 58.78 37.98 58.97 38.07 59.16 38.16 59.35 38.26 59.53 38.36 59.72 38.47 59.91 38.59 60.1 38.71 60.28 38.84 60.47 38.97 60.66 39.11 60.85 39.25 61.03 39.39 61.22 39.54 61.41 39.7 61.6 39.85 61.78 40.01 61.97 40.17 62.16 40.33 62.35 40.49 62.53 40.66 62.72 40.82 62.91 40.99 63.1 41.16 63.28 41.32 63.47 41.49 63.66 41.65 63.85 41.81 64.03 41.97 64.22 42.13 64.41 42.29 64.6 42.44 64.78 42.59 64.97 42.74 65.16 42.88 65.35 43.02 65.53 43.16 65.72 43.29 65.91 43.42 66.1 43.54 66.28 43.66 66.47 43.77 66.66 43.88 66.85 43.98 67.03 44.08 67.22 44.17 67.41 44.25 67.6 44.33 67.78 44.41 67.97 44.48 68.16 44.54 68.35 44.59 68.53 44.65 68.72 44.69 68.91 44.73 69.1 44.76 69.29 44.79 69.47 44.82 69.66 44.83 69.85 44.84 70.04 44.85 70.22 44.85 70.41 44.85 70.6 44.84 70.79 44.83 70.97 44.82 71.16 44.8 71.35 44.77 71.54 44.74 71.72 44.71 71.91 44.68 72.1 44.64 72.29 44.6 72.47 44.56 72.66 44.51 72.85 44.46 73.04 44.41 73.22 44.36 73.41 44.31 73.6 44.26 73.79 44.2 73.97 44.15 74.16 44.09 74.35 44.04 74.54 43.98 74.72 43.92 74.91 43.87 75.1 43.82 75.29 43.76 75.47 43.71 75.66 43.66 75.85 43.61 76.04 43.56 76.22 43.51 76.41 43.47 76.6 43.42 76.79 43.38 76.97 43.34 77.16 43.31 77.35 43.27 77.54 43.24 77.72 43.21 77.91 43.18 78.1 43.16 78.29 43.14 78.47 43.12 78.66 43.1 78.85 43.08 79.04 43.07 79.23 43.06 79.41 43.06 79.6 43.05 79.79 43.05 79.98 43.05 80.16 43.06 80.35 43.06 80.54 43.07 80.73 43.08 80.91 43.09 81.1 43.11 81.29 43.12 81.48 43.14 81.66 43.16 81.85 43.18 82.04 43.21 82.23 43.23 82.41 43.25 82.6 43.28 82.79 43.31 82.98 43.33 83.16 43.36 83.35 43.39 83.54 43.42 83.73 43.45 83.91 43.48 84.1 43.51 84.29 43.54 84.48 43.57 84.66 43.6 84.85 43.63 85.04 43.66 85.23 43.69 85.41 43.71 85.6 43.74 85.79 43.76 85.98 43.79 86.16 43.81 86.35 43.83 86.54 43.86 86.73 43.88 86.91 43.89 87.1 43.91 87.29 43.93 87.48 43.94 87.66 43.96 87.85 43.97 88.04 43.98 88.23 43.99 88.41 43.99 88.6 44 88.79 44 88.98 44.01 89.16 44.01 89.35 44.01 89.54 44 89.73 44 89.92 44 90.1 43.99 90.29 43.99 90.48 43.98 90.67 43.97 90.85 43.96 91.04 43.95 91.23 43.94 91.42 43.92 91.6 43.91 91.79 43.89 91.98 43.88 92.17 43.86 92.35 43.85 92.54 43.83 92.73 43.81 92.92 43.8 93.1 43.78 93.29 43.76 93.48 43.74 93.67 43.73 93.85 43.71 94.04 43.69 94.23 43.67 94.42 43.66 94.6 43.64 94.79 43.62 94.98 43.61 95.17 43.59 95.35 43.58 95.54 43.56 95.73 43.55 95.92 43.54 96.1 43.53 96.29 43.51 96.48 43.5 96.67 43.49 96.85 43.49 97.04 43.48 97.23 43.47 97.42 43.46 97.6 43.46 97.79 43.45 97.98 43.45 98.17 43.45 98.35 43.45 98.54 43.44 98.73 43.44 98.92 43.44 99.1 43.45 99.29 43.45 99.48 43.45 99.67 43.46 99.85 43.46 100.04 43.47 100.23 43.47 100.42 43.48 100.61 43.49 100.79 43.49 100.98 43.5 101.17 43.51 101.36 43.52 101.54 43.53 101.73 43.54 101.92 43.55 102.11 43.56 102.29 43.57 102.48 43.58 102.67 43.59 102.86 43.6 103.04 43.61 103.23 43.62 103.42 43.64 103.61 43.65 103.79 43.66 103.98 43.67 104.17 43.68 104.36 43.69 104.54 43.7 104.73 43.71 104.92 43.72 105.11 43.73 105.29 43.73 105.48 43.74 105.67 43.75 105.86 43.76 106.04 43.76 106.23 43.77 106.42 43.77 106.61 43.78 106.79 43.78 106.98 43.79 107.17 43.79 107.36 43.79 107.54 43.79 107.73 43.8 107.92 43.8 108.11 43.8 108.29 43.8 108.48 43.8 108.67 43.79 108.86 43.79 109.04 43.79 109.23 43.79 109.42 43.78 109.61 43.78 109.79 43.78 109.98 43.77 110.17 43.77 110.36 43.76 110.54 43.76 110.73 43.75 110.92 43.74 111.11 43.74 111.3 43.73 111.48 43.72 111.67 43.72 111.86 43.71 112.05 43.7 112.23 43.7 112.42 43.69 112.61 43.68 112.8 43.67 112.98 43.66 113.17 43.66 113.36 43.65 113.55 43.64 113.73 43.64 113.92 43.63 114.11 43.62 114.3 43.62 114.48 43.61 114.67 43.6 114.86 43.6 115.05 43.59 115.23 43.59 115.42 43.58 115.61 43.58 115.8 43.57 115.98 43.57 116.17 43.56 116.36 43.56 116.55 43.56 116.73 43.56 116.92 43.55 117.11 43.55 117.3 43.55 117.48 43.55 117.67 43.55 117.86 43.55 118.05 43.55 118.23 43.55 118.42 43.55 118.61 43.55 118.8 43.56 118.98 43.56 119.17 43.56 119.36 43.56 119.55 43.57 119.73 43.57 119.92 43.57 120.11 43.58 120.3 43.58 120.48 43.59 120.67 43.59 120.86 43.6 121.05 43.61 121.23 43.61 121.42 43.62 121.61 43.62 121.8 43.63 121.99 43.64 122.17 43.64 122.36 43.65 122.55 43.66 122.74 43.66 122.92 43.67 123.11 43.68 123.3 43.69 123.49 43.69 123.67 43.7 123.86 43.71 124.05 43.72 124.24 43.72 124.42 43.73 124.61 43.74 124.8 43.74 124.99 43.75 125.17 43.76 125.36 43.77 125.55 43.77 125.74 43.78 125.92 43.78 126.11 43.79 126.3 43.8 126.49 43.8 126.67 43.81 126.86 43.81 127.05 43.82 127.24 43.82" id="img-354df22c-56" class="geometry color_-2.0" stroke="#2B5E78"/>
        <path fill="none" d="M24.09,42.89 L 24.27 42.91 24.46 42.94 24.65 42.96 24.84 42.99 25.02 43.02 25.21 43.04 25.4 43.07 25.59 43.1 25.77 43.13 25.96 43.16 26.15 43.19 26.34 43.22 26.53 43.25 26.71 43.29 26.9 43.32 27.09 43.35 27.28 43.39 27.46 43.42 27.65 43.46 27.84 43.49 28.03 43.52 28.21 43.56 28.4 43.59 28.59 43.62 28.78 43.66 28.96 43.69 29.15 43.72 29.34 43.75 29.53 43.79 29.71 43.82 29.9 43.85 30.09 43.87 30.28 43.9 30.46 43.93 30.65 43.95 30.84 43.98 31.03 44 31.21 44.02 31.4 44.04 31.59 44.06 31.78 44.08 31.96 44.1 32.15 44.11 32.34 44.12 32.53 44.14 32.71 44.15 32.9 44.15 33.09 44.16 33.28 44.16 33.46 44.16 33.65 44.16 33.84 44.16 34.03 44.16 34.21 44.15 34.4 44.15 34.59 44.14 34.78 44.13 34.96 44.11 35.15 44.1 35.34 44.08 35.53 44.06 35.71 44.04 35.9 44.02 36.09 44 36.28 43.97 36.46 43.95 36.65 43.92 36.84 43.89 37.03 43.86 37.22 43.83 37.4 43.79 37.59 43.76 37.78 43.73 37.97 43.69 38.15 43.66 38.34 43.62 38.53 43.59 38.72 43.55 38.9 43.51 39.09 43.48 39.28 43.44 39.47 43.41 39.65 43.37 39.84 43.34 40.03 43.3 40.22 43.27 40.4 43.24 40.59 43.21 40.78 43.18 40.97 43.15 41.15 43.12 41.34 43.1 41.53 43.07 41.72 43.05 41.9 43.03 42.09 43.02 42.28 43 42.47 42.99 42.65 42.98 42.84 42.97 43.03 42.97 43.22 42.96 43.4 42.97 43.59 42.97 43.78 42.97 43.97 42.98 44.15 42.99 44.34 43.01 44.53 43.03 44.72 43.05 44.9 43.07 45.09 43.1 45.28 43.13 45.47 43.16 45.65 43.19 45.84 43.23 46.03 43.27 46.22 43.31 46.4 43.35 46.59 43.4 46.78 43.45 46.97 43.5 47.15 43.55 47.34 43.6 47.53 43.66 47.72 43.71 47.91 43.77 48.09 43.83 48.28 43.89 48.47 43.95 48.66 44.01 48.84 44.07 49.03 44.13 49.22 44.19 49.41 44.24 49.59 44.3 49.78 44.36 49.97 44.41 50.16 44.47 50.34 44.52 50.53 44.57 50.72 44.62 50.91 44.66 51.09 44.7 51.28 44.74 51.47 44.78 51.66 44.81 51.84 44.84 52.03 44.86 52.22 44.88 52.41 44.9 52.59 44.91 52.78 44.92 52.97 44.92 53.16 44.92 53.34 44.91 53.53 44.89 53.72 44.87 53.91 44.85 54.09 44.82 54.28 44.78 54.47 44.74 54.66 44.69 54.84 44.64 55.03 44.58 55.22 44.51 55.41 44.44 55.59 44.36 55.78 44.28 55.97 44.19 56.16 44.09 56.34 43.99 56.53 43.89 56.72 43.77 56.91 43.66 57.09 43.54 57.28 43.41 57.47 43.28 57.66 43.14 57.84 43 58.03 42.86 58.22 42.71 58.41 42.56 58.6 42.41 58.78 42.25 58.97 42.09 59.16 41.93 59.35 41.76 59.53 41.6 59.72 41.43 59.91 41.27 60.1 41.1 60.28 40.93 60.47 40.76 60.66 40.6 60.85 40.43 61.03 40.27 61.22 40.1 61.41 39.94 61.6 39.78 61.78 39.63 61.97 39.48 62.16 39.33 62.35 39.18 62.53 39.04 62.72 38.91 62.91 38.78 63.1 38.65 63.28 38.53 63.47 38.42 63.66 38.31 63.85 38.2 64.03 38.11 64.22 38.02 64.41 37.94 64.6 37.87 64.78 37.8 64.97 37.74 65.16 37.69 65.35 37.64 65.53 37.61 65.72 37.58 65.91 37.56 66.1 37.55 66.28 37.55 66.47 37.55 66.66 37.57 66.85 37.59 67.03 37.62 67.22 37.66 67.41 37.7 67.6 37.75 67.78 37.82 67.97 37.88 68.16 37.96 68.35 38.04 68.53 38.13 68.72 38.23 68.91 38.33 69.1 38.44 69.29 38.56 69.47 38.68 69.66 38.81 69.85 38.94 70.04 39.08 70.22 39.22 70.41 39.36 70.6 39.51 70.79 39.67 70.97 39.82 71.16 39.98 71.35 40.14 71.54 40.3 71.72 40.47 71.91 40.63 72.1 40.8 72.29 40.96 72.47 41.13 72.66 41.3 72.85 41.46 73.04 41.63 73.22 41.79 73.41 41.95 73.6 42.11 73.79 42.27 73.97 42.43 74.16 42.58 74.35 42.73 74.54 42.87 74.72 43.01 74.91 43.15 75.1 43.29 75.29 43.41 75.47 43.54 75.66 43.66 75.85 43.77 76.04 43.88 76.22 43.98 76.41 44.08 76.6 44.18 76.79 44.26 76.97 44.34 77.16 44.42 77.35 44.49 77.54 44.55 77.72 44.61 77.91 44.66 78.1 44.71 78.29 44.75 78.47 44.78 78.66 44.81 78.85 44.83 79.04 44.85 79.23 44.86 79.41 44.87 79.6 44.87 79.79 44.87 79.98 44.86 80.16 44.85 80.35 44.84 80.54 44.82 80.73 44.79 80.91 44.76 81.1 44.73 81.29 44.7 81.48 44.66 81.66 44.62 81.85 44.57 82.04 44.53 82.23 44.48 82.41 44.43 82.6 44.38 82.79 44.32 82.98 44.27 83.16 44.21 83.35 44.16 83.54 44.1 83.73 44.04 83.91 43.99 84.1 43.93 84.29 43.87 84.48 43.82 84.66 43.76 84.85 43.71 85.04 43.66 85.23 43.61 85.41 43.56 85.6 43.51 85.79 43.46 85.98 43.42 86.16 43.38 86.35 43.34 86.54 43.3 86.73 43.26 86.91 43.23 87.1 43.2 87.29 43.17 87.48 43.14 87.66 43.12 87.85 43.1 88.04 43.08 88.23 43.07 88.41 43.06 88.6 43.05 88.79 43.04 88.98 43.04 89.16 43.04 89.35 43.04 89.54 43.04 89.73 43.05 89.92 43.05 90.1 43.07 90.29 43.08 90.48 43.09 90.67 43.11 90.85 43.13 91.04 43.15 91.23 43.17 91.42 43.19 91.6 43.22 91.79 43.24 91.98 43.27 92.17 43.3 92.35 43.32 92.54 43.35 92.73 43.38 92.92 43.41 93.1 43.44 93.29 43.48 93.48 43.51 93.67 43.54 93.85 43.57 94.04 43.6 94.23 43.63 94.42 43.66 94.6 43.69 94.79 43.71 94.98 43.74 95.17 43.77 95.35 43.79 95.54 43.82 95.73 43.84 95.92 43.86 96.1 43.88 96.29 43.9 96.48 43.92 96.67 43.94 96.85 43.95 97.04 43.97 97.23 43.98 97.42 43.99 97.6 44 97.79 44.01 97.98 44.01 98.17 44.02 98.35 44.02 98.54 44.02 98.73 44.02 98.92 44.02 99.1 44.02 99.29 44.01 99.48 44.01 99.67 44 99.85 43.99 100.04 43.99 100.23 43.97 100.42 43.96 100.61 43.95 100.79 43.94 100.98 43.92 101.17 43.91 101.36 43.89 101.54 43.88 101.73 43.86 101.92 43.84 102.11 43.82 102.29 43.81 102.48 43.79 102.67 43.77 102.86 43.75 103.04 43.73 103.23 43.71 103.42 43.69 103.61 43.68 103.79 43.66 103.98 43.64 104.17 43.62 104.36 43.61 104.54 43.59 104.73 43.57 104.92 43.56 105.11 43.54 105.29 43.53 105.48 43.52 105.67 43.5 105.86 43.49 106.04 43.48 106.23 43.47 106.42 43.46 106.61 43.45 106.79 43.45 106.98 43.44 107.17 43.43 107.36 43.43 107.54 43.43 107.73 43.42 107.92 43.42 108.11 43.42 108.29 43.42 108.48 43.42 108.67 43.43 108.86 43.43 109.04 43.43 109.23 43.44 109.42 43.44 109.61 43.45 109.79 43.46 109.98 43.46 110.17 43.47 110.36 43.48 110.54 43.49 110.73 43.5 110.92 43.51 111.11 43.52 111.3 43.53 111.48 43.55 111.67 43.56 111.86 43.57 112.05 43.58 112.23 43.59 112.42 43.61 112.61 43.62 112.8 43.63 112.98 43.64 113.17 43.66 113.36 43.67 113.55 43.68 113.73 43.69 113.92 43.71 114.11 43.72 114.3 43.73 114.48 43.74 114.67 43.75 114.86 43.76 115.05 43.77 115.23 43.78 115.42 43.79 115.61 43.79 115.8 43.8 115.98 43.81 116.17 43.81 116.36 43.82 116.55 43.82 116.73 43.83 116.92 43.83 117.11 43.83 117.3 43.84 117.48 43.84 117.67 43.84 117.86 43.84 118.05 43.84 118.23 43.84 118.42 43.84 118.61 43.83 118.8 43.83 118.98 43.83 119.17 43.82 119.36 43.82 119.55 43.81 119.73 43.8 119.92 43.8 120.11 43.79 120.3 43.78 120.48 43.77 120.67 43.76 120.86 43.76 121.05 43.75 121.23 43.74 121.42 43.73 121.61 43.71 121.8 43.7 121.99 43.69 122.17 43.68 122.36 43.67 122.55 43.66 122.74 43.65 122.92 43.63 123.11 43.62 123.3 43.61 123.49 43.6 123.67 43.58 123.86 43.57 124.05 43.56 124.24 43.55 124.42 43.54 124.61 43.52 124.8 43.51 124.99 43.5 125.17 43.49 125.36 43.48 125.55 43.47 125.74 43.45 125.92 43.44 126.11 43.43 126.3 43.42 126.49 43.41 126.67 43.4 126.86 43.4 127.05 43.39 127.24 43.38" id="img-354df22c-57" class="geometry color_-1.0" stroke="#316C8B"/>
        <path fill="none" d="M24.09,44.12 L 24.27 44.11 24.46 44.09 24.65 44.08 24.84 44.06 25.02 44.05 25.21 44.03 25.4 44.01 25.59 43.99 25.77 43.98 25.96 43.96 26.15 43.94 26.34 43.92 26.53 43.9 26.71 43.88 26.9 43.86 27.09 43.84 27.28 43.82 27.46 43.8 27.65 43.78 27.84 43.76 28.03 43.74 28.21 43.72 28.4 43.7 28.59 43.68 28.78 43.66 28.96 43.64 29.15 43.62 29.34 43.6 29.53 43.58 29.71 43.56 29.9 43.54 30.09 43.53 30.28 43.51 30.46 43.49 30.65 43.48 30.84 43.46 31.03 43.45 31.21 43.44 31.4 43.43 31.59 43.41 31.78 43.4 31.96 43.39 32.15 43.39 32.34 43.38 32.53 43.37 32.71 43.37 32.9 43.36 33.09 43.36 33.28 43.36 33.46 43.35 33.65 43.35 33.84 43.36 34.03 43.36 34.21 43.36 34.4 43.37 34.59 43.37 34.78 43.38 34.96 43.39 35.15 43.4 35.34 43.41 35.53 43.42 35.71 43.43 35.9 43.44 36.09 43.46 36.28 43.47 36.46 43.49 36.65 43.5 36.84 43.52 37.03 43.54 37.22 43.56 37.4 43.58 37.59 43.6 37.78 43.62 37.97 43.64 38.15 43.66 38.34 43.68 38.53 43.7 38.72 43.72 38.9 43.74 39.09 43.76 39.28 43.78 39.47 43.81 39.65 43.83 39.84 43.85 40.03 43.87 40.22 43.88 40.4 43.9 40.59 43.92 40.78 43.94 40.97 43.95 41.15 43.97 41.34 43.98 41.53 44 41.72 44.01 41.9 44.02 42.09 44.03 42.28 44.04 42.47 44.04 42.65 44.05 42.84 44.05 43.03 44.06 43.22 44.06 43.4 44.06 43.59 44.05 43.78 44.05 43.97 44.04 44.15 44.04 44.34 44.03 44.53 44.02 44.72 44 44.9 43.99 45.09 43.98 45.28 43.96 45.47 43.94 45.65 43.92 45.84 43.9 46.03 43.88 46.22 43.85 46.4 43.83 46.59 43.8 46.78 43.78 46.97 43.75 47.15 43.72 47.34 43.69 47.53 43.66 47.72 43.63 47.91 43.59 48.09 43.56 48.28 43.53 48.47 43.5 48.66 43.47 48.84 43.43 49.03 43.4 49.22 43.37 49.41 43.34 49.59 43.31 49.78 43.28 49.97 43.25 50.16 43.22 50.34 43.2 50.53 43.17 50.72 43.15 50.91 43.13 51.09 43.11 51.28 43.09 51.47 43.07 51.66 43.06 51.84 43.04 52.03 43.03 52.22 43.03 52.41 43.02 52.59 43.02 52.78 43.02 52.97 43.02 53.16 43.02 53.34 43.03 53.53 43.04 53.72 43.05 53.91 43.07 54.09 43.09 54.28 43.11 54.47 43.13 54.66 43.16 54.84 43.19 55.03 43.22 55.22 43.25 55.41 43.29 55.59 43.33 55.78 43.37 55.97 43.41 56.16 43.46 56.34 43.5 56.53 43.55 56.72 43.61 56.91 43.66 57.09 43.71 57.28 43.77 57.47 43.82 57.66 43.88 57.84 43.94 58.03 43.99 58.22 44.05 58.41 44.11 58.6 44.17 58.78 44.22 58.97 44.28 59.16 44.34 59.35 44.39 59.53 44.44 59.72 44.49 59.91 44.54 60.1 44.59 60.28 44.63 60.47 44.67 60.66 44.71 60.85 44.75 61.03 44.78 61.22 44.81 61.41 44.83 61.6 44.85 61.78 44.87 61.97 44.88 62.16 44.89 62.35 44.89 62.53 44.89 62.72 44.88 62.91 44.87 63.1 44.85 63.28 44.82 63.47 44.8 63.66 44.76 63.85 44.72 64.03 44.67 64.22 44.62 64.41 44.56 64.6 44.5 64.78 44.43 64.97 44.35 65.16 44.27 65.35 44.18 65.53 44.09 65.72 43.99 65.91 43.88 66.1 43.77 66.28 43.66 66.47 43.54 66.66 43.41 66.85 43.28 67.03 43.15 67.22 43.01 67.41 42.87 67.6 42.72 67.78 42.57 67.97 42.42 68.16 42.26 68.35 42.1 68.53 41.94 68.72 41.78 68.91 41.62 69.1 41.45 69.29 41.28 69.47 41.12 69.66 40.95 69.85 40.78 70.04 40.62 70.22 40.45 70.41 40.29 70.6 40.12 70.79 39.96 70.97 39.8 71.16 39.65 71.35 39.5 71.54 39.35 71.72 39.2 71.91 39.06 72.1 38.92 72.29 38.79 72.47 38.67 72.66 38.55 72.85 38.43 73.04 38.32 73.22 38.22 73.41 38.12 73.6 38.03 73.79 37.95 73.97 37.88 74.16 37.81 74.35 37.75 74.54 37.69 74.72 37.65 74.91 37.61 75.1 37.58 75.29 37.56 75.47 37.55 75.66 37.55 75.85 37.55 76.04 37.56 76.22 37.58 76.41 37.61 76.6 37.65 76.79 37.69 76.97 37.75 77.16 37.81 77.35 37.88 77.54 37.95 77.72 38.03 77.91 38.12 78.1 38.22 78.29 38.32 78.47 38.43 78.66 38.55 78.85 38.67 79.04 38.79 79.23 38.92 79.41 39.06 79.6 39.2 79.79 39.35 79.98 39.5 80.16 39.65 80.35 39.8 80.54 39.96 80.73 40.12 80.91 40.29 81.1 40.45 81.29 40.62 81.48 40.78 81.66 40.95 81.85 41.12 82.04 41.28 82.23 41.45 82.41 41.62 82.6 41.78 82.79 41.94 82.98 42.1 83.16 42.26 83.35 42.42 83.54 42.57 83.73 42.72 83.91 42.87 84.1 43.01 84.29 43.15 84.48 43.28 84.66 43.41 84.85 43.54 85.04 43.66 85.23 43.77 85.41 43.88 85.6 43.99 85.79 44.09 85.98 44.18 86.16 44.27 86.35 44.35 86.54 44.43 86.73 44.5 86.91 44.56 87.1 44.62 87.29 44.67 87.48 44.72 87.66 44.76 87.85 44.8 88.04 44.82 88.23 44.85 88.41 44.87 88.6 44.88 88.79 44.89 88.98 44.89 89.16 44.89 89.35 44.88 89.54 44.87 89.73 44.85 89.92 44.83 90.1 44.81 90.29 44.78 90.48 44.75 90.67 44.71 90.85 44.67 91.04 44.63 91.23 44.59 91.42 44.54 91.6 44.49 91.79 44.44 91.98 44.39 92.17 44.34 92.35 44.28 92.54 44.22 92.73 44.17 92.92 44.11 93.1 44.05 93.29 43.99 93.48 43.94 93.67 43.88 93.85 43.82 94.04 43.77 94.23 43.71 94.42 43.66 94.6 43.61 94.79 43.55 94.98 43.5 95.17 43.46 95.35 43.41 95.54 43.37 95.73 43.33 95.92 43.29 96.1 43.25 96.29 43.22 96.48 43.19 96.67 43.16 96.85 43.13 97.04 43.11 97.23 43.09 97.42 43.07 97.6 43.05 97.79 43.04 97.98 43.03 98.17 43.02 98.35 43.02 98.54 43.02 98.73 43.02 98.92 43.02 99.1 43.03 99.29 43.03 99.48 43.04 99.67 43.06 99.85 43.07 100.04 43.09 100.23 43.11 100.42 43.13 100.61 43.15 100.79 43.17 100.98 43.2 101.17 43.22 101.36 43.25 101.54 43.28 101.73 43.31 101.92 43.34 102.11 43.37 102.29 43.4 102.48 43.43 102.67 43.47 102.86 43.5 103.04 43.53 103.23 43.56 103.42 43.59 103.61 43.63 103.79 43.66 103.98 43.69 104.17 43.72 104.36 43.75 104.54 43.78 104.73 43.8 104.92 43.83 105.11 43.85 105.29 43.88 105.48 43.9 105.67 43.92 105.86 43.94 106.04 43.96 106.23 43.98 106.42 43.99 106.61 44 106.79 44.02 106.98 44.03 107.17 44.04 107.36 44.04 107.54 44.05 107.73 44.05 107.92 44.06 108.11 44.06 108.29 44.06 108.48 44.05 108.67 44.05 108.86 44.04 109.04 44.04 109.23 44.03 109.42 44.02 109.61 44.01 109.79 44 109.98 43.98 110.17 43.97 110.36 43.95 110.54 43.94 110.73 43.92 110.92 43.9 111.11 43.88 111.3 43.87 111.48 43.85 111.67 43.83 111.86 43.81 112.05 43.78 112.23 43.76 112.42 43.74 112.61 43.72 112.8 43.7 112.98 43.68 113.17 43.66 113.36 43.64 113.55 43.62 113.73 43.6 113.92 43.58 114.11 43.56 114.3 43.54 114.48 43.52 114.67 43.5 114.86 43.49 115.05 43.47 115.23 43.46 115.42 43.44 115.61 43.43 115.8 43.42 115.98 43.41 116.17 43.4 116.36 43.39 116.55 43.38 116.73 43.37 116.92 43.37 117.11 43.36 117.3 43.36 117.48 43.36 117.67 43.35 117.86 43.35 118.05 43.36 118.23 43.36 118.42 43.36 118.61 43.37 118.8 43.37 118.98 43.38 119.17 43.39 119.36 43.39 119.55 43.4 119.73 43.41 119.92 43.43 120.11 43.44 120.3 43.45 120.48 43.46 120.67 43.48 120.86 43.49 121.05 43.51 121.23 43.53 121.42 43.54 121.61 43.56 121.8 43.58 121.99 43.6 122.17 43.62 122.36 43.64 122.55 43.66 122.74 43.68 122.92 43.7 123.11 43.72 123.3 43.74 123.49 43.76 123.67 43.78 123.86 43.8 124.05 43.82 124.24 43.84 124.42 43.86 124.61 43.88 124.8 43.9 124.99 43.92 125.17 43.94 125.36 43.96 125.55 43.98 125.74 43.99 125.92 44.01 126.11 44.03 126.3 44.05 126.49 44.06 126.67 44.08 126.86 44.09 127.05 44.11 127.24 44.12" id="img-354df22c-58" class="geometry color_0.0" stroke="#387B9E"/>
        <path fill="none" d="M24.09,43.38 L 24.27 43.39 24.46 43.4 24.65 43.4 24.84 43.41 25.02 43.42 25.21 43.43 25.4 43.44 25.59 43.45 25.77 43.47 25.96 43.48 26.15 43.49 26.34 43.5 26.53 43.51 26.71 43.52 26.9 43.54 27.09 43.55 27.28 43.56 27.46 43.57 27.65 43.58 27.84 43.6 28.03 43.61 28.21 43.62 28.4 43.63 28.59 43.65 28.78 43.66 28.96 43.67 29.15 43.68 29.34 43.69 29.53 43.7 29.71 43.71 29.9 43.73 30.09 43.74 30.28 43.75 30.46 43.76 30.65 43.76 30.84 43.77 31.03 43.78 31.21 43.79 31.4 43.8 31.59 43.8 31.78 43.81 31.96 43.82 32.15 43.82 32.34 43.83 32.53 43.83 32.71 43.83 32.9 43.84 33.09 43.84 33.28 43.84 33.46 43.84 33.65 43.84 33.84 43.84 34.03 43.84 34.21 43.83 34.4 43.83 34.59 43.83 34.78 43.82 34.96 43.82 35.15 43.81 35.34 43.81 35.53 43.8 35.71 43.79 35.9 43.79 36.09 43.78 36.28 43.77 36.46 43.76 36.65 43.75 36.84 43.74 37.03 43.73 37.22 43.72 37.4 43.71 37.59 43.69 37.78 43.68 37.97 43.67 38.15 43.66 38.34 43.64 38.53 43.63 38.72 43.62 38.9 43.61 39.09 43.59 39.28 43.58 39.47 43.57 39.65 43.56 39.84 43.55 40.03 43.53 40.22 43.52 40.4 43.51 40.59 43.5 40.78 43.49 40.97 43.48 41.15 43.47 41.34 43.46 41.53 43.46 41.72 43.45 41.9 43.44 42.09 43.44 42.28 43.43 42.47 43.43 42.65 43.43 42.84 43.42 43.03 43.42 43.22 43.42 43.4 43.42 43.59 43.42 43.78 43.43 43.97 43.43 44.15 43.43 44.34 43.44 44.53 43.45 44.72 43.45 44.9 43.46 45.09 43.47 45.28 43.48 45.47 43.49 45.65 43.5 45.84 43.52 46.03 43.53 46.22 43.54 46.4 43.56 46.59 43.57 46.78 43.59 46.97 43.61 47.15 43.62 47.34 43.64 47.53 43.66 47.72 43.68 47.91 43.69 48.09 43.71 48.28 43.73 48.47 43.75 48.66 43.77 48.84 43.79 49.03 43.81 49.22 43.82 49.41 43.84 49.59 43.86 49.78 43.88 49.97 43.89 50.16 43.91 50.34 43.92 50.53 43.94 50.72 43.95 50.91 43.96 51.09 43.97 51.28 43.99 51.47 43.99 51.66 44 51.84 44.01 52.03 44.01 52.22 44.02 52.41 44.02 52.59 44.02 52.78 44.02 52.97 44.02 53.16 44.02 53.34 44.01 53.53 44.01 53.72 44 53.91 43.99 54.09 43.98 54.28 43.97 54.47 43.95 54.66 43.94 54.84 43.92 55.03 43.9 55.22 43.88 55.41 43.86 55.59 43.84 55.78 43.82 55.97 43.79 56.16 43.77 56.34 43.74 56.53 43.71 56.72 43.69 56.91 43.66 57.09 43.63 57.28 43.6 57.47 43.57 57.66 43.54 57.84 43.51 58.03 43.48 58.22 43.44 58.41 43.41 58.6 43.38 58.78 43.35 58.97 43.32 59.16 43.3 59.35 43.27 59.53 43.24 59.72 43.22 59.91 43.19 60.1 43.17 60.28 43.15 60.47 43.13 60.66 43.11 60.85 43.09 61.03 43.08 61.22 43.07 61.41 43.05 61.6 43.05 61.78 43.04 61.97 43.04 62.16 43.04 62.35 43.04 62.53 43.04 62.72 43.05 62.91 43.06 63.1 43.07 63.28 43.08 63.47 43.1 63.66 43.12 63.85 43.14 64.03 43.17 64.22 43.2 64.41 43.23 64.6 43.26 64.78 43.3 64.97 43.34 65.16 43.38 65.35 43.42 65.53 43.46 65.72 43.51 65.91 43.56 66.1 43.61 66.28 43.66 66.47 43.71 66.66 43.76 66.85 43.82 67.03 43.87 67.22 43.93 67.41 43.99 67.6 44.04 67.78 44.1 67.97 44.16 68.16 44.21 68.35 44.27 68.53 44.32 68.72 44.38 68.91 44.43 69.1 44.48 69.29 44.53 69.47 44.57 69.66 44.62 69.85 44.66 70.04 44.7 70.22 44.73 70.41 44.76 70.6 44.79 70.79 44.82 70.97 44.84 71.16 44.85 71.35 44.86 71.54 44.87 71.72 44.87 71.91 44.87 72.1 44.86 72.29 44.85 72.47 44.83 72.66 44.81 72.85 44.78 73.04 44.75 73.22 44.71 73.41 44.66 73.6 44.61 73.79 44.55 73.97 44.49 74.16 44.42 74.35 44.34 74.54 44.26 74.72 44.18 74.91 44.08 75.1 43.98 75.29 43.88 75.47 43.77 75.66 43.66 75.85 43.54 76.04 43.41 76.22 43.29 76.41 43.15 76.6 43.01 76.79 42.87 76.97 42.73 77.16 42.58 77.35 42.43 77.54 42.27 77.72 42.11 77.91 41.95 78.1 41.79 78.29 41.63 78.47 41.46 78.66 41.3 78.85 41.13 79.04 40.96 79.23 40.8 79.41 40.63 79.6 40.47 79.79 40.3 79.98 40.14 80.16 39.98 80.35 39.82 80.54 39.67 80.73 39.51 80.91 39.36 81.1 39.22 81.29 39.08 81.48 38.94 81.66 38.81 81.85 38.68 82.04 38.56 82.23 38.44 82.41 38.33 82.6 38.23 82.79 38.13 82.98 38.04 83.16 37.96 83.35 37.88 83.54 37.82 83.73 37.75 83.91 37.7 84.1 37.66 84.29 37.62 84.48 37.59 84.66 37.57 84.85 37.55 85.04 37.55 85.23 37.55 85.41 37.56 85.6 37.58 85.79 37.61 85.98 37.64 86.16 37.69 86.35 37.74 86.54 37.8 86.73 37.87 86.91 37.94 87.1 38.02 87.29 38.11 87.48 38.2 87.66 38.31 87.85 38.42 88.04 38.53 88.23 38.65 88.41 38.78 88.6 38.91 88.79 39.04 88.98 39.18 89.16 39.33 89.35 39.48 89.54 39.63 89.73 39.78 89.92 39.94 90.1 40.1 90.29 40.27 90.48 40.43 90.67 40.6 90.85 40.76 91.04 40.93 91.23 41.1 91.42 41.27 91.6 41.43 91.79 41.6 91.98 41.76 92.17 41.93 92.35 42.09 92.54 42.25 92.73 42.41 92.92 42.56 93.1 42.71 93.29 42.86 93.48 43 93.67 43.14 93.85 43.28 94.04 43.41 94.23 43.54 94.42 43.66 94.6 43.77 94.79 43.89 94.98 43.99 95.17 44.09 95.35 44.19 95.54 44.28 95.73 44.36 95.92 44.44 96.1 44.51 96.29 44.58 96.48 44.64 96.67 44.69 96.85 44.74 97.04 44.78 97.23 44.82 97.42 44.85 97.6 44.87 97.79 44.89 97.98 44.91 98.17 44.92 98.35 44.92 98.54 44.92 98.73 44.91 98.92 44.9 99.1 44.88 99.29 44.86 99.48 44.84 99.67 44.81 99.85 44.78 100.04 44.74 100.23 44.7 100.42 44.66 100.61 44.62 100.79 44.57 100.98 44.52 101.17 44.47 101.36 44.41 101.54 44.36 101.73 44.3 101.92 44.24 102.11 44.19 102.29 44.13 102.48 44.07 102.67 44.01 102.86 43.95 103.04 43.89 103.23 43.83 103.42 43.77 103.61 43.71 103.79 43.66 103.98 43.6 104.17 43.55 104.36 43.5 104.54 43.45 104.73 43.4 104.92 43.35 105.11 43.31 105.29 43.27 105.48 43.23 105.67 43.19 105.86 43.16 106.04 43.13 106.23 43.1 106.42 43.07 106.61 43.05 106.79 43.03 106.98 43.01 107.17 42.99 107.36 42.98 107.54 42.97 107.73 42.97 107.92 42.97 108.11 42.96 108.29 42.97 108.48 42.97 108.67 42.98 108.86 42.99 109.04 43 109.23 43.02 109.42 43.03 109.61 43.05 109.79 43.07 109.98 43.1 110.17 43.12 110.36 43.15 110.54 43.18 110.73 43.21 110.92 43.24 111.11 43.27 111.3 43.3 111.48 43.34 111.67 43.37 111.86 43.41 112.05 43.44 112.23 43.48 112.42 43.51 112.61 43.55 112.8 43.59 112.98 43.62 113.17 43.66 113.36 43.69 113.55 43.73 113.73 43.76 113.92 43.79 114.11 43.83 114.3 43.86 114.48 43.89 114.67 43.92 114.86 43.95 115.05 43.97 115.23 44 115.42 44.02 115.61 44.04 115.8 44.06 115.98 44.08 116.17 44.1 116.36 44.11 116.55 44.13 116.73 44.14 116.92 44.15 117.11 44.15 117.3 44.16 117.48 44.16 117.67 44.16 117.86 44.16 118.05 44.16 118.23 44.16 118.42 44.15 118.61 44.15 118.8 44.14 118.98 44.12 119.17 44.11 119.36 44.1 119.55 44.08 119.73 44.06 119.92 44.04 120.11 44.02 120.3 44 120.48 43.98 120.67 43.95 120.86 43.93 121.05 43.9 121.23 43.87 121.42 43.85 121.61 43.82 121.8 43.79 121.99 43.75 122.17 43.72 122.36 43.69 122.55 43.66 122.74 43.62 122.92 43.59 123.11 43.56 123.3 43.52 123.49 43.49 123.67 43.46 123.86 43.42 124.05 43.39 124.24 43.35 124.42 43.32 124.61 43.29 124.8 43.25 124.99 43.22 125.17 43.19 125.36 43.16 125.55 43.13 125.74 43.1 125.92 43.07 126.11 43.04 126.3 43.02 126.49 42.99 126.67 42.96 126.86 42.94 127.05 42.91 127.24 42.89" id="img-354df22c-59" class="geometry color_1.0" stroke="#3F8AB1"/>
        <path fill="none" d="M24.09,43.82 L 24.27 43.82 24.46 43.81 24.65 43.81 24.84 43.8 25.02 43.8 25.21 43.79 25.4 43.78 25.59 43.78 25.77 43.77 25.96 43.77 26.15 43.76 26.34 43.75 26.53 43.74 26.71 43.74 26.9 43.73 27.09 43.72 27.28 43.72 27.46 43.71 27.65 43.7 27.84 43.69 28.03 43.69 28.21 43.68 28.4 43.67 28.59 43.66 28.78 43.66 28.96 43.65 29.15 43.64 29.34 43.64 29.53 43.63 29.71 43.62 29.9 43.62 30.09 43.61 30.28 43.61 30.46 43.6 30.65 43.59 30.84 43.59 31.03 43.58 31.21 43.58 31.4 43.57 31.59 43.57 31.78 43.57 31.96 43.56 32.15 43.56 32.34 43.56 32.53 43.56 32.71 43.55 32.9 43.55 33.09 43.55 33.28 43.55 33.46 43.55 33.65 43.55 33.84 43.55 34.03 43.55 34.21 43.55 34.4 43.55 34.59 43.56 34.78 43.56 34.96 43.56 35.15 43.56 35.34 43.57 35.53 43.57 35.71 43.58 35.9 43.58 36.09 43.59 36.28 43.59 36.46 43.6 36.65 43.6 36.84 43.61 37.03 43.62 37.22 43.62 37.4 43.63 37.59 43.64 37.78 43.64 37.97 43.65 38.15 43.66 38.34 43.66 38.53 43.67 38.72 43.68 38.9 43.69 39.09 43.7 39.28 43.7 39.47 43.71 39.65 43.72 39.84 43.72 40.03 43.73 40.22 43.74 40.4 43.74 40.59 43.75 40.78 43.76 40.97 43.76 41.15 43.77 41.34 43.77 41.53 43.78 41.72 43.78 41.9 43.78 42.09 43.79 42.28 43.79 42.47 43.79 42.65 43.79 42.84 43.8 43.03 43.8 43.22 43.8 43.4 43.8 43.59 43.8 43.78 43.79 43.97 43.79 44.15 43.79 44.34 43.79 44.53 43.78 44.72 43.78 44.9 43.77 45.09 43.77 45.28 43.76 45.47 43.76 45.65 43.75 45.84 43.74 46.03 43.73 46.22 43.73 46.4 43.72 46.59 43.71 46.78 43.7 46.97 43.69 47.15 43.68 47.34 43.67 47.53 43.66 47.72 43.65 47.91 43.64 48.09 43.62 48.28 43.61 48.47 43.6 48.66 43.59 48.84 43.58 49.03 43.57 49.22 43.56 49.41 43.55 49.59 43.54 49.78 43.53 49.97 43.52 50.16 43.51 50.34 43.5 50.53 43.49 50.72 43.49 50.91 43.48 51.09 43.47 51.28 43.47 51.47 43.46 51.66 43.46 51.84 43.45 52.03 43.45 52.22 43.45 52.41 43.44 52.59 43.44 52.78 43.44 52.97 43.45 53.16 43.45 53.34 43.45 53.53 43.45 53.72 43.46 53.91 43.46 54.09 43.47 54.28 43.48 54.47 43.49 54.66 43.49 54.84 43.5 55.03 43.51 55.22 43.53 55.41 43.54 55.59 43.55 55.78 43.56 55.97 43.58 56.16 43.59 56.34 43.61 56.53 43.62 56.72 43.64 56.91 43.66 57.09 43.67 57.28 43.69 57.47 43.71 57.66 43.73 57.84 43.74 58.03 43.76 58.22 43.78 58.41 43.8 58.6 43.81 58.78 43.83 58.97 43.85 59.16 43.86 59.35 43.88 59.53 43.89 59.72 43.91 59.91 43.92 60.1 43.94 60.28 43.95 60.47 43.96 60.66 43.97 60.85 43.98 61.03 43.99 61.22 43.99 61.41 44 61.6 44 61.78 44 61.97 44.01 62.16 44.01 62.35 44.01 62.53 44 62.72 44 62.91 43.99 63.1 43.99 63.28 43.98 63.47 43.97 63.66 43.96 63.85 43.94 64.03 43.93 64.22 43.91 64.41 43.89 64.6 43.88 64.78 43.86 64.97 43.83 65.16 43.81 65.35 43.79 65.53 43.76 65.72 43.74 65.91 43.71 66.1 43.69 66.28 43.66 66.47 43.63 66.66 43.6 66.85 43.57 67.03 43.54 67.22 43.51 67.41 43.48 67.6 43.45 67.78 43.42 67.97 43.39 68.16 43.36 68.35 43.33 68.53 43.31 68.72 43.28 68.91 43.25 69.1 43.23 69.29 43.21 69.47 43.18 69.66 43.16 69.85 43.14 70.04 43.12 70.22 43.11 70.41 43.09 70.6 43.08 70.79 43.07 70.97 43.06 71.16 43.06 71.35 43.05 71.54 43.05 71.72 43.05 71.91 43.06 72.1 43.06 72.29 43.07 72.47 43.08 72.66 43.1 72.85 43.12 73.04 43.14 73.22 43.16 73.41 43.18 73.6 43.21 73.79 43.24 73.97 43.27 74.16 43.31 74.35 43.34 74.54 43.38 74.72 43.42 74.91 43.47 75.1 43.51 75.29 43.56 75.47 43.61 75.66 43.66 75.85 43.71 76.04 43.76 76.22 43.82 76.41 43.87 76.6 43.92 76.79 43.98 76.97 44.04 77.16 44.09 77.35 44.15 77.54 44.2 77.72 44.26 77.91 44.31 78.1 44.36 78.29 44.41 78.47 44.46 78.66 44.51 78.85 44.56 79.04 44.6 79.23 44.64 79.41 44.68 79.6 44.71 79.79 44.74 79.98 44.77 80.16 44.8 80.35 44.82 80.54 44.83 80.73 44.84 80.91 44.85 81.1 44.85 81.29 44.85 81.48 44.84 81.66 44.83 81.85 44.82 82.04 44.79 82.23 44.76 82.41 44.73 82.6 44.69 82.79 44.65 82.98 44.59 83.16 44.54 83.35 44.48 83.54 44.41 83.73 44.33 83.91 44.25 84.1 44.17 84.29 44.08 84.48 43.98 84.66 43.88 84.85 43.77 85.04 43.66 85.23 43.54 85.41 43.42 85.6 43.29 85.79 43.16 85.98 43.02 86.16 42.88 86.35 42.74 86.54 42.59 86.73 42.44 86.91 42.29 87.1 42.13 87.29 41.97 87.48 41.81 87.66 41.65 87.85 41.49 88.04 41.32 88.23 41.16 88.41 40.99 88.6 40.82 88.79 40.66 88.98 40.49 89.16 40.33 89.35 40.17 89.54 40.01 89.73 39.85 89.92 39.7 90.1 39.54 90.29 39.39 90.48 39.25 90.67 39.11 90.85 38.97 91.04 38.84 91.23 38.71 91.42 38.59 91.6 38.47 91.79 38.36 91.98 38.26 92.17 38.16 92.35 38.07 92.54 37.98 92.73 37.9 92.92 37.83 93.1 37.77 93.29 37.71 93.48 37.67 93.67 37.63 93.85 37.6 94.04 37.57 94.23 37.56 94.42 37.55 94.6 37.55 94.79 37.56 94.98 37.57 95.17 37.6 95.35 37.63 95.54 37.67 95.73 37.72 95.92 37.78 96.1 37.84 96.29 37.91 96.48 37.99 96.67 38.08 96.85 38.17 97.04 38.27 97.23 38.38 97.42 38.49 97.6 38.61 97.79 38.73 97.98 38.86 98.17 39 98.35 39.14 98.54 39.28 98.73 39.43 98.92 39.58 99.1 39.73 99.29 39.89 99.48 40.05 99.67 40.22 99.85 40.38 100.04 40.55 100.23 40.71 100.42 40.88 100.61 41.05 100.79 41.22 100.98 41.39 101.17 41.56 101.36 41.72 101.54 41.89 101.73 42.05 101.92 42.22 102.11 42.37 102.29 42.53 102.48 42.69 102.67 42.84 102.86 42.98 103.04 43.13 103.23 43.27 103.42 43.4 103.61 43.53 103.79 43.66 103.98 43.78 104.17 43.89 104.36 44 104.54 44.11 104.73 44.21 104.92 44.3 105.11 44.39 105.29 44.47 105.48 44.55 105.67 44.62 105.86 44.68 106.04 44.74 106.23 44.79 106.42 44.84 106.61 44.88 106.79 44.91 106.98 44.94 107.17 44.97 107.36 44.98 107.54 44.99 107.73 45 107.92 45 108.11 44.99 108.29 44.98 108.48 44.97 108.67 44.95 108.86 44.93 109.04 44.9 109.23 44.87 109.42 44.83 109.61 44.79 109.79 44.75 109.98 44.7 110.17 44.65 110.36 44.6 110.54 44.54 110.73 44.49 110.92 44.43 111.11 44.37 111.3 44.31 111.48 44.24 111.67 44.18 111.86 44.11 112.05 44.05 112.23 43.98 112.42 43.92 112.61 43.85 112.8 43.79 112.98 43.72 113.17 43.66 113.36 43.59 113.55 43.53 113.73 43.47 113.92 43.42 114.11 43.36 114.3 43.3 114.48 43.25 114.67 43.2 114.86 43.15 115.05 43.11 115.23 43.07 115.42 43.03 115.61 42.99 115.8 42.96 115.98 42.92 116.17 42.9 116.36 42.87 116.55 42.85 116.73 42.83 116.92 42.82 117.11 42.8 117.3 42.8 117.48 42.79 117.67 42.79 117.86 42.79 118.05 42.79 118.23 42.8 118.42 42.81 118.61 42.83 118.8 42.84 118.98 42.86 119.17 42.89 119.36 42.91 119.55 42.94 119.73 42.97 119.92 43 120.11 43.04 120.3 43.08 120.48 43.12 120.67 43.16 120.86 43.2 121.05 43.25 121.23 43.29 121.42 43.34 121.61 43.39 121.8 43.44 121.99 43.5 122.17 43.55 122.36 43.6 122.55 43.66 122.74 43.71 122.92 43.77 123.11 43.83 123.3 43.88 123.49 43.94 123.67 43.99 123.86 44.05 124.05 44.11 124.24 44.16 124.42 44.22 124.61 44.27 124.8 44.33 124.99 44.38 125.17 44.43 125.36 44.48 125.55 44.53 125.74 44.58 125.92 44.63 126.11 44.68 126.3 44.72 126.49 44.76 126.67 44.81 126.86 44.85 127.05 44.89 127.24 44.92" id="img-354df22c-60" class="geometry color_2.0" stroke="#4599C4"/>
        <path fill="none" d="M24.09,43.56 L 24.27 43.56 24.46 43.57 24.65 43.57 24.84 43.57 25.02 43.58 25.21 43.58 25.4 43.58 25.59 43.59 25.77 43.59 25.96 43.6 26.15 43.6 26.34 43.6 26.53 43.61 26.71 43.61 26.9 43.62 27.09 43.62 27.28 43.62 27.46 43.63 27.65 43.63 27.84 43.64 28.03 43.64 28.21 43.65 28.4 43.65 28.59 43.65 28.78 43.66 28.96 43.66 29.15 43.67 29.34 43.67 29.53 43.67 29.71 43.68 29.9 43.68 30.09 43.68 30.28 43.69 30.46 43.69 30.65 43.69 30.84 43.7 31.03 43.7 31.21 43.7 31.4 43.71 31.59 43.71 31.78 43.71 31.96 43.71 32.15 43.71 32.34 43.71 32.53 43.72 32.71 43.72 32.9 43.72 33.09 43.72 33.28 43.72 33.46 43.72 33.65 43.72 33.84 43.72 34.03 43.72 34.21 43.72 34.4 43.72 34.59 43.72 34.78 43.71 34.96 43.71 35.15 43.71 35.34 43.71 35.53 43.71 35.71 43.7 35.9 43.7 36.09 43.7 36.28 43.7 36.46 43.69 36.65 43.69 36.84 43.69 37.03 43.68 37.22 43.68 37.4 43.67 37.59 43.67 37.78 43.67 37.97 43.66 38.15 43.66 38.34 43.65 38.53 43.65 38.72 43.64 38.9 43.64 39.09 43.64 39.28 43.63 39.47 43.63 39.65 43.62 39.84 43.62 40.03 43.62 40.22 43.61 40.4 43.61 40.59 43.6 40.78 43.6 40.97 43.6 41.15 43.59 41.34 43.59 41.53 43.59 41.72 43.59 41.9 43.58 42.09 43.58 42.28 43.58 42.47 43.58 42.65 43.58 42.84 43.58 43.03 43.58 43.22 43.58 43.4 43.58 43.59 43.58 43.78 43.58 43.97 43.58 44.15 43.58 44.34 43.58 44.53 43.59 44.72 43.59 44.9 43.59 45.09 43.59 45.28 43.6 45.47 43.6 45.65 43.6 45.84 43.61 46.03 43.61 46.22 43.62 46.4 43.62 46.59 43.63 46.78 43.63 46.97 43.64 47.15 43.65 47.34 43.65 47.53 43.66 47.72 43.66 47.91 43.67 48.09 43.68 48.28 43.68 48.47 43.69 48.66 43.7 48.84 43.7 49.03 43.71 49.22 43.71 49.41 43.72 49.59 43.73 49.78 43.73 49.97 43.74 50.16 43.74 50.34 43.75 50.53 43.75 50.72 43.76 50.91 43.76 51.09 43.76 51.28 43.77 51.47 43.77 51.66 43.77 51.84 43.78 52.03 43.78 52.22 43.78 52.41 43.78 52.59 43.78 52.78 43.78 52.97 43.78 53.16 43.78 53.34 43.78 53.53 43.77 53.72 43.77 53.91 43.77 54.09 43.76 54.28 43.76 54.47 43.76 54.66 43.75 54.84 43.75 55.03 43.74 55.22 43.73 55.41 43.73 55.59 43.72 55.78 43.71 55.97 43.7 56.16 43.69 56.34 43.69 56.53 43.68 56.72 43.67 56.91 43.66 57.09 43.65 57.28 43.64 57.47 43.63 57.66 43.62 57.84 43.61 58.03 43.6 58.22 43.59 58.41 43.58 58.6 43.57 58.78 43.56 58.97 43.55 59.16 43.54 59.35 43.53 59.53 43.52 59.72 43.51 59.91 43.51 60.1 43.5 60.28 43.49 60.47 43.49 60.66 43.48 60.85 43.48 61.03 43.47 61.22 43.47 61.41 43.46 61.6 43.46 61.78 43.46 61.97 43.46 62.16 43.46 62.35 43.46 62.53 43.46 62.72 43.47 62.91 43.47 63.1 43.47 63.28 43.48 63.47 43.48 63.66 43.49 63.85 43.5 64.03 43.51 64.22 43.51 64.41 43.52 64.6 43.54 64.78 43.55 64.97 43.56 65.16 43.57 65.35 43.58 65.53 43.6 65.72 43.61 65.91 43.63 66.1 43.64 66.28 43.66 66.47 43.67 66.66 43.69 66.85 43.71 67.03 43.72 67.22 43.74 67.41 43.76 67.6 43.77 67.78 43.79 67.97 43.8 68.16 43.82 68.35 43.84 68.53 43.85 68.72 43.87 68.91 43.88 69.1 43.89 69.29 43.91 69.47 43.92 69.66 43.93 69.85 43.94 70.04 43.95 70.22 43.96 70.41 43.97 70.6 43.97 70.79 43.98 70.97 43.98 71.16 43.98 71.35 43.99 71.54 43.99 71.72 43.99 71.91 43.98 72.1 43.98 72.29 43.97 72.47 43.97 72.66 43.96 72.85 43.95 73.04 43.94 73.22 43.93 73.41 43.91 73.6 43.9 73.79 43.88 73.97 43.86 74.16 43.84 74.35 43.82 74.54 43.8 74.72 43.78 74.91 43.76 75.1 43.73 75.29 43.71 75.47 43.68 75.66 43.66 75.85 43.63 76.04 43.6 76.22 43.58 76.41 43.55 76.6 43.52 76.79 43.49 76.97 43.46 77.16 43.43 77.35 43.41 77.54 43.38 77.72 43.35 77.91 43.32 78.1 43.3 78.29 43.27 78.47 43.25 78.66 43.23 78.85 43.21 79.04 43.19 79.23 43.17 79.41 43.15 79.6 43.14 79.79 43.12 79.98 43.11 80.16 43.1 80.35 43.09 80.54 43.09 80.73 43.08 80.91 43.08 81.1 43.08 81.29 43.09 81.48 43.09 81.66 43.1 81.85 43.11 82.04 43.13 82.23 43.14 82.41 43.16 82.6 43.18 82.79 43.2 82.98 43.23 83.16 43.26 83.35 43.29 83.54 43.32 83.73 43.36 83.91 43.39 84.1 43.43 84.29 43.48 84.48 43.52 84.66 43.56 84.85 43.61 85.04 43.66 85.23 43.71 85.41 43.76 85.6 43.81 85.79 43.86 85.98 43.91 86.16 43.97 86.35 44.02 86.54 44.07 86.73 44.13 86.91 44.18 87.1 44.23 87.29 44.28 87.48 44.33 87.66 44.38 87.85 44.43 88.04 44.47 88.23 44.52 88.41 44.56 88.6 44.6 88.79 44.63 88.98 44.67 89.16 44.7 89.35 44.73 89.54 44.75 89.73 44.77 89.92 44.78 90.1 44.8 90.29 44.8 90.48 44.81 90.67 44.81 90.85 44.8 91.04 44.79 91.23 44.77 91.42 44.75 91.6 44.72 91.79 44.69 91.98 44.65 92.17 44.61 92.35 44.56 92.54 44.51 92.73 44.45 92.92 44.38 93.1 44.31 93.29 44.23 93.48 44.15 93.67 44.06 93.85 43.97 94.04 43.87 94.23 43.77 94.42 43.66 94.6 43.54 94.79 43.42 94.98 43.3 95.17 43.17 95.35 43.04 95.54 42.91 95.73 42.77 95.92 42.62 96.1 42.48 96.29 42.33 96.48 42.17 96.67 42.02 96.85 41.86 97.04 41.7 97.23 41.54 97.42 41.38 97.6 41.22 97.79 41.06 97.98 40.89 98.17 40.73 98.35 40.57 98.54 40.41 98.73 40.24 98.92 40.09 99.1 39.93 99.29 39.77 99.48 39.62 99.67 39.47 99.85 39.33 100.04 39.19 100.23 39.05 100.42 38.91 100.61 38.78 100.79 38.66 100.98 38.54 101.17 38.43 101.36 38.32 101.54 38.22 101.73 38.12 101.92 38.03 102.11 37.95 102.29 37.88 102.48 37.81 102.67 37.75 102.86 37.7 103.04 37.65 103.23 37.61 103.42 37.58 103.61 37.56 103.79 37.55 103.98 37.54 104.17 37.54 104.36 37.55 104.54 37.57 104.73 37.6 104.92 37.63 105.11 37.67 105.29 37.72 105.48 37.78 105.67 37.85 105.86 37.92 106.04 38 106.23 38.09 106.42 38.18 106.61 38.28 106.79 38.39 106.98 38.5 107.17 38.62 107.36 38.74 107.54 38.87 107.73 39.01 107.92 39.15 108.11 39.29 108.29 39.44 108.48 39.6 108.67 39.75 108.86 39.91 109.04 40.07 109.23 40.24 109.42 40.41 109.61 40.58 109.79 40.75 109.98 40.92 110.17 41.09 110.36 41.26 110.54 41.43 110.73 41.61 110.92 41.78 111.11 41.95 111.3 42.12 111.48 42.28 111.67 42.45 111.86 42.61 112.05 42.77 112.23 42.93 112.42 43.08 112.61 43.23 112.8 43.38 112.98 43.52 113.17 43.66 113.36 43.79 113.55 43.92 113.73 44.04 113.92 44.16 114.11 44.27 114.3 44.38 114.48 44.48 114.67 44.58 114.86 44.67 115.05 44.75 115.23 44.83 115.42 44.9 115.61 44.97 115.8 45.03 115.98 45.08 116.17 45.13 116.36 45.17 116.55 45.2 116.73 45.23 116.92 45.25 117.11 45.26 117.3 45.27 117.48 45.28 117.67 45.27 117.86 45.26 118.05 45.25 118.23 45.23 118.42 45.2 118.61 45.17 118.8 45.14 118.98 45.1 119.17 45.05 119.36 45 119.55 44.95 119.73 44.89 119.92 44.83 120.11 44.76 120.3 44.69 120.48 44.62 120.67 44.54 120.86 44.46 121.05 44.38 121.23 44.3 121.42 44.21 121.61 44.12 121.8 44.03 121.99 43.94 122.17 43.85 122.36 43.75 122.55 43.66 122.74 43.56 122.92 43.47 123.11 43.37 123.3 43.27 123.49 43.18 123.67 43.08 123.86 42.99 124.05 42.89 124.24 42.8 124.42 42.71 124.61 42.62 124.8 42.53 124.99 42.44 125.17 42.36 125.36 42.27 125.55 42.19 125.74 42.11 125.92 42.03 126.11 41.96 126.3 41.89 126.49 41.82 126.67 41.75 126.86 41.68 127.05 41.62 127.24 41.56" id="img-354df22c-61" class="geometry color_3.0" stroke="#4CA8D7"/>
        <path fill="none" d="M24.09,43.71 L 24.27 43.71 24.46 43.7 24.65 43.7 24.84 43.7 25.02 43.7 25.21 43.7 25.4 43.7 25.59 43.69 25.77 43.69 25.96 43.69 26.15 43.69 26.34 43.69 26.53 43.68 26.71 43.68 26.9 43.68 27.09 43.68 27.28 43.68 27.46 43.67 27.65 43.67 27.84 43.67 28.03 43.67 28.21 43.66 28.4 43.66 28.59 43.66 28.78 43.66 28.96 43.66 29.15 43.65 29.34 43.65 29.53 43.65 29.71 43.65 29.9 43.65 30.09 43.64 30.28 43.64 30.46 43.64 30.65 43.64 30.84 43.64 31.03 43.64 31.21 43.63 31.4 43.63 31.59 43.63 31.78 43.63 31.96 43.63 32.15 43.63 32.34 43.63 32.53 43.63 32.71 43.63 32.9 43.63 33.09 43.63 33.28 43.63 33.46 43.62 33.65 43.62 33.84 43.63 34.03 43.63 34.21 43.63 34.4 43.63 34.59 43.63 34.78 43.63 34.96 43.63 35.15 43.63 35.34 43.63 35.53 43.63 35.71 43.63 35.9 43.63 36.09 43.64 36.28 43.64 36.46 43.64 36.65 43.64 36.84 43.64 37.03 43.64 37.22 43.65 37.4 43.65 37.59 43.65 37.78 43.65 37.97 43.66 38.15 43.66 38.34 43.66 38.53 43.66 38.72 43.66 38.9 43.67 39.09 43.67 39.28 43.67 39.47 43.67 39.65 43.68 39.84 43.68 40.03 43.68 40.22 43.68 40.4 43.68 40.59 43.69 40.78 43.69 40.97 43.69 41.15 43.69 41.34 43.69 41.53 43.69 41.72 43.69 41.9 43.7 42.09 43.7 42.28 43.7 42.47 43.7 42.65 43.7 42.84 43.7 43.03 43.7 43.22 43.7 43.4 43.7 43.59 43.7 43.78 43.7 43.97 43.7 44.15 43.7 44.34 43.7 44.53 43.7 44.72 43.69 44.9 43.69 45.09 43.69 45.28 43.69 45.47 43.69 45.65 43.69 45.84 43.68 46.03 43.68 46.22 43.68 46.4 43.68 46.59 43.67 46.78 43.67 46.97 43.67 47.15 43.66 47.34 43.66 47.53 43.66 47.72 43.65 47.91 43.65 48.09 43.65 48.28 43.64 48.47 43.64 48.66 43.64 48.84 43.63 49.03 43.63 49.22 43.63 49.41 43.62 49.59 43.62 49.78 43.62 49.97 43.62 50.16 43.61 50.34 43.61 50.53 43.61 50.72 43.61 50.91 43.6 51.09 43.6 51.28 43.6 51.47 43.6 51.66 43.6 51.84 43.6 52.03 43.59 52.22 43.59 52.41 43.59 52.59 43.59 52.78 43.59 52.97 43.59 53.16 43.59 53.34 43.6 53.53 43.6 53.72 43.6 53.91 43.6 54.09 43.6 54.28 43.6 54.47 43.61 54.66 43.61 54.84 43.61 55.03 43.61 55.22 43.62 55.41 43.62 55.59 43.63 55.78 43.63 55.97 43.63 56.16 43.64 56.34 43.64 56.53 43.65 56.72 43.65 56.91 43.66 57.09 43.66 57.28 43.67 57.47 43.67 57.66 43.68 57.84 43.68 58.03 43.69 58.22 43.69 58.41 43.7 58.6 43.7 58.78 43.71 58.97 43.71 59.16 43.72 59.35 43.72 59.53 43.73 59.72 43.73 59.91 43.74 60.1 43.74 60.28 43.74 60.47 43.75 60.66 43.75 60.85 43.75 61.03 43.75 61.22 43.76 61.41 43.76 61.6 43.76 61.78 43.76 61.97 43.76 62.16 43.76 62.35 43.76 62.53 43.76 62.72 43.76 62.91 43.76 63.1 43.75 63.28 43.75 63.47 43.75 63.66 43.74 63.85 43.74 64.03 43.74 64.22 43.73 64.41 43.73 64.6 43.72 64.78 43.72 64.97 43.71 65.16 43.7 65.35 43.7 65.53 43.69 65.72 43.68 65.91 43.67 66.1 43.67 66.28 43.66 66.47 43.65 66.66 43.64 66.85 43.63 67.03 43.62 67.22 43.62 67.41 43.61 67.6 43.6 67.78 43.59 67.97 43.58 68.16 43.57 68.35 43.57 68.53 43.56 68.72 43.55 68.91 43.54 69.1 43.54 69.29 43.53 69.47 43.52 69.66 43.52 69.85 43.51 70.04 43.51 70.22 43.5 70.41 43.5 70.6 43.5 70.79 43.49 70.97 43.49 71.16 43.49 71.35 43.49 71.54 43.49 71.72 43.49 71.91 43.49 72.1 43.49 72.29 43.5 72.47 43.5 72.66 43.5 72.85 43.51 73.04 43.51 73.22 43.52 73.41 43.53 73.6 43.53 73.79 43.54 73.97 43.55 74.16 43.56 74.35 43.57 74.54 43.58 74.72 43.59 74.91 43.61 75.1 43.62 75.29 43.63 75.47 43.64 75.66 43.66 75.85 43.67 76.04 43.69 76.22 43.7 76.41 43.71 76.6 43.73 76.79 43.74 76.97 43.76 77.16 43.77 77.35 43.78 77.54 43.8 77.72 43.81 77.91 43.82 78.1 43.84 78.29 43.85 78.47 43.86 78.66 43.87 78.85 43.88 79.04 43.89 79.23 43.9 79.41 43.91 79.6 43.92 79.79 43.92 79.98 43.93 80.16 43.93 80.35 43.94 80.54 43.94 80.73 43.94 80.91 43.94 81.1 43.94 81.29 43.94 81.48 43.94 81.66 43.93 81.85 43.93 82.04 43.92 82.23 43.91 82.41 43.9 82.6 43.89 82.79 43.88 82.98 43.87 83.16 43.85 83.35 43.84 83.54 43.82 83.73 43.8 83.91 43.78 84.1 43.77 84.29 43.75 84.48 43.72 84.66 43.7 84.85 43.68 85.04 43.66 85.23 43.63 85.41 43.61 85.6 43.59 85.79 43.56 85.98 43.54 86.16 43.51 86.35 43.49 86.54 43.46 86.73 43.44 86.91 43.41 87.1 43.39 87.29 43.37 87.48 43.35 87.66 43.32 87.85 43.3 88.04 43.28 88.23 43.26 88.41 43.25 88.6 43.23 88.79 43.22 88.98 43.2 89.16 43.19 89.35 43.18 89.54 43.17 89.73 43.16 89.92 43.16 90.1 43.16 90.29 43.15 90.48 43.16 90.67 43.16 90.85 43.16 91.04 43.17 91.23 43.18 91.42 43.19 91.6 43.21 91.79 43.22 91.98 43.24 92.17 43.26 92.35 43.28 92.54 43.31 92.73 43.33 92.92 43.36 93.1 43.39 93.29 43.43 93.48 43.46 93.67 43.5 93.85 43.54 94.04 43.57 94.23 43.62 94.42 43.66 94.6 43.7 94.79 43.75 94.98 43.79 95.17 43.84 95.35 43.88 95.54 43.93 95.73 43.98 95.92 44.02 96.1 44.07 96.29 44.12 96.48 44.16 96.67 44.21 96.85 44.25 97.04 44.3 97.23 44.34 97.42 44.38 97.6 44.42 97.79 44.46 97.98 44.49 98.17 44.53 98.35 44.56 98.54 44.58 98.73 44.61 98.92 44.63 99.1 44.65 99.29 44.66 99.48 44.67 99.67 44.68 99.85 44.68 100.04 44.68 100.23 44.68 100.42 44.67 100.61 44.66 100.79 44.64 100.98 44.61 101.17 44.59 101.36 44.55 101.54 44.51 101.73 44.47 101.92 44.42 102.11 44.37 102.29 44.31 102.48 44.25 102.67 44.18 102.86 44.1 103.04 44.02 103.23 43.94 103.42 43.85 103.61 43.76 103.79 43.66 103.98 43.55 104.17 43.45 104.36 43.33 104.54 43.22 104.73 43.09 104.92 42.97 105.11 42.84 105.29 42.71 105.48 42.57 105.67 42.43 105.86 42.29 106.04 42.15 106.23 42 106.42 41.85 106.61 41.7 106.79 41.54 106.98 41.39 107.17 41.24 107.36 41.08 107.54 40.92 107.73 40.77 107.92 40.61 108.11 40.45 108.29 40.3 108.48 40.15 108.67 39.99 108.86 39.84 109.04 39.69 109.23 39.55 109.42 39.4 109.61 39.26 109.79 39.13 109.98 38.99 110.17 38.87 110.36 38.74 110.54 38.62 110.73 38.51 110.92 38.39 111.11 38.29 111.3 38.19 111.48 38.1 111.67 38.01 111.86 37.93 112.05 37.85 112.23 37.78 112.42 37.72 112.61 37.67 112.8 37.62 112.98 37.58 113.17 37.55 113.36 37.52 113.55 37.5 113.73 37.49 113.92 37.49 114.11 37.5 114.3 37.51 114.48 37.53 114.67 37.56 114.86 37.59 115.05 37.64 115.23 37.69 115.42 37.75 115.61 37.81 115.8 37.89 115.98 37.97 116.17 38.06 116.36 38.15 116.55 38.25 116.73 38.36 116.92 38.48 117.11 38.6 117.3 38.72 117.48 38.86 117.67 38.99 117.86 39.14 118.05 39.29 118.23 39.44 118.42 39.6 118.61 39.76 118.8 39.93 118.98 40.1 119.17 40.27 119.36 40.45 119.55 40.63 119.73 40.81 119.92 40.99 120.11 41.18 120.3 41.37 120.48 41.56 120.67 41.75 120.86 41.94 121.05 42.13 121.23 42.33 121.42 42.52 121.61 42.71 121.8 42.9 121.99 43.09 122.17 43.28 122.36 43.47 122.55 43.66 122.74 43.84 122.92 44.02 123.11 44.2 123.3 44.38 123.49 44.56 123.67 44.73 123.86 44.89 124.05 45.06 124.24 45.22 124.42 45.38 124.61 45.53 124.8 45.68 124.99 45.82 125.17 45.96 125.36 46.1 125.55 46.23 125.74 46.36 125.92 46.48 126.11 46.59 126.3 46.71 126.49 46.81 126.67 46.91 126.86 47.01 127.05 47.1 127.24 47.19" id="img-354df22c-62" class="geometry color_4.0" stroke="#53B6EA"/>
        <path fill="none" d="M24.09,43.64 L 24.27 43.64 24.46 43.64 24.65 43.64 24.84 43.64 25.02 43.64 25.21 43.64 25.4 43.64 25.59 43.64 25.77 43.64 25.96 43.65 26.15 43.65 26.34 43.65 26.53 43.65 26.71 43.65 26.9 43.65 27.09 43.65 27.28 43.65 27.46 43.65 27.65 43.65 27.84 43.65 28.03 43.65 28.21 43.65 28.4 43.66 28.59 43.66 28.78 43.66 28.96 43.66 29.15 43.66 29.34 43.66 29.53 43.66 29.71 43.66 29.9 43.66 30.09 43.66 30.28 43.66 30.46 43.66 30.65 43.66 30.84 43.67 31.03 43.67 31.21 43.67 31.4 43.67 31.59 43.67 31.78 43.67 31.96 43.67 32.15 43.67 32.34 43.67 32.53 43.67 32.71 43.67 32.9 43.67 33.09 43.67 33.28 43.67 33.46 43.67 33.65 43.67 33.84 43.67 34.03 43.67 34.21 43.67 34.4 43.67 34.59 43.67 34.78 43.67 34.96 43.67 35.15 43.67 35.34 43.67 35.53 43.67 35.71 43.67 35.9 43.67 36.09 43.67 36.28 43.67 36.46 43.66 36.65 43.66 36.84 43.66 37.03 43.66 37.22 43.66 37.4 43.66 37.59 43.66 37.78 43.66 37.97 43.66 38.15 43.66 38.34 43.66 38.53 43.66 38.72 43.65 38.9 43.65 39.09 43.65 39.28 43.65 39.47 43.65 39.65 43.65 39.84 43.65 40.03 43.65 40.22 43.65 40.4 43.65 40.59 43.65 40.78 43.65 40.97 43.65 41.15 43.64 41.34 43.64 41.53 43.64 41.72 43.64 41.9 43.64 42.09 43.64 42.28 43.64 42.47 43.64 42.65 43.64 42.84 43.64 43.03 43.64 43.22 43.64 43.4 43.64 43.59 43.64 43.78 43.64 43.97 43.64 44.15 43.64 44.34 43.64 44.53 43.64 44.72 43.64 44.9 43.64 45.09 43.64 45.28 43.65 45.47 43.65 45.65 43.65 45.84 43.65 46.03 43.65 46.22 43.65 46.4 43.65 46.59 43.65 46.78 43.65 46.97 43.65 47.15 43.66 47.34 43.66 47.53 43.66 47.72 43.66 47.91 43.66 48.09 43.66 48.28 43.66 48.47 43.66 48.66 43.67 48.84 43.67 49.03 43.67 49.22 43.67 49.41 43.67 49.59 43.67 49.78 43.67 49.97 43.67 50.16 43.67 50.34 43.68 50.53 43.68 50.72 43.68 50.91 43.68 51.09 43.68 51.28 43.68 51.47 43.68 51.66 43.68 51.84 43.68 52.03 43.68 52.22 43.68 52.41 43.68 52.59 43.68 52.78 43.68 52.97 43.68 53.16 43.68 53.34 43.68 53.53 43.68 53.72 43.68 53.91 43.68 54.09 43.68 54.28 43.68 54.47 43.68 54.66 43.68 54.84 43.68 55.03 43.67 55.22 43.67 55.41 43.67 55.59 43.67 55.78 43.67 55.97 43.67 56.16 43.66 56.34 43.66 56.53 43.66 56.72 43.66 56.91 43.66 57.09 43.66 57.28 43.65 57.47 43.65 57.66 43.65 57.84 43.65 58.03 43.65 58.22 43.64 58.41 43.64 58.6 43.64 58.78 43.64 58.97 43.64 59.16 43.63 59.35 43.63 59.53 43.63 59.72 43.63 59.91 43.63 60.1 43.63 60.28 43.62 60.47 43.62 60.66 43.62 60.85 43.62 61.03 43.62 61.22 43.62 61.41 43.62 61.6 43.62 61.78 43.62 61.97 43.62 62.16 43.62 62.35 43.62 62.53 43.62 62.72 43.62 62.91 43.62 63.1 43.62 63.28 43.62 63.47 43.62 63.66 43.62 63.85 43.63 64.03 43.63 64.22 43.63 64.41 43.63 64.6 43.63 64.78 43.64 64.97 43.64 65.16 43.64 65.35 43.64 65.53 43.65 65.72 43.65 65.91 43.65 66.1 43.65 66.28 43.66 66.47 43.66 66.66 43.66 66.85 43.67 67.03 43.67 67.22 43.67 67.41 43.68 67.6 43.68 67.78 43.68 67.97 43.69 68.16 43.69 68.35 43.69 68.53 43.7 68.72 43.7 68.91 43.7 69.1 43.7 69.29 43.71 69.47 43.71 69.66 43.71 69.85 43.71 70.04 43.71 70.22 43.72 70.41 43.72 70.6 43.72 70.79 43.72 70.97 43.72 71.16 43.72 71.35 43.72 71.54 43.72 71.72 43.72 71.91 43.72 72.1 43.72 72.29 43.72 72.47 43.72 72.66 43.72 72.85 43.71 73.04 43.71 73.22 43.71 73.41 43.71 73.6 43.7 73.79 43.7 73.97 43.7 74.16 43.69 74.35 43.69 74.54 43.69 74.72 43.68 74.91 43.68 75.1 43.67 75.29 43.67 75.47 43.66 75.66 43.66 75.85 43.65 76.04 43.65 76.22 43.64 76.41 43.64 76.6 43.63 76.79 43.63 76.97 43.62 77.16 43.61 77.35 43.61 77.54 43.6 77.72 43.6 77.91 43.59 78.1 43.59 78.29 43.58 78.47 43.58 78.66 43.58 78.85 43.57 79.04 43.57 79.23 43.57 79.41 43.56 79.6 43.56 79.79 43.56 79.98 43.55 80.16 43.55 80.35 43.55 80.54 43.55 80.73 43.55 80.91 43.55 81.1 43.55 81.29 43.55 81.48 43.55 81.66 43.55 81.85 43.56 82.04 43.56 82.23 43.56 82.41 43.57 82.6 43.57 82.79 43.57 82.98 43.58 83.16 43.59 83.35 43.59 83.54 43.6 83.73 43.6 83.91 43.61 84.1 43.62 84.29 43.62 84.48 43.63 84.66 43.64 84.85 43.65 85.04 43.66 85.23 43.67 85.41 43.68 85.6 43.68 85.79 43.69 85.98 43.7 86.16 43.71 86.35 43.72 86.54 43.73 86.73 43.74 86.91 43.75 87.1 43.76 87.29 43.76 87.48 43.77 87.66 43.78 87.85 43.79 88.04 43.79 88.23 43.8 88.41 43.81 88.6 43.81 88.79 43.82 88.98 43.82 89.16 43.83 89.35 43.83 89.54 43.83 89.73 43.84 89.92 43.84 90.1 43.84 90.29 43.84 90.48 43.84 90.67 43.84 90.85 43.84 91.04 43.83 91.23 43.83 91.42 43.82 91.6 43.82 91.79 43.81 91.98 43.81 92.17 43.8 92.35 43.79 92.54 43.78 92.73 43.77 92.92 43.76 93.1 43.75 93.29 43.74 93.48 43.73 93.67 43.71 93.85 43.7 94.04 43.69 94.23 43.67 94.42 43.66 94.6 43.64 94.79 43.63 94.98 43.61 95.17 43.6 95.35 43.58 95.54 43.56 95.73 43.55 95.92 43.53 96.1 43.52 96.29 43.5 96.48 43.49 96.67 43.47 96.85 43.46 97.04 43.44 97.23 43.43 97.42 43.41 97.6 43.4 97.79 43.39 97.98 43.38 98.17 43.37 98.35 43.36 98.54 43.35 98.73 43.35 98.92 43.34 99.1 43.34 99.29 43.33 99.48 43.33 99.67 43.33 99.85 43.33 100.04 43.33 100.23 43.33 100.42 43.34 100.61 43.34 100.79 43.35 100.98 43.36 101.17 43.37 101.36 43.38 101.54 43.4 101.73 43.41 101.92 43.43 102.11 43.44 102.29 43.46 102.48 43.48 102.67 43.5 102.86 43.53 103.04 43.55 103.23 43.58 103.42 43.6 103.61 43.63 103.79 43.66 103.98 43.69 104.17 43.72 104.36 43.75 104.54 43.78 104.73 43.81 104.92 43.84 105.11 43.87 105.29 43.9 105.48 43.94 105.67 43.97 105.86 44 106.04 44.03 106.23 44.06 106.42 44.09 106.61 44.12 106.79 44.15 106.98 44.18 107.17 44.2 107.36 44.23 107.54 44.25 107.73 44.27 107.92 44.29 108.11 44.31 108.29 44.33 108.48 44.34 108.67 44.35 108.86 44.36 109.04 44.37 109.23 44.37 109.42 44.37 109.61 44.37 109.79 44.36 109.98 44.36 110.17 44.34 110.36 44.33 110.54 44.31 110.73 44.29 110.92 44.26 111.11 44.23 111.3 44.2 111.48 44.16 111.67 44.12 111.86 44.08 112.05 44.03 112.23 43.98 112.42 43.92 112.61 43.86 112.8 43.8 112.98 43.73 113.17 43.66 113.36 43.58 113.55 43.5 113.73 43.42 113.92 43.33 114.11 43.24 114.3 43.14 114.48 43.05 114.67 42.94 114.86 42.84 115.05 42.73 115.23 42.62 115.42 42.5 115.61 42.39 115.8 42.26 115.98 42.14 116.17 42.02 116.36 41.89 116.55 41.76 116.73 41.63 116.92 41.49 117.11 41.36 117.3 41.22 117.48 41.08 117.67 40.94 117.86 40.8 118.05 40.66 118.23 40.52 118.42 40.37 118.61 40.23 118.8 40.09 118.98 39.95 119.17 39.81 119.36 39.66 119.55 39.52 119.73 39.39 119.92 39.25 120.11 39.11 120.3 38.98 120.48 38.84 120.67 38.71 120.86 38.58 121.05 38.46 121.23 38.33 121.42 38.21 121.61 38.09 121.8 37.98 121.99 37.86 122.17 37.76 122.36 37.65 122.55 37.55 122.74 37.45 122.92 37.36 123.11 37.26 123.3 37.18 123.49 37.1 123.67 37.02 123.86 36.94 124.05 36.87 124.24 36.81 124.42 36.75 124.61 36.69 124.8 36.64 124.99 36.59 125.17 36.55 125.36 36.51 125.55 36.48 125.74 36.45 125.92 36.43 126.11 36.41 126.3 36.4 126.49 36.39 126.67 36.38 126.86 36.38 127.05 36.39 127.24 36.39" id="img-354df22c-63" class="geometry color_5.0" stroke="#5AC5FD"/>
      </g>
    </g>
  </g>
</g>
  <g class="guide ylabels" font-size="2.82" font-family="'PT Sans Caption','Helvetica Neue','Helvetica',sans-serif" fill="#6C606B" id="img-354df22c-64">
    <text x="16.4" y="80.32" text-anchor="end" dy="0.35em" id="img-354df22c-65">-6</text>
    <text x="16.4" y="68.1" text-anchor="end" dy="0.35em" id="img-354df22c-66">-4</text>
    <text x="16.4" y="55.88" text-anchor="end" dy="0.35em" id="img-354df22c-67">-2</text>
    <text x="16.4" y="43.66" text-anchor="end" dy="0.35em" id="img-354df22c-68">0</text>
    <text x="16.4" y="31.44" text-anchor="end" dy="0.35em" id="img-354df22c-69">2</text>
    <text x="16.4" y="19.22" text-anchor="end" dy="0.35em" id="img-354df22c-70">4</text>
    <text x="16.4" y="7" text-anchor="end" dy="0.35em" id="img-354df22c-71">6</text>
  </g>
  <g font-size="3.88" font-family="'PT Sans','Helvetica Neue','Helvetica',sans-serif" fill="#564A55" stroke="#000000" stroke-opacity="0.000" id="img-354df22c-72">
    <text x="8.81" y="41.66" text-anchor="middle" dy="0.35em" transform="rotate(-90, 8.81, 43.66)" id="img-354df22c-73">phi(x)</text>
  </g>
</g>
<defs>
  <clipPath id="img-354df22c-31">
  <path d="M17.4,5 L 133.92 5 133.92 82.32 17.4 82.32" />
</clipPath>
</defs>
</svg>
