<?xml version="1.0" encoding="UTF-8"?>
<svg xmlns="http://www.w3.org/2000/svg"
     xmlns:xlink="http://www.w3.org/1999/xlink"
     xmlns:gadfly="http://www.gadflyjl.org/ns"
     version="1.2"
     width="152.4mm" height="101.6mm" viewBox="0 0 152.4 101.6"
     stroke="none"
     fill="#000000"
     stroke-width="0.3"
     font-size="3.88"
>
<g class="plotroot xscalable yscalable" id="img-e5ba06de-1">
  <g font-size="3.88" font-family="'PT Sans','Helvetica Neue','Helvetica',sans-serif" fill="#564A55" stroke="#000000" stroke-opacity="0.000" id="img-e5ba06de-2">
    <text x="83.02" y="89.99" text-anchor="middle" dy="0.6em">x</text>
  </g>
  <g class="guide xlabels" font-size="2.82" font-family="'PT Sans Caption','Helvetica Neue','Helvetica',sans-serif" fill="#6C606B" id="img-e5ba06de-3">
    <text x="20.63" y="83.32" text-anchor="middle" dy="0.6em">-6</text>
    <text x="41.43" y="83.32" text-anchor="middle" dy="0.6em">-4</text>
    <text x="62.22" y="83.32" text-anchor="middle" dy="0.6em">-2</text>
    <text x="83.02" y="83.32" text-anchor="middle" dy="0.6em">0</text>
    <text x="103.81" y="83.32" text-anchor="middle" dy="0.6em">2</text>
    <text x="124.61" y="83.32" text-anchor="middle" dy="0.6em">4</text>
    <text x="145.4" y="83.32" text-anchor="middle" dy="0.6em">6</text>
  </g>
<g clip-path="url(#img-e5ba06de-4)">
  <g id="img-e5ba06de-5">
    <g pointer-events="visible" opacity="1" fill="#000000" fill-opacity="0.000" stroke="#000000" stroke-opacity="0.000" class="guide background" id="img-e5ba06de-6">
      <rect x="18.63" y="5" width="128.77" height="77.32"/>
    </g>
    <g class="guide ygridlines xfixed" stroke-dasharray="0.5,0.5" stroke-width="0.2" stroke="#D0D0E0" id="img-e5ba06de-7">
      <path fill="none" d="M18.63,80.31 L 147.4 80.31"/>
      <path fill="none" d="M18.63,43.66 L 147.4 43.66"/>
      <path fill="none" d="M18.63,7 L 147.4 7"/>
    </g>
    <g class="guide xgridlines yfixed" stroke-dasharray="0.5,0.5" stroke-width="0.2" stroke="#D0D0E0" id="img-e5ba06de-8">
      <path fill="none" d="M20.63,5 L 20.63 82.32"/>
      <path fill="none" d="M41.43,5 L 41.43 82.32"/>
      <path fill="none" d="M62.22,5 L 62.22 82.32"/>
      <path fill="none" d="M83.02,5 L 83.02 82.32"/>
      <path fill="none" d="M103.81,5 L 103.81 82.32"/>
      <path fill="none" d="M124.61,5 L 124.61 82.32"/>
      <path fill="none" d="M145.4,5 L 145.4 82.32"/>
    </g>
    <g class="plotpanel" id="img-e5ba06de-9">
      <g stroke-width="0.3" fill="#000000" fill-opacity="0.000" class="geometry" stroke-dasharray="none" stroke="#2D637F" id="img-e5ba06de-10">
        <path fill="none" d="M25.83,80.31 L 26.04 80.31 26.25 80.31 26.45 80.31 26.66 80.31 26.87 80.31 27.08 80.31 27.29 80.31 27.49 80.31 27.7 80.31 27.91 80.31 28.12 80.31 28.33 80.31 28.53 80.31 28.74 80.31 28.95 80.31 29.16 80.31 29.37 80.31 29.57 80.31 29.78 80.31 29.99 80.31 30.2 80.31 30.41 80.31 30.61 80.31 30.82 80.31 31.03 80.31 31.24 80.31 31.44 80.31 31.65 80.31 31.86 80.31 32.07 80.31 32.28 80.31 32.48 80.31 32.69 80.31 32.9 80.31 33.11 80.31 33.32 80.31 33.52 80.31 33.73 80.31 33.94 80.31 34.15 80.31 34.36 80.31 34.56 80.31 34.77 80.31 34.98 80.31 35.19 80.31 35.4 80.31 35.6 80.31 35.81 80.31 36.02 80.31 36.23 80.31 36.44 80.31 36.64 80.31 36.85 80.31 37.06 80.31 37.27 80.31 37.48 80.31 37.68 80.31 37.89 80.31 38.1 80.31 38.31 80.31 38.52 80.31 38.72 80.31 38.93 80.31 39.14 80.31 39.35 80.31 39.55 80.31 39.76 80.31 39.97 80.31 40.18 80.31 40.39 80.31 40.59 80.31 40.8 80.31 41.01 80.31 41.22 80.31 41.43 80.31 41.63 80.31 41.84 80.31 42.05 80.31 42.26 80.31 42.47 80.31 42.67 80.31 42.88 80.31 43.09 80.31 43.3 80.31 43.51 80.31 43.71 80.31 43.92 80.31 44.13 80.31 44.34 80.31 44.55 80.31 44.75 80.31 44.96 80.31 45.17 80.31 45.38 80.31 45.59 80.31 45.79 80.31 46 80.31 46.21 80.31 46.42 80.31 46.63 80.31 46.83 80.31 47.04 80.31 47.25 80.31 47.46 80.31 47.66 80.31 47.87 80.31 48.08 80.31 48.29 80.31 48.5 80.31 48.7 80.31 48.91 80.31 49.12 80.31 49.33 80.31 49.54 80.31 49.74 80.31 49.95 80.31 50.16 80.31 50.37 80.31 50.58 80.31 50.78 80.31 50.99 80.31 51.2 80.31 51.41 80.31 51.62 80.31 51.82 80.31 52.03 80.31 52.24 80.31 52.45 80.31 52.66 80.31 52.86 80.31 53.07 80.31 53.28 80.31 53.49 80.31 53.7 80.31 53.9 80.31 54.11 80.31 54.32 80.31 54.53 80.31 54.74 80.31 54.94 80.31 55.15 80.31 55.36 80.31 55.57 80.31 55.77 80.31 55.98 80.31 56.19 80.31 56.4 80.31 56.61 80.31 56.81 80.31 57.02 80.31 57.23 80.31 57.44 80.31 57.65 80.31 57.85 80.31 58.06 80.31 58.27 80.31 58.48 80.31 58.69 80.31 58.89 80.31 59.1 80.31 59.31 80.31 59.52 80.31 59.73 80.31 59.93 80.31 60.14 80.31 60.35 80.31 60.56 80.31 60.77 80.31 60.97 80.31 61.18 80.31 61.39 80.31 61.6 80.31 61.81 80.31 62.01 80.31 62.22 80.31 62.43 80.31 62.64 80.31 62.84 80.31 63.05 80.31 63.26 80.31 63.47 80.31 63.68 80.31 63.88 80.31 64.09 80.31 64.3 80.31 64.51 80.31 64.72 80.31 64.92 80.31 65.13 80.31 65.34 80.31 65.55 80.31 65.76 80.31 65.96 80.31 66.17 80.31 66.38 80.31 66.59 80.31 66.8 80.31 67 80.31 67.21 80.31 67.42 80.31 67.63 80.31 67.84 80.31 68.04 80.31 68.25 80.31 68.46 80.31 68.67 80.31 68.88 80.31 69.08 80.31 69.29 80.31 69.5 80.31 69.71 80.31 69.92 80.31 70.12 80.31 70.33 80.31 70.54 80.31 70.75 80.31 70.95 80.31 71.16 80.31 71.37 80.31 71.58 80.31 71.79 80.31 71.99 80.31 72.2 80.31 72.41 80.31 72.62 80.31 72.83 78.85 73.03 77.38 73.24 75.92 73.45 74.45 73.66 72.98 73.87 71.52 74.07 70.05 74.28 68.58 74.49 67.12 74.7 65.65 74.91 64.19 75.11 62.72 75.32 61.25 75.53 59.79 75.74 58.32 75.95 56.85 76.15 55.39 76.36 53.92 76.57 52.46 76.78 50.99 76.99 49.52 77.19 48.06 77.4 46.59 77.61 45.12 77.82 43.66 78.03 42.19 78.23 40.72 78.44 39.26 78.65 37.79 78.86 36.33 79.06 34.86 79.27 33.39 79.48 31.93 79.69 30.46 79.9 28.99 80.1 27.53 80.31 26.06 80.52 24.6 80.73 23.13 80.94 21.66 81.14 20.2 81.35 18.73 81.56 17.26 81.77 15.8 81.98 14.33 82.18 12.87 82.39 11.4 82.6 9.93 82.81 8.47 83.02 7 83.22 8.47 83.43 9.93 83.64 11.4 83.85 12.87 84.06 14.33 84.26 15.8 84.47 17.26 84.68 18.73 84.89 20.2 85.1 21.66 85.3 23.13 85.51 24.6 85.72 26.06 85.93 27.53 86.14 28.99 86.34 30.46 86.55 31.93 86.76 33.39 86.97 34.86 87.17 36.33 87.38 37.79 87.59 39.26 87.8 40.72 88.01 42.19 88.21 43.66 88.42 45.12 88.63 46.59 88.84 48.06 89.05 49.52 89.25 50.99 89.46 52.46 89.67 53.92 89.88 55.39 90.09 56.85 90.29 58.32 90.5 59.79 90.71 61.25 90.92 62.72 91.13 64.19 91.33 65.65 91.54 67.12 91.75 68.58 91.96 70.05 92.17 71.52 92.37 72.98 92.58 74.45 92.79 75.92 93 77.38 93.21 78.85 93.41 80.31 93.62 80.31 93.83 80.31 94.04 80.31 94.24 80.31 94.45 80.31 94.66 80.31 94.87 80.31 95.08 80.31 95.28 80.31 95.49 80.31 95.7 80.31 95.91 80.31 96.12 80.31 96.32 80.31 96.53 80.31 96.74 80.31 96.95 80.31 97.16 80.31 97.36 80.31 97.57 80.31 97.78 80.31 97.99 80.31 98.2 80.31 98.4 80.31 98.61 80.31 98.82 80.31 99.03 80.31 99.24 80.31 99.44 80.31 99.65 80.31 99.86 80.31 100.07 80.31 100.28 80.31 100.48 80.31 100.69 80.31 100.9 80.31 101.11 80.31 101.32 80.31 101.52 80.31 101.73 80.31 101.94 80.31 102.15 80.31 102.35 80.31 102.56 80.31 102.77 80.31 102.98 80.31 103.19 80.31 103.39 80.31 103.6 80.31 103.81 80.31 104.02 80.31 104.23 80.31 104.43 80.31 104.64 80.31 104.85 80.31 105.06 80.31 105.27 80.31 105.47 80.31 105.68 80.31 105.89 80.31 106.1 80.31 106.31 80.31 106.51 80.31 106.72 80.31 106.93 80.31 107.14 80.31 107.35 80.31 107.55 80.31 107.76 80.31 107.97 80.31 108.18 80.31 108.39 80.31 108.59 80.31 108.8 80.31 109.01 80.31 109.22 80.31 109.43 80.31 109.63 80.31 109.84 80.31 110.05 80.31 110.26 80.31 110.46 80.31 110.67 80.31 110.88 80.31 111.09 80.31 111.3 80.31 111.5 80.31 111.71 80.31 111.92 80.31 112.13 80.31 112.34 80.31 112.54 80.31 112.75 80.31 112.96 80.31 113.17 80.31 113.38 80.31 113.58 80.31 113.79 80.31 114 80.31 114.21 80.31 114.42 80.31 114.62 80.31 114.83 80.31 115.04 80.31 115.25 80.31 115.46 80.31 115.66 80.31 115.87 80.31 116.08 80.31 116.29 80.31 116.5 80.31 116.7 80.31 116.91 80.31 117.12 80.31 117.33 80.31 117.54 80.31 117.74 80.31 117.95 80.31 118.16 80.31 118.37 80.31 118.57 80.31 118.78 80.31 118.99 80.31 119.2 80.31 119.41 80.31 119.61 80.31 119.82 80.31 120.03 80.31 120.24 80.31 120.45 80.31 120.65 80.31 120.86 80.31 121.07 80.31 121.28 80.31 121.49 80.31 121.69 80.31 121.9 80.31 122.11 80.31 122.32 80.31 122.53 80.31 122.73 80.31 122.94 80.31 123.15 80.31 123.36 80.31 123.57 80.31 123.77 80.31 123.98 80.31 124.19 80.31 124.4 80.31 124.61 80.31 124.81 80.31 125.02 80.31 125.23 80.31 125.44 80.31 125.65 80.31 125.85 80.31 126.06 80.31 126.27 80.31 126.48 80.31 126.68 80.31 126.89 80.31 127.1 80.31 127.31 80.31 127.52 80.31 127.72 80.31 127.93 80.31 128.14 80.31 128.35 80.31 128.56 80.31 128.76 80.31 128.97 80.31 129.18 80.31 129.39 80.31 129.6 80.31 129.8 80.31 130.01 80.31 130.22 80.31 130.43 80.31 130.64 80.31 130.84 80.31 131.05 80.31 131.26 80.31 131.47 80.31 131.68 80.31 131.88 80.31 132.09 80.31 132.3 80.31 132.51 80.31 132.72 80.31 132.92 80.31 133.13 80.31 133.34 80.31 133.55 80.31 133.75 80.31 133.96 80.31 134.17 80.31 134.38 80.31 134.59 80.31 134.79 80.31 135 80.31 135.21 80.31 135.42 80.31 135.63 80.31 135.83 80.31 136.04 80.31 136.25 80.31 136.46 80.31 136.67 80.31 136.87 80.31 137.08 80.31 137.29 80.31 137.5 80.31 137.71 80.31 137.91 80.31 138.12 80.31 138.33 80.31 138.54 80.31 138.75 80.31 138.95 80.31 139.16 80.31 139.37 80.31 139.58 80.31 139.79 80.31 139.99 80.31 140.2 80.31"/>
      </g>
    </g>
  </g>
</g>
  <g class="guide ylabels" font-size="2.82" font-family="'PT Sans Caption','Helvetica Neue','Helvetica',sans-serif" fill="#6C606B" id="img-e5ba06de-11">
    <text x="17.63" y="80.31" text-anchor="end" dy="0.35em">0.0</text>
    <text x="17.63" y="43.66" text-anchor="end" dy="0.35em">0.5</text>
    <text x="17.63" y="7" text-anchor="end" dy="0.35em">1.0</text>
  </g>
  <g font-size="3.88" font-family="'PT Sans','Helvetica Neue','Helvetica',sans-serif" fill="#564A55" stroke="#000000" stroke-opacity="0.000" id="img-e5ba06de-12">
    <text x="8.81" y="41.66" text-anchor="middle" dy="0.35em" transform="rotate(-90, 8.81, 43.66)">phi(x)</text>
  </g>
</g>
<defs>
  <clipPath id="img-e5ba06de-4">
  <path d="M18.63,5 L 147.4 5 147.4 82.32 18.63 82.32" />
</clipPath>
</defs>
</svg>
