<?xml version="1.0" encoding="UTF-8"?>
<svg xmlns="http://www.w3.org/2000/svg"
     xmlns:xlink="http://www.w3.org/1999/xlink"
     xmlns:gadfly="http://www.gadflyjl.org/ns"
     version="1.2"
     width="152.4mm" height="101.6mm" viewBox="0 0 152.4 101.6"
     stroke="none"
     fill="#000000"
     stroke-width="0.3"
     font-size="3.88"
>
<g class="plotroot xscalable yscalable" id="img-87785c02-1">
  <g font-size="3.88" font-family="'PT Sans','Helvetica Neue','Helvetica',sans-serif" fill="#564A55" stroke="#000000" stroke-opacity="0.000" id="img-87785c02-2">
    <text x="81.5" y="89.99" text-anchor="middle" dy="0.6em">x</text>
  </g>
  <g class="guide xlabels" font-size="2.82" font-family="'PT Sans Caption','Helvetica Neue','Helvetica',sans-serif" fill="#6C606B" id="img-87785c02-3">
    <text x="17.59" y="83.32" text-anchor="middle" dy="0.6em">-6</text>
    <text x="38.89" y="83.32" text-anchor="middle" dy="0.6em">-4</text>
    <text x="60.19" y="83.32" text-anchor="middle" dy="0.6em">-2</text>
    <text x="81.5" y="83.32" text-anchor="middle" dy="0.6em">0</text>
    <text x="102.8" y="83.32" text-anchor="middle" dy="0.6em">2</text>
    <text x="124.1" y="83.32" text-anchor="middle" dy="0.6em">4</text>
    <text x="145.4" y="83.32" text-anchor="middle" dy="0.6em">6</text>
  </g>
<g clip-path="url(#img-87785c02-4)">
  <g id="img-87785c02-5">
    <g pointer-events="visible" opacity="1" fill="#000000" fill-opacity="0.000" stroke="#000000" stroke-opacity="0.000" class="guide background" id="img-87785c02-6">
      <rect x="15.59" y="5" width="131.81" height="77.32"/>
    </g>
    <g class="guide ygridlines xfixed" stroke-dasharray="0.5,0.5" stroke-width="0.2" stroke="#D0D0E0" id="img-87785c02-7">
      <path fill="none" d="M15.59,80.32 L 147.4 80.32"/>
      <path fill="none" d="M15.59,68.1 L 147.4 68.1"/>
      <path fill="none" d="M15.59,55.88 L 147.4 55.88"/>
      <path fill="none" d="M15.59,43.66 L 147.4 43.66"/>
      <path fill="none" d="M15.59,31.44 L 147.4 31.44"/>
      <path fill="none" d="M15.59,19.22 L 147.4 19.22"/>
      <path fill="none" d="M15.59,7 L 147.4 7"/>
    </g>
    <g class="guide xgridlines yfixed" stroke-dasharray="0.5,0.5" stroke-width="0.2" stroke="#D0D0E0" id="img-87785c02-8">
      <path fill="none" d="M17.59,5 L 17.59 82.32"/>
      <path fill="none" d="M38.89,5 L 38.89 82.32"/>
      <path fill="none" d="M60.19,5 L 60.19 82.32"/>
      <path fill="none" d="M81.5,5 L 81.5 82.32"/>
      <path fill="none" d="M102.8,5 L 102.8 82.32"/>
      <path fill="none" d="M124.1,5 L 124.1 82.32"/>
      <path fill="none" d="M145.4,5 L 145.4 82.32"/>
    </g>
    <g class="plotpanel" id="img-87785c02-9">
      <g class="geometry" id="img-87785c02-10">
        <g class="color_RGBA{Float32}(0.875f0,0.6171875f0,0.09765625f0,1.0f0)" stroke="#FFFFFF" stroke-width="0.3" fill="#DF9D19" id="img-87785c02-11">
          <use xlink:href="#img-87785c02-12" x="28.24" y="68.1"/>
          <use xlink:href="#img-87785c02-12" x="38.89" y="55.88"/>
          <use xlink:href="#img-87785c02-12" x="49.54" y="43.66"/>
          <use xlink:href="#img-87785c02-12" x="60.19" y="31.44"/>
          <use xlink:href="#img-87785c02-12" x="70.85" y="19.22"/>
          <use xlink:href="#img-87785c02-12" x="81.5" y="68.1"/>
          <use xlink:href="#img-87785c02-12" x="92.15" y="55.88"/>
          <use xlink:href="#img-87785c02-12" x="102.8" y="43.66"/>
          <use xlink:href="#img-87785c02-12" x="113.45" y="31.44"/>
          <use xlink:href="#img-87785c02-12" x="124.1" y="19.22"/>
          <use xlink:href="#img-87785c02-12" x="134.75" y="68.1"/>
        </g>
      </g>
      <g stroke-width="0.3" fill="#000000" fill-opacity="0.000" class="geometry" stroke-dasharray="none" stroke="#2D637F" id="img-87785c02-13">
        <path fill="none" d="M22.92,68.1 L 23.13 68.1 23.34 68.1 23.56 68.1 23.77 68.1 23.98 68.1 24.2 68.1 24.41 68.1 24.62 68.1 24.83 68.1 25.05 68.1 25.26 68.1 25.47 68.1 25.69 68.1 25.9 68.1 26.11 68.1 26.33 68.1 26.54 68.1 26.75 68.1 26.97 68.1 27.18 68.1 27.39 68.1 27.6 68.1 27.82 68.1 28.03 68.1 28.24 68.1 28.46 67.85 28.67 67.61 28.88 67.36 29.1 67.12 29.31 66.87 29.52 66.63 29.73 66.39 29.95 66.14 30.16 65.9 30.37 65.65 30.59 65.41 30.8 65.16 31.01 64.92 31.23 64.67 31.44 64.43 31.65 64.19 31.86 63.94 32.08 63.7 32.29 63.45 32.5 63.21 32.72 62.96 32.93 62.72 33.14 62.48 33.36 62.23 33.57 61.99 33.78 61.74 33.99 61.5 34.21 61.25 34.42 61.01 34.63 60.76 34.85 60.52 35.06 60.28 35.27 60.03 35.49 59.79 35.7 59.54 35.91 59.3 36.12 59.05 36.34 58.81 36.55 58.56 36.76 58.32 36.98 58.08 37.19 57.83 37.4 57.59 37.62 57.34 37.83 57.1 38.04 56.85 38.25 56.61 38.47 56.37 38.68 56.12 38.89 55.88 39.11 55.63 39.32 55.39 39.53 55.14 39.75 54.9 39.96 54.65 40.17 54.41 40.38 54.17 40.6 53.92 40.81 53.68 41.02 53.43 41.24 53.19 41.45 52.94 41.66 52.7 41.88 52.46 42.09 52.21 42.3 51.97 42.51 51.72 42.73 51.48 42.94 51.23 43.15 50.99 43.37 50.74 43.58 50.5 43.79 50.26 44.01 50.01 44.22 49.77 44.43 49.52 44.65 49.28 44.86 49.03 45.07 48.79 45.28 48.55 45.5 48.3 45.71 48.06 45.92 47.81 46.14 47.57 46.35 47.32 46.56 47.08 46.78 46.83 46.99 46.59 47.2 46.35 47.41 46.1 47.63 45.86 47.84 45.61 48.05 45.37 48.27 45.12 48.48 44.88 48.69 44.64 48.91 44.39 49.12 44.15 49.33 43.9 49.54 43.66 49.76 43.41 49.97 43.17 50.18 42.92 50.4 42.68 50.61 42.44 50.82 42.19 51.04 41.95 51.25 41.7 51.46 41.46 51.67 41.21 51.89 40.97 52.1 40.72 52.31 40.48 52.53 40.24 52.74 39.99 52.95 39.75 53.17 39.5 53.38 39.26 53.59 39.01 53.8 38.77 54.02 38.53 54.23 38.28 54.44 38.04 54.66 37.79 54.87 37.55 55.08 37.3 55.3 37.06 55.51 36.81 55.72 36.57 55.93 36.33 56.15 36.08 56.36 35.84 56.57 35.59 56.79 35.35 57 35.1 57.21 34.86 57.43 34.62 57.64 34.37 57.85 34.13 58.06 33.88 58.28 33.64 58.49 33.39 58.7 33.15 58.92 32.9 59.13 32.66 59.34 32.42 59.56 32.17 59.77 31.93 59.98 31.68 60.19 31.44 60.41 31.19 60.62 30.95 60.83 30.71 61.05 30.46 61.26 30.22 61.47 29.97 61.69 29.73 61.9 29.48 62.11 29.24 62.33 28.99 62.54 28.75 62.75 28.51 62.96 28.26 63.18 28.02 63.39 27.77 63.6 27.53 63.82 27.28 64.03 27.04 64.24 26.8 64.46 26.55 64.67 26.31 64.88 26.06 65.09 25.82 65.31 25.57 65.52 25.33 65.73 25.08 65.95 24.84 66.16 24.6 66.37 24.35 66.59 24.11 66.8 23.86 67.01 23.62 67.22 23.37 67.44 23.13 67.65 22.88 67.86 22.64 68.08 22.4 68.29 22.15 68.5 21.91 68.72 21.66 68.93 21.42 69.14 21.17 69.35 20.93 69.57 20.69 69.78 20.44 69.99 20.2 70.21 19.95 70.42 19.71 70.63 19.46 70.85 19.22 71.06 20.2 71.27 21.17 71.48 22.15 71.7 23.13 71.91 24.11 72.12 25.08 72.34 26.06 72.55 27.04 72.76 28.02 72.98 28.99 73.19 29.97 73.4 30.95 73.61 31.93 73.83 32.9 74.04 33.88 74.25 34.86 74.47 35.84 74.68 36.81 74.89 37.79 75.11 38.77 75.32 39.75 75.53 40.72 75.74 41.7 75.96 42.68 76.17 43.66 76.38 44.64 76.6 45.61 76.81 46.59 77.02 47.57 77.24 48.55 77.45 49.52 77.66 50.5 77.88 51.48 78.09 52.46 78.3 53.43 78.51 54.41 78.73 55.39 78.94 56.37 79.15 57.34 79.37 58.32 79.58 59.3 79.79 60.28 80.01 61.25 80.22 62.23 80.43 63.21 80.64 64.19 80.86 65.16 81.07 66.14 81.28 67.12 81.5 68.1 81.71 67.85 81.92 67.61 82.14 67.36 82.35 67.12 82.56 66.87 82.77 66.63 82.99 66.39 83.2 66.14 83.41 65.9 83.63 65.65 83.84 65.41 84.05 65.16 84.27 64.92 84.48 64.67 84.69 64.43 84.9 64.19 85.12 63.94 85.33 63.7 85.54 63.45 85.76 63.21 85.97 62.96 86.18 62.72 86.4 62.48 86.61 62.23 86.82 61.99 87.03 61.74 87.25 61.5 87.46 61.25 87.67 61.01 87.89 60.76 88.1 60.52 88.31 60.28 88.53 60.03 88.74 59.79 88.95 59.54 89.16 59.3 89.38 59.05 89.59 58.81 89.8 58.56 90.02 58.32 90.23 58.08 90.44 57.83 90.66 57.59 90.87 57.34 91.08 57.1 91.29 56.85 91.51 56.61 91.72 56.37 91.93 56.12 92.15 55.88 92.36 55.63 92.57 55.39 92.79 55.14 93 54.9 93.21 54.65 93.42 54.41 93.64 54.17 93.85 53.92 94.06 53.68 94.28 53.43 94.49 53.19 94.7 52.94 94.92 52.7 95.13 52.46 95.34 52.21 95.56 51.97 95.77 51.72 95.98 51.48 96.19 51.23 96.41 50.99 96.62 50.74 96.83 50.5 97.05 50.26 97.26 50.01 97.47 49.77 97.69 49.52 97.9 49.28 98.11 49.03 98.32 48.79 98.54 48.55 98.75 48.3 98.96 48.06 99.18 47.81 99.39 47.57 99.6 47.32 99.82 47.08 100.03 46.83 100.24 46.59 100.45 46.35 100.67 46.1 100.88 45.86 101.09 45.61 101.31 45.37 101.52 45.12 101.73 44.88 101.95 44.64 102.16 44.39 102.37 44.15 102.58 43.9 102.8 43.66 103.01 43.41 103.22 43.17 103.44 42.92 103.65 42.68 103.86 42.44 104.08 42.19 104.29 41.95 104.5 41.7 104.71 41.46 104.93 41.21 105.14 40.97 105.35 40.72 105.57 40.48 105.78 40.24 105.99 39.99 106.21 39.75 106.42 39.5 106.63 39.26 106.84 39.01 107.06 38.77 107.27 38.53 107.48 38.28 107.7 38.04 107.91 37.79 108.12 37.55 108.34 37.3 108.55 37.06 108.76 36.81 108.97 36.57 109.19 36.33 109.4 36.08 109.61 35.84 109.83 35.59 110.04 35.35 110.25 35.1 110.47 34.86 110.68 34.62 110.89 34.37 111.1 34.13 111.32 33.88 111.53 33.64 111.74 33.39 111.96 33.15 112.17 32.9 112.38 32.66 112.6 32.42 112.81 32.17 113.02 31.93 113.24 31.68 113.45 31.44 113.66 31.19 113.87 30.95 114.09 30.71 114.3 30.46 114.51 30.22 114.73 29.97 114.94 29.73 115.15 29.48 115.37 29.24 115.58 28.99 115.79 28.75 116 28.51 116.22 28.26 116.43 28.02 116.64 27.77 116.86 27.53 117.07 27.28 117.28 27.04 117.5 26.8 117.71 26.55 117.92 26.31 118.13 26.06 118.35 25.82 118.56 25.57 118.77 25.33 118.99 25.08 119.2 24.84 119.41 24.6 119.63 24.35 119.84 24.11 120.05 23.86 120.26 23.62 120.48 23.37 120.69 23.13 120.9 22.88 121.12 22.64 121.33 22.4 121.54 22.15 121.76 21.91 121.97 21.66 122.18 21.42 122.39 21.17 122.61 20.93 122.82 20.69 123.03 20.44 123.25 20.2 123.46 19.95 123.67 19.71 123.89 19.46 124.1 19.22 124.31 20.2 124.52 21.17 124.74 22.15 124.95 23.13 125.16 24.11 125.38 25.08 125.59 26.06 125.8 27.04 126.02 28.02 126.23 28.99 126.44 29.97 126.65 30.95 126.87 31.93 127.08 32.9 127.29 33.88 127.51 34.86 127.72 35.84 127.93 36.81 128.15 37.79 128.36 38.77 128.57 39.75 128.79 40.72 129 41.7 129.21 42.68 129.42 43.66 129.64 44.64 129.85 45.61 130.06 46.59 130.28 47.57 130.49 48.55 130.7 49.52 130.92 50.5 131.13 51.48 131.34 52.46 131.55 53.43 131.77 54.41 131.98 55.39 132.19 56.37 132.41 57.34 132.62 58.32 132.83 59.3 133.05 60.28 133.26 61.25 133.47 62.23 133.68 63.21 133.9 64.19 134.11 65.16 134.32 66.14 134.54 67.12 134.75 68.1 134.96 68.1 135.18 68.1 135.39 68.1 135.6 68.1 135.81 68.1 136.03 68.1 136.24 68.1 136.45 68.1 136.67 68.1 136.88 68.1 137.09 68.1 137.31 68.1 137.52 68.1 137.73 68.1 137.94 68.1 138.16 68.1 138.37 68.1 138.58 68.1 138.8 68.1 139.01 68.1 139.22 68.1 139.44 68.1 139.65 68.1 139.86 68.1 140.07 68.1"/>
      </g>
    </g>
  </g>
</g>
  <g class="guide ylabels" font-size="2.82" font-family="'PT Sans Caption','Helvetica Neue','Helvetica',sans-serif" fill="#6C606B" id="img-87785c02-14">
    <text x="14.59" y="80.32" text-anchor="end" dy="0.35em">-1</text>
    <text x="14.59" y="68.1" text-anchor="end" dy="0.35em">0</text>
    <text x="14.59" y="55.88" text-anchor="end" dy="0.35em">1</text>
    <text x="14.59" y="43.66" text-anchor="end" dy="0.35em">2</text>
    <text x="14.59" y="31.44" text-anchor="end" dy="0.35em">3</text>
    <text x="14.59" y="19.22" text-anchor="end" dy="0.35em">4</text>
    <text x="14.59" y="7" text-anchor="end" dy="0.35em">5</text>
  </g>
  <g font-size="3.88" font-family="'PT Sans','Helvetica Neue','Helvetica',sans-serif" fill="#564A55" stroke="#000000" stroke-opacity="0.000" id="img-87785c02-15">
    <text x="8.81" y="43.66" text-anchor="end" dy="0.35em">y</text>
  </g>
</g>
<defs>
  <clipPath id="img-87785c02-4">
  <path d="M15.59,5 L 147.4 5 147.4 82.32 15.59 82.32" />
</clipPath>
  <g id="img-87785c02-12">
    <circle cx="0" cy="0" r="0.9"/>
  </g>
</defs>
</svg>
