<?xml version="1.0" encoding="UTF-8"?>
<svg xmlns="http://www.w3.org/2000/svg"
     xmlns:xlink="http://www.w3.org/1999/xlink"
     xmlns:gadfly="http://www.gadflyjl.org/ns"
     version="1.2"
     width="152.4mm" height="101.6mm" viewBox="0 0 152.4 101.6"
     stroke="none"
     fill="#000000"
     stroke-width="0.3"
     font-size="3.88"
>
<g class="plotroot xscalable yscalable" id="img-46e81299-1">
  <g font-size="3.88" font-family="'PT Sans','Helvetica Neue','Helvetica',sans-serif" fill="#564A55" stroke="#000000" stroke-opacity="0.000" id="img-46e81299-2">
    <text x="82.33" y="89.99" text-anchor="middle" dy="0.6em">x</text>
  </g>
  <g class="guide xlabels" font-size="2.82" font-family="'PT Sans Caption','Helvetica Neue','Helvetica',sans-serif" fill="#6C606B" id="img-46e81299-3">
    <text x="19.27" y="83.31" text-anchor="middle" dy="0.6em">-6</text>
    <text x="40.29" y="83.31" text-anchor="middle" dy="0.6em">-4</text>
    <text x="61.31" y="83.31" text-anchor="middle" dy="0.6em">-2</text>
    <text x="82.33" y="83.31" text-anchor="middle" dy="0.6em">0</text>
    <text x="103.36" y="83.31" text-anchor="middle" dy="0.6em">2</text>
    <text x="124.38" y="83.31" text-anchor="middle" dy="0.6em">4</text>
    <text x="145.4" y="83.31" text-anchor="middle" dy="0.6em">6</text>
  </g>
<g clip-path="url(#img-46e81299-4)">
  <g id="img-46e81299-5">
    <g pointer-events="visible" opacity="1" fill="#000000" fill-opacity="0.000" stroke="#000000" stroke-opacity="0.000" class="guide background" id="img-46e81299-6">
      <rect x="17.27" y="5" width="130.13" height="77.31"/>
    </g>
    <g class="guide ygridlines xfixed" stroke-dasharray="0.5,0.5" stroke-width="0.2" stroke="#D0D0E0" id="img-46e81299-7">
      <path fill="none" d="M17.27,80.31 L 147.4 80.31"/>
      <path fill="none" d="M17.27,43.66 L 147.4 43.66"/>
      <path fill="none" d="M17.27,7 L 147.4 7"/>
    </g>
    <g class="guide xgridlines yfixed" stroke-dasharray="0.5,0.5" stroke-width="0.2" stroke="#D0D0E0" id="img-46e81299-8">
      <path fill="none" d="M19.27,5 L 19.27 82.31"/>
      <path fill="none" d="M40.29,5 L 40.29 82.31"/>
      <path fill="none" d="M61.31,5 L 61.31 82.31"/>
      <path fill="none" d="M82.33,5 L 82.33 82.31"/>
      <path fill="none" d="M103.36,5 L 103.36 82.31"/>
      <path fill="none" d="M124.38,5 L 124.38 82.31"/>
      <path fill="none" d="M145.4,5 L 145.4 82.31"/>
    </g>
    <g class="plotpanel" id="img-46e81299-9">
      <g class="geometry" id="img-46e81299-10">
        <g class="color_RGBA{Float32}(0.875f0,0.6171875f0,0.09765625f0,1.0f0)" stroke="#FFFFFF" stroke-width="0.3" fill="#DF9D19" id="img-46e81299-11">
          <use xlink:href="#img-46e81299-12" x="29.78" y="43.66"/>
          <use xlink:href="#img-46e81299-12" x="40.29" y="17.26"/>
          <use xlink:href="#img-46e81299-12" x="50.8" y="8.47"/>
          <use xlink:href="#img-46e81299-12" x="61.31" y="12.87"/>
          <use xlink:href="#img-46e81299-12" x="71.82" y="26.06"/>
          <use xlink:href="#img-46e81299-12" x="82.33" y="43.66"/>
          <use xlink:href="#img-46e81299-12" x="92.84" y="61.25"/>
          <use xlink:href="#img-46e81299-12" x="103.36" y="74.45"/>
          <use xlink:href="#img-46e81299-12" x="113.87" y="78.85"/>
          <use xlink:href="#img-46e81299-12" x="124.38" y="70.05"/>
          <use xlink:href="#img-46e81299-12" x="134.89" y="43.66"/>
        </g>
      </g>
      <g stroke-width="0.3" fill="#000000" fill-opacity="0.000" class="geometry" stroke-dasharray="none" stroke="#2D637F" id="img-46e81299-13">
        <path fill="none" d="M24.52,43.66 L 24.73 43.66 24.94 43.66 25.15 43.66 25.36 43.66 25.57 43.66 25.78 43.66 25.99 43.66 26.2 43.66 26.41 43.66 26.62 43.66 26.83 43.66 27.04 43.66 27.25 43.66 27.46 43.66 27.67 43.66 27.89 43.66 28.1 43.66 28.31 43.66 28.52 43.66 28.73 43.66 28.94 43.66 29.15 43.66 29.36 43.66 29.57 43.66 29.78 43.66 29.99 43.13 30.2 42.6 30.41 42.07 30.62 41.55 30.83 41.02 31.04 40.49 31.25 39.96 31.46 39.43 31.67 38.91 31.88 38.38 32.09 37.85 32.3 37.32 32.51 36.8 32.72 36.27 32.93 35.74 33.14 35.21 33.35 34.68 33.56 34.16 33.77 33.63 33.98 33.1 34.19 32.57 34.4 32.04 34.61 31.52 34.82 30.99 35.03 30.46 35.24 29.93 35.45 29.41 35.66 28.88 35.87 28.35 36.08 27.82 36.29 27.29 36.5 26.77 36.71 26.24 36.92 25.71 37.13 25.18 37.35 24.65 37.56 24.13 37.77 23.6 37.98 23.07 38.19 22.54 38.4 22.01 38.61 21.49 38.82 20.96 39.03 20.43 39.24 19.9 39.45 19.38 39.66 18.85 39.87 18.32 40.08 17.79 40.29 17.26 40.5 17.09 40.71 16.91 40.92 16.74 41.13 16.56 41.34 16.38 41.55 16.21 41.76 16.03 41.97 15.86 42.18 15.68 42.39 15.5 42.6 15.33 42.81 15.15 43.02 14.98 43.23 14.8 43.44 14.62 43.65 14.45 43.86 14.27 44.07 14.1 44.28 13.92 44.49 13.74 44.7 13.57 44.91 13.39 45.12 13.22 45.33 13.04 45.54 12.87 45.75 12.69 45.96 12.51 46.17 12.34 46.38 12.16 46.59 11.99 46.81 11.81 47.02 11.63 47.23 11.46 47.44 11.28 47.65 11.11 47.86 10.93 48.07 10.75 48.28 10.58 48.49 10.4 48.7 10.23 48.91 10.05 49.12 9.87 49.33 9.7 49.54 9.52 49.75 9.35 49.96 9.17 50.17 8.99 50.38 8.82 50.59 8.64 50.8 8.47 51.01 8.55 51.22 8.64 51.43 8.73 51.64 8.82 51.85 8.91 52.06 8.99 52.27 9.08 52.48 9.17 52.69 9.26 52.9 9.35 53.11 9.43 53.32 9.52 53.53 9.61 53.74 9.7 53.95 9.79 54.16 9.87 54.37 9.96 54.58 10.05 54.79 10.14 55 10.23 55.21 10.31 55.42 10.4 55.63 10.49 55.84 10.58 56.05 10.67 56.27 10.75 56.48 10.84 56.69 10.93 56.9 11.02 57.11 11.11 57.32 11.19 57.53 11.28 57.74 11.37 57.95 11.46 58.16 11.55 58.37 11.63 58.58 11.72 58.79 11.81 59 11.9 59.21 11.99 59.42 12.07 59.63 12.16 59.84 12.25 60.05 12.34 60.26 12.43 60.47 12.51 60.68 12.6 60.89 12.69 61.1 12.78 61.31 12.87 61.52 13.13 61.73 13.39 61.94 13.66 62.15 13.92 62.36 14.18 62.57 14.45 62.78 14.71 62.99 14.98 63.2 15.24 63.41 15.5 63.62 15.77 63.83 16.03 64.04 16.3 64.25 16.56 64.46 16.82 64.67 17.09 64.88 17.35 65.09 17.62 65.3 17.88 65.52 18.14 65.73 18.41 65.94 18.67 66.15 18.94 66.36 19.2 66.57 19.46 66.78 19.73 66.99 19.99 67.2 20.26 67.41 20.52 67.62 20.78 67.83 21.05 68.04 21.31 68.25 21.58 68.46 21.84 68.67 22.1 68.88 22.37 69.09 22.63 69.3 22.89 69.51 23.16 69.72 23.42 69.93 23.69 70.14 23.95 70.35 24.21 70.56 24.48 70.77 24.74 70.98 25.01 71.19 25.27 71.4 25.53 71.61 25.8 71.82 26.06 72.03 26.41 72.24 26.77 72.45 27.12 72.66 27.47 72.87 27.82 73.08 28.17 73.29 28.53 73.5 28.88 73.71 29.23 73.92 29.58 74.13 29.93 74.34 30.28 74.55 30.64 74.76 30.99 74.98 31.34 75.19 31.69 75.4 32.04 75.61 32.4 75.82 32.75 76.03 33.1 76.24 33.45 76.45 33.8 76.66 34.16 76.87 34.51 77.08 34.86 77.29 35.21 77.5 35.56 77.71 35.92 77.92 36.27 78.13 36.62 78.34 36.97 78.55 37.32 78.76 37.67 78.97 38.03 79.18 38.38 79.39 38.73 79.6 39.08 79.81 39.43 80.02 39.79 80.23 40.14 80.44 40.49 80.65 40.84 80.86 41.19 81.07 41.55 81.28 41.9 81.49 42.25 81.7 42.6 81.91 42.95 82.12 43.31 82.33 43.66 82.54 44.01 82.75 44.36 82.96 44.71 83.17 45.07 83.38 45.42 83.59 45.77 83.8 46.12 84.01 46.47 84.22 46.82 84.44 47.18 84.65 47.53 84.86 47.88 85.07 48.23 85.28 48.58 85.49 48.94 85.7 49.29 85.91 49.64 86.12 49.99 86.33 50.34 86.54 50.7 86.75 51.05 86.96 51.4 87.17 51.75 87.38 52.1 87.59 52.46 87.8 52.81 88.01 53.16 88.22 53.51 88.43 53.86 88.64 54.21 88.85 54.57 89.06 54.92 89.27 55.27 89.48 55.62 89.69 55.97 89.9 56.33 90.11 56.68 90.32 57.03 90.53 57.38 90.74 57.73 90.95 58.09 91.16 58.44 91.37 58.79 91.58 59.14 91.79 59.49 92 59.85 92.21 60.2 92.42 60.55 92.63 60.9 92.84 61.25 93.05 61.52 93.26 61.78 93.47 62.04 93.68 62.31 93.9 62.57 94.11 62.84 94.32 63.1 94.53 63.36 94.74 63.63 94.95 63.89 95.16 64.16 95.37 64.42 95.58 64.68 95.79 64.95 96 65.21 96.21 65.48 96.42 65.74 96.63 66 96.84 66.27 97.05 66.53 97.26 66.8 97.47 67.06 97.68 67.32 97.89 67.59 98.1 67.85 98.31 68.12 98.52 68.38 98.73 68.64 98.94 68.91 99.15 69.17 99.36 69.44 99.57 69.7 99.78 69.96 99.99 70.23 100.2 70.49 100.41 70.75 100.62 71.02 100.83 71.28 101.04 71.55 101.25 71.81 101.46 72.07 101.67 72.34 101.88 72.6 102.09 72.87 102.3 73.13 102.51 73.39 102.72 73.66 102.93 73.92 103.15 74.19 103.36 74.45 103.57 74.54 103.78 74.63 103.99 74.71 104.2 74.8 104.41 74.89 104.62 74.98 104.83 75.07 105.04 75.15 105.25 75.24 105.46 75.33 105.67 75.42 105.88 75.51 106.09 75.59 106.3 75.68 106.51 75.77 106.72 75.86 106.93 75.95 107.14 76.03 107.35 76.12 107.56 76.21 107.77 76.3 107.98 76.39 108.19 76.47 108.4 76.56 108.61 76.65 108.82 76.74 109.03 76.83 109.24 76.91 109.45 77 109.66 77.09 109.87 77.18 110.08 77.27 110.29 77.35 110.5 77.44 110.71 77.53 110.92 77.62 111.13 77.7 111.34 77.79 111.55 77.88 111.76 77.97 111.97 78.06 112.18 78.14 112.39 78.23 112.61 78.32 112.82 78.41 113.03 78.5 113.24 78.58 113.45 78.67 113.66 78.76 113.87 78.85 114.08 78.67 114.29 78.5 114.5 78.32 114.71 78.14 114.92 77.97 115.13 77.79 115.34 77.62 115.55 77.44 115.76 77.27 115.97 77.09 116.18 76.91 116.39 76.74 116.6 76.56 116.81 76.39 117.02 76.21 117.23 76.03 117.44 75.86 117.65 75.68 117.86 75.51 118.07 75.33 118.28 75.15 118.49 74.98 118.7 74.8 118.91 74.63 119.12 74.45 119.33 74.27 119.54 74.1 119.75 73.92 119.96 73.75 120.17 73.57 120.38 73.39 120.59 73.22 120.8 73.04 121.01 72.87 121.22 72.69 121.43 72.51 121.64 72.34 121.85 72.16 122.07 71.99 122.28 71.81 122.49 71.63 122.7 71.46 122.91 71.28 123.12 71.11 123.33 70.93 123.54 70.75 123.75 70.58 123.96 70.4 124.17 70.23 124.38 70.05 124.59 69.52 124.8 69 125.01 68.47 125.22 67.94 125.43 67.41 125.64 66.88 125.85 66.36 126.06 65.83 126.27 65.3 126.48 64.77 126.69 64.24 126.9 63.72 127.11 63.19 127.32 62.66 127.53 62.13 127.74 61.61 127.95 61.08 128.16 60.55 128.37 60.02 128.58 59.49 128.79 58.97 129 58.44 129.21 57.91 129.42 57.38 129.63 56.85 129.84 56.33 130.05 55.8 130.26 55.27 130.47 54.74 130.68 54.21 130.89 53.69 131.1 53.16 131.32 52.63 131.53 52.1 131.74 51.58 131.95 51.05 132.16 50.52 132.37 49.99 132.58 49.46 132.79 48.94 133 48.41 133.21 47.88 133.42 47.35 133.63 46.82 133.84 46.3 134.05 45.77 134.26 45.24 134.47 44.71 134.68 44.19 134.89 43.66 135.1 43.66 135.31 43.66 135.52 43.66 135.73 43.66 135.94 43.66 136.15 43.66 136.36 43.66 136.57 43.66 136.78 43.66 136.99 43.66 137.2 43.66 137.41 43.66 137.62 43.66 137.83 43.66 138.04 43.66 138.25 43.66 138.46 43.66 138.67 43.66 138.88 43.66 139.09 43.66 139.3 43.66 139.51 43.66 139.72 43.66 139.93 43.66 140.14 43.66"/>
      </g>
    </g>
  </g>
</g>
  <g class="guide ylabels" font-size="2.82" font-family="'PT Sans Caption','Helvetica Neue','Helvetica',sans-serif" fill="#6C606B" id="img-46e81299-14">
    <text x="16.27" y="80.31" text-anchor="end" dy="0.35em">-50</text>
    <text x="16.27" y="43.66" text-anchor="end" dy="0.35em">0</text>
    <text x="16.27" y="7" text-anchor="end" dy="0.35em">50</text>
  </g>
  <g font-size="3.88" font-family="'PT Sans','Helvetica Neue','Helvetica',sans-serif" fill="#564A55" stroke="#000000" stroke-opacity="0.000" id="img-46e81299-15">
    <text x="8.81" y="43.66" text-anchor="end" dy="0.35em">y</text>
  </g>
</g>
<defs>
  <clipPath id="img-46e81299-4">
  <path d="M17.27,5 L 147.4 5 147.4 82.31 17.27 82.31" />
</clipPath>
  <g id="img-46e81299-12">
    <circle cx="0" cy="0" r="0.9"/>
  </g>
</defs>
</svg>
