<?xml version="1.0" encoding="UTF-8"?>
<svg xmlns="http://www.w3.org/2000/svg"
     xmlns:xlink="http://www.w3.org/1999/xlink"
     xmlns:gadfly="http://www.gadflyjl.org/ns"
     version="1.2"
     width="152.4mm" height="101.6mm" viewBox="0 0 152.4 101.6"
     stroke="none"
     fill="#000000"
     stroke-width="0.3"
     font-size="3.88"
>
<g class="plotroot xscalable yscalable" id="img-5aad09a9-1">
  <g font-size="3.88" font-family="'PT Sans','Helvetica Neue','Helvetica',sans-serif" fill="#564A55" stroke="#000000" stroke-opacity="0.000" id="img-5aad09a9-2">
    <text x="82.33" y="89.99" text-anchor="middle" dy="0.6em">x</text>
  </g>
  <g class="guide xlabels" font-size="2.82" font-family="'PT Sans Caption','Helvetica Neue','Helvetica',sans-serif" fill="#6C606B" id="img-5aad09a9-3">
    <text x="19.27" y="83.31" text-anchor="middle" dy="0.6em">-6</text>
    <text x="40.29" y="83.31" text-anchor="middle" dy="0.6em">-4</text>
    <text x="61.31" y="83.31" text-anchor="middle" dy="0.6em">-2</text>
    <text x="82.33" y="83.31" text-anchor="middle" dy="0.6em">0</text>
    <text x="103.36" y="83.31" text-anchor="middle" dy="0.6em">2</text>
    <text x="124.38" y="83.31" text-anchor="middle" dy="0.6em">4</text>
    <text x="145.4" y="83.31" text-anchor="middle" dy="0.6em">6</text>
  </g>
<g clip-path="url(#img-5aad09a9-4)">
  <g id="img-5aad09a9-5">
    <g pointer-events="visible" opacity="1" fill="#000000" fill-opacity="0.000" stroke="#000000" stroke-opacity="0.000" class="guide background" id="img-5aad09a9-6">
      <rect x="17.27" y="5" width="130.13" height="77.31"/>
    </g>
    <g class="guide ygridlines xfixed" stroke-dasharray="0.5,0.5" stroke-width="0.2" stroke="#D0D0E0" id="img-5aad09a9-7">
      <path fill="none" d="M17.27,80.31 L 147.4 80.31"/>
      <path fill="none" d="M17.27,43.66 L 147.4 43.66"/>
      <path fill="none" d="M17.27,7 L 147.4 7"/>
    </g>
    <g class="guide xgridlines yfixed" stroke-dasharray="0.5,0.5" stroke-width="0.2" stroke="#D0D0E0" id="img-5aad09a9-8">
      <path fill="none" d="M19.27,5 L 19.27 82.31"/>
      <path fill="none" d="M40.29,5 L 40.29 82.31"/>
      <path fill="none" d="M61.31,5 L 61.31 82.31"/>
      <path fill="none" d="M82.33,5 L 82.33 82.31"/>
      <path fill="none" d="M103.36,5 L 103.36 82.31"/>
      <path fill="none" d="M124.38,5 L 124.38 82.31"/>
      <path fill="none" d="M145.4,5 L 145.4 82.31"/>
    </g>
    <g class="plotpanel" id="img-5aad09a9-9">
      <g class="geometry" id="img-5aad09a9-10">
        <g class="color_RGBA{Float32}(0.875f0,0.6171875f0,0.09765625f0,1.0f0)" stroke="#FFFFFF" stroke-width="0.3" fill="#DF9D19" id="img-5aad09a9-11">
          <use xlink:href="#img-5aad09a9-12" x="29.78" y="43.66"/>
          <use xlink:href="#img-5aad09a9-12" x="40.29" y="17.26"/>
          <use xlink:href="#img-5aad09a9-12" x="50.8" y="8.47"/>
          <use xlink:href="#img-5aad09a9-12" x="61.31" y="12.87"/>
          <use xlink:href="#img-5aad09a9-12" x="71.82" y="26.06"/>
          <use xlink:href="#img-5aad09a9-12" x="82.33" y="43.66"/>
          <use xlink:href="#img-5aad09a9-12" x="92.84" y="61.25"/>
          <use xlink:href="#img-5aad09a9-12" x="103.36" y="74.45"/>
          <use xlink:href="#img-5aad09a9-12" x="113.87" y="78.85"/>
          <use xlink:href="#img-5aad09a9-12" x="124.38" y="70.05"/>
          <use xlink:href="#img-5aad09a9-12" x="134.89" y="43.66"/>
        </g>
      </g>
      <g stroke-width="0.3" fill="#000000" fill-opacity="0.000" class="geometry" stroke-dasharray="none" stroke="#2D637F" id="img-5aad09a9-13">
        <path fill="none" d="M24.52,43.66 L 24.73 43.66 24.94 43.66 25.15 43.66 25.36 43.66 25.57 43.66 25.78 43.66 25.99 43.66 26.2 43.66 26.41 43.66 26.62 43.66 26.83 43.66 27.04 43.66 27.25 43.66 27.46 43.66 27.67 43.66 27.89 43.66 28.1 43.66 28.31 43.66 28.52 43.66 28.73 43.66 28.94 43.66 29.15 43.66 29.36 43.66 29.57 43.66 29.78 43.66 29.99 43.66 30.2 43.66 30.41 43.66 30.62 43.66 30.83 43.66 31.04 43.66 31.25 43.66 31.46 43.66 31.67 43.66 31.88 43.66 32.09 43.66 32.3 43.66 32.51 43.66 32.72 43.66 32.93 43.66 33.14 43.66 33.35 43.66 33.56 43.66 33.77 43.66 33.98 43.66 34.19 43.66 34.4 43.66 34.61 43.66 34.82 43.66 35.03 43.66 35.24 17.26 35.45 17.26 35.66 17.26 35.87 17.26 36.08 17.26 36.29 17.26 36.5 17.26 36.71 17.26 36.92 17.26 37.13 17.26 37.35 17.26 37.56 17.26 37.77 17.26 37.98 17.26 38.19 17.26 38.4 17.26 38.61 17.26 38.82 17.26 39.03 17.26 39.24 17.26 39.45 17.26 39.66 17.26 39.87 17.26 40.08 17.26 40.29 17.26 40.5 17.26 40.71 17.26 40.92 17.26 41.13 17.26 41.34 17.26 41.55 17.26 41.76 17.26 41.97 17.26 42.18 17.26 42.39 17.26 42.6 17.26 42.81 17.26 43.02 17.26 43.23 17.26 43.44 17.26 43.65 17.26 43.86 17.26 44.07 17.26 44.28 17.26 44.49 17.26 44.7 17.26 44.91 17.26 45.12 17.26 45.33 17.26 45.54 17.26 45.75 8.47 45.96 8.47 46.17 8.47 46.38 8.47 46.59 8.47 46.81 8.47 47.02 8.47 47.23 8.47 47.44 8.47 47.65 8.47 47.86 8.47 48.07 8.47 48.28 8.47 48.49 8.47 48.7 8.47 48.91 8.47 49.12 8.47 49.33 8.47 49.54 8.47 49.75 8.47 49.96 8.47 50.17 8.47 50.38 8.47 50.59 8.47 50.8 8.47 51.01 8.47 51.22 8.47 51.43 8.47 51.64 8.47 51.85 8.47 52.06 8.47 52.27 8.47 52.48 8.47 52.69 8.47 52.9 8.47 53.11 8.47 53.32 8.47 53.53 8.47 53.74 8.47 53.95 8.47 54.16 8.47 54.37 8.47 54.58 8.47 54.79 8.47 55 8.47 55.21 8.47 55.42 8.47 55.63 8.47 55.84 8.47 56.05 8.47 56.27 12.87 56.48 12.87 56.69 12.87 56.9 12.87 57.11 12.87 57.32 12.87 57.53 12.87 57.74 12.87 57.95 12.87 58.16 12.87 58.37 12.87 58.58 12.87 58.79 12.87 59 12.87 59.21 12.87 59.42 12.87 59.63 12.87 59.84 12.87 60.05 12.87 60.26 12.87 60.47 12.87 60.68 12.87 60.89 12.87 61.1 12.87 61.31 12.87 61.52 12.87 61.73 12.87 61.94 12.87 62.15 12.87 62.36 12.87 62.57 12.87 62.78 12.87 62.99 12.87 63.2 12.87 63.41 12.87 63.62 12.87 63.83 12.87 64.04 12.87 64.25 12.87 64.46 12.87 64.67 12.87 64.88 12.87 65.09 12.87 65.3 12.87 65.52 12.87 65.73 12.87 65.94 12.87 66.15 12.87 66.36 12.87 66.57 12.87 66.78 26.06 66.99 26.06 67.2 26.06 67.41 26.06 67.62 26.06 67.83 26.06 68.04 26.06 68.25 26.06 68.46 26.06 68.67 26.06 68.88 26.06 69.09 26.06 69.3 26.06 69.51 26.06 69.72 26.06 69.93 26.06 70.14 26.06 70.35 26.06 70.56 26.06 70.77 26.06 70.98 26.06 71.19 26.06 71.4 26.06 71.61 26.06 71.82 26.06 72.03 26.06 72.24 26.06 72.45 26.06 72.66 26.06 72.87 26.06 73.08 26.06 73.29 26.06 73.5 26.06 73.71 26.06 73.92 26.06 74.13 26.06 74.34 26.06 74.55 26.06 74.76 26.06 74.98 26.06 75.19 26.06 75.4 26.06 75.61 26.06 75.82 26.06 76.03 26.06 76.24 26.06 76.45 26.06 76.66 26.06 76.87 26.06 77.08 26.06 77.29 43.66 77.5 43.66 77.71 43.66 77.92 43.66 78.13 43.66 78.34 43.66 78.55 43.66 78.76 43.66 78.97 43.66 79.18 43.66 79.39 43.66 79.6 43.66 79.81 43.66 80.02 43.66 80.23 43.66 80.44 43.66 80.65 43.66 80.86 43.66 81.07 43.66 81.28 43.66 81.49 43.66 81.7 43.66 81.91 43.66 82.12 43.66 82.33 43.66 82.54 43.66 82.75 43.66 82.96 43.66 83.17 43.66 83.38 43.66 83.59 43.66 83.8 43.66 84.01 43.66 84.22 43.66 84.44 43.66 84.65 43.66 84.86 43.66 85.07 43.66 85.28 43.66 85.49 43.66 85.7 43.66 85.91 43.66 86.12 43.66 86.33 43.66 86.54 43.66 86.75 43.66 86.96 43.66 87.17 43.66 87.38 43.66 87.59 43.66 87.8 61.25 88.01 61.25 88.22 61.25 88.43 61.25 88.64 61.25 88.85 61.25 89.06 61.25 89.27 61.25 89.48 61.25 89.69 61.25 89.9 61.25 90.11 61.25 90.32 61.25 90.53 61.25 90.74 61.25 90.95 61.25 91.16 61.25 91.37 61.25 91.58 61.25 91.79 61.25 92 61.25 92.21 61.25 92.42 61.25 92.63 61.25 92.84 61.25 93.05 61.25 93.26 61.25 93.47 61.25 93.68 61.25 93.9 61.25 94.11 61.25 94.32 61.25 94.53 61.25 94.74 61.25 94.95 61.25 95.16 61.25 95.37 61.25 95.58 61.25 95.79 61.25 96 61.25 96.21 61.25 96.42 61.25 96.63 61.25 96.84 61.25 97.05 61.25 97.26 61.25 97.47 61.25 97.68 61.25 97.89 61.25 98.1 61.25 98.31 74.45 98.52 74.45 98.73 74.45 98.94 74.45 99.15 74.45 99.36 74.45 99.57 74.45 99.78 74.45 99.99 74.45 100.2 74.45 100.41 74.45 100.62 74.45 100.83 74.45 101.04 74.45 101.25 74.45 101.46 74.45 101.67 74.45 101.88 74.45 102.09 74.45 102.3 74.45 102.51 74.45 102.72 74.45 102.93 74.45 103.15 74.45 103.36 74.45 103.57 74.45 103.78 74.45 103.99 74.45 104.2 74.45 104.41 74.45 104.62 74.45 104.83 74.45 105.04 74.45 105.25 74.45 105.46 74.45 105.67 74.45 105.88 74.45 106.09 74.45 106.3 74.45 106.51 74.45 106.72 74.45 106.93 74.45 107.14 74.45 107.35 74.45 107.56 74.45 107.77 74.45 107.98 74.45 108.19 74.45 108.4 74.45 108.61 74.45 108.82 78.85 109.03 78.85 109.24 78.85 109.45 78.85 109.66 78.85 109.87 78.85 110.08 78.85 110.29 78.85 110.5 78.85 110.71 78.85 110.92 78.85 111.13 78.85 111.34 78.85 111.55 78.85 111.76 78.85 111.97 78.85 112.18 78.85 112.39 78.85 112.61 78.85 112.82 78.85 113.03 78.85 113.24 78.85 113.45 78.85 113.66 78.85 113.87 78.85 114.08 78.85 114.29 78.85 114.5 78.85 114.71 78.85 114.92 78.85 115.13 78.85 115.34 78.85 115.55 78.85 115.76 78.85 115.97 78.85 116.18 78.85 116.39 78.85 116.6 78.85 116.81 78.85 117.02 78.85 117.23 78.85 117.44 78.85 117.65 78.85 117.86 78.85 118.07 78.85 118.28 78.85 118.49 78.85 118.7 78.85 118.91 78.85 119.12 78.85 119.33 70.05 119.54 70.05 119.75 70.05 119.96 70.05 120.17 70.05 120.38 70.05 120.59 70.05 120.8 70.05 121.01 70.05 121.22 70.05 121.43 70.05 121.64 70.05 121.85 70.05 122.07 70.05 122.28 70.05 122.49 70.05 122.7 70.05 122.91 70.05 123.12 70.05 123.33 70.05 123.54 70.05 123.75 70.05 123.96 70.05 124.17 70.05 124.38 70.05 124.59 70.05 124.8 70.05 125.01 70.05 125.22 70.05 125.43 70.05 125.64 70.05 125.85 70.05 126.06 70.05 126.27 70.05 126.48 70.05 126.69 70.05 126.9 70.05 127.11 70.05 127.32 70.05 127.53 70.05 127.74 70.05 127.95 70.05 128.16 70.05 128.37 70.05 128.58 70.05 128.79 70.05 129 70.05 129.21 70.05 129.42 70.05 129.63 70.05 129.84 43.66 130.05 43.66 130.26 43.66 130.47 43.66 130.68 43.66 130.89 43.66 131.1 43.66 131.32 43.66 131.53 43.66 131.74 43.66 131.95 43.66 132.16 43.66 132.37 43.66 132.58 43.66 132.79 43.66 133 43.66 133.21 43.66 133.42 43.66 133.63 43.66 133.84 43.66 134.05 43.66 134.26 43.66 134.47 43.66 134.68 43.66 134.89 43.66 135.1 43.66 135.31 43.66 135.52 43.66 135.73 43.66 135.94 43.66 136.15 43.66 136.36 43.66 136.57 43.66 136.78 43.66 136.99 43.66 137.2 43.66 137.41 43.66 137.62 43.66 137.83 43.66 138.04 43.66 138.25 43.66 138.46 43.66 138.67 43.66 138.88 43.66 139.09 43.66 139.3 43.66 139.51 43.66 139.72 43.66 139.93 43.66 140.14 43.66"/>
      </g>
    </g>
  </g>
</g>
  <g class="guide ylabels" font-size="2.82" font-family="'PT Sans Caption','Helvetica Neue','Helvetica',sans-serif" fill="#6C606B" id="img-5aad09a9-14">
    <text x="16.27" y="80.31" text-anchor="end" dy="0.35em">-50</text>
    <text x="16.27" y="43.66" text-anchor="end" dy="0.35em">0</text>
    <text x="16.27" y="7" text-anchor="end" dy="0.35em">50</text>
  </g>
  <g font-size="3.88" font-family="'PT Sans','Helvetica Neue','Helvetica',sans-serif" fill="#564A55" stroke="#000000" stroke-opacity="0.000" id="img-5aad09a9-15">
    <text x="8.81" y="43.66" text-anchor="end" dy="0.35em">y</text>
  </g>
</g>
<defs>
  <clipPath id="img-5aad09a9-4">
  <path d="M17.27,5 L 147.4 5 147.4 82.31 17.27 82.31" />
</clipPath>
  <g id="img-5aad09a9-12">
    <circle cx="0" cy="0" r="0.9"/>
  </g>
</defs>
</svg>
