<?xml version="1.0" encoding="UTF-8"?>
<svg xmlns="http://www.w3.org/2000/svg"
     xmlns:xlink="http://www.w3.org/1999/xlink"
     xmlns:gadfly="http://www.gadflyjl.org/ns"
     version="1.2"
     width="152.4mm" height="101.6mm" viewBox="0 0 152.4 101.6"
     stroke="none"
     fill="#000000"
     stroke-width="0.3"
     font-size="3.88"
>
<g class="plotroot xscalable yscalable" id="img-e3020ded-1">
  <g font-size="3.88" font-family="'PT Sans','Helvetica Neue','Helvetica',sans-serif" fill="#564A55" stroke="#000000" stroke-opacity="0.000" id="img-e3020ded-2">
    <text x="81.5" y="89.99" text-anchor="middle" dy="0.6em">x</text>
  </g>
  <g class="guide xlabels" font-size="2.82" font-family="'PT Sans Caption','Helvetica Neue','Helvetica',sans-serif" fill="#6C606B" id="img-e3020ded-3">
    <text x="17.59" y="83.32" text-anchor="middle" dy="0.6em">-6</text>
    <text x="38.89" y="83.32" text-anchor="middle" dy="0.6em">-4</text>
    <text x="60.19" y="83.32" text-anchor="middle" dy="0.6em">-2</text>
    <text x="81.5" y="83.32" text-anchor="middle" dy="0.6em">0</text>
    <text x="102.8" y="83.32" text-anchor="middle" dy="0.6em">2</text>
    <text x="124.1" y="83.32" text-anchor="middle" dy="0.6em">4</text>
    <text x="145.4" y="83.32" text-anchor="middle" dy="0.6em">6</text>
  </g>
<g clip-path="url(#img-e3020ded-4)">
  <g id="img-e3020ded-5">
    <g pointer-events="visible" opacity="1" fill="#000000" fill-opacity="0.000" stroke="#000000" stroke-opacity="0.000" class="guide background" id="img-e3020ded-6">
      <rect x="15.59" y="5" width="131.81" height="77.32"/>
    </g>
    <g class="guide ygridlines xfixed" stroke-dasharray="0.5,0.5" stroke-width="0.2" stroke="#D0D0E0" id="img-e3020ded-7">
      <path fill="none" d="M15.59,80.32 L 147.4 80.32"/>
      <path fill="none" d="M15.59,68.1 L 147.4 68.1"/>
      <path fill="none" d="M15.59,55.88 L 147.4 55.88"/>
      <path fill="none" d="M15.59,43.66 L 147.4 43.66"/>
      <path fill="none" d="M15.59,31.44 L 147.4 31.44"/>
      <path fill="none" d="M15.59,19.22 L 147.4 19.22"/>
      <path fill="none" d="M15.59,7 L 147.4 7"/>
    </g>
    <g class="guide xgridlines yfixed" stroke-dasharray="0.5,0.5" stroke-width="0.2" stroke="#D0D0E0" id="img-e3020ded-8">
      <path fill="none" d="M17.59,5 L 17.59 82.32"/>
      <path fill="none" d="M38.89,5 L 38.89 82.32"/>
      <path fill="none" d="M60.19,5 L 60.19 82.32"/>
      <path fill="none" d="M81.5,5 L 81.5 82.32"/>
      <path fill="none" d="M102.8,5 L 102.8 82.32"/>
      <path fill="none" d="M124.1,5 L 124.1 82.32"/>
      <path fill="none" d="M145.4,5 L 145.4 82.32"/>
    </g>
    <g class="plotpanel" id="img-e3020ded-9">
      <g class="geometry" id="img-e3020ded-10">
        <g class="color_RGBA{Float32}(0.875f0,0.6171875f0,0.09765625f0,1.0f0)" stroke="#FFFFFF" stroke-width="0.3" fill="#DF9D19" id="img-e3020ded-11">
          <use xlink:href="#img-e3020ded-12" x="28.24" y="68.1"/>
          <use xlink:href="#img-e3020ded-12" x="38.89" y="55.88"/>
          <use xlink:href="#img-e3020ded-12" x="49.54" y="43.66"/>
          <use xlink:href="#img-e3020ded-12" x="60.19" y="31.44"/>
          <use xlink:href="#img-e3020ded-12" x="70.85" y="19.22"/>
          <use xlink:href="#img-e3020ded-12" x="81.5" y="68.1"/>
          <use xlink:href="#img-e3020ded-12" x="92.15" y="55.88"/>
          <use xlink:href="#img-e3020ded-12" x="102.8" y="43.66"/>
          <use xlink:href="#img-e3020ded-12" x="113.45" y="31.44"/>
          <use xlink:href="#img-e3020ded-12" x="124.1" y="19.22"/>
          <use xlink:href="#img-e3020ded-12" x="134.75" y="68.1"/>
        </g>
      </g>
      <g stroke-width="0.3" fill="#000000" fill-opacity="0.000" class="geometry" stroke-dasharray="none" stroke="#2D637F" id="img-e3020ded-13">
        <path fill="none" d="M22.92,68.1 L 23.13 68.1 23.34 68.1 23.56 68.1 23.77 68.1 23.98 68.1 24.2 68.1 24.41 68.1 24.62 68.1 24.83 68.1 25.05 68.1 25.26 68.1 25.47 68.1 25.69 68.1 25.9 68.1 26.11 68.1 26.33 68.1 26.54 68.1 26.75 68.1 26.97 68.1 27.18 68.1 27.39 68.1 27.6 68.1 27.82 68.1 28.03 68.1 28.24 68.1 28.46 68.1 28.67 68.1 28.88 68.1 29.1 68.1 29.31 68.1 29.52 68.1 29.73 68.1 29.95 68.1 30.16 68.1 30.37 68.1 30.59 68.1 30.8 68.1 31.01 68.1 31.23 68.1 31.44 68.1 31.65 68.1 31.86 68.1 32.08 68.1 32.29 68.1 32.5 68.1 32.72 68.1 32.93 68.1 33.14 68.1 33.36 68.1 33.57 68.1 33.78 55.88 33.99 55.88 34.21 55.88 34.42 55.88 34.63 55.88 34.85 55.88 35.06 55.88 35.27 55.88 35.49 55.88 35.7 55.88 35.91 55.88 36.12 55.88 36.34 55.88 36.55 55.88 36.76 55.88 36.98 55.88 37.19 55.88 37.4 55.88 37.62 55.88 37.83 55.88 38.04 55.88 38.25 55.88 38.47 55.88 38.68 55.88 38.89 55.88 39.11 55.88 39.32 55.88 39.53 55.88 39.75 55.88 39.96 55.88 40.17 55.88 40.38 55.88 40.6 55.88 40.81 55.88 41.02 55.88 41.24 55.88 41.45 55.88 41.66 55.88 41.88 55.88 42.09 55.88 42.3 55.88 42.51 55.88 42.73 55.88 42.94 55.88 43.15 55.88 43.37 55.88 43.58 55.88 43.79 55.88 44.01 55.88 44.22 55.88 44.43 43.66 44.65 43.66 44.86 43.66 45.07 43.66 45.28 43.66 45.5 43.66 45.71 43.66 45.92 43.66 46.14 43.66 46.35 43.66 46.56 43.66 46.78 43.66 46.99 43.66 47.2 43.66 47.41 43.66 47.63 43.66 47.84 43.66 48.05 43.66 48.27 43.66 48.48 43.66 48.69 43.66 48.91 43.66 49.12 43.66 49.33 43.66 49.54 43.66 49.76 43.66 49.97 43.66 50.18 43.66 50.4 43.66 50.61 43.66 50.82 43.66 51.04 43.66 51.25 43.66 51.46 43.66 51.67 43.66 51.89 43.66 52.1 43.66 52.31 43.66 52.53 43.66 52.74 43.66 52.95 43.66 53.17 43.66 53.38 43.66 53.59 43.66 53.8 43.66 54.02 43.66 54.23 43.66 54.44 43.66 54.66 43.66 54.87 43.66 55.08 31.44 55.3 31.44 55.51 31.44 55.72 31.44 55.93 31.44 56.15 31.44 56.36 31.44 56.57 31.44 56.79 31.44 57 31.44 57.21 31.44 57.43 31.44 57.64 31.44 57.85 31.44 58.06 31.44 58.28 31.44 58.49 31.44 58.7 31.44 58.92 31.44 59.13 31.44 59.34 31.44 59.56 31.44 59.77 31.44 59.98 31.44 60.19 31.44 60.41 31.44 60.62 31.44 60.83 31.44 61.05 31.44 61.26 31.44 61.47 31.44 61.69 31.44 61.9 31.44 62.11 31.44 62.33 31.44 62.54 31.44 62.75 31.44 62.96 31.44 63.18 31.44 63.39 31.44 63.6 31.44 63.82 31.44 64.03 31.44 64.24 31.44 64.46 31.44 64.67 31.44 64.88 31.44 65.09 31.44 65.31 31.44 65.52 31.44 65.73 19.22 65.95 19.22 66.16 19.22 66.37 19.22 66.59 19.22 66.8 19.22 67.01 19.22 67.22 19.22 67.44 19.22 67.65 19.22 67.86 19.22 68.08 19.22 68.29 19.22 68.5 19.22 68.72 19.22 68.93 19.22 69.14 19.22 69.35 19.22 69.57 19.22 69.78 19.22 69.99 19.22 70.21 19.22 70.42 19.22 70.63 19.22 70.85 19.22 71.06 19.22 71.27 19.22 71.48 19.22 71.7 19.22 71.91 19.22 72.12 19.22 72.34 19.22 72.55 19.22 72.76 19.22 72.98 19.22 73.19 19.22 73.4 19.22 73.61 19.22 73.83 19.22 74.04 19.22 74.25 19.22 74.47 19.22 74.68 19.22 74.89 19.22 75.11 19.22 75.32 19.22 75.53 19.22 75.74 19.22 75.96 19.22 76.17 19.22 76.38 68.1 76.6 68.1 76.81 68.1 77.02 68.1 77.24 68.1 77.45 68.1 77.66 68.1 77.88 68.1 78.09 68.1 78.3 68.1 78.51 68.1 78.73 68.1 78.94 68.1 79.15 68.1 79.37 68.1 79.58 68.1 79.79 68.1 80.01 68.1 80.22 68.1 80.43 68.1 80.64 68.1 80.86 68.1 81.07 68.1 81.28 68.1 81.5 68.1 81.71 68.1 81.92 68.1 82.14 68.1 82.35 68.1 82.56 68.1 82.77 68.1 82.99 68.1 83.2 68.1 83.41 68.1 83.63 68.1 83.84 68.1 84.05 68.1 84.27 68.1 84.48 68.1 84.69 68.1 84.9 68.1 85.12 68.1 85.33 68.1 85.54 68.1 85.76 68.1 85.97 68.1 86.18 68.1 86.4 68.1 86.61 68.1 86.82 68.1 87.03 55.88 87.25 55.88 87.46 55.88 87.67 55.88 87.89 55.88 88.1 55.88 88.31 55.88 88.53 55.88 88.74 55.88 88.95 55.88 89.16 55.88 89.38 55.88 89.59 55.88 89.8 55.88 90.02 55.88 90.23 55.88 90.44 55.88 90.66 55.88 90.87 55.88 91.08 55.88 91.29 55.88 91.51 55.88 91.72 55.88 91.93 55.88 92.15 55.88 92.36 55.88 92.57 55.88 92.79 55.88 93 55.88 93.21 55.88 93.42 55.88 93.64 55.88 93.85 55.88 94.06 55.88 94.28 55.88 94.49 55.88 94.7 55.88 94.92 55.88 95.13 55.88 95.34 55.88 95.56 55.88 95.77 55.88 95.98 55.88 96.19 55.88 96.41 55.88 96.62 55.88 96.83 55.88 97.05 55.88 97.26 55.88 97.47 55.88 97.69 43.66 97.9 43.66 98.11 43.66 98.32 43.66 98.54 43.66 98.75 43.66 98.96 43.66 99.18 43.66 99.39 43.66 99.6 43.66 99.82 43.66 100.03 43.66 100.24 43.66 100.45 43.66 100.67 43.66 100.88 43.66 101.09 43.66 101.31 43.66 101.52 43.66 101.73 43.66 101.95 43.66 102.16 43.66 102.37 43.66 102.58 43.66 102.8 43.66 103.01 43.66 103.22 43.66 103.44 43.66 103.65 43.66 103.86 43.66 104.08 43.66 104.29 43.66 104.5 43.66 104.71 43.66 104.93 43.66 105.14 43.66 105.35 43.66 105.57 43.66 105.78 43.66 105.99 43.66 106.21 43.66 106.42 43.66 106.63 43.66 106.84 43.66 107.06 43.66 107.27 43.66 107.48 43.66 107.7 43.66 107.91 43.66 108.12 43.66 108.34 31.44 108.55 31.44 108.76 31.44 108.97 31.44 109.19 31.44 109.4 31.44 109.61 31.44 109.83 31.44 110.04 31.44 110.25 31.44 110.47 31.44 110.68 31.44 110.89 31.44 111.1 31.44 111.32 31.44 111.53 31.44 111.74 31.44 111.96 31.44 112.17 31.44 112.38 31.44 112.6 31.44 112.81 31.44 113.02 31.44 113.24 31.44 113.45 31.44 113.66 31.44 113.87 31.44 114.09 31.44 114.3 31.44 114.51 31.44 114.73 31.44 114.94 31.44 115.15 31.44 115.37 31.44 115.58 31.44 115.79 31.44 116 31.44 116.22 31.44 116.43 31.44 116.64 31.44 116.86 31.44 117.07 31.44 117.28 31.44 117.5 31.44 117.71 31.44 117.92 31.44 118.13 31.44 118.35 31.44 118.56 31.44 118.77 31.44 118.99 19.22 119.2 19.22 119.41 19.22 119.63 19.22 119.84 19.22 120.05 19.22 120.26 19.22 120.48 19.22 120.69 19.22 120.9 19.22 121.12 19.22 121.33 19.22 121.54 19.22 121.76 19.22 121.97 19.22 122.18 19.22 122.39 19.22 122.61 19.22 122.82 19.22 123.03 19.22 123.25 19.22 123.46 19.22 123.67 19.22 123.89 19.22 124.1 19.22 124.31 19.22 124.52 19.22 124.74 19.22 124.95 19.22 125.16 19.22 125.38 19.22 125.59 19.22 125.8 19.22 126.02 19.22 126.23 19.22 126.44 19.22 126.65 19.22 126.87 19.22 127.08 19.22 127.29 19.22 127.51 19.22 127.72 19.22 127.93 19.22 128.15 19.22 128.36 19.22 128.57 19.22 128.79 19.22 129 19.22 129.21 19.22 129.42 19.22 129.64 68.1 129.85 68.1 130.06 68.1 130.28 68.1 130.49 68.1 130.7 68.1 130.92 68.1 131.13 68.1 131.34 68.1 131.55 68.1 131.77 68.1 131.98 68.1 132.19 68.1 132.41 68.1 132.62 68.1 132.83 68.1 133.05 68.1 133.26 68.1 133.47 68.1 133.68 68.1 133.9 68.1 134.11 68.1 134.32 68.1 134.54 68.1 134.75 68.1 134.96 68.1 135.18 68.1 135.39 68.1 135.6 68.1 135.81 68.1 136.03 68.1 136.24 68.1 136.45 68.1 136.67 68.1 136.88 68.1 137.09 68.1 137.31 68.1 137.52 68.1 137.73 68.1 137.94 68.1 138.16 68.1 138.37 68.1 138.58 68.1 138.8 68.1 139.01 68.1 139.22 68.1 139.44 68.1 139.65 68.1 139.86 68.1 140.07 68.1"/>
      </g>
    </g>
  </g>
</g>
  <g class="guide ylabels" font-size="2.82" font-family="'PT Sans Caption','Helvetica Neue','Helvetica',sans-serif" fill="#6C606B" id="img-e3020ded-14">
    <text x="14.59" y="80.32" text-anchor="end" dy="0.35em">-1</text>
    <text x="14.59" y="68.1" text-anchor="end" dy="0.35em">0</text>
    <text x="14.59" y="55.88" text-anchor="end" dy="0.35em">1</text>
    <text x="14.59" y="43.66" text-anchor="end" dy="0.35em">2</text>
    <text x="14.59" y="31.44" text-anchor="end" dy="0.35em">3</text>
    <text x="14.59" y="19.22" text-anchor="end" dy="0.35em">4</text>
    <text x="14.59" y="7" text-anchor="end" dy="0.35em">5</text>
  </g>
  <g font-size="3.88" font-family="'PT Sans','Helvetica Neue','Helvetica',sans-serif" fill="#564A55" stroke="#000000" stroke-opacity="0.000" id="img-e3020ded-15">
    <text x="8.81" y="43.66" text-anchor="end" dy="0.35em">y</text>
  </g>
</g>
<defs>
  <clipPath id="img-e3020ded-4">
  <path d="M15.59,5 L 147.4 5 147.4 82.32 15.59 82.32" />
</clipPath>
  <g id="img-e3020ded-12">
    <circle cx="0" cy="0" r="0.9"/>
  </g>
</defs>
</svg>
