<?xml version="1.0" encoding="UTF-8"?>
<svg xmlns="http://www.w3.org/2000/svg"
     xmlns:xlink="http://www.w3.org/1999/xlink"
     xmlns:gadfly="http://www.gadflyjl.org/ns"
     version="1.2"
     width="152.4mm" height="101.6mm" viewBox="0 0 152.4 101.6"
     stroke="none"
     fill="#000000"
     stroke-width="0.3"
     font-size="3.88"
>
<g class="plotroot xscalable yscalable" id="img-7188043e-1">
  <g font-size="3.88" font-family="'PT Sans','Helvetica Neue','Helvetica',sans-serif" fill="#564A55" stroke="#000000" stroke-opacity="0.000" id="img-7188043e-2">
    <text x="82.4" y="89.99" text-anchor="middle" dy="0.6em">x</text>
  </g>
  <g class="guide xlabels" font-size="2.82" font-family="'PT Sans Caption','Helvetica Neue','Helvetica',sans-serif" fill="#6C606B" id="img-7188043e-3">
    <text x="19.4" y="83.32" text-anchor="middle" dy="0.6em">-6</text>
    <text x="40.4" y="83.32" text-anchor="middle" dy="0.6em">-4</text>
    <text x="61.4" y="83.32" text-anchor="middle" dy="0.6em">-2</text>
    <text x="82.4" y="83.32" text-anchor="middle" dy="0.6em">0</text>
    <text x="103.4" y="83.32" text-anchor="middle" dy="0.6em">2</text>
    <text x="124.4" y="83.32" text-anchor="middle" dy="0.6em">4</text>
    <text x="145.4" y="83.32" text-anchor="middle" dy="0.6em">6</text>
  </g>
<g clip-path="url(#img-7188043e-4)">
  <g id="img-7188043e-5">
    <g pointer-events="visible" opacity="1" fill="#000000" fill-opacity="0.000" stroke="#000000" stroke-opacity="0.000" class="guide background" id="img-7188043e-6">
      <rect x="17.4" y="5" width="130" height="77.32"/>
    </g>
    <g class="guide ygridlines xfixed" stroke-dasharray="0.5,0.5" stroke-width="0.2" stroke="#D0D0E0" id="img-7188043e-7">
      <path fill="none" d="M17.4,80.32 L 147.4 80.32"/>
      <path fill="none" d="M17.4,68.1 L 147.4 68.1"/>
      <path fill="none" d="M17.4,55.88 L 147.4 55.88"/>
      <path fill="none" d="M17.4,43.66 L 147.4 43.66"/>
      <path fill="none" d="M17.4,31.44 L 147.4 31.44"/>
      <path fill="none" d="M17.4,19.22 L 147.4 19.22"/>
      <path fill="none" d="M17.4,7 L 147.4 7"/>
    </g>
    <g class="guide xgridlines yfixed" stroke-dasharray="0.5,0.5" stroke-width="0.2" stroke="#D0D0E0" id="img-7188043e-8">
      <path fill="none" d="M19.4,5 L 19.4 82.32"/>
      <path fill="none" d="M40.4,5 L 40.4 82.32"/>
      <path fill="none" d="M61.4,5 L 61.4 82.32"/>
      <path fill="none" d="M82.4,5 L 82.4 82.32"/>
      <path fill="none" d="M103.4,5 L 103.4 82.32"/>
      <path fill="none" d="M124.4,5 L 124.4 82.32"/>
      <path fill="none" d="M145.4,5 L 145.4 82.32"/>
    </g>
    <g class="plotpanel" id="img-7188043e-9">
      <g stroke-width="0.3" fill="#000000" fill-opacity="0.000" class="geometry" stroke-dasharray="none" stroke="#2D637F" id="img-7188043e-10">
        <path fill="none" d="M24.65,561.55 L 24.86 519.54 25.07 480.04 25.28 442.93 25.49 408.09 25.7 375.42 25.91 344.82 26.12 316.18 26.33 289.41 26.54 264.42 26.75 241.12 26.96 219.42 27.17 199.25 27.38 180.51 27.59 163.15 27.8 147.08 28.01 132.23 28.22 118.55 28.43 105.96 28.64 94.4 28.85 83.82 29.06 74.16 29.27 65.36 29.48 57.38 29.69 50.16 29.9 43.66 30.11 37.83 30.32 32.63 30.53 28.02 30.74 23.95 30.95 20.41 31.16 17.33 31.37 14.7 31.58 12.49 31.79 10.65 32 9.17 32.21 8 32.42 7.14 32.63 6.55 32.84 6.22 33.05 6.11 33.26 6.2 33.47 6.49 33.68 6.95 33.89 7.55 34.1 8.29 34.31 9.15 34.52 10.12 34.73 11.18 34.94 12.31 35.15 13.52 35.36 14.77 35.57 16.08 35.78 17.42 35.99 18.78 36.2 20.17 36.41 21.56 36.62 22.96 36.83 24.36 37.04 25.74 37.25 27.12 37.46 28.47 37.67 29.8 37.88 31.1 38.09 32.38 38.3 33.61 38.51 34.82 38.72 35.98 38.93 37.1 39.14 38.17 39.35 39.21 39.56 40.19 39.77 41.13 39.98 42.02 40.19 42.86 40.4 43.66 40.61 44.4 40.82 45.1 41.03 45.75 41.24 46.35 41.45 46.9 41.66 47.41 41.87 47.87 42.08 48.29 42.29 48.66 42.5 48.99 42.71 49.28 42.92 49.53 43.13 49.74 43.34 49.91 43.55 50.05 43.76 50.15 43.97 50.22 44.18 50.26 44.39 50.27 44.6 50.25 44.81 50.2 45.02 50.13 45.23 50.03 45.44 49.91 45.65 49.78 45.86 49.62 46.07 49.44 46.28 49.25 46.49 49.05 46.7 48.83 46.91 48.6 47.12 48.36 47.33 48.11 47.54 47.86 47.75 47.6 47.96 47.33 48.17 47.06 48.38 46.79 48.59 46.51 48.8 46.24 49.01 45.96 49.22 45.69 49.43 45.42 49.64 45.15 49.85 44.89 50.06 44.63 50.27 44.38 50.48 44.13 50.69 43.89 50.9 43.66 51.11 43.43 51.32 43.22 51.53 43.01 51.74 42.81 51.95 42.63 52.16 42.45 52.37 42.28 52.58 42.13 52.79 41.98 53 41.85 53.21 41.72 53.42 41.61 53.63 41.51 53.84 41.42 54.05 41.34 54.26 41.27 54.47 41.22 54.68 41.17 54.89 41.14 55.1 41.11 55.31 41.1 55.52 41.09 55.73 41.1 55.94 41.11 56.15 41.14 56.36 41.17 56.57 41.21 56.78 41.26 56.99 41.32 57.2 41.39 57.41 41.46 57.62 41.54 57.83 41.63 58.04 41.72 58.25 41.82 58.46 41.92 58.67 42.03 58.88 42.14 59.09 42.26 59.3 42.38 59.51 42.5 59.72 42.62 59.93 42.75 60.14 42.88 60.35 43.01 60.56 43.14 60.77 43.27 60.98 43.4 61.19 43.53 61.4 43.66 61.61 43.79 61.82 43.91 62.03 44.03 62.24 44.16 62.45 44.27 62.66 44.39 62.87 44.5 63.08 44.61 63.29 44.71 63.5 44.81 63.71 44.91 63.92 45 64.13 45.08 64.34 45.16 64.55 45.23 64.76 45.3 64.97 45.36 65.18 45.42 65.39 45.47 65.6 45.51 65.81 45.54 66.02 45.57 66.23 45.59 66.44 45.61 66.65 45.62 66.86 45.62 67.07 45.61 67.28 45.6 67.49 45.58 67.7 45.55 67.91 45.51 68.12 45.47 68.33 45.42 68.54 45.37 68.75 45.31 68.96 45.24 69.17 45.16 69.38 45.08 69.59 44.99 69.8 44.9 70.01 44.8 70.22 44.69 70.43 44.58 70.64 44.46 70.85 44.34 71.06 44.21 71.27 44.08 71.48 43.94 71.69 43.8 71.9 43.66 72.11 43.51 72.32 43.36 72.53 43.2 72.74 43.04 72.95 42.88 73.16 42.72 73.37 42.56 73.58 42.39 73.79 42.22 74 42.05 74.21 41.88 74.42 41.71 74.63 41.54 74.84 41.37 75.05 41.2 75.26 41.03 75.47 40.86 75.68 40.7 75.89 40.53 76.1 40.37 76.31 40.21 76.52 40.05 76.73 39.89 76.94 39.74 77.15 39.59 77.36 39.44 77.57 39.3 77.78 39.16 77.99 39.03 78.2 38.9 78.41 38.77 78.62 38.65 78.83 38.54 79.04 38.43 79.25 38.33 79.46 38.23 79.67 38.14 79.88 38.05 80.09 37.97 80.3 37.9 80.51 37.83 80.72 37.77 80.93 37.72 81.14 37.68 81.35 37.64 81.56 37.61 81.77 37.58 81.98 37.56 82.19 37.55 82.4 37.55 82.61 37.55 82.82 37.56 83.03 37.58 83.24 37.61 83.45 37.64 83.66 37.68 83.87 37.72 84.08 37.77 84.29 37.83 84.5 37.9 84.71 37.97 84.92 38.05 85.13 38.14 85.34 38.23 85.55 38.33 85.76 38.43 85.97 38.54 86.18 38.65 86.39 38.77 86.6 38.9 86.81 39.03 87.02 39.16 87.23 39.3 87.44 39.44 87.65 39.59 87.86 39.74 88.07 39.89 88.28 40.05 88.49 40.21 88.7 40.37 88.91 40.53 89.12 40.7 89.33 40.86 89.54 41.03 89.75 41.2 89.96 41.37 90.17 41.54 90.38 41.71 90.59 41.88 90.8 42.05 91.01 42.22 91.22 42.39 91.43 42.56 91.64 42.72 91.85 42.88 92.06 43.04 92.27 43.2 92.48 43.36 92.69 43.51 92.9 43.66 93.11 43.8 93.32 43.94 93.53 44.08 93.74 44.21 93.95 44.34 94.16 44.46 94.37 44.58 94.58 44.69 94.79 44.8 95 44.9 95.21 44.99 95.42 45.08 95.63 45.16 95.84 45.24 96.05 45.31 96.26 45.37 96.47 45.42 96.68 45.47 96.89 45.51 97.1 45.55 97.31 45.58 97.52 45.6 97.73 45.61 97.94 45.62 98.15 45.62 98.36 45.61 98.57 45.59 98.78 45.57 98.99 45.54 99.2 45.51 99.41 45.47 99.62 45.42 99.83 45.36 100.04 45.3 100.25 45.23 100.46 45.16 100.67 45.08 100.88 45 101.09 44.91 101.3 44.81 101.51 44.71 101.72 44.61 101.93 44.5 102.14 44.39 102.35 44.27 102.56 44.16 102.77 44.03 102.98 43.91 103.19 43.79 103.4 43.66 103.61 43.53 103.82 43.4 104.03 43.27 104.24 43.14 104.45 43.01 104.66 42.88 104.87 42.75 105.08 42.62 105.29 42.5 105.5 42.38 105.71 42.26 105.92 42.14 106.13 42.03 106.34 41.92 106.55 41.82 106.76 41.72 106.97 41.63 107.18 41.54 107.39 41.46 107.6 41.39 107.81 41.32 108.02 41.26 108.23 41.21 108.44 41.17 108.65 41.14 108.86 41.11 109.07 41.1 109.28 41.09 109.49 41.1 109.7 41.11 109.91 41.14 110.12 41.17 110.33 41.22 110.54 41.27 110.75 41.34 110.96 41.42 111.17 41.51 111.38 41.61 111.59 41.72 111.8 41.85 112.01 41.98 112.22 42.13 112.43 42.28 112.64 42.45 112.85 42.63 113.06 42.81 113.27 43.01 113.48 43.22 113.69 43.43 113.9 43.66 114.11 43.89 114.32 44.13 114.53 44.38 114.74 44.63 114.95 44.89 115.16 45.15 115.37 45.42 115.58 45.69 115.79 45.96 116 46.24 116.21 46.51 116.42 46.79 116.63 47.06 116.84 47.33 117.05 47.6 117.26 47.86 117.47 48.11 117.68 48.36 117.89 48.6 118.1 48.83 118.31 49.05 118.52 49.25 118.73 49.44 118.94 49.62 119.15 49.78 119.36 49.91 119.57 50.03 119.78 50.13 119.99 50.2 120.2 50.25 120.41 50.27 120.62 50.26 120.83 50.22 121.04 50.15 121.25 50.05 121.46 49.91 121.67 49.74 121.88 49.53 122.09 49.28 122.3 48.99 122.51 48.66 122.72 48.29 122.93 47.87 123.14 47.41 123.35 46.9 123.56 46.35 123.77 45.75 123.98 45.1 124.19 44.4 124.4 43.66 124.61 42.86 124.82 42.02 125.03 41.13 125.24 40.19 125.45 39.21 125.66 38.17 125.87 37.1 126.08 35.98 126.29 34.82 126.5 33.61 126.71 32.38 126.92 31.1 127.13 29.8 127.34 28.47 127.55 27.12 127.76 25.74 127.97 24.36 128.18 22.96 128.39 21.56 128.6 20.17 128.81 18.78 129.02 17.42 129.23 16.08 129.44 14.77 129.65 13.52 129.86 12.31 130.07 11.18 130.28 10.12 130.49 9.15 130.7 8.29 130.91 7.55 131.12 6.95 131.33 6.49 131.54 6.2 131.75 6.11 131.96 6.22 132.17 6.55 132.38 7.14 132.59 8 132.8 9.17 133.01 10.65 133.22 12.49 133.43 14.7 133.64 17.33 133.85 20.41 134.06 23.95 134.27 28.02 134.48 32.63 134.69 37.83 134.9 43.66 135.11 50.16 135.32 57.38 135.53 65.36 135.74 74.16 135.95 83.82 136.16 94.4 136.37 105.96 136.58 118.55 136.79 132.23 137 147.08 137.21 163.15 137.42 180.51 137.63 199.25 137.84 219.42 138.05 241.12 138.26 264.42 138.47 289.41 138.68 316.18 138.89 344.82 139.1 375.42 139.31 408.09 139.52 442.93 139.73 480.04 139.94 519.54 140.15 561.55"/>
      </g>
    </g>
  </g>
</g>
  <g class="guide ylabels" font-size="2.82" font-family="'PT Sans Caption','Helvetica Neue','Helvetica',sans-serif" fill="#6C606B" id="img-7188043e-11">
    <text x="16.4" y="80.32" text-anchor="end" dy="0.35em">-6</text>
    <text x="16.4" y="68.1" text-anchor="end" dy="0.35em">-4</text>
    <text x="16.4" y="55.88" text-anchor="end" dy="0.35em">-2</text>
    <text x="16.4" y="43.66" text-anchor="end" dy="0.35em">0</text>
    <text x="16.4" y="31.44" text-anchor="end" dy="0.35em">2</text>
    <text x="16.4" y="19.22" text-anchor="end" dy="0.35em">4</text>
    <text x="16.4" y="7" text-anchor="end" dy="0.35em">6</text>
  </g>
  <g font-size="3.88" font-family="'PT Sans','Helvetica Neue','Helvetica',sans-serif" fill="#564A55" stroke="#000000" stroke-opacity="0.000" id="img-7188043e-12">
    <text x="8.81" y="41.66" text-anchor="middle" dy="0.35em" transform="rotate(-90, 8.81, 43.66)">phi(x)</text>
  </g>
</g>
<defs>
  <clipPath id="img-7188043e-4">
  <path d="M17.4,5 L 147.4 5 147.4 82.32 17.4 82.32" />
</clipPath>
</defs>
</svg>
