<?xml version="1.0" encoding="UTF-8"?>
<svg xmlns="http://www.w3.org/2000/svg"
     xmlns:xlink="http://www.w3.org/1999/xlink"
     xmlns:gadfly="http://www.gadflyjl.org/ns"
     version="1.2"
     width="152.4mm" height="101.6mm" viewBox="0 0 152.4 101.6"
     stroke="none"
     fill="#000000"
     stroke-width="0.3"
     font-size="3.88"
>
<g class="plotroot xscalable yscalable" id="img-e5ace9b5-1">
  <g font-size="3.88" font-family="'PT Sans','Helvetica Neue','Helvetica',sans-serif" fill="#564A55" stroke="#000000" stroke-opacity="0.000" id="img-e5ace9b5-2">
    <text x="81.5" y="89.99" text-anchor="middle" dy="0.6em">x</text>
  </g>
  <g class="guide xlabels" font-size="2.82" font-family="'PT Sans Caption','Helvetica Neue','Helvetica',sans-serif" fill="#6C606B" id="img-e5ace9b5-3">
    <text x="17.59" y="83.32" text-anchor="middle" dy="0.6em">-6</text>
    <text x="38.89" y="83.32" text-anchor="middle" dy="0.6em">-4</text>
    <text x="60.19" y="83.32" text-anchor="middle" dy="0.6em">-2</text>
    <text x="81.5" y="83.32" text-anchor="middle" dy="0.6em">0</text>
    <text x="102.8" y="83.32" text-anchor="middle" dy="0.6em">2</text>
    <text x="124.1" y="83.32" text-anchor="middle" dy="0.6em">4</text>
    <text x="145.4" y="83.32" text-anchor="middle" dy="0.6em">6</text>
  </g>
<g clip-path="url(#img-e5ace9b5-4)">
  <g id="img-e5ace9b5-5">
    <g pointer-events="visible" opacity="1" fill="#000000" fill-opacity="0.000" stroke="#000000" stroke-opacity="0.000" class="guide background" id="img-e5ace9b5-6">
      <rect x="15.59" y="5" width="131.81" height="77.32"/>
    </g>
    <g class="guide ygridlines xfixed" stroke-dasharray="0.5,0.5" stroke-width="0.2" stroke="#D0D0E0" id="img-e5ace9b5-7">
      <path fill="none" d="M15.59,80.32 L 147.4 80.32"/>
      <path fill="none" d="M15.59,68.1 L 147.4 68.1"/>
      <path fill="none" d="M15.59,55.88 L 147.4 55.88"/>
      <path fill="none" d="M15.59,43.66 L 147.4 43.66"/>
      <path fill="none" d="M15.59,31.44 L 147.4 31.44"/>
      <path fill="none" d="M15.59,19.22 L 147.4 19.22"/>
      <path fill="none" d="M15.59,7 L 147.4 7"/>
    </g>
    <g class="guide xgridlines yfixed" stroke-dasharray="0.5,0.5" stroke-width="0.2" stroke="#D0D0E0" id="img-e5ace9b5-8">
      <path fill="none" d="M17.59,5 L 17.59 82.32"/>
      <path fill="none" d="M38.89,5 L 38.89 82.32"/>
      <path fill="none" d="M60.19,5 L 60.19 82.32"/>
      <path fill="none" d="M81.5,5 L 81.5 82.32"/>
      <path fill="none" d="M102.8,5 L 102.8 82.32"/>
      <path fill="none" d="M124.1,5 L 124.1 82.32"/>
      <path fill="none" d="M145.4,5 L 145.4 82.32"/>
    </g>
    <g class="plotpanel" id="img-e5ace9b5-9">
      <g class="geometry" id="img-e5ace9b5-10">
        <g class="color_RGBA{Float32}(0.875f0,0.6171875f0,0.09765625f0,1.0f0)" stroke="#FFFFFF" stroke-width="0.3" fill="#DF9D19" id="img-e5ace9b5-11">
          <use xlink:href="#img-e5ace9b5-12" x="28.24" y="68.1"/>
          <use xlink:href="#img-e5ace9b5-12" x="38.89" y="55.88"/>
          <use xlink:href="#img-e5ace9b5-12" x="49.54" y="43.66"/>
          <use xlink:href="#img-e5ace9b5-12" x="60.19" y="31.44"/>
          <use xlink:href="#img-e5ace9b5-12" x="70.85" y="19.22"/>
          <use xlink:href="#img-e5ace9b5-12" x="81.5" y="68.1"/>
          <use xlink:href="#img-e5ace9b5-12" x="92.15" y="55.88"/>
          <use xlink:href="#img-e5ace9b5-12" x="102.8" y="43.66"/>
          <use xlink:href="#img-e5ace9b5-12" x="113.45" y="31.44"/>
          <use xlink:href="#img-e5ace9b5-12" x="124.1" y="19.22"/>
          <use xlink:href="#img-e5ace9b5-12" x="134.75" y="68.1"/>
        </g>
      </g>
      <g stroke-width="0.3" fill="#000000" fill-opacity="0.000" class="geometry" stroke-dasharray="none" stroke="#2D637F" id="img-e5ace9b5-13">
        <path fill="none" d="M22.92,-2760.46 L 23.13 -2531.64 23.34 -2316.38 23.56 -2114.07 23.77 -1924.11 23.98 -1745.91 24.2 -1578.92 24.41 -1422.61 24.62 -1276.45 24.83 -1139.96 25.05 -1012.65 25.26 -894.07 25.47 -783.77 25.69 -681.33 25.9 -586.34 26.11 -498.41 26.33 -417.17 26.54 -342.25 26.75 -273.31 26.97 -210.01 27.18 -152.04 27.39 -99.1 27.6 -50.88 27.82 -7.12 28.03 32.45 28.24 68.1 28.46 100.05 28.67 128.56 28.88 153.83 29.1 176.08 29.31 195.51 29.52 212.32 29.73 226.69 29.95 238.79 30.16 248.8 30.37 256.86 30.59 263.13 30.8 267.75 31.01 270.85 31.23 272.57 31.44 273.02 31.65 272.32 31.86 270.58 32.08 267.9 32.29 264.37 32.5 260.09 32.72 255.13 32.93 249.59 33.14 243.54 33.36 237.04 33.57 230.16 33.78 222.97 33.99 215.52 34.21 207.87 34.42 200.06 34.63 192.14 34.85 184.15 35.06 176.14 35.27 168.13 35.49 160.17 35.7 152.27 35.91 144.48 36.12 136.81 36.34 129.29 36.55 121.93 36.76 114.76 36.98 107.8 37.19 101.04 37.4 94.52 37.62 88.23 37.83 82.19 38.04 76.4 38.25 70.87 38.47 65.6 38.68 60.61 38.89 55.88 39.11 51.42 39.32 47.23 39.53 43.31 39.75 39.65 39.96 36.26 40.17 33.13 40.38 30.25 40.6 27.63 40.81 25.25 41.02 23.11 41.24 21.2 41.45 19.52 41.66 18.06 41.88 16.81 42.09 15.76 42.3 14.91 42.51 14.25 42.73 13.76 42.94 13.45 43.15 13.29 43.37 13.29 43.58 13.44 43.79 13.72 44.01 14.12 44.22 14.65 44.43 15.28 44.65 16.01 44.86 16.84 45.07 17.75 45.28 18.74 45.5 19.79 45.71 20.91 45.92 22.08 46.14 23.29 46.35 24.54 46.56 25.83 46.78 27.13 46.99 28.46 47.2 29.79 47.41 31.13 47.63 32.47 47.84 33.8 48.05 35.13 48.27 36.43 48.48 37.71 48.69 38.97 48.91 40.2 49.12 41.39 49.33 42.54 49.54 43.66 49.76 44.73 49.97 45.75 50.18 46.72 50.4 47.63 50.61 48.49 50.82 49.3 51.04 50.04 51.25 50.73 51.46 51.35 51.67 51.91 51.89 52.41 52.1 52.84 52.31 53.21 52.53 53.51 52.74 53.75 52.95 53.92 53.17 54.03 53.38 54.08 53.59 54.06 53.8 53.98 54.02 53.84 54.23 53.64 54.44 53.38 54.66 53.06 54.87 52.68 55.08 52.26 55.3 51.78 55.51 51.25 55.72 50.67 55.93 50.04 56.15 49.37 56.36 48.66 56.57 47.91 56.79 47.12 57 46.29 57.21 45.43 57.43 44.55 57.64 43.63 57.85 42.69 58.06 41.73 58.28 40.75 58.49 39.75 58.7 38.73 58.92 37.71 59.13 36.67 59.34 35.63 59.56 34.58 59.77 33.53 59.98 32.48 60.19 31.44 60.41 30.4 60.62 29.37 60.83 28.35 61.05 27.34 61.26 26.35 61.47 25.37 61.69 24.41 61.9 23.48 62.11 22.57 62.33 21.68 62.54 20.82 62.75 19.99 62.96 19.19 63.18 18.43 63.39 17.69 63.6 17 63.82 16.34 64.03 15.71 64.24 15.13 64.46 14.59 64.67 14.09 64.88 13.63 65.09 13.22 65.31 12.85 65.52 12.52 65.73 12.24 65.95 12.01 66.16 11.82 66.37 11.68 66.59 11.59 66.8 11.54 67.01 11.54 67.22 11.59 67.44 11.68 67.65 11.83 67.86 12.01 68.08 12.25 68.29 12.53 68.5 12.86 68.72 13.23 68.93 13.64 69.14 14.1 69.35 14.6 69.57 15.14 69.78 15.73 69.99 16.35 70.21 17.01 70.42 17.71 70.63 18.45 70.85 19.22 71.06 20.02 71.27 20.86 71.48 21.73 71.7 22.63 71.91 23.55 72.12 24.51 72.34 25.48 72.55 26.49 72.76 27.51 72.98 28.55 73.19 29.61 73.4 30.69 73.61 31.79 73.83 32.9 74.04 34.02 74.25 35.15 74.47 36.29 74.68 37.43 74.89 38.58 75.11 39.74 75.32 40.89 75.53 42.05 75.74 43.2 75.96 44.35 76.17 45.49 76.38 46.63 76.6 47.76 76.81 48.88 77.02 49.98 77.24 51.08 77.45 52.16 77.66 53.22 77.88 54.26 78.09 55.29 78.3 56.29 78.51 57.27 78.73 58.23 78.94 59.17 79.15 60.08 79.37 60.96 79.58 61.81 79.79 62.64 80.01 63.44 80.22 64.2 80.43 64.93 80.64 65.63 80.86 66.3 81.07 66.93 81.28 67.53 81.5 68.1 81.71 68.62 81.92 69.11 82.14 69.57 82.35 69.99 82.56 70.37 82.77 70.71 82.99 71.02 83.2 71.28 83.41 71.51 83.63 71.71 83.84 71.86 84.05 71.98 84.27 72.06 84.48 72.11 84.69 72.11 84.9 72.09 85.12 72.02 85.33 71.92 85.54 71.79 85.76 71.62 85.97 71.42 86.18 71.19 86.4 70.93 86.61 70.63 86.82 70.31 87.03 69.95 87.25 69.57 87.46 69.17 87.67 68.73 87.89 68.27 88.1 67.79 88.31 67.29 88.53 66.76 88.74 66.22 88.95 65.65 89.16 65.07 89.38 64.47 89.59 63.86 89.8 63.24 90.02 62.6 90.23 61.95 90.44 61.3 90.66 60.63 90.87 59.96 91.08 59.28 91.29 58.6 91.51 57.92 91.72 57.24 91.93 56.56 92.15 55.88 92.36 55.2 92.57 54.53 92.79 53.86 93 53.2 93.21 52.55 93.42 51.91 93.64 51.28 93.85 50.66 94.06 50.06 94.28 49.47 94.49 48.89 94.7 48.34 94.92 47.8 95.13 47.27 95.34 46.77 95.56 46.29 95.77 45.83 95.98 45.39 96.19 44.97 96.41 44.57 96.62 44.2 96.83 43.86 97.05 43.53 97.26 43.24 97.47 42.96 97.69 42.71 97.9 42.49 98.11 42.3 98.32 42.12 98.54 41.98 98.75 41.86 98.96 41.76 99.18 41.69 99.39 41.64 99.6 41.62 99.82 41.62 100.03 41.65 100.24 41.69 100.45 41.76 100.67 41.85 100.88 41.96 101.09 42.09 101.31 42.23 101.52 42.39 101.73 42.57 101.95 42.77 102.16 42.97 102.37 43.19 102.58 43.42 102.8 43.66 103.01 43.9 103.22 44.16 103.44 44.41 103.65 44.67 103.86 44.93 104.08 45.19 104.29 45.45 104.5 45.71 104.71 45.96 104.93 46.2 105.14 46.43 105.35 46.65 105.57 46.86 105.78 47.06 105.99 47.23 106.21 47.39 106.42 47.53 106.63 47.64 106.84 47.73 107.06 47.8 107.27 47.84 107.48 47.84 107.7 47.82 107.91 47.76 108.12 47.67 108.34 47.55 108.55 47.38 108.76 47.18 108.97 46.94 109.19 46.66 109.4 46.33 109.61 45.96 109.83 45.55 110.04 45.09 110.25 44.58 110.47 44.03 110.68 43.43 110.89 42.78 111.1 42.09 111.32 41.35 111.53 40.56 111.74 39.73 111.96 38.85 112.17 37.92 112.38 36.94 112.6 35.93 112.81 34.87 113.02 33.76 113.24 32.62 113.45 31.44 113.66 30.22 113.87 28.97 114.09 27.68 114.3 26.37 114.51 25.03 114.73 23.66 114.94 22.28 115.15 20.88 115.37 19.46 115.58 18.03 115.79 16.6 116 15.17 116.22 13.74 116.43 12.32 116.64 10.91 116.86 9.52 117.07 8.16 117.28 6.82 117.5 5.52 117.71 4.26 117.92 3.05 118.13 1.89 118.35 0.79 118.56 -0.25 118.77 -1.21 118.99 -2.09 119.2 -2.88 119.41 -3.58 119.63 -4.17 119.84 -4.66 120.05 -5.03 120.26 -5.28 120.48 -5.4 120.69 -5.37 120.9 -5.21 121.12 -4.89 121.33 -4.41 121.54 -3.76 121.76 -2.94 121.97 -1.94 122.18 -0.76 122.39 0.62 122.61 2.2 122.82 3.98 123.03 5.98 123.25 8.18 123.46 10.6 123.67 13.25 123.89 16.12 124.1 19.22 124.31 22.55 124.52 26.1 124.74 29.89 124.95 33.91 125.16 38.15 125.38 42.63 125.59 47.32 125.8 52.23 126.02 57.35 126.23 62.67 126.44 68.19 126.65 73.89 126.87 79.76 127.08 85.79 127.29 91.96 127.51 98.25 127.72 104.66 127.93 111.14 128.15 117.68 128.36 124.26 128.57 130.84 128.79 137.4 129 143.89 129.21 150.29 129.42 156.55 129.64 162.62 129.85 168.47 130.06 174.04 130.28 179.28 130.49 184.12 130.7 188.52 130.92 192.4 131.13 195.69 131.34 198.31 131.55 200.2 131.77 201.26 131.98 201.4 132.19 200.53 132.41 198.54 132.62 195.34 132.83 190.8 133.05 184.82 133.26 177.25 133.47 167.98 133.68 156.86 133.9 143.74 134.11 128.47 134.32 110.89 134.54 90.83 134.75 68.1 134.96 42.51 135.18 13.88 135.39 -18 135.6 -53.36 135.81 -92.42 136.03 -135.41 136.24 -182.59 136.45 -234.22 136.67 -290.56 136.88 -351.9 137.09 -418.54 137.31 -490.78 137.52 -568.95 137.73 -653.38 137.94 -744.42 138.16 -842.43 138.37 -947.81 138.58 -1060.93 138.8 -1182.22 139.01 -1312.09 139.22 -1451 139.44 -1599.41 139.65 -1757.79 139.86 -1926.66 140.07 -2106.52"/>
      </g>
    </g>
  </g>
</g>
  <g class="guide ylabels" font-size="2.82" font-family="'PT Sans Caption','Helvetica Neue','Helvetica',sans-serif" fill="#6C606B" id="img-e5ace9b5-14">
    <text x="14.59" y="80.32" text-anchor="end" dy="0.35em">-1</text>
    <text x="14.59" y="68.1" text-anchor="end" dy="0.35em">0</text>
    <text x="14.59" y="55.88" text-anchor="end" dy="0.35em">1</text>
    <text x="14.59" y="43.66" text-anchor="end" dy="0.35em">2</text>
    <text x="14.59" y="31.44" text-anchor="end" dy="0.35em">3</text>
    <text x="14.59" y="19.22" text-anchor="end" dy="0.35em">4</text>
    <text x="14.59" y="7" text-anchor="end" dy="0.35em">5</text>
  </g>
  <g font-size="3.88" font-family="'PT Sans','Helvetica Neue','Helvetica',sans-serif" fill="#564A55" stroke="#000000" stroke-opacity="0.000" id="img-e5ace9b5-15">
    <text x="8.81" y="43.66" text-anchor="end" dy="0.35em">y</text>
  </g>
</g>
<defs>
  <clipPath id="img-e5ace9b5-4">
  <path d="M15.59,5 L 147.4 5 147.4 82.32 15.59 82.32" />
</clipPath>
  <g id="img-e5ace9b5-12">
    <circle cx="0" cy="0" r="0.9"/>
  </g>
</defs>
</svg>
