<?xml version="1.0" encoding="UTF-8"?>
<svg xmlns="http://www.w3.org/2000/svg"
     xmlns:xlink="http://www.w3.org/1999/xlink"
     xmlns:gadfly="http://www.gadflyjl.org/ns"
     version="1.2"
     width="152.4mm" height="101.6mm" viewBox="0 0 152.4 101.6"
     stroke="none"
     fill="#000000"
     stroke-width="0.3"
     font-size="3.88"
>
<g class="plotroot xscalable yscalable" id="img-5ba4b255-1">
  <g font-size="3.88" font-family="'PT Sans','Helvetica Neue','Helvetica',sans-serif" fill="#564A55" stroke="#000000" stroke-opacity="0.000" id="img-5ba4b255-2">
    <text x="75.66" y="89.99" text-anchor="middle" dy="0.6em">x</text>
  </g>
  <g class="guide xlabels" font-size="2.82" font-family="'PT Sans Caption','Helvetica Neue','Helvetica',sans-serif" fill="#6C606B" id="img-5ba4b255-3">
    <text x="19.4" y="83.32" text-anchor="middle" dy="0.6em">-6</text>
    <text x="38.15" y="83.32" text-anchor="middle" dy="0.6em">-4</text>
    <text x="56.91" y="83.32" text-anchor="middle" dy="0.6em">-2</text>
    <text x="75.66" y="83.32" text-anchor="middle" dy="0.6em">0</text>
    <text x="94.42" y="83.32" text-anchor="middle" dy="0.6em">2</text>
    <text x="113.17" y="83.32" text-anchor="middle" dy="0.6em">4</text>
    <text x="131.92" y="83.32" text-anchor="middle" dy="0.6em">6</text>
  </g>
  <g class="guide colorkey" id="img-5ba4b255-4">
    <g fill="#4C404B" font-size="2.82" font-family="'PT Sans','Helvetica Neue','Helvetica',sans-serif" id="img-5ba4b255-5">
      <text x="137.74" y="27.34" dy="0.35em" id="img-5ba4b255-6" class="color_-5.0">-5.0</text>
      <text x="137.74" y="30.96" dy="0.35em" id="img-5ba4b255-7" class="color_-4.0">-4.0</text>
      <text x="137.74" y="34.59" dy="0.35em" id="img-5ba4b255-8" class="color_-3.0">-3.0</text>
      <text x="137.74" y="38.22" dy="0.35em" id="img-5ba4b255-9" class="color_-2.0">-2.0</text>
      <text x="137.74" y="41.84" dy="0.35em" id="img-5ba4b255-10" class="color_-1.0">-1.0</text>
      <text x="137.74" y="45.47" dy="0.35em" id="img-5ba4b255-11" class="color_0.0">0.0</text>
      <text x="137.74" y="49.1" dy="0.35em" id="img-5ba4b255-12" class="color_1.0">1.0</text>
      <text x="137.74" y="52.72" dy="0.35em" id="img-5ba4b255-13" class="color_2.0">2.0</text>
      <text x="137.74" y="56.35" dy="0.35em" id="img-5ba4b255-14" class="color_3.0">3.0</text>
      <text x="137.74" y="59.98" dy="0.35em" id="img-5ba4b255-15" class="color_4.0">4.0</text>
      <text x="137.74" y="63.6" dy="0.35em" id="img-5ba4b255-16" class="color_5.0">5.0</text>
    </g>
    <g stroke="#000000" stroke-opacity="0.000" id="img-5ba4b255-17">
      <rect x="134.92" y="26.43" width="1.81" height="1.81" id="img-5ba4b255-18" class="color_-5.0" fill="#16313F"/>
      <rect x="134.92" y="30.06" width="1.81" height="1.81" id="img-5ba4b255-19" class="color_-4.0" fill="#1D4052"/>
      <rect x="134.92" y="33.68" width="1.81" height="1.81" id="img-5ba4b255-20" class="color_-3.0" fill="#244F65"/>
      <rect x="134.92" y="37.31" width="1.81" height="1.81" id="img-5ba4b255-21" class="color_-2.0" fill="#2B5E78"/>
      <rect x="134.92" y="40.94" width="1.81" height="1.81" id="img-5ba4b255-22" class="color_-1.0" fill="#316C8B"/>
      <rect x="134.92" y="44.56" width="1.81" height="1.81" id="img-5ba4b255-23" class="color_0.0" fill="#387B9E"/>
      <rect x="134.92" y="48.19" width="1.81" height="1.81" id="img-5ba4b255-24" class="color_1.0" fill="#3F8AB1"/>
      <rect x="134.92" y="51.82" width="1.81" height="1.81" id="img-5ba4b255-25" class="color_2.0" fill="#4599C4"/>
      <rect x="134.92" y="55.44" width="1.81" height="1.81" id="img-5ba4b255-26" class="color_3.0" fill="#4CA8D7"/>
      <rect x="134.92" y="59.07" width="1.81" height="1.81" id="img-5ba4b255-27" class="color_4.0" fill="#53B6EA"/>
      <rect x="134.92" y="62.7" width="1.81" height="1.81" id="img-5ba4b255-28" class="color_5.0" fill="#5AC5FD"/>
    </g>
    <g fill="#362A35" font-size="3.88" font-family="'PT Sans','Helvetica Neue','Helvetica',sans-serif" stroke="#000000" stroke-opacity="0.000" id="img-5ba4b255-29">
      <text x="134.92" y="23.52" id="img-5ba4b255-30">Position</text>
    </g>
  </g>
<g clip-path="url(#img-5ba4b255-31)">
  <g id="img-5ba4b255-32">
    <g pointer-events="visible" opacity="1" fill="#000000" fill-opacity="0.000" stroke="#000000" stroke-opacity="0.000" class="guide background" id="img-5ba4b255-33">
      <rect x="17.4" y="5" width="116.53" height="77.32" id="img-5ba4b255-34"/>
    </g>
    <g class="guide ygridlines xfixed" stroke-dasharray="0.5,0.5" stroke-width="0.2" stroke="#D0D0E0" id="img-5ba4b255-35">
      <path fill="none" d="M17.4,80.32 L 133.92 80.32" id="img-5ba4b255-36"/>
      <path fill="none" d="M17.4,68.1 L 133.92 68.1" id="img-5ba4b255-37"/>
      <path fill="none" d="M17.4,55.88 L 133.92 55.88" id="img-5ba4b255-38"/>
      <path fill="none" d="M17.4,43.66 L 133.92 43.66" id="img-5ba4b255-39"/>
      <path fill="none" d="M17.4,31.44 L 133.92 31.44" id="img-5ba4b255-40"/>
      <path fill="none" d="M17.4,19.22 L 133.92 19.22" id="img-5ba4b255-41"/>
      <path fill="none" d="M17.4,7 L 133.92 7" id="img-5ba4b255-42"/>
    </g>
    <g class="guide xgridlines yfixed" stroke-dasharray="0.5,0.5" stroke-width="0.2" stroke="#D0D0E0" id="img-5ba4b255-43">
      <path fill="none" d="M19.4,5 L 19.4 82.32" id="img-5ba4b255-44"/>
      <path fill="none" d="M38.15,5 L 38.15 82.32" id="img-5ba4b255-45"/>
      <path fill="none" d="M56.91,5 L 56.91 82.32" id="img-5ba4b255-46"/>
      <path fill="none" d="M75.66,5 L 75.66 82.32" id="img-5ba4b255-47"/>
      <path fill="none" d="M94.42,5 L 94.42 82.32" id="img-5ba4b255-48"/>
      <path fill="none" d="M113.17,5 L 113.17 82.32" id="img-5ba4b255-49"/>
      <path fill="none" d="M131.92,5 L 131.92 82.32" id="img-5ba4b255-50"/>
    </g>
    <g class="plotpanel" id="img-5ba4b255-51">
      <g stroke-width="0.3" fill="#000000" fill-opacity="0.000" stroke-dasharray="none" id="img-5ba4b255-52">
        <path fill="none" d="M24.09,21.05 L 24.27 22.1 24.46 23.1 24.65 24.07 24.84 25 25.02 25.88 25.21 26.74 25.4 27.56 25.59 28.34 25.77 29.09 25.96 29.81 26.15 30.51 26.34 31.17 26.53 31.8 26.71 32.41 26.9 32.99 27.09 33.54 27.28 34.07 27.46 34.58 27.65 35.07 27.84 35.53 28.03 35.97 28.21 36.39 28.4 36.8 28.59 37.18 28.78 37.55 28.96 37.9 29.15 38.23 29.34 38.55 29.53 38.85 29.71 39.14 29.9 39.41 30.09 39.67 30.28 39.92 30.46 40.15 30.65 40.37 30.84 40.58 31.03 40.78 31.21 40.97 31.4 41.15 31.59 41.32 31.78 41.48 31.96 41.64 32.15 41.78 32.34 41.92 32.53 42.04 32.71 42.16 32.9 42.28 33.09 42.39 33.28 42.49 33.46 42.58 33.65 42.67 33.84 42.75 34.03 42.83 34.21 42.91 34.4 42.97 34.59 43.04 34.78 43.1 34.96 43.15 35.15 43.21 35.34 43.25 35.53 43.3 35.71 43.34 35.9 43.38 36.09 43.42 36.28 43.45 36.46 43.48 36.65 43.51 36.84 43.53 37.03 43.56 37.22 43.58 37.4 43.6 37.59 43.61 37.78 43.63 37.97 43.64 38.15 43.66 38.34 43.67 38.53 43.68 38.72 43.69 38.9 43.7 39.09 43.7 39.28 43.71 39.47 43.71 39.65 43.72 39.84 43.72 40.03 43.72 40.22 43.73 40.4 43.73 40.59 43.73 40.78 43.73 40.97 43.73 41.15 43.73 41.34 43.73 41.53 43.73 41.72 43.73 41.9 43.72 42.09 43.72 42.28 43.72 42.47 43.72 42.65 43.72 42.84 43.71 43.03 43.71 43.22 43.71 43.4 43.71 43.59 43.7 43.78 43.7 43.97 43.7 44.15 43.7 44.34 43.69 44.53 43.69 44.72 43.69 44.9 43.69 45.09 43.68 45.28 43.68 45.47 43.68 45.65 43.68 45.84 43.67 46.03 43.67 46.22 43.67 46.4 43.67 46.59 43.67 46.78 43.66 46.97 43.66 47.15 43.66 47.34 43.66 47.53 43.66 47.72 43.66 47.91 43.65 48.09 43.65 48.28 43.65 48.47 43.65 48.66 43.65 48.84 43.65 49.03 43.65 49.22 43.65 49.41 43.65 49.59 43.65 49.78 43.65 49.97 43.65 50.16 43.65 50.34 43.65 50.53 43.65 50.72 43.65 50.91 43.65 51.09 43.65 51.28 43.65 51.47 43.65 51.66 43.65 51.84 43.65 52.03 43.65 52.22 43.65 52.41 43.65 52.59 43.65 52.78 43.65 52.97 43.65 53.16 43.65 53.34 43.65 53.53 43.65 53.72 43.65 53.91 43.65 54.09 43.65 54.28 43.65 54.47 43.65 54.66 43.65 54.84 43.65 55.03 43.65 55.22 43.65 55.41 43.65 55.59 43.65 55.78 43.66 55.97 43.66 56.16 43.66 56.34 43.66 56.53 43.66 56.72 43.66 56.91 43.66 57.09 43.66 57.28 43.66 57.47 43.66 57.66 43.66 57.84 43.66 58.03 43.66 58.22 43.66 58.41 43.66 58.6 43.66 58.78 43.66 58.97 43.66 59.16 43.66 59.35 43.66 59.53 43.66 59.72 43.66 59.91 43.66 60.1 43.66 60.28 43.66 60.47 43.66 60.66 43.66 60.85 43.66 61.03 43.66 61.22 43.66 61.41 43.66 61.6 43.66 61.78 43.66 61.97 43.66 62.16 43.66 62.35 43.66 62.53 43.66 62.72 43.66 62.91 43.66 63.1 43.66 63.28 43.66 63.47 43.66 63.66 43.66 63.85 43.66 64.03 43.66 64.22 43.66 64.41 43.66 64.6 43.66 64.78 43.66 64.97 43.66 65.16 43.66 65.35 43.66 65.53 43.66 65.72 43.66 65.91 43.66 66.1 43.66 66.28 43.66 66.47 43.66 66.66 43.66 66.85 43.66 67.03 43.66 67.22 43.66 67.41 43.66 67.6 43.66 67.78 43.66 67.97 43.66 68.16 43.66 68.35 43.66 68.53 43.66 68.72 43.66 68.91 43.66 69.1 43.66 69.29 43.66 69.47 43.66 69.66 43.66 69.85 43.66 70.04 43.66 70.22 43.66 70.41 43.66 70.6 43.66 70.79 43.66 70.97 43.66 71.16 43.66 71.35 43.66 71.54 43.66 71.72 43.66 71.91 43.66 72.1 43.66 72.29 43.66 72.47 43.66 72.66 43.66 72.85 43.66 73.04 43.66 73.22 43.66 73.41 43.66 73.6 43.66 73.79 43.66 73.97 43.66 74.16 43.66 74.35 43.66 74.54 43.66 74.72 43.66 74.91 43.66 75.1 43.66 75.29 43.66 75.47 43.66 75.66 43.66 75.85 43.66 76.04 43.66 76.22 43.66 76.41 43.66 76.6 43.66 76.79 43.66 76.97 43.66 77.16 43.66 77.35 43.66 77.54 43.66 77.72 43.66 77.91 43.66 78.1 43.66 78.29 43.66 78.47 43.66 78.66 43.66 78.85 43.66 79.04 43.66 79.23 43.66 79.41 43.66 79.6 43.66 79.79 43.66 79.98 43.66 80.16 43.66 80.35 43.66 80.54 43.66 80.73 43.66 80.91 43.66 81.1 43.66 81.29 43.66 81.48 43.66 81.66 43.66 81.85 43.66 82.04 43.66 82.23 43.66 82.41 43.66 82.6 43.66 82.79 43.66 82.98 43.66 83.16 43.66 83.35 43.66 83.54 43.66 83.73 43.66 83.91 43.66 84.1 43.66 84.29 43.66 84.48 43.66 84.66 43.66 84.85 43.66 85.04 43.66 85.23 43.66 85.41 43.66 85.6 43.66 85.79 43.66 85.98 43.66 86.16 43.66 86.35 43.66 86.54 43.66 86.73 43.66 86.91 43.66 87.1 43.66 87.29 43.66 87.48 43.66 87.66 43.66 87.85 43.66 88.04 43.66 88.23 43.66 88.41 43.66 88.6 43.66 88.79 43.66 88.98 43.66 89.16 43.66 89.35 43.66 89.54 43.66 89.73 43.66 89.92 43.66 90.1 43.66 90.29 43.66 90.48 43.66 90.67 43.66 90.85 43.66 91.04 43.66 91.23 43.66 91.42 43.66 91.6 43.66 91.79 43.66 91.98 43.66 92.17 43.66 92.35 43.66 92.54 43.66 92.73 43.66 92.92 43.66 93.1 43.66 93.29 43.66 93.48 43.66 93.67 43.66 93.85 43.66 94.04 43.66 94.23 43.66 94.42 43.66 94.6 43.66 94.79 43.66 94.98 43.66 95.17 43.66 95.35 43.66 95.54 43.66 95.73 43.66 95.92 43.66 96.1 43.66 96.29 43.66 96.48 43.66 96.67 43.66 96.85 43.66 97.04 43.66 97.23 43.66 97.42 43.66 97.6 43.66 97.79 43.66 97.98 43.66 98.17 43.66 98.35 43.66 98.54 43.66 98.73 43.66 98.92 43.66 99.1 43.66 99.29 43.66 99.48 43.66 99.67 43.66 99.85 43.66 100.04 43.66 100.23 43.66 100.42 43.66 100.61 43.66 100.79 43.66 100.98 43.66 101.17 43.66 101.36 43.66 101.54 43.66 101.73 43.66 101.92 43.66 102.11 43.66 102.29 43.66 102.48 43.66 102.67 43.66 102.86 43.66 103.04 43.66 103.23 43.66 103.42 43.66 103.61 43.66 103.79 43.66 103.98 43.66 104.17 43.66 104.36 43.66 104.54 43.66 104.73 43.66 104.92 43.66 105.11 43.65 105.29 43.65 105.48 43.65 105.67 43.65 105.86 43.65 106.04 43.65 106.23 43.65 106.42 43.65 106.61 43.65 106.79 43.65 106.98 43.65 107.17 43.65 107.36 43.65 107.54 43.65 107.73 43.65 107.92 43.65 108.11 43.65 108.29 43.65 108.48 43.65 108.67 43.65 108.86 43.65 109.04 43.65 109.23 43.65 109.42 43.65 109.61 43.65 109.79 43.65 109.98 43.65 110.17 43.65 110.36 43.65 110.54 43.65 110.73 43.65 110.92 43.65 111.11 43.65 111.3 43.65 111.48 43.65 111.67 43.65 111.86 43.65 112.05 43.65 112.23 43.65 112.42 43.65 112.61 43.65 112.8 43.65 112.98 43.66 113.17 43.66 113.36 43.66 113.55 43.66 113.73 43.66 113.92 43.66 114.11 43.67 114.3 43.67 114.48 43.67 114.67 43.67 114.86 43.67 115.05 43.68 115.23 43.68 115.42 43.68 115.61 43.68 115.8 43.69 115.98 43.69 116.17 43.69 116.36 43.69 116.55 43.7 116.73 43.7 116.92 43.7 117.11 43.7 117.3 43.71 117.48 43.71 117.67 43.71 117.86 43.71 118.05 43.72 118.23 43.72 118.42 43.72 118.61 43.72 118.8 43.72 118.98 43.73 119.17 43.73 119.36 43.73 119.55 43.73 119.73 43.73 119.92 43.73 120.11 43.73 120.3 43.73 120.48 43.73 120.67 43.72 120.86 43.72 121.05 43.72 121.23 43.71 121.42 43.71 121.61 43.7 121.8 43.7 121.99 43.69 122.17 43.68 122.36 43.67 122.55 43.66 122.74 43.64 122.92 43.63 123.11 43.61 123.3 43.6 123.49 43.58 123.67 43.56 123.86 43.53 124.05 43.51 124.24 43.48 124.42 43.45 124.61 43.42 124.8 43.38 124.99 43.34 125.17 43.3 125.36 43.25 125.55 43.21 125.74 43.15 125.92 43.1 126.11 43.04 126.3 42.97 126.49 42.91 126.67 42.83 126.86 42.75 127.05 42.67 127.24 42.58" id="img-5ba4b255-53" class="geometry color_-5.0" stroke="#16313F"/>
        <path fill="none" d="M24.09,119.01 L 24.27 113.58 24.46 108.42 24.65 103.51 24.84 98.86 25.02 94.44 25.21 90.25 25.4 86.28 25.59 82.52 25.77 78.97 25.96 75.6 26.15 72.43 26.34 69.43 26.53 66.61 26.71 63.95 26.9 61.44 27.09 59.09 27.28 56.88 27.46 54.8 27.65 52.86 27.84 51.05 28.03 49.35 28.21 47.77 28.4 46.3 28.59 44.93 28.78 43.66 28.96 42.48 29.15 41.4 29.34 40.4 29.53 39.48 29.71 38.63 29.9 37.86 30.09 37.16 30.28 36.53 30.46 35.96 30.65 35.45 30.84 34.99 31.03 34.58 31.21 34.23 31.4 33.92 31.59 33.65 31.78 33.43 31.96 33.24 32.15 33.1 32.34 32.98 32.53 32.9 32.71 32.85 32.9 32.82 33.09 32.82 33.28 32.85 33.46 32.89 33.65 32.96 33.84 33.05 34.03 33.15 34.21 33.27 34.4 33.4 34.59 33.55 34.78 33.71 34.96 33.88 35.15 34.06 35.34 34.25 35.53 34.45 35.71 34.65 35.9 34.86 36.09 35.07 36.28 35.29 36.46 35.51 36.65 35.73 36.84 35.96 37.03 36.19 37.22 36.41 37.4 36.64 37.59 36.87 37.78 37.1 37.97 37.32 38.15 37.55 38.34 37.77 38.53 37.99 38.72 38.21 38.9 38.42 39.09 38.63 39.28 38.84 39.47 39.05 39.65 39.25 39.84 39.44 40.03 39.64 40.22 39.82 40.4 40.01 40.59 40.19 40.78 40.36 40.97 40.53 41.15 40.69 41.34 40.85 41.53 41.01 41.72 41.16 41.9 41.3 42.09 41.44 42.28 41.58 42.47 41.71 42.65 41.84 42.84 41.96 43.03 42.07 43.22 42.19 43.4 42.29 43.59 42.4 43.78 42.49 43.97 42.59 44.15 42.68 44.34 42.76 44.53 42.84 44.72 42.92 44.9 42.99 45.09 43.06 45.28 43.13 45.47 43.19 45.65 43.25 45.84 43.3 46.03 43.35 46.22 43.4 46.4 43.45 46.59 43.49 46.78 43.53 46.97 43.56 47.15 43.6 47.34 43.63 47.53 43.66 47.72 43.68 47.91 43.71 48.09 43.73 48.28 43.75 48.47 43.77 48.66 43.78 48.84 43.79 49.03 43.81 49.22 43.82 49.41 43.83 49.59 43.83 49.78 43.84 49.97 43.84 50.16 43.85 50.34 43.85 50.53 43.85 50.72 43.85 50.91 43.85 51.09 43.85 51.28 43.85 51.47 43.84 51.66 43.84 51.84 43.83 52.03 43.83 52.22 43.82 52.41 43.82 52.59 43.81 52.78 43.81 52.97 43.8 53.16 43.79 53.34 43.79 53.53 43.78 53.72 43.77 53.91 43.76 54.09 43.76 54.28 43.75 54.47 43.74 54.66 43.73 54.84 43.73 55.03 43.72 55.22 43.71 55.41 43.71 55.59 43.7 55.78 43.69 55.97 43.69 56.16 43.68 56.34 43.67 56.53 43.67 56.72 43.66 56.91 43.66 57.09 43.65 57.28 43.65 57.47 43.64 57.66 43.64 57.84 43.64 58.03 43.63 58.22 43.63 58.41 43.63 58.6 43.62 58.78 43.62 58.97 43.62 59.16 43.62 59.35 43.61 59.53 43.61 59.72 43.61 59.91 43.61 60.1 43.61 60.28 43.61 60.47 43.61 60.66 43.61 60.85 43.61 61.03 43.61 61.22 43.61 61.41 43.61 61.6 43.61 61.78 43.61 61.97 43.61 62.16 43.61 62.35 43.62 62.53 43.62 62.72 43.62 62.91 43.62 63.1 43.62 63.28 43.62 63.47 43.63 63.66 43.63 63.85 43.63 64.03 43.63 64.22 43.63 64.41 43.64 64.6 43.64 64.78 43.64 64.97 43.64 65.16 43.65 65.35 43.65 65.53 43.65 65.72 43.65 65.91 43.65 66.1 43.66 66.28 43.66 66.47 43.66 66.66 43.66 66.85 43.66 67.03 43.66 67.22 43.67 67.41 43.67 67.6 43.67 67.78 43.67 67.97 43.67 68.16 43.67 68.35 43.67 68.53 43.68 68.72 43.68 68.91 43.68 69.1 43.68 69.29 43.68 69.47 43.68 69.66 43.68 69.85 43.68 70.04 43.68 70.22 43.68 70.41 43.68 70.6 43.68 70.79 43.68 70.97 43.68 71.16 43.68 71.35 43.68 71.54 43.68 71.72 43.68 71.91 43.68 72.1 43.68 72.29 43.68 72.47 43.68 72.66 43.68 72.85 43.67 73.04 43.67 73.22 43.67 73.41 43.67 73.6 43.67 73.79 43.67 73.97 43.67 74.16 43.67 74.35 43.67 74.54 43.66 74.72 43.66 74.91 43.66 75.1 43.66 75.29 43.66 75.47 43.66 75.66 43.66 75.85 43.66 76.04 43.66 76.22 43.65 76.41 43.65 76.6 43.65 76.79 43.65 76.97 43.65 77.16 43.65 77.35 43.65 77.54 43.65 77.72 43.65 77.91 43.64 78.1 43.64 78.29 43.64 78.47 43.64 78.66 43.64 78.85 43.64 79.04 43.64 79.23 43.64 79.41 43.64 79.6 43.64 79.79 43.64 79.98 43.64 80.16 43.64 80.35 43.64 80.54 43.64 80.73 43.64 80.91 43.64 81.1 43.64 81.29 43.64 81.48 43.64 81.66 43.64 81.85 43.64 82.04 43.64 82.23 43.64 82.41 43.64 82.6 43.64 82.79 43.65 82.98 43.65 83.16 43.65 83.35 43.65 83.54 43.65 83.73 43.65 83.91 43.65 84.1 43.65 84.29 43.65 84.48 43.65 84.66 43.66 84.85 43.66 85.04 43.66 85.23 43.66 85.41 43.66 85.6 43.66 85.79 43.66 85.98 43.66 86.16 43.66 86.35 43.67 86.54 43.67 86.73 43.67 86.91 43.67 87.1 43.67 87.29 43.67 87.48 43.67 87.66 43.67 87.85 43.67 88.04 43.67 88.23 43.68 88.41 43.68 88.6 43.68 88.79 43.68 88.98 43.68 89.16 43.68 89.35 43.68 89.54 43.68 89.73 43.68 89.92 43.68 90.1 43.68 90.29 43.68 90.48 43.68 90.67 43.68 90.85 43.68 91.04 43.68 91.23 43.68 91.42 43.68 91.6 43.68 91.79 43.68 91.98 43.67 92.17 43.67 92.35 43.67 92.54 43.67 92.73 43.67 92.92 43.67 93.1 43.67 93.29 43.67 93.48 43.67 93.67 43.66 93.85 43.66 94.04 43.66 94.23 43.66 94.42 43.66 94.6 43.66 94.79 43.65 94.98 43.65 95.17 43.65 95.35 43.65 95.54 43.65 95.73 43.64 95.92 43.64 96.1 43.64 96.29 43.64 96.48 43.64 96.67 43.64 96.85 43.63 97.04 43.63 97.23 43.63 97.42 43.63 97.6 43.63 97.79 43.63 97.98 43.62 98.17 43.62 98.35 43.62 98.54 43.62 98.73 43.62 98.92 43.62 99.1 43.62 99.29 43.62 99.48 43.62 99.67 43.62 99.85 43.62 100.04 43.62 100.23 43.62 100.42 43.62 100.61 43.62 100.79 43.62 100.98 43.62 101.17 43.62 101.36 43.62 101.54 43.62 101.73 43.63 101.92 43.63 102.11 43.63 102.29 43.63 102.48 43.63 102.67 43.64 102.86 43.64 103.04 43.64 103.23 43.65 103.42 43.65 103.61 43.65 103.79 43.66 103.98 43.66 104.17 43.67 104.36 43.67 104.54 43.67 104.73 43.68 104.92 43.68 105.11 43.69 105.29 43.69 105.48 43.7 105.67 43.7 105.86 43.71 106.04 43.71 106.23 43.72 106.42 43.72 106.61 43.73 106.79 43.73 106.98 43.74 107.17 43.74 107.36 43.75 107.54 43.75 107.73 43.76 107.92 43.76 108.11 43.76 108.29 43.77 108.48 43.77 108.67 43.77 108.86 43.78 109.04 43.78 109.23 43.78 109.42 43.78 109.61 43.78 109.79 43.78 109.98 43.78 110.17 43.78 110.36 43.78 110.54 43.78 110.73 43.77 110.92 43.77 111.11 43.77 111.3 43.76 111.48 43.75 111.67 43.75 111.86 43.74 112.05 43.73 112.23 43.72 112.42 43.71 112.61 43.7 112.8 43.69 112.98 43.67 113.17 43.66 113.36 43.64 113.55 43.62 113.73 43.61 113.92 43.59 114.11 43.57 114.3 43.55 114.48 43.53 114.67 43.5 114.86 43.48 115.05 43.45 115.23 43.43 115.42 43.4 115.61 43.37 115.8 43.35 115.98 43.32 116.17 43.29 116.36 43.26 116.55 43.23 116.73 43.2 116.92 43.17 117.11 43.14 117.3 43.11 117.48 43.08 117.67 43.05 117.86 43.02 118.05 43 118.23 42.97 118.42 42.95 118.61 42.93 118.8 42.91 118.98 42.89 119.17 42.88 119.36 42.86 119.55 42.86 119.73 42.85 119.92 42.85 120.11 42.86 120.3 42.87 120.48 42.89 120.67 42.91 120.86 42.94 121.05 42.98 121.23 43.03 121.42 43.08 121.61 43.15 121.8 43.23 121.99 43.31 122.17 43.42 122.36 43.53 122.55 43.66 122.74 43.8 122.92 43.96 123.11 44.14 123.3 44.33 123.49 44.55 123.67 44.79 123.86 45.05 124.05 45.33 124.24 45.64 124.42 45.98 124.61 46.34 124.8 46.74 124.99 47.16 125.17 47.63 125.36 48.12 125.55 48.66 125.74 49.23 125.92 49.85 126.11 50.51 126.3 51.22 126.49 51.98 126.67 52.79 126.86 53.65 127.05 54.57 127.24 55.56" id="img-5ba4b255-54" class="geometry color_-4.0" stroke="#1D4052"/>
        <path fill="none" d="M24.09,-159.8 L 24.27 -144.12 24.46 -129.3 24.65 -115.3 24.84 -102.1 25.02 -89.64 25.21 -77.91 25.4 -66.87 25.59 -56.49 25.77 -46.74 25.96 -37.6 26.15 -29.03 26.34 -21.01 26.53 -13.51 26.71 -6.51 26.9 0.01 27.09 6.07 27.28 11.71 27.46 16.94 27.65 21.77 27.84 26.24 28.03 30.35 28.21 34.14 28.4 37.6 28.59 40.77 28.78 43.66 28.96 46.28 29.15 48.64 29.34 50.77 29.53 52.67 29.71 54.37 29.9 55.86 30.09 57.17 30.28 58.3 30.46 59.27 30.65 60.08 30.84 60.75 31.03 61.29 31.21 61.71 31.4 62 31.59 62.2 31.78 62.29 31.96 62.29 32.15 62.21 32.34 62.04 32.53 61.81 32.71 61.52 32.9 61.16 33.09 60.76 33.28 60.3 33.46 59.8 33.65 59.27 33.84 58.7 34.03 58.11 34.21 57.48 34.4 56.84 34.59 56.18 34.78 55.51 34.96 54.82 35.15 54.13 35.34 53.43 35.53 52.73 35.71 52.02 35.9 51.32 36.09 50.63 36.28 49.93 36.46 49.25 36.65 48.58 36.84 47.91 37.03 47.26 37.22 46.62 37.4 46 37.59 45.39 37.78 44.79 37.97 44.22 38.15 43.66 38.34 43.12 38.53 42.59 38.72 42.09 38.9 41.61 39.09 41.15 39.28 40.7 39.47 40.28 39.65 39.88 39.84 39.49 40.03 39.13 40.22 38.79 40.4 38.47 40.59 38.17 40.78 37.89 40.97 37.62 41.15 37.38 41.34 37.16 41.53 36.95 41.72 36.77 41.9 36.6 42.09 36.45 42.28 36.31 42.47 36.19 42.65 36.09 42.84 36.01 43.03 35.94 43.22 35.88 43.4 35.84 43.59 35.82 43.78 35.8 43.97 35.8 44.15 35.81 44.34 35.84 44.53 35.87 44.72 35.92 44.9 35.97 45.09 36.04 45.28 36.11 45.47 36.2 45.65 36.29 45.84 36.39 46.03 36.49 46.22 36.61 46.4 36.73 46.59 36.85 46.78 36.98 46.97 37.12 47.15 37.26 47.34 37.4 47.53 37.55 47.72 37.7 47.91 37.85 48.09 38.01 48.28 38.16 48.47 38.32 48.66 38.48 48.84 38.65 49.03 38.81 49.22 38.97 49.41 39.13 49.59 39.29 49.78 39.46 49.97 39.62 50.16 39.78 50.34 39.94 50.53 40.09 50.72 40.25 50.91 40.4 51.09 40.55 51.28 40.7 51.47 40.85 51.66 40.99 51.84 41.13 52.03 41.27 52.22 41.41 52.41 41.54 52.59 41.67 52.78 41.8 52.97 41.92 53.16 42.04 53.34 42.15 53.53 42.26 53.72 42.37 53.91 42.48 54.09 42.58 54.28 42.68 54.47 42.77 54.66 42.86 54.84 42.95 55.03 43.03 55.22 43.11 55.41 43.18 55.59 43.25 55.78 43.32 55.97 43.39 56.16 43.45 56.34 43.51 56.53 43.56 56.72 43.61 56.91 43.66 57.09 43.7 57.28 43.74 57.47 43.78 57.66 43.82 57.84 43.85 58.03 43.88 58.22 43.9 58.41 43.93 58.6 43.95 58.78 43.97 58.97 43.98 59.16 44 59.35 44.01 59.53 44.02 59.72 44.03 59.91 44.03 60.1 44.03 60.28 44.04 60.47 44.04 60.66 44.04 60.85 44.03 61.03 44.03 61.22 44.02 61.41 44.02 61.6 44.01 61.78 44 61.97 43.99 62.16 43.98 62.35 43.97 62.53 43.95 62.72 43.94 62.91 43.93 63.1 43.91 63.28 43.9 63.47 43.88 63.66 43.87 63.85 43.85 64.03 43.84 64.22 43.82 64.41 43.81 64.6 43.79 64.78 43.77 64.97 43.76 65.16 43.74 65.35 43.73 65.53 43.71 65.72 43.7 65.91 43.68 66.1 43.67 66.28 43.66 66.47 43.64 66.66 43.63 66.85 43.62 67.03 43.61 67.22 43.6 67.41 43.59 67.6 43.58 67.78 43.57 67.97 43.56 68.16 43.55 68.35 43.55 68.53 43.54 68.72 43.53 68.91 43.53 69.1 43.52 69.29 43.52 69.47 43.52 69.66 43.51 69.85 43.51 70.04 43.51 70.22 43.51 70.41 43.51 70.6 43.51 70.79 43.51 70.97 43.51 71.16 43.51 71.35 43.52 71.54 43.52 71.72 43.52 71.91 43.53 72.1 43.53 72.29 43.54 72.47 43.54 72.66 43.55 72.85 43.55 73.04 43.56 73.22 43.56 73.41 43.57 73.6 43.58 73.79 43.58 73.97 43.59 74.16 43.6 74.35 43.61 74.54 43.61 74.72 43.62 74.91 43.63 75.1 43.64 75.29 43.64 75.47 43.65 75.66 43.66 75.85 43.66 76.04 43.67 76.22 43.68 76.41 43.69 76.6 43.69 76.79 43.7 76.97 43.7 77.16 43.71 77.35 43.72 77.54 43.72 77.72 43.73 77.91 43.73 78.1 43.74 78.29 43.74 78.47 43.74 78.66 43.75 78.85 43.75 79.04 43.75 79.23 43.76 79.41 43.76 79.6 43.76 79.79 43.76 79.98 43.76 80.16 43.76 80.35 43.76 80.54 43.76 80.73 43.76 80.91 43.76 81.1 43.76 81.29 43.76 81.48 43.75 81.66 43.75 81.85 43.75 82.04 43.74 82.23 43.74 82.41 43.74 82.6 43.73 82.79 43.73 82.98 43.72 83.16 43.72 83.35 43.71 83.54 43.71 83.73 43.7 83.91 43.7 84.1 43.69 84.29 43.68 84.48 43.68 84.66 43.67 84.85 43.66 85.04 43.66 85.23 43.65 85.41 43.64 85.6 43.64 85.79 43.63 85.98 43.62 86.16 43.62 86.35 43.61 86.54 43.61 86.73 43.6 86.91 43.59 87.1 43.59 87.29 43.58 87.48 43.58 87.66 43.57 87.85 43.57 88.04 43.56 88.23 43.56 88.41 43.56 88.6 43.55 88.79 43.55 88.98 43.55 89.16 43.55 89.35 43.54 89.54 43.54 89.73 43.54 89.92 43.54 90.1 43.54 90.29 43.54 90.48 43.54 90.67 43.54 90.85 43.54 91.04 43.55 91.23 43.55 91.42 43.55 91.6 43.56 91.79 43.56 91.98 43.56 92.17 43.57 92.35 43.57 92.54 43.58 92.73 43.59 92.92 43.59 93.1 43.6 93.29 43.61 93.48 43.61 93.67 43.62 93.85 43.63 94.04 43.64 94.23 43.65 94.42 43.66 94.6 43.67 94.79 43.68 94.98 43.69 95.17 43.7 95.35 43.71 95.54 43.72 95.73 43.72 95.92 43.73 96.1 43.74 96.29 43.75 96.48 43.76 96.67 43.77 96.85 43.78 97.04 43.79 97.23 43.8 97.42 43.81 97.6 43.82 97.79 43.82 97.98 43.83 98.17 43.84 98.35 43.84 98.54 43.85 98.73 43.85 98.92 43.86 99.1 43.86 99.29 43.86 99.48 43.87 99.67 43.87 99.85 43.87 100.04 43.87 100.23 43.87 100.42 43.87 100.61 43.86 100.79 43.86 100.98 43.85 101.17 43.85 101.36 43.84 101.54 43.83 101.73 43.82 101.92 43.81 102.11 43.8 102.29 43.79 102.48 43.78 102.67 43.76 102.86 43.75 103.04 43.73 103.23 43.71 103.42 43.7 103.61 43.68 103.79 43.66 103.98 43.64 104.17 43.62 104.36 43.59 104.54 43.57 104.73 43.55 104.92 43.52 105.11 43.5 105.29 43.47 105.48 43.45 105.67 43.42 105.86 43.39 106.04 43.37 106.23 43.34 106.42 43.31 106.61 43.29 106.79 43.26 106.98 43.24 107.17 43.21 107.36 43.19 107.54 43.17 107.73 43.14 107.92 43.12 108.11 43.1 108.29 43.09 108.48 43.07 108.67 43.05 108.86 43.04 109.04 43.03 109.23 43.02 109.42 43.02 109.61 43.01 109.79 43.01 109.98 43.01 110.17 43.02 110.36 43.03 110.54 43.04 110.73 43.05 110.92 43.07 111.11 43.1 111.3 43.13 111.48 43.16 111.67 43.19 111.86 43.23 112.05 43.28 112.23 43.33 112.42 43.39 112.61 43.45 112.8 43.51 112.98 43.58 113.17 43.66 113.36 43.74 113.55 43.83 113.73 43.92 113.92 44.01 114.11 44.12 114.3 44.22 114.48 44.34 114.67 44.45 114.86 44.58 115.05 44.7 115.23 44.83 115.42 44.97 115.61 45.11 115.8 45.25 115.98 45.4 116.17 45.55 116.36 45.7 116.55 45.85 116.73 46 116.92 46.15 117.11 46.3 117.3 46.45 117.48 46.6 117.67 46.75 117.86 46.89 118.05 47.02 118.23 47.15 118.42 47.27 118.61 47.38 118.8 47.48 118.98 47.57 119.17 47.64 119.36 47.7 119.55 47.73 119.73 47.75 119.92 47.75 120.11 47.71 120.3 47.66 120.48 47.57 120.67 47.45 120.86 47.29 121.05 47.09 121.23 46.85 121.42 46.57 121.61 46.23 121.8 45.84 121.99 45.4 122.17 44.88 122.36 44.31 122.55 43.66 122.74 42.93 122.92 42.12 123.11 41.22 123.3 40.23 123.49 39.14 123.67 37.94 123.86 36.63 124.05 35.2 124.24 33.64 124.42 31.95 124.61 30.11 124.8 28.12 124.99 25.96 125.17 23.64 125.36 21.14 125.55 18.45 125.74 15.56 125.92 12.46 126.11 9.13 126.3 5.57 126.49 1.77 126.67 -2.3 126.86 -6.64 127.05 -11.26 127.24 -16.18" id="img-5ba4b255-55" class="geometry color_-3.0" stroke="#244F65"/>
        <path fill="none" d="M24.09,431.19 L 24.27 400.51 24.46 371.58 24.65 344.33 24.84 318.68 25.02 294.57 25.21 271.93 25.4 250.68 25.59 230.76 25.77 212.11 25.96 194.68 26.15 178.39 26.34 163.2 26.53 149.05 26.71 135.9 26.9 123.69 27.09 112.36 27.28 101.89 27.46 92.22 27.65 83.31 27.84 75.12 28.03 67.61 28.21 60.75 28.4 54.49 28.59 48.8 28.78 43.66 28.96 39.02 29.15 34.86 29.34 31.14 29.53 27.85 29.71 24.95 29.9 22.42 30.09 20.23 30.28 18.36 30.46 16.79 30.65 15.5 30.84 14.47 31.03 13.67 31.21 13.09 31.4 12.72 31.59 12.53 31.78 12.51 31.96 12.65 32.15 12.93 32.34 13.34 32.53 13.86 32.71 14.49 32.9 15.21 33.09 16.01 33.28 16.89 33.46 17.82 33.65 18.81 33.84 19.85 34.03 20.92 34.21 22.02 34.4 23.15 34.59 24.29 34.78 25.45 34.96 26.61 35.15 27.77 35.34 28.93 35.53 30.08 35.71 31.22 35.9 32.34 36.09 33.45 36.28 34.53 36.46 35.58 36.65 36.61 36.84 37.61 37.03 38.58 37.22 39.52 37.4 40.42 37.59 41.29 37.78 42.11 37.97 42.9 38.15 43.66 38.34 44.37 38.53 45.05 38.72 45.68 38.9 46.27 39.09 46.83 39.28 47.35 39.47 47.82 39.65 48.26 39.84 48.66 40.03 49.02 40.22 49.34 40.4 49.63 40.59 49.88 40.78 50.1 40.97 50.28 41.15 50.43 41.34 50.55 41.53 50.64 41.72 50.69 41.9 50.72 42.09 50.72 42.28 50.69 42.47 50.64 42.65 50.56 42.84 50.46 43.03 50.33 43.22 50.19 43.4 50.02 43.59 49.84 43.78 49.64 43.97 49.43 44.15 49.19 44.34 48.95 44.53 48.69 44.72 48.42 44.9 48.14 45.09 47.85 45.28 47.55 45.47 47.24 45.65 46.93 45.84 46.61 46.03 46.29 46.22 45.97 46.4 45.64 46.59 45.31 46.78 44.98 46.97 44.64 47.15 44.31 47.34 43.98 47.53 43.66 47.72 43.33 47.91 43.01 48.09 42.7 48.28 42.38 48.47 42.08 48.66 41.78 48.84 41.48 49.03 41.19 49.22 40.91 49.41 40.64 49.59 40.38 49.78 40.12 49.97 39.87 50.16 39.63 50.34 39.4 50.53 39.18 50.72 38.97 50.91 38.77 51.09 38.58 51.28 38.4 51.47 38.23 51.66 38.07 51.84 37.92 52.03 37.79 52.22 37.66 52.41 37.54 52.59 37.43 52.78 37.34 52.97 37.25 53.16 37.17 53.34 37.11 53.53 37.05 53.72 37.01 53.91 36.97 54.09 36.94 54.28 36.93 54.47 36.92 54.66 36.92 54.84 36.93 55.03 36.95 55.22 36.97 55.41 37.01 55.59 37.05 55.78 37.1 55.97 37.16 56.16 37.22 56.34 37.3 56.53 37.37 56.72 37.46 56.91 37.55 57.09 37.64 57.28 37.74 57.47 37.85 57.66 37.96 57.84 38.08 58.03 38.2 58.22 38.32 58.41 38.44 58.6 38.57 58.78 38.71 58.97 38.84 59.16 38.98 59.35 39.12 59.53 39.26 59.72 39.4 59.91 39.55 60.1 39.69 60.28 39.84 60.47 39.99 60.66 40.13 60.85 40.28 61.03 40.42 61.22 40.57 61.41 40.71 61.6 40.86 61.78 41 61.97 41.14 62.16 41.28 62.35 41.42 62.53 41.56 62.72 41.69 62.91 41.82 63.1 41.95 63.28 42.08 63.47 42.2 63.66 42.32 63.85 42.44 64.03 42.55 64.22 42.66 64.41 42.77 64.6 42.88 64.78 42.98 64.97 43.08 65.16 43.17 65.35 43.26 65.53 43.35 65.72 43.43 65.91 43.51 66.1 43.59 66.28 43.66 66.47 43.73 66.66 43.79 66.85 43.85 67.03 43.91 67.22 43.96 67.41 44.01 67.6 44.05 67.78 44.09 67.97 44.13 68.16 44.17 68.35 44.2 68.53 44.23 68.72 44.25 68.91 44.27 69.1 44.29 69.29 44.3 69.47 44.31 69.66 44.32 69.85 44.33 70.04 44.33 70.22 44.33 70.41 44.33 70.6 44.32 70.79 44.31 70.97 44.3 71.16 44.29 71.35 44.28 71.54 44.26 71.72 44.24 71.91 44.22 72.1 44.2 72.29 44.18 72.47 44.16 72.66 44.13 72.85 44.11 73.04 44.08 73.22 44.05 73.41 44.02 73.6 43.99 73.79 43.96 73.97 43.93 74.16 43.9 74.35 43.87 74.54 43.84 74.72 43.81 74.91 43.78 75.1 43.75 75.29 43.72 75.47 43.69 75.66 43.66 75.85 43.63 76.04 43.6 76.22 43.57 76.41 43.55 76.6 43.52 76.79 43.5 76.97 43.47 77.16 43.45 77.35 43.43 77.54 43.41 77.72 43.39 77.91 43.37 78.1 43.36 78.29 43.34 78.47 43.33 78.66 43.31 78.85 43.3 79.04 43.29 79.23 43.29 79.41 43.28 79.6 43.27 79.79 43.27 79.98 43.27 80.16 43.27 80.35 43.27 80.54 43.27 80.73 43.28 80.91 43.28 81.1 43.29 81.29 43.3 81.48 43.31 81.66 43.32 81.85 43.33 82.04 43.34 82.23 43.35 82.41 43.37 82.6 43.39 82.79 43.4 82.98 43.42 83.16 43.44 83.35 43.46 83.54 43.48 83.73 43.5 83.91 43.52 84.1 43.54 84.29 43.57 84.48 43.59 84.66 43.61 84.85 43.63 85.04 43.66 85.23 43.68 85.41 43.7 85.6 43.73 85.79 43.75 85.98 43.77 86.16 43.79 86.35 43.82 86.54 43.84 86.73 43.86 86.91 43.88 87.1 43.9 87.29 43.92 87.48 43.93 87.66 43.95 87.85 43.97 88.04 43.98 88.23 44 88.41 44.01 88.6 44.02 88.79 44.03 88.98 44.04 89.16 44.04 89.35 44.05 89.54 44.05 89.73 44.06 89.92 44.06 90.1 44.06 90.29 44.06 90.48 44.05 90.67 44.05 90.85 44.04 91.04 44.04 91.23 44.03 91.42 44.01 91.6 44 91.79 43.99 91.98 43.97 92.17 43.96 92.35 43.94 92.54 43.92 92.73 43.9 92.92 43.87 93.1 43.85 93.29 43.83 93.48 43.8 93.67 43.77 93.85 43.75 94.04 43.72 94.23 43.69 94.42 43.66 94.6 43.63 94.79 43.6 94.98 43.56 95.17 43.53 95.35 43.5 95.54 43.47 95.73 43.43 95.92 43.4 96.1 43.37 96.29 43.34 96.48 43.31 96.67 43.28 96.85 43.25 97.04 43.22 97.23 43.19 97.42 43.16 97.6 43.14 97.79 43.11 97.98 43.09 98.17 43.07 98.35 43.05 98.54 43.03 98.73 43.02 98.92 43 99.1 42.99 99.29 42.98 99.48 42.98 99.67 42.97 99.85 42.97 100.04 42.97 100.23 42.98 100.42 42.98 100.61 42.99 100.79 43.01 100.98 43.02 101.17 43.04 101.36 43.07 101.54 43.09 101.73 43.12 101.92 43.15 102.11 43.19 102.29 43.23 102.48 43.27 102.67 43.32 102.86 43.37 103.04 43.42 103.23 43.47 103.42 43.53 103.61 43.59 103.79 43.66 103.98 43.72 104.17 43.79 104.36 43.86 104.54 43.94 104.73 44.01 104.92 44.09 105.11 44.17 105.29 44.25 105.48 44.33 105.67 44.41 105.86 44.5 106.04 44.58 106.23 44.66 106.42 44.74 106.61 44.83 106.79 44.91 106.98 44.99 107.17 45.06 107.36 45.14 107.54 45.21 107.73 45.28 107.92 45.34 108.11 45.4 108.29 45.46 108.48 45.51 108.67 45.56 108.86 45.6 109.04 45.63 109.23 45.66 109.42 45.67 109.61 45.69 109.79 45.69 109.98 45.68 110.17 45.66 110.36 45.63 110.54 45.59 110.73 45.54 110.92 45.48 111.11 45.41 111.3 45.32 111.48 45.22 111.67 45.11 111.86 44.98 112.05 44.84 112.23 44.68 112.42 44.51 112.61 44.32 112.8 44.11 112.98 43.89 113.17 43.66 113.36 43.4 113.55 43.14 113.73 42.85 113.92 42.55 114.11 42.23 114.3 41.9 114.48 41.55 114.67 41.19 114.86 40.81 115.05 40.42 115.23 40.01 115.42 39.6 115.61 39.17 115.8 38.73 115.98 38.28 116.17 37.83 116.36 37.37 116.55 36.9 116.73 36.43 116.92 35.97 117.11 35.5 117.3 35.04 117.48 34.59 117.67 34.15 117.86 33.72 118.05 33.31 118.23 32.92 118.42 32.56 118.61 32.22 118.8 31.92 118.98 31.66 119.17 31.44 119.36 31.27 119.55 31.16 119.73 31.11 119.92 31.13 120.11 31.23 120.3 31.41 120.48 31.69 120.67 32.06 120.86 32.55 121.05 33.15 121.23 33.89 121.42 34.77 121.61 35.79 121.8 36.99 121.99 38.36 122.17 39.91 122.36 41.68 122.55 43.66 122.74 45.87 122.92 48.34 123.11 51.07 123.3 54.08 123.49 57.4 123.67 61.03 123.86 65.01 124.05 69.36 124.24 74.09 124.42 79.23 124.61 84.8 124.8 90.82 124.99 97.34 125.17 104.36 125.36 111.93 125.55 120.06 125.74 128.8 125.92 138.17 126.11 148.2 126.3 158.94 126.49 170.42 126.67 182.68 126.86 195.75 127.05 209.68 127.24 224.51" id="img-5ba4b255-56" class="geometry color_-2.0" stroke="#2B5E78"/>
        <path fill="none" d="M24.09,-483.82 L 24.27 -441.43 24.46 -401.53 24.65 -364.01 24.84 -328.75 25.02 -295.65 25.21 -264.61 25.4 -235.53 25.59 -208.33 25.77 -182.9 25.96 -159.16 26.15 -137.04 26.34 -116.44 26.53 -97.29 26.71 -79.51 26.9 -63.05 27.09 -47.82 27.28 -33.75 27.46 -20.8 27.65 -8.89 27.84 2.02 28.03 12.01 28.21 21.11 28.4 29.39 28.59 36.89 28.78 43.66 28.96 49.74 29.15 55.17 29.34 60 29.53 64.26 29.71 68 29.9 71.25 30.09 74.04 30.28 76.4 30.46 78.36 30.65 79.97 30.84 81.23 31.03 82.18 31.21 82.84 31.4 83.25 31.59 83.41 31.78 83.35 31.96 83.09 32.15 82.66 32.34 82.06 32.53 81.31 32.71 80.44 32.9 79.46 33.09 78.37 33.28 77.2 33.46 75.95 33.65 74.64 33.84 73.28 34.03 71.88 34.21 70.45 34.4 68.99 34.59 67.52 34.78 66.04 34.96 64.56 35.15 63.08 35.34 61.62 35.53 60.17 35.71 58.75 35.9 57.35 36.09 55.98 36.28 54.64 36.46 53.34 36.65 52.08 36.84 50.87 37.03 49.69 37.22 48.56 37.4 47.48 37.59 46.45 37.78 45.47 37.97 44.54 38.15 43.66 38.34 42.83 38.53 42.05 38.72 41.32 38.9 40.65 39.09 40.02 39.28 39.44 39.47 38.92 39.65 38.44 39.84 38.01 40.03 37.62 40.22 37.28 40.4 36.99 40.59 36.74 40.78 36.53 40.97 36.36 41.15 36.23 41.34 36.13 41.53 36.07 41.72 36.05 41.9 36.05 42.09 36.09 42.28 36.16 42.47 36.25 42.65 36.37 42.84 36.52 43.03 36.69 43.22 36.87 43.4 37.08 43.59 37.31 43.78 37.55 43.97 37.81 44.15 38.07 44.34 38.36 44.53 38.65 44.72 38.95 44.9 39.25 45.09 39.57 45.28 39.89 45.47 40.21 45.65 40.53 45.84 40.86 46.03 41.18 46.22 41.51 46.4 41.83 46.59 42.15 46.78 42.46 46.97 42.77 47.15 43.07 47.34 43.37 47.53 43.66 47.72 43.94 47.91 44.21 48.09 44.47 48.28 44.73 48.47 44.97 48.66 45.2 48.84 45.42 49.03 45.63 49.22 45.82 49.41 46 49.59 46.17 49.78 46.33 49.97 46.48 50.16 46.61 50.34 46.72 50.53 46.83 50.72 46.92 50.91 46.99 51.09 47.06 51.28 47.11 51.47 47.14 51.66 47.17 51.84 47.18 52.03 47.17 52.22 47.16 52.41 47.13 52.59 47.09 52.78 47.04 52.97 46.97 53.16 46.9 53.34 46.81 53.53 46.72 53.72 46.61 53.91 46.49 54.09 46.37 54.28 46.23 54.47 46.09 54.66 45.94 54.84 45.78 55.03 45.61 55.22 45.44 55.41 45.26 55.59 45.08 55.78 44.89 55.97 44.69 56.16 44.49 56.34 44.29 56.53 44.08 56.72 43.87 56.91 43.66 57.09 43.44 57.28 43.23 57.47 43.01 57.66 42.79 57.84 42.57 58.03 42.35 58.22 42.14 58.41 41.92 58.6 41.7 58.78 41.49 58.97 41.28 59.16 41.07 59.35 40.87 59.53 40.67 59.72 40.47 59.91 40.27 60.1 40.08 60.28 39.9 60.47 39.72 60.66 39.54 60.85 39.37 61.03 39.21 61.22 39.05 61.41 38.9 61.6 38.76 61.78 38.62 61.97 38.49 62.16 38.37 62.35 38.25 62.53 38.14 62.72 38.04 62.91 37.94 63.1 37.85 63.28 37.77 63.47 37.7 63.66 37.64 63.85 37.58 64.03 37.53 64.22 37.49 64.41 37.46 64.6 37.44 64.78 37.42 64.97 37.41 65.16 37.41 65.35 37.41 65.53 37.42 65.72 37.44 65.91 37.47 66.1 37.51 66.28 37.55 66.47 37.6 66.66 37.65 66.85 37.71 67.03 37.78 67.22 37.85 67.41 37.93 67.6 38.02 67.78 38.11 67.97 38.21 68.16 38.31 68.35 38.41 68.53 38.52 68.72 38.64 68.91 38.76 69.1 38.88 69.29 39.01 69.47 39.14 69.66 39.27 69.85 39.41 70.04 39.54 70.22 39.68 70.41 39.83 70.6 39.97 70.79 40.12 70.97 40.27 71.16 40.41 71.35 40.56 71.54 40.71 71.72 40.86 71.91 41.01 72.1 41.16 72.29 41.31 72.47 41.46 72.66 41.61 72.85 41.75 73.04 41.9 73.22 42.04 73.41 42.18 73.6 42.32 73.79 42.46 73.97 42.59 74.16 42.72 74.35 42.85 74.54 42.98 74.72 43.1 74.91 43.22 75.1 43.33 75.29 43.45 75.47 43.55 75.66 43.66 75.85 43.76 76.04 43.85 76.22 43.94 76.41 44.03 76.6 44.11 76.79 44.19 76.97 44.26 77.16 44.33 77.35 44.4 77.54 44.46 77.72 44.51 77.91 44.56 78.1 44.61 78.29 44.65 78.47 44.68 78.66 44.71 78.85 44.74 79.04 44.76 79.23 44.78 79.41 44.79 79.6 44.8 79.79 44.8 79.98 44.8 80.16 44.8 80.35 44.79 80.54 44.78 80.73 44.76 80.91 44.74 81.1 44.71 81.29 44.69 81.48 44.65 81.66 44.62 81.85 44.58 82.04 44.54 82.23 44.5 82.41 44.46 82.6 44.41 82.79 44.36 82.98 44.31 83.16 44.25 83.35 44.2 83.54 44.14 83.73 44.08 83.91 44.02 84.1 43.96 84.29 43.9 84.48 43.84 84.66 43.78 84.85 43.72 85.04 43.66 85.23 43.6 85.41 43.54 85.6 43.48 85.79 43.42 85.98 43.36 86.16 43.3 86.35 43.25 86.54 43.2 86.73 43.14 86.91 43.09 87.1 43.05 87.29 43 87.48 42.96 87.66 42.92 87.85 42.88 88.04 42.85 88.23 42.81 88.41 42.79 88.6 42.76 88.79 42.74 88.98 42.72 89.16 42.7 89.35 42.69 89.54 42.68 89.73 42.68 89.92 42.68 90.1 42.68 90.29 42.68 90.48 42.69 90.67 42.71 90.85 42.73 91.04 42.75 91.23 42.77 91.42 42.8 91.6 42.83 91.79 42.87 91.98 42.9 92.17 42.95 92.35 42.99 92.54 43.04 92.73 43.09 92.92 43.14 93.1 43.2 93.29 43.26 93.48 43.32 93.67 43.38 93.85 43.45 94.04 43.52 94.23 43.59 94.42 43.66 94.6 43.73 94.79 43.8 94.98 43.88 95.17 43.95 95.35 44.02 95.54 44.1 95.73 44.17 95.92 44.25 96.1 44.32 96.29 44.39 96.48 44.46 96.67 44.53 96.85 44.6 97.04 44.66 97.23 44.73 97.42 44.79 97.6 44.84 97.79 44.9 97.98 44.95 98.17 44.99 98.35 45.03 98.54 45.07 98.73 45.11 98.92 45.13 99.1 45.16 99.29 45.18 99.48 45.19 99.67 45.19 99.85 45.2 100.04 45.19 100.23 45.18 100.42 45.16 100.61 45.14 100.79 45.1 100.98 45.07 101.17 45.02 101.36 44.97 101.54 44.91 101.73 44.84 101.92 44.77 102.11 44.69 102.29 44.6 102.48 44.51 102.67 44.4 102.86 44.3 103.04 44.18 103.23 44.06 103.42 43.93 103.61 43.8 103.79 43.66 103.98 43.51 104.17 43.36 104.36 43.21 104.54 43.05 104.73 42.88 104.92 42.72 105.11 42.54 105.29 42.37 105.48 42.2 105.67 42.02 105.86 41.84 106.04 41.66 106.23 41.49 106.42 41.31 106.61 41.14 106.79 40.97 106.98 40.8 107.17 40.64 107.36 40.48 107.54 40.33 107.73 40.18 107.92 40.04 108.11 39.92 108.29 39.8 108.48 39.69 108.67 39.6 108.86 39.52 109.04 39.45 109.23 39.4 109.42 39.36 109.61 39.34 109.79 39.34 109.98 39.36 110.17 39.4 110.36 39.46 110.54 39.55 110.73 39.66 110.92 39.79 111.11 39.95 111.3 40.14 111.48 40.35 111.67 40.6 111.86 40.87 112.05 41.17 112.23 41.5 112.42 41.87 112.61 42.27 112.8 42.7 112.98 43.16 113.17 43.66 113.36 44.19 113.55 44.75 113.73 45.35 113.92 45.98 114.11 46.64 114.3 47.33 114.48 48.06 114.67 48.82 114.86 49.6 115.05 50.42 115.23 51.26 115.42 52.12 115.61 53.01 115.8 53.92 115.98 54.84 116.17 55.78 116.36 56.73 116.55 57.69 116.73 58.65 116.92 59.61 117.11 60.56 117.3 61.5 117.48 62.43 117.67 63.33 117.86 64.21 118.05 65.05 118.23 65.84 118.42 66.58 118.61 67.26 118.8 67.87 118.98 68.39 119.17 68.83 119.36 69.16 119.55 69.37 119.73 69.46 119.92 69.4 120.11 69.19 120.3 68.8 120.48 68.23 120.67 67.45 120.86 66.44 121.05 65.19 121.23 63.67 121.42 61.86 121.61 59.75 121.8 57.3 121.99 54.5 122.17 51.31 122.36 47.7 122.55 43.66 122.74 39.14 122.92 34.12 123.11 28.55 123.3 22.42 123.49 15.67 123.67 8.28 123.86 0.2 124.05 -8.62 124.24 -18.21 124.42 -28.63 124.61 -39.91 124.8 -52.11 124.99 -65.29 125.17 -79.49 125.36 -94.78 125.55 -111.2 125.74 -128.84 125.92 -147.74 126.11 -167.97 126.3 -189.62 126.49 -212.73 126.67 -237.4 126.86 -263.7 127.05 -291.71 127.24 -321.52" id="img-5ba4b255-57" class="geometry color_-1.0" stroke="#316C8B"/>
        <path fill="none" d="M24.09,561.55 L 24.27 519.54 24.46 480.04 24.65 442.93 24.84 408.09 25.02 375.42 25.21 344.82 25.4 316.18 25.59 289.41 25.77 264.42 25.96 241.12 26.15 219.42 26.34 199.25 26.53 180.51 26.71 163.15 26.9 147.08 27.09 132.23 27.28 118.55 27.46 105.96 27.65 94.4 27.84 83.82 28.03 74.16 28.21 65.36 28.4 57.38 28.59 50.16 28.78 43.66 28.96 37.83 29.15 32.63 29.34 28.02 29.53 23.95 29.71 20.41 29.9 17.33 30.09 14.7 30.28 12.49 30.46 10.65 30.65 9.17 30.84 8 31.03 7.14 31.21 6.55 31.4 6.22 31.59 6.11 31.78 6.2 31.96 6.49 32.15 6.95 32.34 7.55 32.53 8.29 32.71 9.15 32.9 10.12 33.09 11.18 33.28 12.31 33.46 13.52 33.65 14.77 33.84 16.08 34.03 17.42 34.21 18.78 34.4 20.17 34.59 21.56 34.78 22.96 34.96 24.36 35.15 25.74 35.34 27.12 35.53 28.47 35.71 29.8 35.9 31.1 36.09 32.38 36.28 33.61 36.46 34.82 36.65 35.98 36.84 37.1 37.03 38.17 37.22 39.21 37.4 40.19 37.59 41.13 37.78 42.02 37.97 42.86 38.15 43.66 38.34 44.4 38.53 45.1 38.72 45.75 38.9 46.35 39.09 46.9 39.28 47.41 39.47 47.87 39.65 48.29 39.84 48.66 40.03 48.99 40.22 49.28 40.4 49.53 40.59 49.74 40.78 49.91 40.97 50.05 41.15 50.15 41.34 50.22 41.53 50.26 41.72 50.27 41.9 50.25 42.09 50.2 42.28 50.13 42.47 50.03 42.65 49.91 42.84 49.78 43.03 49.62 43.22 49.44 43.4 49.25 43.59 49.05 43.78 48.83 43.97 48.6 44.15 48.36 44.34 48.11 44.53 47.86 44.72 47.6 44.9 47.33 45.09 47.06 45.28 46.79 45.47 46.51 45.65 46.24 45.84 45.96 46.03 45.69 46.22 45.42 46.4 45.15 46.59 44.89 46.78 44.63 46.97 44.38 47.15 44.13 47.34 43.89 47.53 43.66 47.72 43.43 47.91 43.22 48.09 43.01 48.28 42.81 48.47 42.63 48.66 42.45 48.84 42.28 49.03 42.13 49.22 41.98 49.41 41.85 49.59 41.72 49.78 41.61 49.97 41.51 50.16 41.42 50.34 41.34 50.53 41.27 50.72 41.22 50.91 41.17 51.09 41.14 51.28 41.11 51.47 41.1 51.66 41.09 51.84 41.1 52.03 41.11 52.22 41.14 52.41 41.17 52.59 41.21 52.78 41.26 52.97 41.32 53.16 41.39 53.34 41.46 53.53 41.54 53.72 41.63 53.91 41.72 54.09 41.82 54.28 41.92 54.47 42.03 54.66 42.14 54.84 42.26 55.03 42.38 55.22 42.5 55.41 42.62 55.59 42.75 55.78 42.88 55.97 43.01 56.16 43.14 56.34 43.27 56.53 43.4 56.72 43.53 56.91 43.66 57.09 43.79 57.28 43.91 57.47 44.03 57.66 44.16 57.84 44.27 58.03 44.39 58.22 44.5 58.41 44.61 58.6 44.71 58.78 44.81 58.97 44.91 59.16 45 59.35 45.08 59.53 45.16 59.72 45.23 59.91 45.3 60.1 45.36 60.28 45.42 60.47 45.47 60.66 45.51 60.85 45.54 61.03 45.57 61.22 45.59 61.41 45.61 61.6 45.62 61.78 45.62 61.97 45.61 62.16 45.6 62.35 45.58 62.53 45.55 62.72 45.51 62.91 45.47 63.1 45.42 63.28 45.37 63.47 45.31 63.66 45.24 63.85 45.16 64.03 45.08 64.22 44.99 64.41 44.9 64.6 44.8 64.78 44.69 64.97 44.58 65.16 44.46 65.35 44.34 65.53 44.21 65.72 44.08 65.91 43.94 66.1 43.8 66.28 43.66 66.47 43.51 66.66 43.36 66.85 43.2 67.03 43.04 67.22 42.88 67.41 42.72 67.6 42.56 67.78 42.39 67.97 42.22 68.16 42.05 68.35 41.88 68.53 41.71 68.72 41.54 68.91 41.37 69.1 41.2 69.29 41.03 69.47 40.86 69.66 40.7 69.85 40.53 70.04 40.37 70.22 40.21 70.41 40.05 70.6 39.89 70.79 39.74 70.97 39.59 71.16 39.44 71.35 39.3 71.54 39.16 71.72 39.03 71.91 38.9 72.1 38.77 72.29 38.65 72.47 38.54 72.66 38.43 72.85 38.33 73.04 38.23 73.22 38.14 73.41 38.05 73.6 37.97 73.79 37.9 73.97 37.83 74.16 37.77 74.35 37.72 74.54 37.68 74.72 37.64 74.91 37.61 75.1 37.58 75.29 37.56 75.47 37.55 75.66 37.55 75.85 37.55 76.04 37.56 76.22 37.58 76.41 37.61 76.6 37.64 76.79 37.68 76.97 37.72 77.16 37.77 77.35 37.83 77.54 37.9 77.72 37.97 77.91 38.05 78.1 38.14 78.29 38.23 78.47 38.33 78.66 38.43 78.85 38.54 79.04 38.65 79.23 38.77 79.41 38.9 79.6 39.03 79.79 39.16 79.98 39.3 80.16 39.44 80.35 39.59 80.54 39.74 80.73 39.89 80.91 40.05 81.1 40.21 81.29 40.37 81.48 40.53 81.66 40.7 81.85 40.86 82.04 41.03 82.23 41.2 82.41 41.37 82.6 41.54 82.79 41.71 82.98 41.88 83.16 42.05 83.35 42.22 83.54 42.39 83.73 42.56 83.91 42.72 84.1 42.88 84.29 43.04 84.48 43.2 84.66 43.36 84.85 43.51 85.04 43.66 85.23 43.8 85.41 43.94 85.6 44.08 85.79 44.21 85.98 44.34 86.16 44.46 86.35 44.58 86.54 44.69 86.73 44.8 86.91 44.9 87.1 44.99 87.29 45.08 87.48 45.16 87.66 45.24 87.85 45.31 88.04 45.37 88.23 45.42 88.41 45.47 88.6 45.51 88.79 45.55 88.98 45.58 89.16 45.6 89.35 45.61 89.54 45.62 89.73 45.62 89.92 45.61 90.1 45.59 90.29 45.57 90.48 45.54 90.67 45.51 90.85 45.47 91.04 45.42 91.23 45.36 91.42 45.3 91.6 45.23 91.79 45.16 91.98 45.08 92.17 45 92.35 44.91 92.54 44.81 92.73 44.71 92.92 44.61 93.1 44.5 93.29 44.39 93.48 44.27 93.67 44.16 93.85 44.03 94.04 43.91 94.23 43.79 94.42 43.66 94.6 43.53 94.79 43.4 94.98 43.27 95.17 43.14 95.35 43.01 95.54 42.88 95.73 42.75 95.92 42.62 96.1 42.5 96.29 42.38 96.48 42.26 96.67 42.14 96.85 42.03 97.04 41.92 97.23 41.82 97.42 41.72 97.6 41.63 97.79 41.54 97.98 41.46 98.17 41.39 98.35 41.32 98.54 41.26 98.73 41.21 98.92 41.17 99.1 41.14 99.29 41.11 99.48 41.1 99.67 41.09 99.85 41.1 100.04 41.11 100.23 41.14 100.42 41.17 100.61 41.22 100.79 41.27 100.98 41.34 101.17 41.42 101.36 41.51 101.54 41.61 101.73 41.72 101.92 41.85 102.11 41.98 102.29 42.13 102.48 42.28 102.67 42.45 102.86 42.63 103.04 42.81 103.23 43.01 103.42 43.22 103.61 43.43 103.79 43.66 103.98 43.89 104.17 44.13 104.36 44.38 104.54 44.63 104.73 44.89 104.92 45.15 105.11 45.42 105.29 45.69 105.48 45.96 105.67 46.24 105.86 46.51 106.04 46.79 106.23 47.06 106.42 47.33 106.61 47.6 106.79 47.86 106.98 48.11 107.17 48.36 107.36 48.6 107.54 48.83 107.73 49.05 107.92 49.25 108.11 49.44 108.29 49.62 108.48 49.78 108.67 49.91 108.86 50.03 109.04 50.13 109.23 50.2 109.42 50.25 109.61 50.27 109.79 50.26 109.98 50.22 110.17 50.15 110.36 50.05 110.54 49.91 110.73 49.74 110.92 49.53 111.11 49.28 111.3 48.99 111.48 48.66 111.67 48.29 111.86 47.87 112.05 47.41 112.23 46.9 112.42 46.35 112.61 45.75 112.8 45.1 112.98 44.4 113.17 43.66 113.36 42.86 113.55 42.02 113.73 41.13 113.92 40.19 114.11 39.21 114.3 38.17 114.48 37.1 114.67 35.98 114.86 34.82 115.05 33.61 115.23 32.38 115.42 31.1 115.61 29.8 115.8 28.47 115.98 27.12 116.17 25.74 116.36 24.36 116.55 22.96 116.73 21.56 116.92 20.17 117.11 18.78 117.3 17.42 117.48 16.08 117.67 14.77 117.86 13.52 118.05 12.31 118.23 11.18 118.42 10.12 118.61 9.15 118.8 8.29 118.98 7.55 119.17 6.95 119.36 6.49 119.55 6.2 119.73 6.11 119.92 6.22 120.11 6.55 120.3 7.14 120.48 8 120.67 9.17 120.86 10.65 121.05 12.49 121.23 14.7 121.42 17.33 121.61 20.41 121.8 23.95 121.99 28.02 122.17 32.63 122.36 37.83 122.55 43.66 122.74 50.16 122.92 57.38 123.11 65.36 123.3 74.16 123.49 83.82 123.67 94.4 123.86 105.96 124.05 118.55 124.24 132.23 124.42 147.08 124.61 163.15 124.8 180.51 124.99 199.25 125.17 219.42 125.36 241.12 125.55 264.42 125.74 289.41 125.92 316.18 126.11 344.82 126.3 375.42 126.49 408.09 126.67 442.93 126.86 480.04 127.05 519.54 127.24 561.55" id="img-5ba4b255-58" class="geometry color_0.0" stroke="#387B9E"/>
        <path fill="none" d="M24.09,-321.52 L 24.27 -291.71 24.46 -263.7 24.65 -237.4 24.84 -212.73 25.02 -189.62 25.21 -167.97 25.4 -147.74 25.59 -128.84 25.77 -111.2 25.96 -94.78 26.15 -79.49 26.34 -65.29 26.53 -52.11 26.71 -39.91 26.9 -28.63 27.09 -18.21 27.28 -8.62 27.46 0.2 27.65 8.28 27.84 15.67 28.03 22.42 28.21 28.55 28.4 34.12 28.59 39.14 28.78 43.66 28.96 47.7 29.15 51.31 29.34 54.5 29.53 57.3 29.71 59.75 29.9 61.86 30.09 63.67 30.28 65.19 30.46 66.44 30.65 67.45 30.84 68.23 31.03 68.8 31.21 69.19 31.4 69.4 31.59 69.46 31.78 69.37 31.96 69.16 32.15 68.83 32.34 68.39 32.53 67.87 32.71 67.26 32.9 66.58 33.09 65.84 33.28 65.05 33.46 64.21 33.65 63.33 33.84 62.43 34.03 61.5 34.21 60.56 34.4 59.61 34.59 58.65 34.78 57.69 34.96 56.73 35.15 55.78 35.34 54.84 35.53 53.92 35.71 53.01 35.9 52.12 36.09 51.26 36.28 50.42 36.46 49.6 36.65 48.82 36.84 48.06 37.03 47.33 37.22 46.64 37.4 45.98 37.59 45.35 37.78 44.75 37.97 44.19 38.15 43.66 38.34 43.16 38.53 42.7 38.72 42.27 38.9 41.87 39.09 41.5 39.28 41.17 39.47 40.87 39.65 40.6 39.84 40.35 40.03 40.14 40.22 39.95 40.4 39.79 40.59 39.66 40.78 39.55 40.97 39.46 41.15 39.4 41.34 39.36 41.53 39.34 41.72 39.34 41.9 39.36 42.09 39.4 42.28 39.45 42.47 39.52 42.65 39.6 42.84 39.69 43.03 39.8 43.22 39.92 43.4 40.04 43.59 40.18 43.78 40.33 43.97 40.48 44.15 40.64 44.34 40.8 44.53 40.97 44.72 41.14 44.9 41.31 45.09 41.49 45.28 41.66 45.47 41.84 45.65 42.02 45.84 42.2 46.03 42.37 46.22 42.54 46.4 42.72 46.59 42.88 46.78 43.05 46.97 43.21 47.15 43.36 47.34 43.51 47.53 43.66 47.72 43.8 47.91 43.93 48.09 44.06 48.28 44.18 48.47 44.3 48.66 44.4 48.84 44.51 49.03 44.6 49.22 44.69 49.41 44.77 49.59 44.84 49.78 44.91 49.97 44.97 50.16 45.02 50.34 45.07 50.53 45.1 50.72 45.14 50.91 45.16 51.09 45.18 51.28 45.19 51.47 45.2 51.66 45.19 51.84 45.19 52.03 45.18 52.22 45.16 52.41 45.13 52.59 45.11 52.78 45.07 52.97 45.03 53.16 44.99 53.34 44.95 53.53 44.9 53.72 44.84 53.91 44.79 54.09 44.73 54.28 44.66 54.47 44.6 54.66 44.53 54.84 44.46 55.03 44.39 55.22 44.32 55.41 44.25 55.59 44.17 55.78 44.1 55.97 44.02 56.16 43.95 56.34 43.88 56.53 43.8 56.72 43.73 56.91 43.66 57.09 43.59 57.28 43.52 57.47 43.45 57.66 43.38 57.84 43.32 58.03 43.26 58.22 43.2 58.41 43.14 58.6 43.09 58.78 43.04 58.97 42.99 59.16 42.95 59.35 42.9 59.53 42.87 59.72 42.83 59.91 42.8 60.1 42.77 60.28 42.75 60.47 42.73 60.66 42.71 60.85 42.69 61.03 42.68 61.22 42.68 61.41 42.68 61.6 42.68 61.78 42.68 61.97 42.69 62.16 42.7 62.35 42.72 62.53 42.74 62.72 42.76 62.91 42.79 63.1 42.81 63.28 42.85 63.47 42.88 63.66 42.92 63.85 42.96 64.03 43 64.22 43.05 64.41 43.09 64.6 43.14 64.78 43.2 64.97 43.25 65.16 43.3 65.35 43.36 65.53 43.42 65.72 43.48 65.91 43.54 66.1 43.6 66.28 43.66 66.47 43.72 66.66 43.78 66.85 43.84 67.03 43.9 67.22 43.96 67.41 44.02 67.6 44.08 67.78 44.14 67.97 44.2 68.16 44.25 68.35 44.31 68.53 44.36 68.72 44.41 68.91 44.46 69.1 44.5 69.29 44.54 69.47 44.58 69.66 44.62 69.85 44.65 70.04 44.69 70.22 44.71 70.41 44.74 70.6 44.76 70.79 44.78 70.97 44.79 71.16 44.8 71.35 44.8 71.54 44.8 71.72 44.8 71.91 44.79 72.1 44.78 72.29 44.76 72.47 44.74 72.66 44.71 72.85 44.68 73.04 44.65 73.22 44.61 73.41 44.56 73.6 44.51 73.79 44.46 73.97 44.4 74.16 44.33 74.35 44.26 74.54 44.19 74.72 44.11 74.91 44.03 75.1 43.94 75.29 43.85 75.47 43.76 75.66 43.66 75.85 43.55 76.04 43.45 76.22 43.33 76.41 43.22 76.6 43.1 76.79 42.98 76.97 42.85 77.16 42.72 77.35 42.59 77.54 42.46 77.72 42.32 77.91 42.18 78.1 42.04 78.29 41.9 78.47 41.75 78.66 41.61 78.85 41.46 79.04 41.31 79.23 41.16 79.41 41.01 79.6 40.86 79.79 40.71 79.98 40.56 80.16 40.41 80.35 40.27 80.54 40.12 80.73 39.97 80.91 39.83 81.1 39.68 81.29 39.54 81.48 39.41 81.66 39.27 81.85 39.14 82.04 39.01 82.23 38.88 82.41 38.76 82.6 38.64 82.79 38.52 82.98 38.41 83.16 38.31 83.35 38.21 83.54 38.11 83.73 38.02 83.91 37.93 84.1 37.85 84.29 37.78 84.48 37.71 84.66 37.65 84.85 37.6 85.04 37.55 85.23 37.51 85.41 37.47 85.6 37.44 85.79 37.42 85.98 37.41 86.16 37.41 86.35 37.41 86.54 37.42 86.73 37.44 86.91 37.46 87.1 37.49 87.29 37.53 87.48 37.58 87.66 37.64 87.85 37.7 88.04 37.77 88.23 37.85 88.41 37.94 88.6 38.04 88.79 38.14 88.98 38.25 89.16 38.37 89.35 38.49 89.54 38.62 89.73 38.76 89.92 38.9 90.1 39.05 90.29 39.21 90.48 39.37 90.67 39.54 90.85 39.72 91.04 39.9 91.23 40.08 91.42 40.27 91.6 40.47 91.79 40.67 91.98 40.87 92.17 41.07 92.35 41.28 92.54 41.49 92.73 41.7 92.92 41.92 93.1 42.14 93.29 42.35 93.48 42.57 93.67 42.79 93.85 43.01 94.04 43.23 94.23 43.44 94.42 43.66 94.6 43.87 94.79 44.08 94.98 44.29 95.17 44.49 95.35 44.69 95.54 44.89 95.73 45.08 95.92 45.26 96.1 45.44 96.29 45.61 96.48 45.78 96.67 45.94 96.85 46.09 97.04 46.23 97.23 46.37 97.42 46.49 97.6 46.61 97.79 46.72 97.98 46.81 98.17 46.9 98.35 46.97 98.54 47.04 98.73 47.09 98.92 47.13 99.1 47.16 99.29 47.17 99.48 47.18 99.67 47.17 99.85 47.14 100.04 47.11 100.23 47.06 100.42 46.99 100.61 46.92 100.79 46.83 100.98 46.72 101.17 46.61 101.36 46.48 101.54 46.33 101.73 46.17 101.92 46 102.11 45.82 102.29 45.63 102.48 45.42 102.67 45.2 102.86 44.97 103.04 44.73 103.23 44.47 103.42 44.21 103.61 43.94 103.79 43.66 103.98 43.37 104.17 43.07 104.36 42.77 104.54 42.46 104.73 42.15 104.92 41.83 105.11 41.51 105.29 41.18 105.48 40.86 105.67 40.53 105.86 40.21 106.04 39.89 106.23 39.57 106.42 39.25 106.61 38.95 106.79 38.65 106.98 38.36 107.17 38.07 107.36 37.81 107.54 37.55 107.73 37.31 107.92 37.08 108.11 36.87 108.29 36.69 108.48 36.52 108.67 36.37 108.86 36.25 109.04 36.16 109.23 36.09 109.42 36.05 109.61 36.05 109.79 36.07 109.98 36.13 110.17 36.23 110.36 36.36 110.54 36.53 110.73 36.74 110.92 36.99 111.11 37.28 111.3 37.62 111.48 38.01 111.67 38.44 111.86 38.92 112.05 39.44 112.23 40.02 112.42 40.65 112.61 41.32 112.8 42.05 112.98 42.83 113.17 43.66 113.36 44.54 113.55 45.47 113.73 46.45 113.92 47.48 114.11 48.56 114.3 49.69 114.48 50.87 114.67 52.08 114.86 53.34 115.05 54.64 115.23 55.98 115.42 57.35 115.61 58.75 115.8 60.17 115.98 61.62 116.17 63.08 116.36 64.56 116.55 66.04 116.73 67.52 116.92 68.99 117.11 70.45 117.3 71.88 117.48 73.28 117.67 74.64 117.86 75.95 118.05 77.2 118.23 78.37 118.42 79.46 118.61 80.44 118.8 81.31 118.98 82.06 119.17 82.66 119.36 83.09 119.55 83.35 119.73 83.41 119.92 83.25 120.11 82.84 120.3 82.18 120.48 81.23 120.67 79.97 120.86 78.36 121.05 76.4 121.23 74.04 121.42 71.25 121.61 68 121.8 64.26 121.99 60 122.17 55.17 122.36 49.74 122.55 43.66 122.74 36.89 122.92 29.39 123.11 21.11 123.3 12.01 123.49 2.02 123.67 -8.89 123.86 -20.8 124.05 -33.75 124.24 -47.82 124.42 -63.05 124.61 -79.51 124.8 -97.29 124.99 -116.44 125.17 -137.04 125.36 -159.16 125.55 -182.9 125.74 -208.33 125.92 -235.53 126.11 -264.61 126.3 -295.65 126.49 -328.75 126.67 -364.01 126.86 -401.53 127.05 -441.43 127.24 -483.82" id="img-5ba4b255-59" class="geometry color_1.0" stroke="#3F8AB1"/>
        <path fill="none" d="M24.09,224.51 L 24.27 209.68 24.46 195.75 24.65 182.68 24.84 170.42 25.02 158.94 25.21 148.2 25.4 138.17 25.59 128.8 25.77 120.06 25.96 111.93 26.15 104.36 26.34 97.34 26.53 90.82 26.71 84.8 26.9 79.23 27.09 74.09 27.28 69.36 27.46 65.01 27.65 61.03 27.84 57.4 28.03 54.08 28.21 51.07 28.4 48.34 28.59 45.87 28.78 43.66 28.96 41.68 29.15 39.91 29.34 38.36 29.53 36.99 29.71 35.79 29.9 34.77 30.09 33.89 30.28 33.15 30.46 32.55 30.65 32.06 30.84 31.69 31.03 31.41 31.21 31.23 31.4 31.13 31.59 31.11 31.78 31.16 31.96 31.27 32.15 31.44 32.34 31.66 32.53 31.92 32.71 32.22 32.9 32.56 33.09 32.92 33.28 33.31 33.46 33.72 33.65 34.15 33.84 34.59 34.03 35.04 34.21 35.5 34.4 35.97 34.59 36.43 34.78 36.9 34.96 37.37 35.15 37.83 35.34 38.28 35.53 38.73 35.71 39.17 35.9 39.6 36.09 40.01 36.28 40.42 36.46 40.81 36.65 41.19 36.84 41.55 37.03 41.9 37.22 42.23 37.4 42.55 37.59 42.85 37.78 43.14 37.97 43.4 38.15 43.66 38.34 43.89 38.53 44.11 38.72 44.32 38.9 44.51 39.09 44.68 39.28 44.84 39.47 44.98 39.65 45.11 39.84 45.22 40.03 45.32 40.22 45.41 40.4 45.48 40.59 45.54 40.78 45.59 40.97 45.63 41.15 45.66 41.34 45.68 41.53 45.69 41.72 45.69 41.9 45.67 42.09 45.66 42.28 45.63 42.47 45.6 42.65 45.56 42.84 45.51 43.03 45.46 43.22 45.4 43.4 45.34 43.59 45.28 43.78 45.21 43.97 45.14 44.15 45.06 44.34 44.99 44.53 44.91 44.72 44.83 44.9 44.74 45.09 44.66 45.28 44.58 45.47 44.5 45.65 44.41 45.84 44.33 46.03 44.25 46.22 44.17 46.4 44.09 46.59 44.01 46.78 43.94 46.97 43.86 47.15 43.79 47.34 43.72 47.53 43.66 47.72 43.59 47.91 43.53 48.09 43.47 48.28 43.42 48.47 43.37 48.66 43.32 48.84 43.27 49.03 43.23 49.22 43.19 49.41 43.15 49.59 43.12 49.78 43.09 49.97 43.07 50.16 43.04 50.34 43.02 50.53 43.01 50.72 42.99 50.91 42.98 51.09 42.98 51.28 42.97 51.47 42.97 51.66 42.97 51.84 42.98 52.03 42.98 52.22 42.99 52.41 43 52.59 43.02 52.78 43.03 52.97 43.05 53.16 43.07 53.34 43.09 53.53 43.11 53.72 43.14 53.91 43.16 54.09 43.19 54.28 43.22 54.47 43.25 54.66 43.28 54.84 43.31 55.03 43.34 55.22 43.37 55.41 43.4 55.59 43.43 55.78 43.47 55.97 43.5 56.16 43.53 56.34 43.56 56.53 43.6 56.72 43.63 56.91 43.66 57.09 43.69 57.28 43.72 57.47 43.75 57.66 43.77 57.84 43.8 58.03 43.83 58.22 43.85 58.41 43.87 58.6 43.9 58.78 43.92 58.97 43.94 59.16 43.96 59.35 43.97 59.53 43.99 59.72 44 59.91 44.01 60.1 44.03 60.28 44.04 60.47 44.04 60.66 44.05 60.85 44.05 61.03 44.06 61.22 44.06 61.41 44.06 61.6 44.06 61.78 44.05 61.97 44.05 62.16 44.04 62.35 44.04 62.53 44.03 62.72 44.02 62.91 44.01 63.1 44 63.28 43.98 63.47 43.97 63.66 43.95 63.85 43.93 64.03 43.92 64.22 43.9 64.41 43.88 64.6 43.86 64.78 43.84 64.97 43.82 65.16 43.79 65.35 43.77 65.53 43.75 65.72 43.73 65.91 43.7 66.1 43.68 66.28 43.66 66.47 43.63 66.66 43.61 66.85 43.59 67.03 43.57 67.22 43.54 67.41 43.52 67.6 43.5 67.78 43.48 67.97 43.46 68.16 43.44 68.35 43.42 68.53 43.4 68.72 43.39 68.91 43.37 69.1 43.35 69.29 43.34 69.47 43.33 69.66 43.32 69.85 43.31 70.04 43.3 70.22 43.29 70.41 43.28 70.6 43.28 70.79 43.27 70.97 43.27 71.16 43.27 71.35 43.27 71.54 43.27 71.72 43.27 71.91 43.28 72.1 43.29 72.29 43.29 72.47 43.3 72.66 43.31 72.85 43.33 73.04 43.34 73.22 43.36 73.41 43.37 73.6 43.39 73.79 43.41 73.97 43.43 74.16 43.45 74.35 43.47 74.54 43.5 74.72 43.52 74.91 43.55 75.1 43.57 75.29 43.6 75.47 43.63 75.66 43.66 75.85 43.69 76.04 43.72 76.22 43.75 76.41 43.78 76.6 43.81 76.79 43.84 76.97 43.87 77.16 43.9 77.35 43.93 77.54 43.96 77.72 43.99 77.91 44.02 78.1 44.05 78.29 44.08 78.47 44.11 78.66 44.13 78.85 44.16 79.04 44.18 79.23 44.2 79.41 44.22 79.6 44.24 79.79 44.26 79.98 44.28 80.16 44.29 80.35 44.3 80.54 44.31 80.73 44.32 80.91 44.33 81.1 44.33 81.29 44.33 81.48 44.33 81.66 44.32 81.85 44.31 82.04 44.3 82.23 44.29 82.41 44.27 82.6 44.25 82.79 44.23 82.98 44.2 83.16 44.17 83.35 44.13 83.54 44.09 83.73 44.05 83.91 44.01 84.1 43.96 84.29 43.91 84.48 43.85 84.66 43.79 84.85 43.73 85.04 43.66 85.23 43.59 85.41 43.51 85.6 43.43 85.79 43.35 85.98 43.26 86.16 43.17 86.35 43.08 86.54 42.98 86.73 42.88 86.91 42.77 87.1 42.66 87.29 42.55 87.48 42.44 87.66 42.32 87.85 42.2 88.04 42.08 88.23 41.95 88.41 41.82 88.6 41.69 88.79 41.56 88.98 41.42 89.16 41.28 89.35 41.14 89.54 41 89.73 40.86 89.92 40.71 90.1 40.57 90.29 40.42 90.48 40.28 90.67 40.13 90.85 39.99 91.04 39.84 91.23 39.69 91.42 39.55 91.6 39.4 91.79 39.26 91.98 39.12 92.17 38.98 92.35 38.84 92.54 38.71 92.73 38.57 92.92 38.44 93.1 38.32 93.29 38.2 93.48 38.08 93.67 37.96 93.85 37.85 94.04 37.74 94.23 37.64 94.42 37.55 94.6 37.46 94.79 37.37 94.98 37.3 95.17 37.22 95.35 37.16 95.54 37.1 95.73 37.05 95.92 37.01 96.1 36.97 96.29 36.95 96.48 36.93 96.67 36.92 96.85 36.92 97.04 36.93 97.23 36.94 97.42 36.97 97.6 37.01 97.79 37.05 97.98 37.11 98.17 37.17 98.35 37.25 98.54 37.34 98.73 37.43 98.92 37.54 99.1 37.66 99.29 37.79 99.48 37.92 99.67 38.07 99.85 38.23 100.04 38.4 100.23 38.58 100.42 38.77 100.61 38.97 100.79 39.18 100.98 39.4 101.17 39.63 101.36 39.87 101.54 40.12 101.73 40.38 101.92 40.64 102.11 40.91 102.29 41.19 102.48 41.48 102.67 41.78 102.86 42.08 103.04 42.38 103.23 42.7 103.42 43.01 103.61 43.33 103.79 43.66 103.98 43.98 104.17 44.31 104.36 44.64 104.54 44.98 104.73 45.31 104.92 45.64 105.11 45.97 105.29 46.29 105.48 46.61 105.67 46.93 105.86 47.24 106.04 47.55 106.23 47.85 106.42 48.14 106.61 48.42 106.79 48.69 106.98 48.95 107.17 49.19 107.36 49.43 107.54 49.64 107.73 49.84 107.92 50.02 108.11 50.19 108.29 50.33 108.48 50.46 108.67 50.56 108.86 50.64 109.04 50.69 109.23 50.72 109.42 50.72 109.61 50.69 109.79 50.64 109.98 50.55 110.17 50.43 110.36 50.28 110.54 50.1 110.73 49.88 110.92 49.63 111.11 49.34 111.3 49.02 111.48 48.66 111.67 48.26 111.86 47.82 112.05 47.35 112.23 46.83 112.42 46.27 112.61 45.68 112.8 45.05 112.98 44.37 113.17 43.66 113.36 42.9 113.55 42.11 113.73 41.29 113.92 40.42 114.11 39.52 114.3 38.58 114.48 37.61 114.67 36.61 114.86 35.58 115.05 34.53 115.23 33.45 115.42 32.34 115.61 31.22 115.8 30.08 115.98 28.93 116.17 27.77 116.36 26.61 116.55 25.45 116.73 24.29 116.92 23.15 117.11 22.02 117.3 20.92 117.48 19.85 117.67 18.81 117.86 17.82 118.05 16.89 118.23 16.01 118.42 15.21 118.61 14.49 118.8 13.86 118.98 13.34 119.17 12.93 119.36 12.65 119.55 12.51 119.73 12.53 119.92 12.72 120.11 13.09 120.3 13.67 120.48 14.47 120.67 15.5 120.86 16.79 121.05 18.36 121.23 20.23 121.42 22.42 121.61 24.95 121.8 27.85 121.99 31.14 122.17 34.86 122.36 39.02 122.55 43.66 122.74 48.8 122.92 54.49 123.11 60.75 123.3 67.61 123.49 75.12 123.67 83.31 123.86 92.22 124.05 101.89 124.24 112.36 124.42 123.69 124.61 135.9 124.8 149.05 124.99 163.2 125.17 178.39 125.36 194.68 125.55 212.11 125.74 230.76 125.92 250.68 126.11 271.93 126.3 294.57 126.49 318.68 126.67 344.33 126.86 371.58 127.05 400.51 127.24 431.19" id="img-5ba4b255-60" class="geometry color_2.0" stroke="#4599C4"/>
        <path fill="none" d="M24.09,-16.18 L 24.27 -11.26 24.46 -6.64 24.65 -2.3 24.84 1.77 25.02 5.57 25.21 9.13 25.4 12.46 25.59 15.56 25.77 18.45 25.96 21.14 26.15 23.64 26.34 25.96 26.53 28.12 26.71 30.11 26.9 31.95 27.09 33.64 27.28 35.2 27.46 36.63 27.65 37.94 27.84 39.14 28.03 40.23 28.21 41.22 28.4 42.12 28.59 42.93 28.78 43.66 28.96 44.31 29.15 44.88 29.34 45.4 29.53 45.84 29.71 46.23 29.9 46.57 30.09 46.85 30.28 47.09 30.46 47.29 30.65 47.45 30.84 47.57 31.03 47.66 31.21 47.71 31.4 47.75 31.59 47.75 31.78 47.73 31.96 47.7 32.15 47.64 32.34 47.57 32.53 47.48 32.71 47.38 32.9 47.27 33.09 47.15 33.28 47.02 33.46 46.89 33.65 46.75 33.84 46.6 34.03 46.45 34.21 46.3 34.4 46.15 34.59 46 34.78 45.85 34.96 45.7 35.15 45.55 35.34 45.4 35.53 45.25 35.71 45.11 35.9 44.97 36.09 44.83 36.28 44.7 36.46 44.58 36.65 44.45 36.84 44.34 37.03 44.22 37.22 44.12 37.4 44.01 37.59 43.92 37.78 43.83 37.97 43.74 38.15 43.66 38.34 43.58 38.53 43.51 38.72 43.45 38.9 43.39 39.09 43.33 39.28 43.28 39.47 43.23 39.65 43.19 39.84 43.16 40.03 43.13 40.22 43.1 40.4 43.07 40.59 43.05 40.78 43.04 40.97 43.03 41.15 43.02 41.34 43.01 41.53 43.01 41.72 43.01 41.9 43.02 42.09 43.02 42.28 43.03 42.47 43.04 42.65 43.05 42.84 43.07 43.03 43.09 43.22 43.1 43.4 43.12 43.59 43.14 43.78 43.17 43.97 43.19 44.15 43.21 44.34 43.24 44.53 43.26 44.72 43.29 44.9 43.31 45.09 43.34 45.28 43.37 45.47 43.39 45.65 43.42 45.84 43.45 46.03 43.47 46.22 43.5 46.4 43.52 46.59 43.55 46.78 43.57 46.97 43.59 47.15 43.62 47.34 43.64 47.53 43.66 47.72 43.68 47.91 43.7 48.09 43.71 48.28 43.73 48.47 43.75 48.66 43.76 48.84 43.78 49.03 43.79 49.22 43.8 49.41 43.81 49.59 43.82 49.78 43.83 49.97 43.84 50.16 43.85 50.34 43.85 50.53 43.86 50.72 43.86 50.91 43.87 51.09 43.87 51.28 43.87 51.47 43.87 51.66 43.87 51.84 43.87 52.03 43.86 52.22 43.86 52.41 43.86 52.59 43.85 52.78 43.85 52.97 43.84 53.16 43.84 53.34 43.83 53.53 43.82 53.72 43.82 53.91 43.81 54.09 43.8 54.28 43.79 54.47 43.78 54.66 43.77 54.84 43.76 55.03 43.75 55.22 43.74 55.41 43.73 55.59 43.72 55.78 43.72 55.97 43.71 56.16 43.7 56.34 43.69 56.53 43.68 56.72 43.67 56.91 43.66 57.09 43.65 57.28 43.64 57.47 43.63 57.66 43.62 57.84 43.61 58.03 43.61 58.22 43.6 58.41 43.59 58.6 43.59 58.78 43.58 58.97 43.57 59.16 43.57 59.35 43.56 59.53 43.56 59.72 43.56 59.91 43.55 60.1 43.55 60.28 43.55 60.47 43.54 60.66 43.54 60.85 43.54 61.03 43.54 61.22 43.54 61.41 43.54 61.6 43.54 61.78 43.54 61.97 43.54 62.16 43.55 62.35 43.55 62.53 43.55 62.72 43.55 62.91 43.56 63.1 43.56 63.28 43.56 63.47 43.57 63.66 43.57 63.85 43.58 64.03 43.58 64.22 43.59 64.41 43.59 64.6 43.6 64.78 43.61 64.97 43.61 65.16 43.62 65.35 43.62 65.53 43.63 65.72 43.64 65.91 43.64 66.1 43.65 66.28 43.66 66.47 43.66 66.66 43.67 66.85 43.68 67.03 43.68 67.22 43.69 67.41 43.7 67.6 43.7 67.78 43.71 67.97 43.71 68.16 43.72 68.35 43.72 68.53 43.73 68.72 43.73 68.91 43.74 69.1 43.74 69.29 43.74 69.47 43.75 69.66 43.75 69.85 43.75 70.04 43.76 70.22 43.76 70.41 43.76 70.6 43.76 70.79 43.76 70.97 43.76 71.16 43.76 71.35 43.76 71.54 43.76 71.72 43.76 71.91 43.76 72.1 43.76 72.29 43.75 72.47 43.75 72.66 43.75 72.85 43.74 73.04 43.74 73.22 43.74 73.41 43.73 73.6 43.73 73.79 43.72 73.97 43.72 74.16 43.71 74.35 43.7 74.54 43.7 74.72 43.69 74.91 43.69 75.1 43.68 75.29 43.67 75.47 43.66 75.66 43.66 75.85 43.65 76.04 43.64 76.22 43.64 76.41 43.63 76.6 43.62 76.79 43.61 76.97 43.61 77.16 43.6 77.35 43.59 77.54 43.58 77.72 43.58 77.91 43.57 78.1 43.56 78.29 43.56 78.47 43.55 78.66 43.55 78.85 43.54 79.04 43.54 79.23 43.53 79.41 43.53 79.6 43.52 79.79 43.52 79.98 43.52 80.16 43.51 80.35 43.51 80.54 43.51 80.73 43.51 80.91 43.51 81.1 43.51 81.29 43.51 81.48 43.51 81.66 43.51 81.85 43.52 82.04 43.52 82.23 43.52 82.41 43.53 82.6 43.53 82.79 43.54 82.98 43.55 83.16 43.55 83.35 43.56 83.54 43.57 83.73 43.58 83.91 43.59 84.1 43.6 84.29 43.61 84.48 43.62 84.66 43.63 84.85 43.64 85.04 43.66 85.23 43.67 85.41 43.68 85.6 43.7 85.79 43.71 85.98 43.73 86.16 43.74 86.35 43.76 86.54 43.77 86.73 43.79 86.91 43.81 87.1 43.82 87.29 43.84 87.48 43.85 87.66 43.87 87.85 43.88 88.04 43.9 88.23 43.91 88.41 43.93 88.6 43.94 88.79 43.95 88.98 43.97 89.16 43.98 89.35 43.99 89.54 44 89.73 44.01 89.92 44.02 90.1 44.02 90.29 44.03 90.48 44.03 90.67 44.04 90.85 44.04 91.04 44.04 91.23 44.03 91.42 44.03 91.6 44.03 91.79 44.02 91.98 44.01 92.17 44 92.35 43.98 92.54 43.97 92.73 43.95 92.92 43.93 93.1 43.9 93.29 43.88 93.48 43.85 93.67 43.82 93.85 43.78 94.04 43.74 94.23 43.7 94.42 43.66 94.6 43.61 94.79 43.56 94.98 43.51 95.17 43.45 95.35 43.39 95.54 43.32 95.73 43.25 95.92 43.18 96.1 43.11 96.29 43.03 96.48 42.95 96.67 42.86 96.85 42.77 97.04 42.68 97.23 42.58 97.42 42.48 97.6 42.37 97.79 42.26 97.98 42.15 98.17 42.04 98.35 41.92 98.54 41.8 98.73 41.67 98.92 41.54 99.1 41.41 99.29 41.27 99.48 41.13 99.67 40.99 99.85 40.85 100.04 40.7 100.23 40.55 100.42 40.4 100.61 40.25 100.79 40.09 100.98 39.94 101.17 39.78 101.36 39.62 101.54 39.46 101.73 39.29 101.92 39.13 102.11 38.97 102.29 38.81 102.48 38.65 102.67 38.48 102.86 38.32 103.04 38.16 103.23 38.01 103.42 37.85 103.61 37.7 103.79 37.55 103.98 37.4 104.17 37.26 104.36 37.12 104.54 36.98 104.73 36.85 104.92 36.73 105.11 36.61 105.29 36.49 105.48 36.39 105.67 36.29 105.86 36.2 106.04 36.11 106.23 36.04 106.42 35.97 106.61 35.92 106.79 35.87 106.98 35.84 107.17 35.81 107.36 35.8 107.54 35.8 107.73 35.82 107.92 35.84 108.11 35.88 108.29 35.94 108.48 36.01 108.67 36.09 108.86 36.19 109.04 36.31 109.23 36.45 109.42 36.6 109.61 36.77 109.79 36.95 109.98 37.16 110.17 37.38 110.36 37.62 110.54 37.89 110.73 38.17 110.92 38.47 111.11 38.79 111.3 39.13 111.48 39.49 111.67 39.88 111.86 40.28 112.05 40.7 112.23 41.15 112.42 41.61 112.61 42.09 112.8 42.59 112.98 43.12 113.17 43.66 113.36 44.22 113.55 44.79 113.73 45.39 113.92 46 114.11 46.62 114.3 47.26 114.48 47.91 114.67 48.58 114.86 49.25 115.05 49.93 115.23 50.63 115.42 51.32 115.61 52.02 115.8 52.73 115.98 53.43 116.17 54.13 116.36 54.82 116.55 55.51 116.73 56.18 116.92 56.84 117.11 57.48 117.3 58.11 117.48 58.7 117.67 59.27 117.86 59.8 118.05 60.3 118.23 60.76 118.42 61.16 118.61 61.52 118.8 61.81 118.98 62.04 119.17 62.21 119.36 62.29 119.55 62.29 119.73 62.2 119.92 62 120.11 61.71 120.3 61.29 120.48 60.75 120.67 60.08 120.86 59.27 121.05 58.3 121.23 57.17 121.42 55.86 121.61 54.37 121.8 52.67 121.99 50.77 122.17 48.64 122.36 46.28 122.55 43.66 122.74 40.77 122.92 37.6 123.11 34.14 123.3 30.35 123.49 26.24 123.67 21.77 123.86 16.94 124.05 11.71 124.24 6.07 124.42 0.01 124.61 -6.51 124.8 -13.51 124.99 -21.01 125.17 -29.03 125.36 -37.6 125.55 -46.74 125.74 -56.49 125.92 -66.87 126.11 -77.91 126.3 -89.64 126.49 -102.1 126.67 -115.3 126.86 -129.3 127.05 -144.12 127.24 -159.8" id="img-5ba4b255-61" class="geometry color_3.0" stroke="#4CA8D7"/>
        <path fill="none" d="M24.09,55.56 L 24.27 54.57 24.46 53.65 24.65 52.79 24.84 51.98 25.02 51.22 25.21 50.51 25.4 49.85 25.59 49.23 25.77 48.66 25.96 48.12 26.15 47.63 26.34 47.16 26.53 46.74 26.71 46.34 26.9 45.98 27.09 45.64 27.28 45.33 27.46 45.05 27.65 44.79 27.84 44.55 28.03 44.33 28.21 44.14 28.4 43.96 28.59 43.8 28.78 43.66 28.96 43.53 29.15 43.42 29.34 43.31 29.53 43.23 29.71 43.15 29.9 43.08 30.09 43.03 30.28 42.98 30.46 42.94 30.65 42.91 30.84 42.89 31.03 42.87 31.21 42.86 31.4 42.85 31.59 42.85 31.78 42.86 31.96 42.86 32.15 42.88 32.34 42.89 32.53 42.91 32.71 42.93 32.9 42.95 33.09 42.97 33.28 43 33.46 43.02 33.65 43.05 33.84 43.08 34.03 43.11 34.21 43.14 34.4 43.17 34.59 43.2 34.78 43.23 34.96 43.26 35.15 43.29 35.34 43.32 35.53 43.35 35.71 43.37 35.9 43.4 36.09 43.43 36.28 43.45 36.46 43.48 36.65 43.5 36.84 43.53 37.03 43.55 37.22 43.57 37.4 43.59 37.59 43.61 37.78 43.62 37.97 43.64 38.15 43.66 38.34 43.67 38.53 43.69 38.72 43.7 38.9 43.71 39.09 43.72 39.28 43.73 39.47 43.74 39.65 43.75 39.84 43.75 40.03 43.76 40.22 43.77 40.4 43.77 40.59 43.77 40.78 43.78 40.97 43.78 41.15 43.78 41.34 43.78 41.53 43.78 41.72 43.78 41.9 43.78 42.09 43.78 42.28 43.78 42.47 43.78 42.65 43.77 42.84 43.77 43.03 43.77 43.22 43.76 43.4 43.76 43.59 43.76 43.78 43.75 43.97 43.75 44.15 43.74 44.34 43.74 44.53 43.73 44.72 43.73 44.9 43.72 45.09 43.72 45.28 43.71 45.47 43.71 45.65 43.7 45.84 43.7 46.03 43.69 46.22 43.69 46.4 43.68 46.59 43.68 46.78 43.67 46.97 43.67 47.15 43.67 47.34 43.66 47.53 43.66 47.72 43.65 47.91 43.65 48.09 43.65 48.28 43.64 48.47 43.64 48.66 43.64 48.84 43.63 49.03 43.63 49.22 43.63 49.41 43.63 49.59 43.63 49.78 43.62 49.97 43.62 50.16 43.62 50.34 43.62 50.53 43.62 50.72 43.62 50.91 43.62 51.09 43.62 51.28 43.62 51.47 43.62 51.66 43.62 51.84 43.62 52.03 43.62 52.22 43.62 52.41 43.62 52.59 43.62 52.78 43.62 52.97 43.62 53.16 43.62 53.34 43.62 53.53 43.63 53.72 43.63 53.91 43.63 54.09 43.63 54.28 43.63 54.47 43.63 54.66 43.64 54.84 43.64 55.03 43.64 55.22 43.64 55.41 43.64 55.59 43.64 55.78 43.65 55.97 43.65 56.16 43.65 56.34 43.65 56.53 43.65 56.72 43.66 56.91 43.66 57.09 43.66 57.28 43.66 57.47 43.66 57.66 43.66 57.84 43.67 58.03 43.67 58.22 43.67 58.41 43.67 58.6 43.67 58.78 43.67 58.97 43.67 59.16 43.67 59.35 43.67 59.53 43.68 59.72 43.68 59.91 43.68 60.1 43.68 60.28 43.68 60.47 43.68 60.66 43.68 60.85 43.68 61.03 43.68 61.22 43.68 61.41 43.68 61.6 43.68 61.78 43.68 61.97 43.68 62.16 43.68 62.35 43.68 62.53 43.68 62.72 43.68 62.91 43.68 63.1 43.68 63.28 43.67 63.47 43.67 63.66 43.67 63.85 43.67 64.03 43.67 64.22 43.67 64.41 43.67 64.6 43.67 64.78 43.67 64.97 43.67 65.16 43.66 65.35 43.66 65.53 43.66 65.72 43.66 65.91 43.66 66.1 43.66 66.28 43.66 66.47 43.66 66.66 43.66 66.85 43.65 67.03 43.65 67.22 43.65 67.41 43.65 67.6 43.65 67.78 43.65 67.97 43.65 68.16 43.65 68.35 43.65 68.53 43.65 68.72 43.64 68.91 43.64 69.1 43.64 69.29 43.64 69.47 43.64 69.66 43.64 69.85 43.64 70.04 43.64 70.22 43.64 70.41 43.64 70.6 43.64 70.79 43.64 70.97 43.64 71.16 43.64 71.35 43.64 71.54 43.64 71.72 43.64 71.91 43.64 72.1 43.64 72.29 43.64 72.47 43.64 72.66 43.64 72.85 43.64 73.04 43.64 73.22 43.64 73.41 43.64 73.6 43.65 73.79 43.65 73.97 43.65 74.16 43.65 74.35 43.65 74.54 43.65 74.72 43.65 74.91 43.65 75.1 43.65 75.29 43.66 75.47 43.66 75.66 43.66 75.85 43.66 76.04 43.66 76.22 43.66 76.41 43.66 76.6 43.66 76.79 43.66 76.97 43.67 77.16 43.67 77.35 43.67 77.54 43.67 77.72 43.67 77.91 43.67 78.1 43.67 78.29 43.67 78.47 43.67 78.66 43.68 78.85 43.68 79.04 43.68 79.23 43.68 79.41 43.68 79.6 43.68 79.79 43.68 79.98 43.68 80.16 43.68 80.35 43.68 80.54 43.68 80.73 43.68 80.91 43.68 81.1 43.68 81.29 43.68 81.48 43.68 81.66 43.68 81.85 43.68 82.04 43.68 82.23 43.68 82.41 43.68 82.6 43.68 82.79 43.68 82.98 43.67 83.16 43.67 83.35 43.67 83.54 43.67 83.73 43.67 83.91 43.67 84.1 43.67 84.29 43.66 84.48 43.66 84.66 43.66 84.85 43.66 85.04 43.66 85.23 43.66 85.41 43.65 85.6 43.65 85.79 43.65 85.98 43.65 86.16 43.65 86.35 43.64 86.54 43.64 86.73 43.64 86.91 43.64 87.1 43.63 87.29 43.63 87.48 43.63 87.66 43.63 87.85 43.63 88.04 43.62 88.23 43.62 88.41 43.62 88.6 43.62 88.79 43.62 88.98 43.62 89.16 43.61 89.35 43.61 89.54 43.61 89.73 43.61 89.92 43.61 90.1 43.61 90.29 43.61 90.48 43.61 90.67 43.61 90.85 43.61 91.04 43.61 91.23 43.61 91.42 43.61 91.6 43.61 91.79 43.61 91.98 43.61 92.17 43.62 92.35 43.62 92.54 43.62 92.73 43.62 92.92 43.63 93.1 43.63 93.29 43.63 93.48 43.64 93.67 43.64 93.85 43.64 94.04 43.65 94.23 43.65 94.42 43.66 94.6 43.66 94.79 43.67 94.98 43.67 95.17 43.68 95.35 43.69 95.54 43.69 95.73 43.7 95.92 43.71 96.1 43.71 96.29 43.72 96.48 43.73 96.67 43.73 96.85 43.74 97.04 43.75 97.23 43.76 97.42 43.76 97.6 43.77 97.79 43.78 97.98 43.79 98.17 43.79 98.35 43.8 98.54 43.81 98.73 43.81 98.92 43.82 99.1 43.82 99.29 43.83 99.48 43.83 99.67 43.84 99.85 43.84 100.04 43.85 100.23 43.85 100.42 43.85 100.61 43.85 100.79 43.85 100.98 43.85 101.17 43.85 101.36 43.84 101.54 43.84 101.73 43.83 101.92 43.83 102.11 43.82 102.29 43.81 102.48 43.79 102.67 43.78 102.86 43.77 103.04 43.75 103.23 43.73 103.42 43.71 103.61 43.68 103.79 43.66 103.98 43.63 104.17 43.6 104.36 43.56 104.54 43.53 104.73 43.49 104.92 43.45 105.11 43.4 105.29 43.35 105.48 43.3 105.67 43.25 105.86 43.19 106.04 43.13 106.23 43.06 106.42 42.99 106.61 42.92 106.79 42.84 106.98 42.76 107.17 42.68 107.36 42.59 107.54 42.49 107.73 42.4 107.92 42.29 108.11 42.19 108.29 42.07 108.48 41.96 108.67 41.84 108.86 41.71 109.04 41.58 109.23 41.44 109.42 41.3 109.61 41.16 109.79 41.01 109.98 40.85 110.17 40.69 110.36 40.53 110.54 40.36 110.73 40.19 110.92 40.01 111.11 39.82 111.3 39.64 111.48 39.44 111.67 39.25 111.86 39.05 112.05 38.84 112.23 38.63 112.42 38.42 112.61 38.21 112.8 37.99 112.98 37.77 113.17 37.55 113.36 37.32 113.55 37.1 113.73 36.87 113.92 36.64 114.11 36.41 114.3 36.19 114.48 35.96 114.67 35.73 114.86 35.51 115.05 35.29 115.23 35.07 115.42 34.86 115.61 34.65 115.8 34.45 115.98 34.25 116.17 34.06 116.36 33.88 116.55 33.71 116.73 33.55 116.92 33.4 117.11 33.27 117.3 33.15 117.48 33.05 117.67 32.96 117.86 32.89 118.05 32.85 118.23 32.82 118.42 32.82 118.61 32.85 118.8 32.9 118.98 32.98 119.17 33.1 119.36 33.24 119.55 33.43 119.73 33.65 119.92 33.92 120.11 34.23 120.3 34.58 120.48 34.99 120.67 35.45 120.86 35.96 121.05 36.53 121.23 37.16 121.42 37.86 121.61 38.63 121.8 39.48 121.99 40.4 122.17 41.4 122.36 42.48 122.55 43.66 122.74 44.93 122.92 46.3 123.11 47.77 123.3 49.35 123.49 51.05 123.67 52.86 123.86 54.8 124.05 56.88 124.24 59.09 124.42 61.44 124.61 63.95 124.8 66.61 124.99 69.43 125.17 72.43 125.36 75.6 125.55 78.97 125.74 82.52 125.92 86.28 126.11 90.25 126.3 94.44 126.49 98.86 126.67 103.51 126.86 108.42 127.05 113.58 127.24 119.01" id="img-5ba4b255-62" class="geometry color_4.0" stroke="#53B6EA"/>
        <path fill="none" d="M24.09,42.58 L 24.27 42.67 24.46 42.75 24.65 42.83 24.84 42.91 25.02 42.97 25.21 43.04 25.4 43.1 25.59 43.15 25.77 43.21 25.96 43.25 26.15 43.3 26.34 43.34 26.53 43.38 26.71 43.42 26.9 43.45 27.09 43.48 27.28 43.51 27.46 43.53 27.65 43.56 27.84 43.58 28.03 43.6 28.21 43.61 28.4 43.63 28.59 43.64 28.78 43.66 28.96 43.67 29.15 43.68 29.34 43.69 29.53 43.7 29.71 43.7 29.9 43.71 30.09 43.71 30.28 43.72 30.46 43.72 30.65 43.72 30.84 43.73 31.03 43.73 31.21 43.73 31.4 43.73 31.59 43.73 31.78 43.73 31.96 43.73 32.15 43.73 32.34 43.73 32.53 43.72 32.71 43.72 32.9 43.72 33.09 43.72 33.28 43.72 33.46 43.71 33.65 43.71 33.84 43.71 34.03 43.71 34.21 43.7 34.4 43.7 34.59 43.7 34.78 43.7 34.96 43.69 35.15 43.69 35.34 43.69 35.53 43.69 35.71 43.68 35.9 43.68 36.09 43.68 36.28 43.68 36.46 43.67 36.65 43.67 36.84 43.67 37.03 43.67 37.22 43.67 37.4 43.66 37.59 43.66 37.78 43.66 37.97 43.66 38.15 43.66 38.34 43.66 38.53 43.65 38.72 43.65 38.9 43.65 39.09 43.65 39.28 43.65 39.47 43.65 39.65 43.65 39.84 43.65 40.03 43.65 40.22 43.65 40.4 43.65 40.59 43.65 40.78 43.65 40.97 43.65 41.15 43.65 41.34 43.65 41.53 43.65 41.72 43.65 41.9 43.65 42.09 43.65 42.28 43.65 42.47 43.65 42.65 43.65 42.84 43.65 43.03 43.65 43.22 43.65 43.4 43.65 43.59 43.65 43.78 43.65 43.97 43.65 44.15 43.65 44.34 43.65 44.53 43.65 44.72 43.65 44.9 43.65 45.09 43.65 45.28 43.65 45.47 43.65 45.65 43.65 45.84 43.65 46.03 43.65 46.22 43.65 46.4 43.66 46.59 43.66 46.78 43.66 46.97 43.66 47.15 43.66 47.34 43.66 47.53 43.66 47.72 43.66 47.91 43.66 48.09 43.66 48.28 43.66 48.47 43.66 48.66 43.66 48.84 43.66 49.03 43.66 49.22 43.66 49.41 43.66 49.59 43.66 49.78 43.66 49.97 43.66 50.16 43.66 50.34 43.66 50.53 43.66 50.72 43.66 50.91 43.66 51.09 43.66 51.28 43.66 51.47 43.66 51.66 43.66 51.84 43.66 52.03 43.66 52.22 43.66 52.41 43.66 52.59 43.66 52.78 43.66 52.97 43.66 53.16 43.66 53.34 43.66 53.53 43.66 53.72 43.66 53.91 43.66 54.09 43.66 54.28 43.66 54.47 43.66 54.66 43.66 54.84 43.66 55.03 43.66 55.22 43.66 55.41 43.66 55.59 43.66 55.78 43.66 55.97 43.66 56.16 43.66 56.34 43.66 56.53 43.66 56.72 43.66 56.91 43.66 57.09 43.66 57.28 43.66 57.47 43.66 57.66 43.66 57.84 43.66 58.03 43.66 58.22 43.66 58.41 43.66 58.6 43.66 58.78 43.66 58.97 43.66 59.16 43.66 59.35 43.66 59.53 43.66 59.72 43.66 59.91 43.66 60.1 43.66 60.28 43.66 60.47 43.66 60.66 43.66 60.85 43.66 61.03 43.66 61.22 43.66 61.41 43.66 61.6 43.66 61.78 43.66 61.97 43.66 62.16 43.66 62.35 43.66 62.53 43.66 62.72 43.66 62.91 43.66 63.1 43.66 63.28 43.66 63.47 43.66 63.66 43.66 63.85 43.66 64.03 43.66 64.22 43.66 64.41 43.66 64.6 43.66 64.78 43.66 64.97 43.66 65.16 43.66 65.35 43.66 65.53 43.66 65.72 43.66 65.91 43.66 66.1 43.66 66.28 43.66 66.47 43.66 66.66 43.66 66.85 43.66 67.03 43.66 67.22 43.66 67.41 43.66 67.6 43.66 67.78 43.66 67.97 43.66 68.16 43.66 68.35 43.66 68.53 43.66 68.72 43.66 68.91 43.66 69.1 43.66 69.29 43.66 69.47 43.66 69.66 43.66 69.85 43.66 70.04 43.66 70.22 43.66 70.41 43.66 70.6 43.66 70.79 43.66 70.97 43.66 71.16 43.66 71.35 43.66 71.54 43.66 71.72 43.66 71.91 43.66 72.1 43.66 72.29 43.66 72.47 43.66 72.66 43.66 72.85 43.66 73.04 43.66 73.22 43.66 73.41 43.66 73.6 43.66 73.79 43.66 73.97 43.66 74.16 43.66 74.35 43.66 74.54 43.66 74.72 43.66 74.91 43.66 75.1 43.66 75.29 43.66 75.47 43.66 75.66 43.66 75.85 43.66 76.04 43.66 76.22 43.66 76.41 43.66 76.6 43.66 76.79 43.66 76.97 43.66 77.16 43.66 77.35 43.66 77.54 43.66 77.72 43.66 77.91 43.66 78.1 43.66 78.29 43.66 78.47 43.66 78.66 43.66 78.85 43.66 79.04 43.66 79.23 43.66 79.41 43.66 79.6 43.66 79.79 43.66 79.98 43.66 80.16 43.66 80.35 43.66 80.54 43.66 80.73 43.66 80.91 43.66 81.1 43.66 81.29 43.66 81.48 43.66 81.66 43.66 81.85 43.66 82.04 43.66 82.23 43.66 82.41 43.66 82.6 43.66 82.79 43.66 82.98 43.66 83.16 43.66 83.35 43.66 83.54 43.66 83.73 43.66 83.91 43.66 84.1 43.66 84.29 43.66 84.48 43.66 84.66 43.66 84.85 43.66 85.04 43.66 85.23 43.66 85.41 43.66 85.6 43.66 85.79 43.66 85.98 43.66 86.16 43.66 86.35 43.66 86.54 43.66 86.73 43.66 86.91 43.66 87.1 43.66 87.29 43.66 87.48 43.66 87.66 43.66 87.85 43.66 88.04 43.66 88.23 43.66 88.41 43.66 88.6 43.66 88.79 43.66 88.98 43.66 89.16 43.66 89.35 43.66 89.54 43.66 89.73 43.66 89.92 43.66 90.1 43.66 90.29 43.66 90.48 43.66 90.67 43.66 90.85 43.66 91.04 43.66 91.23 43.66 91.42 43.66 91.6 43.66 91.79 43.66 91.98 43.66 92.17 43.66 92.35 43.66 92.54 43.66 92.73 43.66 92.92 43.66 93.1 43.66 93.29 43.66 93.48 43.66 93.67 43.66 93.85 43.66 94.04 43.66 94.23 43.66 94.42 43.66 94.6 43.66 94.79 43.66 94.98 43.66 95.17 43.66 95.35 43.66 95.54 43.66 95.73 43.65 95.92 43.65 96.1 43.65 96.29 43.65 96.48 43.65 96.67 43.65 96.85 43.65 97.04 43.65 97.23 43.65 97.42 43.65 97.6 43.65 97.79 43.65 97.98 43.65 98.17 43.65 98.35 43.65 98.54 43.65 98.73 43.65 98.92 43.65 99.1 43.65 99.29 43.65 99.48 43.65 99.67 43.65 99.85 43.65 100.04 43.65 100.23 43.65 100.42 43.65 100.61 43.65 100.79 43.65 100.98 43.65 101.17 43.65 101.36 43.65 101.54 43.65 101.73 43.65 101.92 43.65 102.11 43.65 102.29 43.65 102.48 43.65 102.67 43.65 102.86 43.65 103.04 43.65 103.23 43.65 103.42 43.65 103.61 43.66 103.79 43.66 103.98 43.66 104.17 43.66 104.36 43.66 104.54 43.66 104.73 43.67 104.92 43.67 105.11 43.67 105.29 43.67 105.48 43.67 105.67 43.68 105.86 43.68 106.04 43.68 106.23 43.68 106.42 43.69 106.61 43.69 106.79 43.69 106.98 43.69 107.17 43.7 107.36 43.7 107.54 43.7 107.73 43.7 107.92 43.71 108.11 43.71 108.29 43.71 108.48 43.71 108.67 43.72 108.86 43.72 109.04 43.72 109.23 43.72 109.42 43.72 109.61 43.73 109.79 43.73 109.98 43.73 110.17 43.73 110.36 43.73 110.54 43.73 110.73 43.73 110.92 43.73 111.11 43.73 111.3 43.72 111.48 43.72 111.67 43.72 111.86 43.71 112.05 43.71 112.23 43.7 112.42 43.7 112.61 43.69 112.8 43.68 112.98 43.67 113.17 43.66 113.36 43.64 113.55 43.63 113.73 43.61 113.92 43.6 114.11 43.58 114.3 43.56 114.48 43.53 114.67 43.51 114.86 43.48 115.05 43.45 115.23 43.42 115.42 43.38 115.61 43.34 115.8 43.3 115.98 43.25 116.17 43.21 116.36 43.15 116.55 43.1 116.73 43.04 116.92 42.97 117.11 42.91 117.3 42.83 117.48 42.75 117.67 42.67 117.86 42.58 118.05 42.49 118.23 42.39 118.42 42.28 118.61 42.16 118.8 42.04 118.98 41.92 119.17 41.78 119.36 41.64 119.55 41.48 119.73 41.32 119.92 41.15 120.11 40.97 120.3 40.78 120.48 40.58 120.67 40.37 120.86 40.15 121.05 39.92 121.23 39.67 121.42 39.41 121.61 39.14 121.8 38.85 121.99 38.55 122.17 38.23 122.36 37.9 122.55 37.55 122.74 37.18 122.92 36.8 123.11 36.39 123.3 35.97 123.49 35.53 123.67 35.07 123.86 34.58 124.05 34.07 124.24 33.54 124.42 32.99 124.61 32.41 124.8 31.8 124.99 31.17 125.17 30.51 125.36 29.81 125.55 29.09 125.74 28.34 125.92 27.56 126.11 26.74 126.3 25.88 126.49 25 126.67 24.07 126.86 23.1 127.05 22.1 127.24 21.05" id="img-5ba4b255-63" class="geometry color_5.0" stroke="#5AC5FD"/>
      </g>
    </g>
  </g>
</g>
  <g class="guide ylabels" font-size="2.82" font-family="'PT Sans Caption','Helvetica Neue','Helvetica',sans-serif" fill="#6C606B" id="img-5ba4b255-64">
    <text x="16.4" y="80.32" text-anchor="end" dy="0.35em" id="img-5ba4b255-65">-6</text>
    <text x="16.4" y="68.1" text-anchor="end" dy="0.35em" id="img-5ba4b255-66">-4</text>
    <text x="16.4" y="55.88" text-anchor="end" dy="0.35em" id="img-5ba4b255-67">-2</text>
    <text x="16.4" y="43.66" text-anchor="end" dy="0.35em" id="img-5ba4b255-68">0</text>
    <text x="16.4" y="31.44" text-anchor="end" dy="0.35em" id="img-5ba4b255-69">2</text>
    <text x="16.4" y="19.22" text-anchor="end" dy="0.35em" id="img-5ba4b255-70">4</text>
    <text x="16.4" y="7" text-anchor="end" dy="0.35em" id="img-5ba4b255-71">6</text>
  </g>
  <g font-size="3.88" font-family="'PT Sans','Helvetica Neue','Helvetica',sans-serif" fill="#564A55" stroke="#000000" stroke-opacity="0.000" id="img-5ba4b255-72">
    <text x="8.81" y="41.66" text-anchor="middle" dy="0.35em" transform="rotate(-90, 8.81, 43.66)" id="img-5ba4b255-73">phi(x)</text>
  </g>
</g>
<defs>
  <clipPath id="img-5ba4b255-31">
  <path d="M17.4,5 L 133.92 5 133.92 82.32 17.4 82.32" />
</clipPath>
</defs>
</svg>
