<?xml version="1.0" encoding="UTF-8"?>
<svg xmlns="http://www.w3.org/2000/svg"
     xmlns:xlink="http://www.w3.org/1999/xlink"
     xmlns:gadfly="http://www.gadflyjl.org/ns"
     version="1.2"
     width="152.4mm" height="101.6mm" viewBox="0 0 152.4 101.6"
     stroke="none"
     fill="#000000"
     stroke-width="0.3"
     font-size="3.88"
>
<g class="plotroot xscalable yscalable" id="img-6f8dac12-1">
  <g font-size="3.88" font-family="'PT Sans','Helvetica Neue','Helvetica',sans-serif" fill="#564A55" stroke="#000000" stroke-opacity="0.000" id="img-6f8dac12-2">
    <text x="82.33" y="89.99" text-anchor="middle" dy="0.6em">x</text>
  </g>
  <g class="guide xlabels" font-size="2.82" font-family="'PT Sans Caption','Helvetica Neue','Helvetica',sans-serif" fill="#6C606B" id="img-6f8dac12-3">
    <text x="19.27" y="83.31" text-anchor="middle" dy="0.6em">-6</text>
    <text x="40.29" y="83.31" text-anchor="middle" dy="0.6em">-4</text>
    <text x="61.31" y="83.31" text-anchor="middle" dy="0.6em">-2</text>
    <text x="82.33" y="83.31" text-anchor="middle" dy="0.6em">0</text>
    <text x="103.36" y="83.31" text-anchor="middle" dy="0.6em">2</text>
    <text x="124.38" y="83.31" text-anchor="middle" dy="0.6em">4</text>
    <text x="145.4" y="83.31" text-anchor="middle" dy="0.6em">6</text>
  </g>
<g clip-path="url(#img-6f8dac12-4)">
  <g id="img-6f8dac12-5">
    <g pointer-events="visible" opacity="1" fill="#000000" fill-opacity="0.000" stroke="#000000" stroke-opacity="0.000" class="guide background" id="img-6f8dac12-6">
      <rect x="17.27" y="5" width="130.13" height="77.31"/>
    </g>
    <g class="guide ygridlines xfixed" stroke-dasharray="0.5,0.5" stroke-width="0.2" stroke="#D0D0E0" id="img-6f8dac12-7">
      <path fill="none" d="M17.27,80.31 L 147.4 80.31"/>
      <path fill="none" d="M17.27,43.66 L 147.4 43.66"/>
      <path fill="none" d="M17.27,7 L 147.4 7"/>
    </g>
    <g class="guide xgridlines yfixed" stroke-dasharray="0.5,0.5" stroke-width="0.2" stroke="#D0D0E0" id="img-6f8dac12-8">
      <path fill="none" d="M19.27,5 L 19.27 82.31"/>
      <path fill="none" d="M40.29,5 L 40.29 82.31"/>
      <path fill="none" d="M61.31,5 L 61.31 82.31"/>
      <path fill="none" d="M82.33,5 L 82.33 82.31"/>
      <path fill="none" d="M103.36,5 L 103.36 82.31"/>
      <path fill="none" d="M124.38,5 L 124.38 82.31"/>
      <path fill="none" d="M145.4,5 L 145.4 82.31"/>
    </g>
    <g class="plotpanel" id="img-6f8dac12-9">
      <g class="geometry" id="img-6f8dac12-10">
        <g class="color_RGBA{Float32}(0.875f0,0.6171875f0,0.09765625f0,1.0f0)" stroke="#FFFFFF" stroke-width="0.3" fill="#DF9D19" id="img-6f8dac12-11">
          <use xlink:href="#img-6f8dac12-12" x="29.78" y="43.66"/>
          <use xlink:href="#img-6f8dac12-12" x="40.29" y="17.26"/>
          <use xlink:href="#img-6f8dac12-12" x="50.8" y="8.47"/>
          <use xlink:href="#img-6f8dac12-12" x="61.31" y="12.87"/>
          <use xlink:href="#img-6f8dac12-12" x="71.82" y="26.06"/>
          <use xlink:href="#img-6f8dac12-12" x="82.33" y="43.66"/>
          <use xlink:href="#img-6f8dac12-12" x="92.84" y="61.25"/>
          <use xlink:href="#img-6f8dac12-12" x="103.36" y="74.45"/>
          <use xlink:href="#img-6f8dac12-12" x="113.87" y="78.85"/>
          <use xlink:href="#img-6f8dac12-12" x="124.38" y="70.05"/>
          <use xlink:href="#img-6f8dac12-12" x="134.89" y="43.66"/>
        </g>
      </g>
      <g stroke-width="0.3" fill="#000000" fill-opacity="0.000" class="geometry" stroke-dasharray="none" stroke="#2D637F" id="img-6f8dac12-13">
        <path fill="none" d="M24.52,64.83 L 24.73 63.87 24.94 62.92 25.15 61.98 25.36 61.05 25.57 60.13 25.78 59.22 25.99 58.31 26.2 57.42 26.41 56.54 26.62 55.66 26.83 54.8 27.04 53.94 27.25 53.1 27.46 52.26 27.67 51.43 27.89 50.62 28.1 49.81 28.31 49.01 28.52 48.22 28.73 47.43 28.94 46.66 29.15 45.9 29.36 45.14 29.57 44.4 29.78 43.66 29.99 42.93 30.2 42.21 30.41 41.5 30.62 40.79 30.83 40.1 31.04 39.42 31.25 38.74 31.46 38.07 31.67 37.41 31.88 36.76 32.09 36.12 32.3 35.48 32.51 34.86 32.72 34.24 32.93 33.63 33.14 33.03 33.35 32.44 33.56 31.85 33.77 31.28 33.98 30.71 34.19 30.15 34.4 29.59 34.61 29.05 34.82 28.51 35.03 27.99 35.24 27.47 35.45 26.95 35.66 26.45 35.87 25.95 36.08 25.46 36.29 24.98 36.5 24.51 36.71 24.04 36.92 23.59 37.13 23.13 37.35 22.69 37.56 22.26 37.77 21.83 37.98 21.41 38.19 20.99 38.4 20.59 38.61 20.19 38.82 19.8 39.03 19.42 39.24 19.04 39.45 18.67 39.66 18.31 39.87 17.95 40.08 17.6 40.29 17.26 40.5 16.93 40.71 16.6 40.92 16.28 41.13 15.97 41.34 15.67 41.55 15.37 41.76 15.07 41.97 14.79 42.18 14.51 42.39 14.24 42.6 13.97 42.81 13.71 43.02 13.46 43.23 13.22 43.44 12.98 43.65 12.74 43.86 12.52 44.07 12.3 44.28 12.09 44.49 11.88 44.7 11.68 44.91 11.49 45.12 11.3 45.33 11.12 45.54 10.94 45.75 10.77 45.96 10.61 46.17 10.45 46.38 10.3 46.59 10.16 46.81 10.02 47.02 9.88 47.23 9.76 47.44 9.64 47.65 9.52 47.86 9.41 48.07 9.31 48.28 9.21 48.49 9.12 48.7 9.03 48.91 8.95 49.12 8.87 49.33 8.8 49.54 8.74 49.75 8.68 49.96 8.63 50.17 8.58 50.38 8.54 50.59 8.5 50.8 8.47 51.01 8.44 51.22 8.42 51.43 8.4 51.64 8.39 51.85 8.38 52.06 8.38 52.27 8.39 52.48 8.4 52.69 8.41 52.9 8.43 53.11 8.46 53.32 8.48 53.53 8.52 53.74 8.56 53.95 8.6 54.16 8.65 54.37 8.7 54.58 8.76 54.79 8.82 55 8.89 55.21 8.96 55.42 9.04 55.63 9.12 55.84 9.2 56.05 9.29 56.27 9.38 56.48 9.48 56.69 9.59 56.9 9.69 57.11 9.8 57.32 9.92 57.53 10.04 57.74 10.16 57.95 10.29 58.16 10.42 58.37 10.56 58.58 10.7 58.79 10.84 59 10.99 59.21 11.14 59.42 11.3 59.63 11.46 59.84 11.62 60.05 11.79 60.26 11.96 60.47 12.13 60.68 12.31 60.89 12.49 61.1 12.68 61.31 12.87 61.52 13.06 61.73 13.25 61.94 13.45 62.15 13.66 62.36 13.86 62.57 14.07 62.78 14.28 62.99 14.5 63.2 14.72 63.41 14.94 63.62 15.17 63.83 15.4 64.04 15.63 64.25 15.86 64.46 16.1 64.67 16.34 64.88 16.59 65.09 16.83 65.3 17.08 65.52 17.33 65.73 17.59 65.94 17.85 66.15 18.11 66.36 18.37 66.57 18.64 66.78 18.91 66.99 19.18 67.2 19.45 67.41 19.73 67.62 20.01 67.83 20.29 68.04 20.57 68.25 20.86 68.46 21.15 68.67 21.44 68.88 21.73 69.09 22.03 69.3 22.33 69.51 22.63 69.72 22.93 69.93 23.23 70.14 23.54 70.35 23.85 70.56 24.16 70.77 24.47 70.98 24.79 71.19 25.1 71.4 25.42 71.61 25.74 71.82 26.06 72.03 26.39 72.24 26.71 72.45 27.04 72.66 27.37 72.87 27.7 73.08 28.03 73.29 28.36 73.5 28.7 73.71 29.03 73.92 29.37 74.13 29.71 74.34 30.05 74.55 30.39 74.76 30.73 74.98 31.08 75.19 31.42 75.4 31.77 75.61 32.12 75.82 32.47 76.03 32.82 76.24 33.17 76.45 33.52 76.66 33.88 76.87 34.23 77.08 34.58 77.29 34.94 77.5 35.3 77.71 35.66 77.92 36.01 78.13 36.37 78.34 36.73 78.55 37.09 78.76 37.45 78.97 37.82 79.18 38.18 79.39 38.54 79.6 38.9 79.81 39.27 80.02 39.63 80.23 40 80.44 40.36 80.65 40.73 80.86 41.09 81.07 41.46 81.28 41.83 81.49 42.19 81.7 42.56 81.91 42.92 82.12 43.29 82.33 43.66 82.54 44.02 82.75 44.39 82.96 44.76 83.17 45.12 83.38 45.49 83.59 45.86 83.8 46.22 84.01 46.59 84.22 46.95 84.44 47.32 84.65 47.68 84.86 48.05 85.07 48.41 85.28 48.77 85.49 49.14 85.7 49.5 85.91 49.86 86.12 50.22 86.33 50.58 86.54 50.94 86.75 51.3 86.96 51.66 87.17 52.02 87.38 52.37 87.59 52.73 87.8 53.09 88.01 53.44 88.22 53.79 88.43 54.15 88.64 54.5 88.85 54.85 89.06 55.2 89.27 55.54 89.48 55.89 89.69 56.24 89.9 56.58 90.11 56.92 90.32 57.27 90.53 57.61 90.74 57.95 90.95 58.28 91.16 58.62 91.37 58.95 91.58 59.29 91.79 59.62 92 59.95 92.21 60.28 92.42 60.6 92.63 60.93 92.84 61.25 93.05 61.57 93.26 61.89 93.47 62.21 93.68 62.53 93.9 62.84 94.11 63.16 94.32 63.47 94.53 63.77 94.74 64.08 94.95 64.39 95.16 64.69 95.37 64.99 95.58 65.29 95.79 65.58 96 65.87 96.21 66.17 96.42 66.45 96.63 66.74 96.84 67.02 97.05 67.31 97.26 67.59 97.47 67.86 97.68 68.14 97.89 68.41 98.1 68.68 98.31 68.94 98.52 69.21 98.73 69.47 98.94 69.73 99.15 69.98 99.36 70.23 99.57 70.48 99.78 70.73 99.99 70.97 100.2 71.21 100.41 71.45 100.62 71.69 100.83 71.92 101.04 72.15 101.25 72.37 101.46 72.6 101.67 72.82 101.88 73.03 102.09 73.24 102.3 73.45 102.51 73.66 102.72 73.86 102.93 74.06 103.15 74.26 103.36 74.45 103.57 74.64 103.78 74.82 103.99 75.01 104.2 75.18 104.41 75.36 104.62 75.53 104.83 75.7 105.04 75.86 105.25 76.02 105.46 76.17 105.67 76.33 105.88 76.47 106.09 76.62 106.3 76.76 106.51 76.89 106.72 77.03 106.93 77.15 107.14 77.28 107.35 77.4 107.56 77.51 107.77 77.62 107.98 77.73 108.19 77.83 108.4 77.93 108.61 78.02 108.82 78.11 109.03 78.2 109.24 78.28 109.45 78.35 109.66 78.43 109.87 78.49 110.08 78.56 110.29 78.61 110.5 78.67 110.71 78.71 110.92 78.76 111.13 78.8 111.34 78.83 111.55 78.86 111.76 78.88 111.97 78.9 112.18 78.92 112.39 78.93 112.61 78.93 112.82 78.93 113.03 78.92 113.24 78.91 113.45 78.9 113.66 78.88 113.87 78.85 114.08 78.82 114.29 78.78 114.5 78.74 114.71 78.69 114.92 78.64 115.13 78.58 115.34 78.51 115.55 78.44 115.76 78.37 115.97 78.29 116.18 78.2 116.39 78.11 116.6 78.01 116.81 77.9 117.02 77.8 117.23 77.68 117.44 77.56 117.65 77.43 117.86 77.3 118.07 77.16 118.28 77.01 118.49 76.86 118.7 76.71 118.91 76.54 119.12 76.37 119.33 76.2 119.54 76.02 119.75 75.83 119.96 75.64 120.17 75.44 120.38 75.23 120.59 75.02 120.8 74.8 121.01 74.57 121.22 74.34 121.43 74.1 121.64 73.85 121.85 73.6 122.07 73.34 122.28 73.08 122.49 72.81 122.7 72.53 122.91 72.24 123.12 71.95 123.33 71.65 123.54 71.34 123.75 71.03 123.96 70.71 124.17 70.38 124.38 70.05 124.59 69.71 124.8 69.36 125.01 69.01 125.22 68.65 125.43 68.28 125.64 67.9 125.85 67.52 126.06 67.12 126.27 66.73 126.48 66.32 126.69 65.91 126.9 65.49 127.11 65.06 127.32 64.62 127.53 64.18 127.74 63.73 127.95 63.27 128.16 62.81 128.37 62.33 128.58 61.85 128.79 61.36 129 60.87 129.21 60.36 129.42 59.85 129.63 59.33 129.84 58.8 130.05 58.26 130.26 57.72 130.47 57.17 130.68 56.61 130.89 56.04 131.1 55.46 131.32 54.88 131.53 54.29 131.74 53.68 131.95 53.08 132.16 52.46 132.37 51.83 132.58 51.2 132.79 50.55 133 49.9 133.21 49.24 133.42 48.58 133.63 47.9 133.84 47.21 134.05 46.52 134.26 45.82 134.47 45.11 134.68 44.39 134.89 43.66 135.1 42.92 135.31 42.17 135.52 41.42 135.73 40.65 135.94 39.88 136.15 39.1 136.36 38.31 136.57 37.51 136.78 36.7 136.99 35.88 137.2 35.05 137.41 34.22 137.62 33.37 137.83 32.52 138.04 31.65 138.25 30.78 138.46 29.89 138.67 29 138.88 28.1 139.09 27.19 139.3 26.27 139.51 25.34 139.72 24.4 139.93 23.45 140.14 22.49"/>
      </g>
    </g>
  </g>
</g>
  <g class="guide ylabels" font-size="2.82" font-family="'PT Sans Caption','Helvetica Neue','Helvetica',sans-serif" fill="#6C606B" id="img-6f8dac12-14">
    <text x="16.27" y="80.31" text-anchor="end" dy="0.35em">-50</text>
    <text x="16.27" y="43.66" text-anchor="end" dy="0.35em">0</text>
    <text x="16.27" y="7" text-anchor="end" dy="0.35em">50</text>
  </g>
  <g font-size="3.88" font-family="'PT Sans','Helvetica Neue','Helvetica',sans-serif" fill="#564A55" stroke="#000000" stroke-opacity="0.000" id="img-6f8dac12-15">
    <text x="8.81" y="43.66" text-anchor="end" dy="0.35em">y</text>
  </g>
</g>
<defs>
  <clipPath id="img-6f8dac12-4">
  <path d="M17.27,5 L 147.4 5 147.4 82.31 17.27 82.31" />
</clipPath>
  <g id="img-6f8dac12-12">
    <circle cx="0" cy="0" r="0.9"/>
  </g>
</defs>
</svg>
