<?xml version="1.0" encoding="UTF-8"?>
<svg xmlns="http://www.w3.org/2000/svg"
     xmlns:xlink="http://www.w3.org/1999/xlink"
     xmlns:gadfly="http://www.gadflyjl.org/ns"
     version="1.2"
     width="152.4mm" height="101.6mm" viewBox="0 0 152.4 101.6"
     stroke="none"
     fill="#000000"
     stroke-width="0.3"
     font-size="3.88"
>
<g class="plotroot xscalable yscalable" id="img-a5ebf64f-1">
  <g font-size="3.88" font-family="'PT Sans','Helvetica Neue','Helvetica',sans-serif" fill="#564A55" stroke="#000000" stroke-opacity="0.000" id="img-a5ebf64f-2">
    <text x="82.33" y="89.99" text-anchor="middle" dy="0.6em">x</text>
  </g>
  <g class="guide xlabels" font-size="2.82" font-family="'PT Sans Caption','Helvetica Neue','Helvetica',sans-serif" fill="#6C606B" id="img-a5ebf64f-3">
    <text x="19.27" y="83.31" text-anchor="middle" dy="0.6em">-6</text>
    <text x="40.29" y="83.31" text-anchor="middle" dy="0.6em">-4</text>
    <text x="61.31" y="83.31" text-anchor="middle" dy="0.6em">-2</text>
    <text x="82.33" y="83.31" text-anchor="middle" dy="0.6em">0</text>
    <text x="103.36" y="83.31" text-anchor="middle" dy="0.6em">2</text>
    <text x="124.38" y="83.31" text-anchor="middle" dy="0.6em">4</text>
    <text x="145.4" y="83.31" text-anchor="middle" dy="0.6em">6</text>
  </g>
<g clip-path="url(#img-a5ebf64f-4)">
  <g id="img-a5ebf64f-5">
    <g pointer-events="visible" opacity="1" fill="#000000" fill-opacity="0.000" stroke="#000000" stroke-opacity="0.000" class="guide background" id="img-a5ebf64f-6">
      <rect x="17.27" y="5" width="130.13" height="77.31"/>
    </g>
    <g class="guide ygridlines xfixed" stroke-dasharray="0.5,0.5" stroke-width="0.2" stroke="#D0D0E0" id="img-a5ebf64f-7">
      <path fill="none" d="M17.27,80.31 L 147.4 80.31"/>
      <path fill="none" d="M17.27,43.66 L 147.4 43.66"/>
      <path fill="none" d="M17.27,7 L 147.4 7"/>
    </g>
    <g class="guide xgridlines yfixed" stroke-dasharray="0.5,0.5" stroke-width="0.2" stroke="#D0D0E0" id="img-a5ebf64f-8">
      <path fill="none" d="M19.27,5 L 19.27 82.31"/>
      <path fill="none" d="M40.29,5 L 40.29 82.31"/>
      <path fill="none" d="M61.31,5 L 61.31 82.31"/>
      <path fill="none" d="M82.33,5 L 82.33 82.31"/>
      <path fill="none" d="M103.36,5 L 103.36 82.31"/>
      <path fill="none" d="M124.38,5 L 124.38 82.31"/>
      <path fill="none" d="M145.4,5 L 145.4 82.31"/>
    </g>
    <g class="plotpanel" id="img-a5ebf64f-9">
      <g class="geometry" id="img-a5ebf64f-10">
        <g class="color_RGBA{Float32}(0.875f0,0.6171875f0,0.09765625f0,1.0f0)" stroke="#FFFFFF" stroke-width="0.3" fill="#DF9D19" id="img-a5ebf64f-11">
          <use xlink:href="#img-a5ebf64f-12" x="29.78" y="43.66"/>
          <use xlink:href="#img-a5ebf64f-12" x="40.29" y="17.26"/>
          <use xlink:href="#img-a5ebf64f-12" x="50.8" y="8.47"/>
          <use xlink:href="#img-a5ebf64f-12" x="61.31" y="12.87"/>
          <use xlink:href="#img-a5ebf64f-12" x="71.82" y="26.06"/>
          <use xlink:href="#img-a5ebf64f-12" x="82.33" y="43.66"/>
          <use xlink:href="#img-a5ebf64f-12" x="92.84" y="61.25"/>
          <use xlink:href="#img-a5ebf64f-12" x="103.36" y="74.45"/>
          <use xlink:href="#img-a5ebf64f-12" x="113.87" y="78.85"/>
          <use xlink:href="#img-a5ebf64f-12" x="124.38" y="70.05"/>
          <use xlink:href="#img-a5ebf64f-12" x="134.89" y="43.66"/>
        </g>
      </g>
      <g stroke-width="0.3" fill="#000000" fill-opacity="0.000" class="geometry" stroke-dasharray="none" stroke="#2D637F" id="img-a5ebf64f-13">
        <path fill="none" d="M24.52,46.32 L 24.73 46.37 24.94 46.4 25.15 46.43 25.36 46.44 25.57 46.45 25.78 46.44 25.99 46.42 26.2 46.39 26.41 46.35 26.62 46.29 26.83 46.22 27.04 46.13 27.25 46.03 27.46 45.92 27.67 45.79 27.89 45.65 28.1 45.49 28.31 45.32 28.52 45.13 28.73 44.92 28.94 44.7 29.15 44.47 29.36 44.21 29.57 43.94 29.78 43.66 29.99 43.36 30.2 43.04 30.41 42.71 30.62 42.36 30.83 41.99 31.04 41.61 31.25 41.22 31.46 40.81 31.67 40.39 31.88 39.95 32.09 39.5 32.3 39.03 32.51 38.55 32.72 38.06 32.93 37.56 33.14 37.04 33.35 36.52 33.56 35.98 33.77 35.44 33.98 34.88 34.19 34.32 34.4 33.75 34.61 33.17 34.82 32.58 35.03 31.99 35.24 31.39 35.45 30.79 35.66 30.18 35.87 29.57 36.08 28.96 36.29 28.34 36.5 27.73 36.71 27.11 36.92 26.49 37.13 25.88 37.35 25.27 37.56 24.66 37.77 24.05 37.98 23.45 38.19 22.85 38.4 22.25 38.61 21.67 38.82 21.09 39.03 20.51 39.24 19.95 39.45 19.39 39.66 18.85 39.87 18.31 40.08 17.78 40.29 17.26 40.5 16.76 40.71 16.27 40.92 15.78 41.13 15.32 41.34 14.86 41.55 14.42 41.76 13.99 41.97 13.58 42.18 13.17 42.39 12.79 42.6 12.42 42.81 12.06 43.02 11.72 43.23 11.4 43.44 11.08 43.65 10.79 43.86 10.51 44.07 10.24 44.28 9.99 44.49 9.76 44.7 9.54 44.91 9.34 45.12 9.15 45.33 8.97 45.54 8.81 45.75 8.66 45.96 8.53 46.17 8.41 46.38 8.31 46.59 8.22 46.81 8.14 47.02 8.07 47.23 8.01 47.44 7.97 47.65 7.93 47.86 7.91 48.07 7.9 48.28 7.9 48.49 7.9 48.7 7.92 48.91 7.94 49.12 7.98 49.33 8.02 49.54 8.06 49.75 8.12 49.96 8.18 50.17 8.24 50.38 8.31 50.59 8.39 50.8 8.47 51.01 8.55 51.22 8.64 51.43 8.73 51.64 8.82 51.85 8.91 52.06 9.01 52.27 9.11 52.48 9.2 52.69 9.3 52.9 9.4 53.11 9.5 53.32 9.6 53.53 9.7 53.74 9.8 53.95 9.9 54.16 10 54.37 10.1 54.58 10.19 54.79 10.29 55 10.38 55.21 10.47 55.42 10.56 55.63 10.65 55.84 10.73 56.05 10.82 56.27 10.9 56.48 10.99 56.69 11.07 56.9 11.15 57.11 11.22 57.32 11.3 57.53 11.38 57.74 11.45 57.95 11.53 58.16 11.6 58.37 11.68 58.58 11.75 58.79 11.83 59 11.9 59.21 11.98 59.42 12.06 59.63 12.14 59.84 12.22 60.05 12.3 60.26 12.39 60.47 12.48 60.68 12.57 60.89 12.66 61.1 12.76 61.31 12.87 61.52 12.97 61.73 13.08 61.94 13.2 62.15 13.32 62.36 13.44 62.57 13.57 62.78 13.71 62.99 13.85 63.2 14 63.41 14.16 63.62 14.32 63.83 14.49 64.04 14.67 64.25 14.85 64.46 15.04 64.67 15.24 64.88 15.44 65.09 15.66 65.3 15.88 65.52 16.1 65.73 16.34 65.94 16.58 66.15 16.84 66.36 17.09 66.57 17.36 66.78 17.64 66.99 17.92 67.2 18.21 67.41 18.5 67.62 18.81 67.83 19.12 68.04 19.44 68.25 19.76 68.46 20.09 68.67 20.43 68.88 20.77 69.09 21.12 69.3 21.48 69.51 21.84 69.72 22.2 69.93 22.57 70.14 22.95 70.35 23.33 70.56 23.71 70.77 24.09 70.98 24.48 71.19 24.87 71.4 25.27 71.61 25.66 71.82 26.06 72.03 26.46 72.24 26.86 72.45 27.26 72.66 27.67 72.87 28.07 73.08 28.47 73.29 28.87 73.5 29.27 73.71 29.67 73.92 30.07 74.13 30.47 74.34 30.87 74.55 31.26 74.76 31.65 74.98 32.04 75.19 32.43 75.4 32.81 75.61 33.19 75.82 33.57 76.03 33.94 76.24 34.31 76.45 34.68 76.66 35.05 76.87 35.41 77.08 35.76 77.29 36.12 77.5 36.46 77.71 36.81 77.92 37.15 78.13 37.49 78.34 37.82 78.55 38.15 78.76 38.48 78.97 38.81 79.18 39.13 79.39 39.44 79.6 39.76 79.81 40.07 80.02 40.38 80.23 40.68 80.44 40.99 80.65 41.29 80.86 41.59 81.07 41.89 81.28 42.19 81.49 42.48 81.7 42.78 81.91 43.07 82.12 43.36 82.33 43.66 82.54 43.95 82.75 44.24 82.96 44.54 83.17 44.83 83.38 45.13 83.59 45.43 83.8 45.72 84.01 46.02 84.22 46.33 84.44 46.63 84.65 46.94 84.86 47.25 85.07 47.56 85.28 47.87 85.49 48.19 85.7 48.51 85.91 48.83 86.12 49.16 86.33 49.49 86.54 49.83 86.75 50.16 86.96 50.5 87.17 50.85 87.38 51.2 87.59 51.55 87.8 51.91 88.01 52.27 88.22 52.63 88.43 53 88.64 53.37 88.85 53.75 89.06 54.12 89.27 54.5 89.48 54.89 89.69 55.27 89.9 55.66 90.11 56.05 90.32 56.45 90.53 56.84 90.74 57.24 90.95 57.64 91.16 58.04 91.37 58.44 91.58 58.84 91.79 59.25 92 59.65 92.21 60.05 92.42 60.45 92.63 60.85 92.84 61.25 93.05 61.65 93.26 62.05 93.47 62.44 93.68 62.83 93.9 63.22 94.11 63.61 94.32 63.99 94.53 64.37 94.74 64.74 94.95 65.11 95.16 65.48 95.37 65.84 95.58 66.19 95.79 66.54 96 66.88 96.21 67.22 96.42 67.55 96.63 67.88 96.84 68.19 97.05 68.51 97.26 68.81 97.47 69.11 97.68 69.4 97.89 69.68 98.1 69.95 98.31 70.22 98.52 70.48 98.73 70.73 98.94 70.97 99.15 71.21 99.36 71.44 99.57 71.66 99.78 71.87 99.99 72.08 100.2 72.28 100.41 72.47 100.62 72.65 100.83 72.83 101.04 72.99 101.25 73.16 101.46 73.31 101.67 73.46 101.88 73.6 102.09 73.74 102.3 73.87 102.51 74 102.72 74.12 102.93 74.23 103.15 74.34 103.36 74.45 103.57 74.55 103.78 74.65 103.99 74.74 104.2 74.84 104.41 74.92 104.62 75.01 104.83 75.09 105.04 75.18 105.25 75.26 105.46 75.33 105.67 75.41 105.88 75.49 106.09 75.56 106.3 75.64 106.51 75.71 106.72 75.79 106.93 75.86 107.14 75.94 107.35 76.01 107.56 76.09 107.77 76.17 107.98 76.25 108.19 76.33 108.4 76.41 108.61 76.5 108.82 76.58 109.03 76.67 109.24 76.76 109.45 76.84 109.66 76.94 109.87 77.03 110.08 77.12 110.29 77.22 110.5 77.31 110.71 77.41 110.92 77.51 111.13 77.61 111.34 77.71 111.55 77.81 111.76 77.91 111.97 78.01 112.18 78.11 112.39 78.21 112.61 78.31 112.82 78.4 113.03 78.5 113.24 78.59 113.45 78.68 113.66 78.77 113.87 78.85 114.08 78.93 114.29 79 114.5 79.07 114.71 79.14 114.92 79.2 115.13 79.25 115.34 79.3 115.55 79.34 115.76 79.37 115.97 79.39 116.18 79.41 116.39 79.42 116.6 79.42 116.81 79.4 117.02 79.38 117.23 79.35 117.44 79.3 117.65 79.25 117.86 79.18 118.07 79.1 118.28 79.01 118.49 78.9 118.7 78.78 118.91 78.65 119.12 78.5 119.33 78.34 119.54 78.17 119.75 77.98 119.96 77.77 120.17 77.55 120.38 77.32 120.59 77.07 120.8 76.81 121.01 76.53 121.22 76.23 121.43 75.92 121.64 75.59 121.85 75.25 122.07 74.9 122.28 74.53 122.49 74.14 122.7 73.74 122.91 73.33 123.12 72.9 123.33 72.45 123.54 72 123.75 71.53 123.96 71.05 124.17 70.56 124.38 70.05 124.59 69.53 124.8 69.01 125.01 68.47 125.22 67.92 125.43 67.37 125.64 66.8 125.85 66.23 126.06 65.65 126.27 65.06 126.48 64.47 126.69 63.87 126.9 63.27 127.11 62.66 127.32 62.05 127.53 61.44 127.74 60.82 127.95 60.21 128.16 59.59 128.37 58.97 128.58 58.36 128.79 57.75 129 57.14 129.21 56.53 129.42 55.93 129.63 55.33 129.84 54.74 130.05 54.15 130.26 53.57 130.47 53 130.68 52.43 130.89 51.88 131.1 51.33 131.32 50.8 131.53 50.27 131.74 49.76 131.95 49.25 132.16 48.76 132.37 48.28 132.58 47.82 132.79 47.37 133 46.93 133.21 46.51 133.42 46.1 133.63 45.7 133.84 45.32 134.05 44.96 134.26 44.61 134.47 44.28 134.68 43.96 134.89 43.66 135.1 43.37 135.31 43.1 135.52 42.85 135.73 42.61 135.94 42.39 136.15 42.19 136.36 42 136.57 41.82 136.78 41.66 136.99 41.52 137.2 41.39 137.41 41.28 137.62 41.18 137.83 41.1 138.04 41.03 138.25 40.97 138.46 40.92 138.67 40.89 138.88 40.87 139.09 40.87 139.3 40.87 139.51 40.89 139.72 40.91 139.93 40.95 140.14 40.99"/>
      </g>
    </g>
  </g>
</g>
  <g class="guide ylabels" font-size="2.82" font-family="'PT Sans Caption','Helvetica Neue','Helvetica',sans-serif" fill="#6C606B" id="img-a5ebf64f-14">
    <text x="16.27" y="80.31" text-anchor="end" dy="0.35em">-50</text>
    <text x="16.27" y="43.66" text-anchor="end" dy="0.35em">0</text>
    <text x="16.27" y="7" text-anchor="end" dy="0.35em">50</text>
  </g>
  <g font-size="3.88" font-family="'PT Sans','Helvetica Neue','Helvetica',sans-serif" fill="#564A55" stroke="#000000" stroke-opacity="0.000" id="img-a5ebf64f-15">
    <text x="8.81" y="43.66" text-anchor="end" dy="0.35em">y</text>
  </g>
</g>
<defs>
  <clipPath id="img-a5ebf64f-4">
  <path d="M17.27,5 L 147.4 5 147.4 82.31 17.27 82.31" />
</clipPath>
  <g id="img-a5ebf64f-12">
    <circle cx="0" cy="0" r="0.9"/>
  </g>
</defs>
</svg>
