<?xml version="1.0" encoding="UTF-8"?>
<svg xmlns="http://www.w3.org/2000/svg"
     xmlns:xlink="http://www.w3.org/1999/xlink"
     xmlns:gadfly="http://www.gadflyjl.org/ns"
     version="1.2"
     width="152.4mm" height="101.6mm" viewBox="0 0 152.4 101.6"
     stroke="none"
     fill="#000000"
     stroke-width="0.3"
     font-size="3.88"
>
<g class="plotroot xscalable yscalable" id="img-733cdf9b-1">
  <g font-size="3.88" font-family="'PT Sans','Helvetica Neue','Helvetica',sans-serif" fill="#564A55" stroke="#000000" stroke-opacity="0.000" id="img-733cdf9b-2">
    <text x="81.5" y="89.99" text-anchor="middle" dy="0.6em">x</text>
  </g>
  <g class="guide xlabels" font-size="2.82" font-family="'PT Sans Caption','Helvetica Neue','Helvetica',sans-serif" fill="#6C606B" id="img-733cdf9b-3">
    <text x="17.59" y="83.32" text-anchor="middle" dy="0.6em">-6</text>
    <text x="38.89" y="83.32" text-anchor="middle" dy="0.6em">-4</text>
    <text x="60.19" y="83.32" text-anchor="middle" dy="0.6em">-2</text>
    <text x="81.5" y="83.32" text-anchor="middle" dy="0.6em">0</text>
    <text x="102.8" y="83.32" text-anchor="middle" dy="0.6em">2</text>
    <text x="124.1" y="83.32" text-anchor="middle" dy="0.6em">4</text>
    <text x="145.4" y="83.32" text-anchor="middle" dy="0.6em">6</text>
  </g>
<g clip-path="url(#img-733cdf9b-4)">
  <g id="img-733cdf9b-5">
    <g pointer-events="visible" opacity="1" fill="#000000" fill-opacity="0.000" stroke="#000000" stroke-opacity="0.000" class="guide background" id="img-733cdf9b-6">
      <rect x="15.59" y="5" width="131.81" height="77.32"/>
    </g>
    <g class="guide ygridlines xfixed" stroke-dasharray="0.5,0.5" stroke-width="0.2" stroke="#D0D0E0" id="img-733cdf9b-7">
      <path fill="none" d="M15.59,80.32 L 147.4 80.32"/>
      <path fill="none" d="M15.59,68.1 L 147.4 68.1"/>
      <path fill="none" d="M15.59,55.88 L 147.4 55.88"/>
      <path fill="none" d="M15.59,43.66 L 147.4 43.66"/>
      <path fill="none" d="M15.59,31.44 L 147.4 31.44"/>
      <path fill="none" d="M15.59,19.22 L 147.4 19.22"/>
      <path fill="none" d="M15.59,7 L 147.4 7"/>
    </g>
    <g class="guide xgridlines yfixed" stroke-dasharray="0.5,0.5" stroke-width="0.2" stroke="#D0D0E0" id="img-733cdf9b-8">
      <path fill="none" d="M17.59,5 L 17.59 82.32"/>
      <path fill="none" d="M38.89,5 L 38.89 82.32"/>
      <path fill="none" d="M60.19,5 L 60.19 82.32"/>
      <path fill="none" d="M81.5,5 L 81.5 82.32"/>
      <path fill="none" d="M102.8,5 L 102.8 82.32"/>
      <path fill="none" d="M124.1,5 L 124.1 82.32"/>
      <path fill="none" d="M145.4,5 L 145.4 82.32"/>
    </g>
    <g class="plotpanel" id="img-733cdf9b-9">
      <g class="geometry" id="img-733cdf9b-10">
        <g class="color_RGBA{Float32}(0.875f0,0.6171875f0,0.09765625f0,1.0f0)" stroke="#FFFFFF" stroke-width="0.3" fill="#DF9D19" id="img-733cdf9b-11">
          <use xlink:href="#img-733cdf9b-12" x="28.24" y="68.1"/>
          <use xlink:href="#img-733cdf9b-12" x="38.89" y="55.88"/>
          <use xlink:href="#img-733cdf9b-12" x="49.54" y="43.66"/>
          <use xlink:href="#img-733cdf9b-12" x="60.19" y="31.44"/>
          <use xlink:href="#img-733cdf9b-12" x="70.85" y="19.22"/>
          <use xlink:href="#img-733cdf9b-12" x="81.5" y="68.1"/>
          <use xlink:href="#img-733cdf9b-12" x="92.15" y="55.88"/>
          <use xlink:href="#img-733cdf9b-12" x="102.8" y="43.66"/>
          <use xlink:href="#img-733cdf9b-12" x="113.45" y="31.44"/>
          <use xlink:href="#img-733cdf9b-12" x="124.1" y="19.22"/>
          <use xlink:href="#img-733cdf9b-12" x="134.75" y="68.1"/>
        </g>
      </g>
      <g stroke-width="0.3" fill="#000000" fill-opacity="0.000" class="geometry" stroke-dasharray="none" stroke="#2D637F" id="img-733cdf9b-13">
        <path fill="none" d="M22.92,68.16 L 23.13 68.17 23.34 68.19 23.56 68.2 23.77 68.22 23.98 68.23 24.2 68.25 24.41 68.26 24.62 68.27 24.83 68.28 25.05 68.29 25.26 68.3 25.47 68.31 25.69 68.31 25.9 68.31 26.11 68.31 26.33 68.31 26.54 68.3 26.75 68.29 26.97 68.28 27.18 68.26 27.39 68.24 27.6 68.21 27.82 68.18 28.03 68.14 28.24 68.1 28.46 68.05 28.67 67.99 28.88 67.93 29.1 67.86 29.31 67.79 29.52 67.7 29.73 67.61 29.95 67.52 30.16 67.41 30.37 67.3 30.59 67.18 30.8 67.04 31.01 66.91 31.23 66.76 31.44 66.6 31.65 66.43 31.86 66.26 32.08 66.07 32.29 65.88 32.5 65.68 32.72 65.46 32.93 65.24 33.14 65.01 33.36 64.77 33.57 64.52 33.78 64.26 33.99 63.99 34.21 63.71 34.42 63.42 34.63 63.13 34.85 62.82 35.06 62.51 35.27 62.19 35.49 61.86 35.7 61.53 35.91 61.19 36.12 60.84 36.34 60.48 36.55 60.12 36.76 59.75 36.98 59.38 37.19 59.01 37.4 58.63 37.62 58.24 37.83 57.85 38.04 57.46 38.25 57.07 38.47 56.67 38.68 56.27 38.89 55.88 39.11 55.48 39.32 55.08 39.53 54.68 39.75 54.29 39.96 53.89 40.17 53.5 40.38 53.11 40.6 52.73 40.81 52.35 41.02 51.97 41.24 51.6 41.45 51.23 41.66 50.87 41.88 50.52 42.09 50.17 42.3 49.83 42.51 49.49 42.73 49.17 42.94 48.85 43.15 48.54 43.37 48.25 43.58 47.96 43.79 47.68 44.01 47.4 44.22 47.14 44.43 46.89 44.65 46.65 44.86 46.42 45.07 46.2 45.28 45.99 45.5 45.79 45.71 45.6 45.92 45.42 46.14 45.25 46.35 45.09 46.56 44.94 46.78 44.8 46.99 44.67 47.2 44.55 47.41 44.43 47.63 44.33 47.84 44.23 48.05 44.14 48.27 44.05 48.48 43.97 48.69 43.9 48.91 43.83 49.12 43.77 49.33 43.71 49.54 43.66 49.76 43.6 49.97 43.55 50.18 43.5 50.4 43.46 50.61 43.41 50.82 43.36 51.04 43.3 51.25 43.25 51.46 43.19 51.67 43.13 51.89 43.07 52.1 43 52.31 42.92 52.53 42.84 52.74 42.75 52.95 42.65 53.17 42.54 53.38 42.42 53.59 42.29 53.8 42.15 54.02 42 54.23 41.84 54.44 41.67 54.66 41.48 54.87 41.28 55.08 41.06 55.3 40.83 55.51 40.59 55.72 40.33 55.93 40.05 56.15 39.76 56.36 39.46 56.57 39.14 56.79 38.8 57 38.45 57.21 38.08 57.43 37.69 57.64 37.29 57.85 36.88 58.06 36.45 58.28 36 58.49 35.55 58.7 35.07 58.92 34.59 59.13 34.09 59.34 33.58 59.56 33.06 59.77 32.53 59.98 31.99 60.19 31.44 60.41 30.88 60.62 30.32 60.83 29.75 61.05 29.17 61.26 28.59 61.47 28.01 61.69 27.42 61.9 26.84 62.11 26.26 62.33 25.68 62.54 25.1 62.75 24.53 62.96 23.96 63.18 23.41 63.39 22.86 63.6 22.32 63.82 21.79 64.03 21.28 64.24 20.78 64.46 20.3 64.67 19.83 64.88 19.39 65.09 18.96 65.31 18.56 65.52 18.18 65.73 17.82 65.95 17.49 66.16 17.18 66.37 16.91 66.59 16.66 66.8 16.45 67.01 16.26 67.22 16.11 67.44 15.99 67.65 15.91 67.86 15.86 68.08 15.85 68.29 15.87 68.5 15.94 68.72 16.04 68.93 16.18 69.14 16.36 69.35 16.57 69.57 16.83 69.78 17.13 69.99 17.47 70.21 17.85 70.42 18.26 70.63 18.72 70.85 19.22 71.06 19.76 71.27 20.33 71.48 20.95 71.7 21.6 71.91 22.29 72.12 23.01 72.34 23.77 72.55 24.57 72.76 25.4 72.98 26.26 73.19 27.15 73.4 28.08 73.61 29.03 73.83 30.01 74.04 31.01 74.25 32.04 74.47 33.09 74.68 34.17 74.89 35.26 75.11 36.37 75.32 37.49 75.53 38.63 75.74 39.79 75.96 40.95 76.17 42.12 76.38 43.29 76.6 44.47 76.81 45.65 77.02 46.83 77.24 48.01 77.45 49.19 77.66 50.36 77.88 51.52 78.09 52.67 78.3 53.81 78.51 54.93 78.73 56.03 78.94 57.12 79.15 58.19 79.37 59.24 79.58 60.26 79.79 61.25 80.01 62.22 80.22 63.16 80.43 64.07 80.64 64.95 80.86 65.79 81.07 66.59 81.28 67.36 81.5 68.1 81.71 68.79 81.92 69.44 82.14 70.05 82.35 70.62 82.56 71.15 82.77 71.63 82.99 72.07 83.2 72.47 83.41 72.82 83.63 73.12 83.84 73.38 84.05 73.6 84.27 73.76 84.48 73.88 84.69 73.96 84.9 73.99 85.12 73.98 85.33 73.92 85.54 73.82 85.76 73.68 85.97 73.49 86.18 73.26 86.4 73 86.61 72.69 86.82 72.34 87.03 71.96 87.25 71.54 87.46 71.09 87.67 70.61 87.89 70.09 88.1 69.55 88.31 68.97 88.53 68.37 88.74 67.75 88.95 67.1 89.16 66.43 89.38 65.74 89.59 65.03 89.8 64.31 90.02 63.57 90.23 62.83 90.44 62.07 90.66 61.3 90.87 60.53 91.08 59.75 91.29 58.98 91.51 58.2 91.72 57.42 91.93 56.65 92.15 55.88 92.36 55.11 92.57 54.36 92.79 53.62 93 52.89 93.21 52.17 93.42 51.47 93.64 50.78 93.85 50.11 94.06 49.46 94.28 48.83 94.49 48.22 94.7 47.64 94.92 47.08 95.13 46.54 95.34 46.03 95.56 45.54 95.77 45.08 95.98 44.65 96.19 44.24 96.41 43.86 96.62 43.52 96.83 43.2 97.05 42.9 97.26 42.64 97.47 42.4 97.69 42.2 97.9 42.02 98.11 41.86 98.32 41.74 98.54 41.64 98.75 41.57 98.96 41.52 99.18 41.49 99.39 41.49 99.6 41.51 99.82 41.56 100.03 41.62 100.24 41.7 100.45 41.8 100.67 41.92 100.88 42.05 101.09 42.19 101.31 42.35 101.52 42.51 101.73 42.69 101.95 42.87 102.16 43.07 102.37 43.26 102.58 43.46 102.8 43.66 103.01 43.86 103.22 44.05 103.44 44.25 103.65 44.44 103.86 44.62 104.08 44.79 104.29 44.96 104.5 45.11 104.71 45.25 104.93 45.38 105.14 45.49 105.35 45.59 105.57 45.67 105.78 45.73 105.99 45.76 106.21 45.78 106.42 45.78 106.63 45.75 106.84 45.69 107.06 45.62 107.27 45.51 107.48 45.38 107.7 45.23 107.91 45.04 108.12 44.83 108.34 44.6 108.55 44.33 108.76 44.03 108.97 43.71 109.19 43.36 109.4 42.98 109.61 42.58 109.83 42.14 110.04 41.68 110.25 41.2 110.47 40.69 110.68 40.15 110.89 39.59 111.1 39.01 111.32 38.41 111.53 37.78 111.74 37.14 111.96 36.48 112.17 35.8 112.38 35.1 112.6 34.39 112.81 33.67 113.02 32.93 113.24 32.19 113.45 31.44 113.66 30.68 113.87 29.92 114.09 29.15 114.3 28.39 114.51 27.62 114.73 26.86 114.94 26.1 115.15 25.34 115.37 24.6 115.58 23.87 115.79 23.14 116 22.43 116.22 21.74 116.43 21.06 116.64 20.41 116.86 19.77 117.07 19.16 117.28 18.57 117.5 18.01 117.71 17.47 117.92 16.96 118.13 16.49 118.35 16.05 118.56 15.63 118.77 15.26 118.99 14.92 119.2 14.62 119.41 14.35 119.63 14.13 119.84 13.94 120.05 13.8 120.26 13.69 120.48 13.63 120.69 13.61 120.9 13.64 121.12 13.71 121.33 13.82 121.54 13.98 121.76 14.18 121.97 14.42 122.18 14.71 122.39 15.04 122.61 15.42 122.82 15.84 123.03 16.3 123.25 16.8 123.46 17.35 123.67 17.93 123.89 18.56 124.1 19.22 124.31 19.92 124.52 20.66 124.74 21.43 124.95 22.24 125.16 23.08 125.38 23.95 125.59 24.86 125.8 25.79 126.02 26.75 126.23 27.73 126.44 28.74 126.65 29.77 126.87 30.82 127.08 31.89 127.29 32.98 127.51 34.08 127.72 35.2 127.93 36.32 128.15 37.46 128.36 38.6 128.57 39.75 128.79 40.91 129 42.06 129.21 43.22 129.42 44.37 129.64 45.52 129.85 46.67 130.06 47.81 130.28 48.94 130.49 50.06 130.7 51.16 130.92 52.26 131.13 53.34 131.34 54.4 131.55 55.44 131.77 56.47 131.98 57.47 132.19 58.45 132.41 59.41 132.62 60.34 132.83 61.24 133.05 62.12 133.26 62.98 133.47 63.8 133.68 64.59 133.9 65.36 134.11 66.09 134.32 66.79 134.54 67.46 134.75 68.1 134.96 68.7 135.18 69.27 135.39 69.81 135.6 70.31 135.81 70.79 136.03 71.23 136.24 71.63 136.45 72 136.67 72.34 136.88 72.65 137.09 72.93 137.31 73.17 137.52 73.39 137.73 73.57 137.94 73.72 138.16 73.85 138.37 73.95 138.58 74.02 138.8 74.06 139.01 74.08 139.22 74.07 139.44 74.04 139.65 73.99 139.86 73.91 140.07 73.82"/>
      </g>
    </g>
  </g>
</g>
  <g class="guide ylabels" font-size="2.82" font-family="'PT Sans Caption','Helvetica Neue','Helvetica',sans-serif" fill="#6C606B" id="img-733cdf9b-14">
    <text x="14.59" y="80.32" text-anchor="end" dy="0.35em">-1</text>
    <text x="14.59" y="68.1" text-anchor="end" dy="0.35em">0</text>
    <text x="14.59" y="55.88" text-anchor="end" dy="0.35em">1</text>
    <text x="14.59" y="43.66" text-anchor="end" dy="0.35em">2</text>
    <text x="14.59" y="31.44" text-anchor="end" dy="0.35em">3</text>
    <text x="14.59" y="19.22" text-anchor="end" dy="0.35em">4</text>
    <text x="14.59" y="7" text-anchor="end" dy="0.35em">5</text>
  </g>
  <g font-size="3.88" font-family="'PT Sans','Helvetica Neue','Helvetica',sans-serif" fill="#564A55" stroke="#000000" stroke-opacity="0.000" id="img-733cdf9b-15">
    <text x="8.81" y="43.66" text-anchor="end" dy="0.35em">y</text>
  </g>
</g>
<defs>
  <clipPath id="img-733cdf9b-4">
  <path d="M15.59,5 L 147.4 5 147.4 82.32 15.59 82.32" />
</clipPath>
  <g id="img-733cdf9b-12">
    <circle cx="0" cy="0" r="0.9"/>
  </g>
</defs>
</svg>
