<?xml version="1.0" encoding="UTF-8"?>
<svg xmlns="http://www.w3.org/2000/svg"
     xmlns:xlink="http://www.w3.org/1999/xlink"
     xmlns:gadfly="http://www.gadflyjl.org/ns"
     version="1.2"
     width="152.4mm" height="101.6mm" viewBox="0 0 152.4 101.6"
     stroke="none"
     fill="#000000"
     stroke-width="0.3"
     font-size="3.88"
>
<g class="plotroot xscalable yscalable" id="img-1e423404-1">
  <g font-size="3.88" font-family="'PT Sans','Helvetica Neue','Helvetica',sans-serif" fill="#564A55" stroke="#000000" stroke-opacity="0.000" id="img-1e423404-2">
    <text x="83.57" y="89.99" text-anchor="middle" dy="0.6em">x</text>
  </g>
  <g class="guide xlabels" font-size="2.82" font-family="'PT Sans Caption','Helvetica Neue','Helvetica',sans-serif" fill="#6C606B" id="img-1e423404-3">
    <text x="21.75" y="83.32" text-anchor="middle" dy="0.6em">-6</text>
    <text x="42.35" y="83.32" text-anchor="middle" dy="0.6em">-4</text>
    <text x="62.96" y="83.32" text-anchor="middle" dy="0.6em">-2</text>
    <text x="83.57" y="83.32" text-anchor="middle" dy="0.6em">0</text>
    <text x="104.18" y="83.32" text-anchor="middle" dy="0.6em">2</text>
    <text x="124.79" y="83.32" text-anchor="middle" dy="0.6em">4</text>
    <text x="145.4" y="83.32" text-anchor="middle" dy="0.6em">6</text>
  </g>
<g clip-path="url(#img-1e423404-4)">
  <g id="img-1e423404-5">
    <g pointer-events="visible" opacity="1" fill="#000000" fill-opacity="0.000" stroke="#000000" stroke-opacity="0.000" class="guide background" id="img-1e423404-6">
      <rect x="19.75" y="5" width="127.65" height="77.32"/>
    </g>
    <g class="guide ygridlines xfixed" stroke-dasharray="0.5,0.5" stroke-width="0.2" stroke="#D0D0E0" id="img-1e423404-7">
      <path fill="none" d="M19.75,80.32 L 147.4 80.32"/>
      <path fill="none" d="M19.75,55.88 L 147.4 55.88"/>
      <path fill="none" d="M19.75,31.44 L 147.4 31.44"/>
      <path fill="none" d="M19.75,7 L 147.4 7"/>
    </g>
    <g class="guide xgridlines yfixed" stroke-dasharray="0.5,0.5" stroke-width="0.2" stroke="#D0D0E0" id="img-1e423404-8">
      <path fill="none" d="M21.75,5 L 21.75 82.32"/>
      <path fill="none" d="M42.35,5 L 42.35 82.32"/>
      <path fill="none" d="M62.96,5 L 62.96 82.32"/>
      <path fill="none" d="M83.57,5 L 83.57 82.32"/>
      <path fill="none" d="M104.18,5 L 104.18 82.32"/>
      <path fill="none" d="M124.79,5 L 124.79 82.32"/>
      <path fill="none" d="M145.4,5 L 145.4 82.32"/>
    </g>
    <g class="plotpanel" id="img-1e423404-9">
      <g stroke-width="0.3" fill="#000000" fill-opacity="0.000" class="geometry" stroke-dasharray="none" stroke="#2D637F" id="img-1e423404-10">
        <path fill="none" d="M26.9,58.71 L 27.1 58.71 27.31 58.7 27.52 58.69 27.72 58.66 27.93 58.62 28.13 58.57 28.34 58.5 28.55 58.43 28.75 58.35 28.96 58.25 29.16 58.15 29.37 58.03 29.58 57.91 29.78 57.78 29.99 57.64 30.19 57.49 30.4 57.33 30.61 57.17 30.81 57 31.02 56.82 31.23 56.64 31.43 56.45 31.64 56.26 31.84 56.07 32.05 55.88 32.26 55.68 32.46 55.48 32.67 55.29 32.87 55.09 33.08 54.9 33.29 54.7 33.49 54.51 33.7 54.33 33.9 54.15 34.11 53.97 34.32 53.8 34.52 53.64 34.73 53.48 34.93 53.34 35.14 53.2 35.35 53.07 35.55 52.95 35.76 52.84 35.97 52.75 36.17 52.66 36.38 52.59 36.58 52.53 36.79 52.48 37 52.44 37.2 52.42 37.41 52.41 37.61 52.42 37.82 52.43 38.03 52.47 38.23 52.51 38.44 52.57 38.64 52.65 38.85 52.74 39.06 52.84 39.26 52.95 39.47 53.08 39.67 53.21 39.88 53.36 40.09 53.53 40.29 53.7 40.5 53.88 40.71 54.07 40.91 54.28 41.12 54.49 41.32 54.7 41.53 54.93 41.74 55.16 41.94 55.39 42.15 55.63 42.35 55.88 42.56 56.12 42.77 56.37 42.97 56.62 43.18 56.86 43.38 57.11 43.59 57.35 43.8 57.59 44 57.83 44.21 58.06 44.42 58.28 44.62 58.5 44.83 58.71 45.03 58.91 45.24 59.1 45.45 59.28 45.65 59.45 45.86 59.6 46.06 59.74 46.27 59.87 46.48 59.99 46.68 60.09 46.89 60.17 47.09 60.24 47.3 60.29 47.51 60.32 47.71 60.34 47.92 60.34 48.12 60.32 48.33 60.28 48.54 60.23 48.74 60.16 48.95 60.07 49.16 59.96 49.36 59.83 49.57 59.69 49.77 59.53 49.98 59.36 50.19 59.16 50.39 58.96 50.6 58.73 50.8 58.5 51.01 58.25 51.22 57.99 51.42 57.71 51.63 57.43 51.83 57.13 52.04 56.83 52.25 56.52 52.45 56.2 52.66 55.88 52.86 55.55 53.07 55.22 53.28 54.89 53.48 54.55 53.69 54.22 53.9 53.89 54.1 53.56 54.31 53.24 54.51 52.92 54.72 52.61 54.93 52.31 55.13 52.02 55.34 51.74 55.54 51.47 55.75 51.21 55.96 50.98 56.16 50.75 56.37 50.54 56.57 50.36 56.78 50.19 56.99 50.04 57.19 49.91 57.4 49.8 57.6 49.72 57.81 49.65 58.02 49.62 58.22 49.6 58.43 49.61 58.64 49.65 58.84 49.71 59.05 49.8 59.25 49.91 59.46 50.05 59.67 50.21 59.87 50.4 60.08 50.62 60.28 50.86 60.49 51.12 60.7 51.41 60.9 51.72 61.11 52.05 61.31 52.41 61.52 52.78 61.73 53.18 61.93 53.59 62.14 54.02 62.35 54.46 62.55 54.92 62.76 55.39 62.96 55.88 63.17 56.37 63.38 56.87 63.58 57.38 63.79 57.89 63.99 58.41 64.2 58.92 64.41 59.44 64.61 59.95 64.82 60.46 65.02 60.96 65.23 61.45 65.44 61.93 65.64 62.39 65.85 62.85 66.05 63.28 66.26 63.7 66.47 64.09 66.67 64.46 66.88 64.81 67.09 65.12 67.29 65.41 67.5 65.67 67.7 65.9 67.91 66.09 68.12 66.25 68.32 66.37 68.53 66.45 68.73 66.49 68.94 66.49 69.15 66.45 69.35 66.36 69.56 66.23 69.76 66.05 69.97 65.83 70.18 65.56 70.38 65.24 70.59 64.88 70.79 64.47 71 64.01 71.21 63.5 71.41 62.94 71.62 62.34 71.83 61.69 72.03 60.99 72.24 60.25 72.44 59.46 72.65 58.63 72.86 57.75 73.06 56.83 73.27 55.88 73.47 54.88 73.68 53.85 73.89 52.78 74.09 51.67 74.3 50.53 74.5 49.37 74.71 48.17 74.92 46.95 75.12 45.71 75.33 44.45 75.53 43.16 75.74 41.86 75.95 40.55 76.15 39.23 76.36 37.9 76.57 36.56 76.77 35.22 76.98 33.88 77.18 32.55 77.39 31.22 77.6 29.9 77.8 28.59 78.01 27.29 78.21 26.02 78.42 24.76 78.63 23.53 78.83 22.32 79.04 21.14 79.24 20 79.45 18.89 79.66 17.81 79.86 16.77 80.07 15.78 80.28 14.83 80.48 13.92 80.69 13.06 80.89 12.26 81.1 11.5 81.31 10.8 81.51 10.15 81.72 9.56 81.92 9.03 82.13 8.56 82.34 8.15 82.54 7.8 82.75 7.51 82.95 7.29 83.16 7.13 83.37 7.03 83.57 7 83.78 7.03 83.98 7.13 84.19 7.29 84.4 7.51 84.6 7.8 84.81 8.15 85.02 8.56 85.22 9.03 85.43 9.56 85.63 10.15 85.84 10.8 86.05 11.5 86.25 12.26 86.46 13.06 86.66 13.92 86.87 14.83 87.08 15.78 87.28 16.77 87.49 17.81 87.69 18.89 87.9 20 88.11 21.14 88.31 22.32 88.52 23.53 88.72 24.76 88.93 26.02 89.14 27.29 89.34 28.59 89.55 29.9 89.76 31.22 89.96 32.55 90.17 33.88 90.37 35.22 90.58 36.56 90.79 37.9 90.99 39.23 91.2 40.55 91.4 41.86 91.61 43.16 91.82 44.45 92.02 45.71 92.23 46.95 92.43 48.17 92.64 49.37 92.85 50.53 93.05 51.67 93.26 52.78 93.46 53.85 93.67 54.88 93.88 55.88 94.08 56.83 94.29 57.75 94.5 58.63 94.7 59.46 94.91 60.25 95.11 60.99 95.32 61.69 95.53 62.34 95.73 62.94 95.94 63.5 96.14 64.01 96.35 64.47 96.56 64.88 96.76 65.24 96.97 65.56 97.17 65.83 97.38 66.05 97.59 66.23 97.79 66.36 98 66.45 98.21 66.49 98.41 66.49 98.62 66.45 98.82 66.37 99.03 66.25 99.24 66.09 99.44 65.9 99.65 65.67 99.85 65.41 100.06 65.12 100.27 64.81 100.47 64.46 100.68 64.09 100.88 63.7 101.09 63.28 101.3 62.85 101.5 62.39 101.71 61.93 101.91 61.45 102.12 60.96 102.33 60.46 102.53 59.95 102.74 59.44 102.95 58.92 103.15 58.41 103.36 57.89 103.56 57.38 103.77 56.87 103.98 56.37 104.18 55.88 104.39 55.39 104.59 54.92 104.8 54.46 105.01 54.02 105.21 53.59 105.42 53.18 105.62 52.78 105.83 52.41 106.04 52.05 106.24 51.72 106.45 51.41 106.65 51.12 106.86 50.86 107.07 50.62 107.27 50.4 107.48 50.21 107.69 50.05 107.89 49.91 108.1 49.8 108.3 49.71 108.51 49.65 108.72 49.61 108.92 49.6 109.13 49.62 109.33 49.65 109.54 49.72 109.75 49.8 109.95 49.91 110.16 50.04 110.36 50.19 110.57 50.36 110.78 50.54 110.98 50.75 111.19 50.98 111.39 51.21 111.6 51.47 111.81 51.74 112.01 52.02 112.22 52.31 112.43 52.61 112.63 52.92 112.84 53.24 113.04 53.56 113.25 53.89 113.46 54.22 113.66 54.55 113.87 54.89 114.07 55.22 114.28 55.55 114.49 55.88 114.69 56.2 114.9 56.52 115.1 56.83 115.31 57.13 115.52 57.43 115.72 57.71 115.93 57.99 116.13 58.25 116.34 58.5 116.55 58.73 116.75 58.96 116.96 59.16 117.17 59.36 117.37 59.53 117.58 59.69 117.78 59.83 117.99 59.96 118.2 60.07 118.4 60.16 118.61 60.23 118.81 60.28 119.02 60.32 119.23 60.34 119.43 60.34 119.64 60.32 119.84 60.29 120.05 60.24 120.26 60.17 120.46 60.09 120.67 59.99 120.88 59.87 121.08 59.74 121.29 59.6 121.49 59.45 121.7 59.28 121.91 59.1 122.11 58.91 122.32 58.71 122.52 58.5 122.73 58.28 122.94 58.06 123.14 57.83 123.35 57.59 123.55 57.35 123.76 57.11 123.97 56.86 124.17 56.62 124.38 56.37 124.58 56.12 124.79 55.88 125 55.63 125.2 55.39 125.41 55.16 125.62 54.93 125.82 54.7 126.03 54.49 126.23 54.28 126.44 54.07 126.65 53.88 126.85 53.7 127.06 53.53 127.26 53.36 127.47 53.21 127.68 53.08 127.88 52.95 128.09 52.84 128.29 52.74 128.5 52.65 128.71 52.57 128.91 52.51 129.12 52.47 129.32 52.43 129.53 52.42 129.74 52.41 129.94 52.42 130.15 52.44 130.36 52.48 130.56 52.53 130.77 52.59 130.97 52.66 131.18 52.75 131.39 52.84 131.59 52.95 131.8 53.07 132 53.2 132.21 53.34 132.42 53.48 132.62 53.64 132.83 53.8 133.03 53.97 133.24 54.15 133.45 54.33 133.65 54.51 133.86 54.7 134.06 54.9 134.27 55.09 134.48 55.29 134.68 55.48 134.89 55.68 135.1 55.88 135.3 56.07 135.51 56.26 135.71 56.45 135.92 56.64 136.13 56.82 136.33 57 136.54 57.17 136.74 57.33 136.95 57.49 137.16 57.64 137.36 57.78 137.57 57.91 137.77 58.03 137.98 58.15 138.19 58.25 138.39 58.35 138.6 58.43 138.81 58.5 139.01 58.57 139.22 58.62 139.42 58.66 139.63 58.69 139.84 58.7 140.04 58.71 140.25 58.71"/>
      </g>
    </g>
  </g>
</g>
  <g class="guide ylabels" font-size="2.82" font-family="'PT Sans Caption','Helvetica Neue','Helvetica',sans-serif" fill="#6C606B" id="img-1e423404-11">
    <text x="18.74" y="80.32" text-anchor="end" dy="0.35em">-0.5</text>
    <text x="18.74" y="55.88" text-anchor="end" dy="0.35em">0.0</text>
    <text x="18.74" y="31.44" text-anchor="end" dy="0.35em">0.5</text>
    <text x="18.74" y="7" text-anchor="end" dy="0.35em">1.0</text>
  </g>
  <g font-size="3.88" font-family="'PT Sans','Helvetica Neue','Helvetica',sans-serif" fill="#564A55" stroke="#000000" stroke-opacity="0.000" id="img-1e423404-12">
    <text x="8.81" y="41.66" text-anchor="middle" dy="0.35em" transform="rotate(-90, 8.81, 43.66)">phi(x)</text>
  </g>
</g>
<defs>
  <clipPath id="img-1e423404-4">
  <path d="M19.75,5 L 147.4 5 147.4 82.32 19.75 82.32" />
</clipPath>
</defs>
</svg>
